<svg width="96" height="26" viewBox="0 0 96 26" fill="none" xmlns="http://www.w3.org/2000/svg"><g opacity=".3" clip-path="url(#a)" fill="#fff"><path d="M39.662 10.27c-.26-1.04-.918-1.8-2.204-1.8-1.898 0-2.692 1.71-2.692 3.446 0 1.735.794 3.446 2.692 3.446 1.377 0 2.133-1.05 2.256-2.369h1.513c-.124 2.167-1.624 3.66-3.767 3.66-2.654 0-4.241-2.153-4.241-4.738 0-2.585 1.582-4.743 4.236-4.743 1.996.012 3.57 1.14 3.757 3.092l-1.55.005ZM42.14 13.153c0-2.002 1.178-3.446 3.237-3.446s3.236 1.444 3.236 3.446c0 2.002-1.177 3.46-3.236 3.46s-3.236-1.445-3.236-3.46Zm5.06 0c0-1.127-.558-2.306-1.823-2.306s-1.823 1.178-1.823 2.306c0 1.127.558 2.32 1.823 2.32s1.823-1.18 1.823-2.32ZM49.828 7.387h1.414v1.368h-1.414V7.387Zm0 2.496h1.414v6.551h-1.414v-6.55ZM52.773 9.882h1.34v.963l.025.025c.203-.357.494-.653.845-.857.35-.205.748-.312 1.152-.31 1.389 0 2.269.76 2.269 2.23v4.498H56.99v-4.118c-.025-1.025-.422-1.469-1.252-1.469-.943 0-1.55.76-1.55 1.723v3.865h-1.415v-6.55ZM67.822 16.435h-.992l-.235-1.064c-.827.963-1.588 1.28-2.664 1.28-2.652.001-4.243-2.158-4.243-4.74 0-2.582 1.59-4.74 4.241-4.74 1.93 0 3.559 1.052 3.794 3.093H66.21c-.149-1.191-1.165-1.8-2.281-1.8-1.898 0-2.692 1.71-2.692 3.446 0 1.736.794 3.447 2.692 3.447 1.587.025 2.455-.95 2.48-2.484h-2.356v-1.202h3.767l.002 4.764ZM70.414 13.533c0 1.027.546 1.94 1.723 1.94.819 0 1.315-.369 1.562-1.09h1.34c-.31 1.43-1.5 2.23-2.902 2.23-2.008 0-3.137-1.433-3.137-3.447 0-1.863 1.194-3.459 3.1-3.459 2.022 0 3.262 1.862 3.026 3.826h-4.712Zm3.299-.95c-.05-.912-.658-1.736-1.612-1.736-.98 0-1.65.76-1.687 1.736h3.299ZM80.529 12.076c-.112-.799-.683-1.229-1.463-1.229-.735 0-1.762.393-1.762 2.382 0 1.09.472 2.243 1.699 2.243.819 0 1.39-.557 1.526-1.495h1.414c-.261 1.698-1.286 2.636-2.94 2.636-2.01 0-3.112-1.458-3.112-3.384 0-1.977 1.054-3.522 3.162-3.522 1.488 0 2.756.76 2.89 2.37h-1.414ZM83.14 7.387h1.414v5.144l2.555-2.648h1.737L86.39 12.29l2.69 4.144h-1.726l-1.96-3.18-.843.835v2.347h-1.41v-9.05ZM89.46 13.153c0-2.002 1.179-3.446 3.237-3.446 2.06 0 3.238 1.444 3.238 3.446 0 2.002-1.179 3.46-3.238 3.46-2.058 0-3.236-1.445-3.236-3.46Zm5.06 0c0-1.127-.558-2.306-1.823-2.306s-1.822 1.178-1.822 2.306c0 1.127.557 2.32 1.822 2.32 1.265 0 1.824-1.18 1.824-2.32Z"/><g clip-path="url(#b)"><path fill-rule="evenodd" clip-rule="evenodd" d="M23.25 20.137a13.157 13.157 0 0 0 2.105-7.206 13.095 13.095 0 0 0-3.753-9.142 12.54 12.54 0 0 0-8.98-3.754A12.488 12.488 0 0 0 5.588 2.25 12.9 12.9 0 0 0 .944 8.084a13.215 13.215 0 0 0-.69 7.487 13.04 13.04 0 0 0 3.499 6.617 12.594 12.594 0 0 0 6.506 3.515c2.461.49 5.01.221 7.322-.77a12.744 12.744 0 0 0 5.668-4.796Zm-.794-.535a12.168 12.168 0 0 0 1.947-6.665 12.111 12.111 0 0 0-3.472-8.454 11.598 11.598 0 0 0-8.306-3.471A11.55 11.55 0 0 0 6.12 3.06a11.931 11.931 0 0 0-4.294 5.396 12.223 12.223 0 0 0-.637 6.924 12.06 12.06 0 0 0 3.236 6.12 11.647 11.647 0 0 0 6.018 3.25c2.276.452 4.632.204 6.77-.713a11.788 11.788 0 0 0 5.243-4.436Z"/><path d="M12.892 1.785a6.312 6.312 0 0 1 2.253 0c.753.122 1.48.37 2.152.737.67.375 1.247.885 1.822 1.363.575.477 1.148.966 1.692 1.501a8.726 8.726 0 0 1 1.444 1.784c.413.652.752 1.35 1.01 2.08.49 1.47.66 3.054.415 4.564h-.072c-.246-1.497-.578-2.923-1.103-4.28a16.893 16.893 0 0 0-.867-1.995 19.69 19.69 0 0 0-1.14-1.87 6.718 6.718 0 0 0-1.53-1.578c-.595-.433-1.28-.714-1.942-.98-.662-.267-1.319-.543-2.01-.746a25.007 25.007 0 0 0-2.125-.502v-.078Z"/><path fill-rule="evenodd" clip-rule="evenodd" d="M16.026 7.745c.886.358 1.76.711 2.605.96 6.095 1.697 3.108 5.707-1.027 7.874-5.098 2.662-2.839 8.208-2.839 8.208-6.605 1.437-11.17-3.919-11.593-4.837 1.106-2.08 1.166-4.156 1.221-6.06.093-3.22.172-5.95 5.266-7.384.99-.247 2.023-.158 3.069.093.947-.229 2.043-.242 2.626.275.402.349.6.634.652.863l.02.008Zm3.532 4.881a.509.509 0 0 0-.065-.633.487.487 0 0 0-.8.167.511.511 0 0 0 .11.547.49.49 0 0 0 .535.106.494.494 0 0 0 .22-.187Zm-6.647-1.3a2.352 2.352 0 0 0-.283-2.925 2.263 2.263 0 0 0-.735-.502 2.224 2.224 0 0 0-2.128.214 2.307 2.307 0 0 0-.835 1.04c-.171.423-.216.89-.129 1.338.088.45.304.863.621 1.187.317.323.721.544 1.161.633.44.09.896.044 1.31-.132a2.28 2.28 0 0 0 1.018-.854Zm-.56-.362a1.654 1.654 0 0 0-.199-2.057 1.571 1.571 0 0 0-2.014-.203c-.262.18-.466.434-.587.732a1.662 1.662 0 0 0 .346 1.775 1.563 1.563 0 0 0 1.738.353c.291-.123.54-.332.715-.6Zm7.103 3.763c.691-.348 1.37-.74 1.94-1.272l-.024-.03c-.597.489-1.29.832-1.992 1.127-.7.297-1.427.527-2.169.685a9.766 9.766 0 0 1-2.232.188c-.739-.022-1.481-.172-2.124-.598l-.025.03c.525.606 1.334.88 2.126.954.792.073 1.574-.076 2.323-.274.75-.2 1.478-.471 2.177-.81Z"/></g></g><defs><clipPath id="a"><path fill="#fff" d="M0 0h96v26H0z"/></clipPath><clipPath id="b"><rect y=".035" width="25.355" height="25.906" rx="12.678" fill="#fff"/></clipPath></defs></svg>