<svg version="1.1" stroke="currentColor" xmlns="http://www.w3.org/2000/svg"
    xmlns:xlink="http://www.w3.org/1999/xlink" x="0px" y="0px" viewBox="0 0 40 40"
    style="enable-background:new 0 0 40 40;" xml:space="preserve">
    <path style="fill:none; stroke-width:1.5;" opacity="0.6"
        d="M39.25,20c0,10.63-8.62,19.25-19.25,19.25S0.75,30.63,0.75,20S9.37,0.75,20,0.75S39.25,9.37,39.25,20z" />
    <path style="fill:none; stroke-width:2; stroke-linecap:round; stroke-linejoin:round;" d="M26.43,28.01l-1.73,0.44c-0.51,0.13-1.03,0.2-1.55,0.2h-1.36c-4.54,0-8.21-3.68-8.21-8.21l0,0
	c0-4.54,3.68-8.21,8.21-8.21H23c0.58,0,1.16,0.08,1.72,0.24l1.52,0.44" />
    <line style="fill:none; stroke-width:2; stroke-linecap:round; stroke-linejoin:round;" x1="14.05" y1="29.97"
        x2="22.42" y2="7.67" />
    <line style="fill:none; stroke-width:2; stroke-linecap:round; stroke-linejoin:round;" x1="17.12" y1="31.13"
        x2="25.5" y2="8.82" />
</svg>
