<svg width="60" height="25" viewBox="0 0 60 25" fill="none" xmlns="http://www.w3.org/2000/svg"><g opacity=".2" clip-path="url(#a)"><path d="M24.536 16.477h-.026c.012 0 .02.013.032.014h.007l-.013-.013v-.002Zm.006.014c-.124.001-.433.066-.76.066-1.033 0-1.39-.476-1.39-1.099v-4.146h2.105c.119 0 .211-.106.211-.251V8.81c0-.12-.105-.225-.211-.225H22.39V5.79c0-.106-.066-.172-.185-.172h-2.86c-.12 0-.186.066-.186.172v2.873s-1.443.358-1.536.37a.227.227 0 0 0-.172.226v1.8c0 .146.106.252.225.252h1.47v4.344c0 3.23 2.251 3.562 3.787 3.562.702 0 1.55-.226 1.682-.292.08-.026.119-.119.119-.212v-1.986a.235.235 0 0 0-.193-.238v.001Zm31.376-2.914c0-2.397-.966-2.715-1.986-2.609-.794.053-1.43.45-1.43.45v4.661s.649.45 1.615.477c1.364.04 1.801-.45 1.801-2.98Zm3.218-.212c0 4.542-1.47 5.84-4.039 5.84-2.171 0-3.336-1.1-3.336-1.1s-.053.61-.12.689c-.04.08-.106.106-.185.106h-1.96c-.132 0-.251-.106-.251-.225l.026-14.712c0-.119.106-.225.225-.225h2.82c.12 0 .226.106.226.225v4.992s1.086-.701 2.675-.701l-.014-.027c1.59 0 3.933.596 3.933 5.138Zm-11.547-4.78h-2.78c-.146 0-.225.106-.225.251v7.204s-.729.516-1.722.516-1.284-.45-1.284-1.443v-6.29a.232.232 0 0 0-.225-.225h-2.834a.232.232 0 0 0-.225.225v6.766c0 2.913 1.629 3.642 3.867 3.642 1.84 0 3.336-1.02 3.336-1.02s.067.517.106.596c.027.066.12.12.212.12h1.775c.145 0 .225-.107.225-.226l.026-9.891c0-.12-.106-.225-.252-.225ZM16.207 8.57h-2.82c-.12 0-.225.12-.225.265v9.72c0 .264.172.357.397.357h2.543c.264 0 .33-.12.33-.358V8.797a.232.232 0 0 0-.225-.226Zm-1.39-4.475c-1.02 0-1.827.808-1.827 1.827 0 1.02.807 1.827 1.827 1.827.993 0 1.8-.807 1.8-1.827s-.807-1.827-1.8-1.827Zm21.835-.331h-2.794a.232.232 0 0 0-.225.225v5.416H29.25V3.99a.232.232 0 0 0-.225-.225h-2.82a.232.232 0 0 0-.225.225V18.7c0 .12.119.225.225.225h2.82c.12 0 .225-.106.225-.225v-6.29h4.383l-.026 6.29c0 .12.106.225.225.225h2.82c.12 0 .225-.106.225-.225V3.99a.232.232 0 0 0-.225-.225Zm-24.986 6.514v7.601c0 .053-.014.146-.08.172 0 0-1.655 1.179-4.383 1.179C3.906 19.23 0 18.198 0 11.39c0-6.805 3.416-8.209 6.753-8.196 2.887 0 4.052.65 4.237.768.053.067.08.12.08.186l-.556 2.357c0 .119-.12.265-.265.225-.477-.146-1.192-.437-2.874-.437-1.946 0-4.038.556-4.038 4.939s1.986 4.9 3.416 4.9c1.218 0 1.655-.146 1.655-.146V12.94H6.462c-.146 0-.252-.106-.252-.225V10.28c0-.12.106-.226.252-.226h4.952c.146 0 .252.106.252.226Z" fill="#1F2348"/></g><defs><clipPath id="a"><path fill="#fff" transform="translate(0 .5)" d="M0 0h59.586v24H0z"/></clipPath></defs></svg>