<svg width="116" height="105" viewBox="0 0 116 105" fill="none" xmlns="http://www.w3.org/2000/svg">
<path d="M86.9652 32.4026C86.9652 52.0923 65.0432 70.57 59.3494 75.0374C58.967 75.3372 58.4959 75.5 58.0109 75.5C57.5259 75.5 57.0548 75.3372 56.6723 75.0374C50.9785 70.57 29.0522 52.0967 29.0522 32.3983C28.815 28.4302 29.3877 24.4552 30.7352 20.7178C32.0826 16.9804 34.1764 13.5596 36.8877 10.6655C39.5991 7.77152 42.8707 5.46551 46.5014 3.88931C50.1321 2.3131 54.0451 1.5 58 1.5C61.9549 1.5 65.8679 2.3131 69.4986 3.88931C73.1293 5.46551 76.4009 7.77152 79.1123 10.6655C81.8236 13.5596 83.9174 16.9804 85.2648 20.7178C86.6123 24.4552 87.185 28.4302 86.9478 32.3983L86.9652 32.4026Z" stroke="#1F2348" stroke-width="3" stroke-linecap="round" stroke-linejoin="round"/>
<path opacity="0.4" d="M58 42C64.6274 42 70 36.6274 70 30C70 23.3726 64.6274 18 58 18C51.3726 18 46 23.3726 46 30C46 36.6274 51.3726 42 58 42Z" stroke="#1F2348" stroke-width="3" stroke-linecap="round" stroke-linejoin="round"/>
<ellipse opacity="0.4" cx="58" cy="96" rx="37" ry="8" fill="#1F2348"/>
</svg>
