<svg width="119" height="28" viewBox="0 0 119 28" fill="none" xmlns="http://www.w3.org/2000/svg"><g opacity=".2" fill="#1F2234"><circle cx="14.117" cy="17.441" r="7.059"/><path d="M25.668 22.738a14.048 14.048 0 0 0 2.567-8.12C28.235 6.82 21.915.5 14.118.5 6.32.5 0 6.82 0 14.618c0 3.022.949 5.824 2.567 8.12a12.643 12.643 0 0 1-1.155-5.297c0-7.017 5.688-12.706 12.706-12.706 7.017 0 12.705 5.69 12.705 12.706 0 1.891-.413 3.684-1.155 5.297ZM86.788 10.843h-1.764c-1.632-2.62-4.575-3.034-6.183-.861-1.15 1.546-1.226 3.277-.523 5.027a3.69 3.69 0 0 0 4.456 2.182c1.16-.28 1.755-1.113 2.216-2.12h1.812a4.456 4.456 0 0 1-2.777 3.418c-3.557 1.47-7.228-.475-7.956-4.237-.899-4.617 2.806-8.212 7.295-7.061 1.821.47 2.948 1.66 3.424 3.652ZM118.568 18.655h-1.679v-3.3c0-.666-.028-1.332-.085-1.992a1.506 1.506 0 0 0-1.251-1.503c-.842-.167-1.65 0-2.069.775-.32.62-.508 1.3-.551 1.997-.086 1.318-.024 2.644-.024 4.023h-1.721V6.543c.275-.028.542-.076.803-.08.262-.005.533.033.875.061v5.07c1.046-1.032 2.135-1.427 3.405-1.16 1.27.265 2.23 1.13 2.283 2.477.066 1.873.014 3.752.014 5.744ZM69.03 18.75h-1.493l-.31-.865c-1.017 1.084-2.235 1.232-3.528 1.032a2.149 2.149 0 0 1-1.93-1.93 2.078 2.078 0 0 1 1.397-2.326c.864-.26 1.742-.47 2.63-.628.452-.1.899-.209 1.308-.304.124-1.15-.119-1.645-.86-1.902-1.085-.333-1.903.062-2.588 1.317h-1.355a2.197 2.197 0 0 1 1.488-2.378 4.818 4.818 0 0 1 3.69 0 2.316 2.316 0 0 1 1.537 2.183c.052 1.902.014 3.776.014 5.802Zm-1.864-3.903c-.842.161-1.698.304-2.535.475a1.151 1.151 0 0 0-1.013 1.246c.038.618.561 1.013 1.341 1.056 1.655.109 2.682-1.18 2.207-2.777ZM52.019 18.665h-1.531l-.21-.827c-.11.041-.213.097-.309.166-1.041 1.07-2.297 1.156-3.6.661-1.303-.494-1.726-1.631-1.74-2.93v-5.111h1.717c.023.394.061.808.071 1.217 0 1.293 0 2.587.038 3.876.052 1.05.552 1.612 1.427 1.769a1.902 1.902 0 0 0 2.154-1.256 6.469 6.469 0 0 0 .29-1.835c.043-1.242 0-2.483 0-3.805h1.712l-.02 8.075ZM54.98 18.646h-1.722v-8.013h1.517l.228.951a3.186 3.186 0 0 1 3.13-1.18c1.34.181 2.168.861 2.439 2.179.124.732.18 1.473.166 2.216v3.524c-.02.103-.051.203-.095.3H58.95v-2.569c0-.851.024-1.726-.038-2.582-.066-.951-.518-1.465-1.27-1.626a1.826 1.826 0 0 0-2.135.87 5.023 5.023 0 0 0-.475 1.902c-.105 1.317-.053 2.644-.053 4.028ZM109.765 12.72h-1.426c-.79-1.036-1.598-1.369-2.687-1.055-.519.152-.951.423-1.004 1.018-.052.594.476.884.98.998.727.172 1.479.243 2.211.395 1.455.29 2.14.951 2.197 2.074.067 1.26-.704 2.197-2.13 2.572a5.84 5.84 0 0 1-3.495-.09 2.184 2.184 0 0 1-1.665-2.126h1.512c.585 1.18 1.66 1.398 2.934 1.094.595-.143 1.018-.447 1.032-1.103.015-.656-.475-.866-.994-.985-.922-.209-1.873-.314-2.772-.585-1.265-.38-1.831-1.331-1.427-2.544a2.855 2.855 0 0 1 1.185-1.474 4.704 4.704 0 0 1 4.332-.076 1.903 1.903 0 0 1 1.217 1.888ZM101.504 18.674h-1.474l-.205-.898a1.219 1.219 0 0 0-.285.166c-1.018 1.113-2.268 1.208-3.586.747-1.317-.462-1.76-1.517-1.783-2.782-.033-1.722 0-3.448 0-5.265h1.67c.023.39.066.8.075 1.213 0 1.298-.028 2.592.057 3.885.076 1.118.638 1.67 1.56 1.765a1.954 1.954 0 0 0 2.073-1.427c.154-.566.234-1.15.238-1.736.034-1.213 0-2.425 0-3.723h1.66v8.055ZM37.721 17.134h5.707v1.512H36V7.29h1.721v9.844ZM89.672 18.65h-1.73v-8.036h1.526l.261.756c.437-.349.916-.64 1.427-.865.63-.09 1.27-.102 1.902-.034l-.447 1.627-.642-.057c-1.15-.105-1.826.285-2.092 1.398a11.77 11.77 0 0 0-.21 2.32c-.018.933.005 1.865.005 2.892ZM70.297 10.595h1.493l.186.899c.922-.909 1.902-1.498 3.3-.804l-.343 1.298c-.138.057-.214.114-.28.105-1.726-.19-2.435.295-2.625 1.992-.119 1.047-.067 2.107-.081 3.163v1.37h-1.65v-8.023Z"/></g></svg>