<svg xmlns="http://www.w3.org/2000/svg" fill="none" viewBox="0 0 32 14">
  <g clip-path="url(#icon-modal-tooltip)">
    <path fill="#fff" fill-rule="evenodd" d="M14.76 2.168a1.5 1.5 0 0 1 2.496 0l4.55 6.825a6.5 6.5 0 0 0 2.348 2.128c.946.505 1.773.88 2.846.879h5v2H0v-2h5c1.07 0 1.92-.37 2.864-.874A6.5 6.5 0 0 0 10.205 9l4.554-6.832h.001Z" clip-rule="evenodd"/>
    <path stroke="currentColor" d="M0 11.5h5c.988 0 1.753-.35 2.624-.816a6 6 0 0 0 2.161-1.962L14.34 1.89a2 2 0 0 1 3.328 0l4.55 6.825a6.002 6.002 0 0 0 2.167 1.965c.874.466 1.625.822 2.615.82h5"/>
  </g>
  <defs>
    <clipPath id="icon-modal-tooltip">
      <path fill="#fff" d="M0 0h32v14H0z"/>
    </clipPath>
  </defs>
</svg>
