<svg version="1.1" stroke="currentColor" xmlns="http://www.w3.org/2000/svg" xmlns:xlink="http://www.w3.org/1999/xlink"
  x="0px" y="0px" viewBox="0 0 40 40" xml:space="preserve">
  <path style="fill:none; stroke-width:2; stroke-linecap:round; stroke-linejoin:round;" d="M31.43,19l-4.87-8.68c-0.35-0.62-0.99-1-1.69-1h-9.74c-0.69,0-1.34,0.38-1.69,1L8.57,19
	c-0.35,0.62-0.35,1.38,0,2l4.87,8.68c0.35,0.62,0.99,1,1.69,1h9.74c0.69,0,1.34-0.38,1.69-1L31.43,21
	C31.78,20.38,31.78,19.62,31.43,19z" />
  <path style="fill:none; stroke-width:1.5;" opacity="0.6"
    d="M39.25,20c0,10.63-8.62,19.25-19.25,19.25S0.75,30.63,0.75,20S9.37,0.75,20,0.75S39.25,9.37,39.25,20z" />
</svg>
