<svg xmlns="http://www.w3.org/2000/svg" width="245" height="180" fill="none" viewBox="0 0 245 180">
    <path fill="#fff" fill-rule="evenodd" d="M238.481 31.26c2.107 7.864-.455 15.877-5.986 21.099-1.843 1.74-2.286 4.742-.521 6.56l3.231 3.326a3.835 3.835 0 0 1 .535 4.646l-33.353 55.445a3.916 3.916 0 0 1-.421.573c-.229.257-.389.577-.389.922a1.17 1.17 0 0 0 1.17 1.169h30.436c4.317 0 7.817 3.5 7.817 7.817v23.366c0 4.317-3.5 7.817-7.817 7.817H49.399c-21.094 1.72-41.058-11.804-46.73-32.974-6.386-23.832 7.756-48.327 31.587-54.713 15.068-4.037 30.402.132 41.255 9.768 2.392 2.124 6.488 1.22 7.304-1.873l3.678-13.952a7.384 7.384 0 0 1 1.916-3.37 7.563 7.563 0 0 1 3.378-1.968l36.276-9.72a7.515 7.515 0 0 1 7.267 1.973l5.733 5.779c2.063 2.08 5.6 1.213 6.468-1.586l2.327-7.504a3.823 3.823 0 0 1 2.709-2.575l40.704-10.357c1.941-.494 3.148-2.39 3.171-4.392.108-9.345 6.382-17.857 15.852-20.394 11.407-3.057 23.131 3.712 26.187 15.119Z" clip-rule="evenodd"/>
    <path fill="#E2E2E2" d="m238.481 31.26-.75.202.75-.201Zm-3.276 30.985.557-.54-.557.54Zm.535 4.646-.666-.4.666.4Zm-33.353 55.445.665.4-.665-.4ZM49.399 164v-.777h-.032l-.031.003.063.774Zm-46.73-32.974-.751.201.75-.201Zm31.587-54.713-.2-.75.2.75Zm52.237-6.057.752.198.001-.006-.752-.192Zm1.916-3.37-.551-.548.551.547Zm3.378-1.968-.2-.75h-.004l.204.75Zm36.276-9.72-.201-.75.201.75Zm7.267 1.973.551-.547-.002-.002-.549.549Zm14.528-3.311-.742-.23.742.23Zm2.709-2.575.191.753-.191-.752Zm59.727-35.143.201.75-.201-.75Zm-19.023 24.786.192.753-.192-.753Zm3.171-4.392-.777-.009.777.01ZM82.815 84.208l.751.198-.751-.198Zm58.248-21.258-.552.547.552-.547Zm6.468-1.586-.743-.23.743.23Zm54.435 61.545.58.516-.58-.516Zm30.529-70.55-.533-.565.533.565Zm-.521 6.56-.557.541.557-.541Zm1.054-5.995c5.731-5.41 8.387-13.715 6.204-21.864l-1.501.402c2.03 7.576-.437 15.299-5.769 20.332l1.066 1.13Zm2.734 8.78-3.23-3.326-1.115 1.082 3.23 3.327 1.115-1.083Zm.643 5.588a4.61 4.61 0 0 0-.643-5.588l-1.115 1.083a3.058 3.058 0 0 1 .427 3.704l1.331.8Zm-33.353 55.444 33.353-55.444-1.331-.801-33.353 55.444 1.331.801Zm-.506.689c.187-.21.357-.44.506-.689l-1.331-.801c-.1.166-.213.319-.336.458l1.161 1.032Zm30.637.798h-30.436v1.554h30.436v-1.554Zm8.594 8.594a8.594 8.594 0 0 0-8.594-8.594v1.554a7.04 7.04 0 0 1 7.04 7.04h1.554Zm0 23.366v-23.366h-1.554v23.366h1.554Zm-8.594 8.594a8.594 8.594 0 0 0 8.594-8.594h-1.554a7.04 7.04 0 0 1-7.04 7.04v1.554Zm-183.784 0h183.784v-1.554H49.399v1.554Zm-47.481-33.55C7.689 152.766 28 166.525 49.462 164.774l-.126-1.548c-20.727 1.69-40.344-11.6-45.917-32.401l-1.501.402Zm32.137-55.664C9.81 82.059-4.579 106.98 1.918 131.227l1.5-.402c-6.274-23.417 7.623-47.487 31.04-53.761l-.403-1.501ZM76.027 85.5c-11.04-9.802-26.64-14.045-41.972-9.937l.403 1.5c14.805-3.966 29.871.13 40.538 9.599l1.031-1.162Zm9.715-15.442L82.064 84.01l1.502.396 3.679-13.952-1.503-.396Zm2.116-3.72a8.16 8.16 0 0 0-2.117 3.726l1.505.384a6.606 6.606 0 0 1 1.715-3.016l-1.103-1.094Zm3.725-2.17a8.34 8.34 0 0 0-3.725 2.17l1.103 1.094a6.785 6.785 0 0 1 3.03-1.765l-.408-1.499Zm36.279-9.72-36.276 9.72.402 1.5 36.276-9.72-.402-1.5Zm8.017 2.174a8.29 8.29 0 0 0-8.017-2.175l.402 1.501a6.738 6.738 0 0 1 6.516 1.771l1.099-1.097Zm5.735 5.78-5.733-5.778-1.103 1.094 5.733 5.779 1.103-1.094Zm7.502-8.772-2.328 7.504 1.485.46 2.327-7.504-1.484-.46Zm3.259-3.097a4.6 4.6 0 0 0-3.259 3.097l1.484.46a3.047 3.047 0 0 1 2.158-2.052l-.383-1.505Zm40.704-10.358-40.704 10.358.383 1.505 40.705-10.357-.384-1.506Zm19.014-24.784c-9.815 2.63-16.316 11.452-16.428 21.136l1.554.018c.104-9.006 6.151-17.208 15.276-19.653l-.402-1.5Zm27.139 15.669c-3.168-11.821-15.318-18.836-27.139-15.669l.402 1.501c10.992-2.945 22.291 3.578 25.236 14.57l1.501-.402Zm-45.769 10.62c2.353-.598 3.73-2.86 3.756-5.135l-1.554-.018c-.02 1.73-1.056 3.259-2.586 3.648l.384 1.506ZM74.996 86.663c1.405 1.247 3.294 1.595 4.942 1.194 1.655-.404 3.136-1.584 3.628-3.45l-1.502-.396c-.324 1.227-1.298 2.045-2.493 2.336-1.203.293-2.557.03-3.544-.846l-1.031 1.162ZM200.8 123.831c0 1.075.872 1.946 1.947 1.946v-1.554a.393.393 0 0 1-.393-.392H200.8Zm-60.289-60.334c2.477 2.496 6.72 1.456 7.762-1.902l-1.485-.46c-.694 2.239-3.523 2.932-5.174 1.268l-1.103 1.094Zm60.874 58.896c-.314.353-.585.849-.585 1.438h1.554c0-.1.049-.245.192-.406l-1.161-1.032Zm30.577-70.599c-2.07 1.954-2.69 5.457-.545 7.666l1.115-1.082c-1.386-1.427-1.119-3.93.496-5.454l-1.066-1.13Z"/>
    <path fill="#F7931A" d="M72.378 118.305c.269 15.382-11.984 28.066-27.368 28.336-15.376.267-28.063-11.984-28.33-27.363-.27-15.381 11.981-28.067 27.36-28.336 15.382-.27 28.069 11.984 28.337 27.363Z"/>
    <path fill="#fff" d="M56.259 111.02c-.395-3.71-3.757-4.861-7.996-5.093l-.029-5.162-3.282.095.028 5.026c-.874.028-1.747.064-2.62.109l-.028-5.06-3.281.095.028 5.161c-.71.034-1.409.067-2.09.087v-.016l-4.527.13.02 3.355s2.423-.114 2.383-.07c1.33-.038 1.766.688 1.895 1.322l.033 5.881c.092-.002.212-.001.347.012l-.347.01.044 8.238c-.056.403-.298 1.048-1.228 1.077.043.034-2.385.068-2.385.068l-.632 3.772 4.272-.123c.795-.022 1.577-.032 2.345-.05l.03 5.221 3.279-.094-.03-5.167c.901-.007 1.772-.026 2.623-.051l.027 5.142 3.281-.095-.026-5.212c5.516-.462 9.371-1.905 9.824-6.879.365-4.005-1.607-5.731-4.744-6.361 1.898-.984 3.079-2.652 2.786-5.368Zm-4.533 11.296c.023 3.902-6.958 3.661-9.182 3.726l-.037-6.917c2.225-.063 9.198-.877 9.22 3.191Zm-1.58-9.713c.019 3.548-5.804 3.303-7.657 3.356l-.034-6.273c1.853-.054 7.67-.787 7.692 2.916v.001Z"/>
    <path fill="#7B1AF7" d="M79.652 138.22c6.502-1.742 10.361-8.426 8.619-14.928-1.742-6.502-8.426-10.361-14.928-8.619-6.502 1.743-10.361 8.426-8.619 14.928 1.742 6.503 8.426 10.361 14.928 8.619Z"/>
    <path fill="#fff" d="m71.454 128.072 6.036-8.867c.284-.31.668-.179.56.253l-1.185 5.598 4.468-1.197s.71-.191.156.584l-5.9 8.875c-.42.604-.862.455-.677-.356l1.135-5.45-4.425 1.186s-.71.19-.168-.626Z"/>
    <path fill="url(#a)" d="m145.781 89.227-16.487-16.675a4.642 4.642 0 0 0-4.495-1.228l-22.428 6.01a4.663 4.663 0 0 0-2.088 1.218 4.575 4.575 0 0 0-1.183 2.09l-5.94 22.685a4.763 4.763 0 0 0 1.216 4.541l16.487 16.673a4.57 4.57 0 0 0 2.07 1.219 4.65 4.65 0 0 0 2.417.012l22.428-6.01a4.66 4.66 0 0 0 2.088-1.219 4.565 4.565 0 0 0 1.183-2.09l5.941-22.683a4.741 4.741 0 0 0-1.209-4.543Z"/>
    <path fill="#009393" fill-rule="evenodd" d="m167.922 62.311 31.851-8.105a2.19 2.19 0 0 1 2.112.598l13.389 13.787a2.2 2.2 0 0 1 .307 2.663l-19.112 31.77a2.19 2.19 0 0 1-2.986.76l-31.929-18.746a2.197 2.197 0 0 1-.986-2.545l5.801-18.707a2.192 2.192 0 0 1 1.553-1.475Zm29.573.152 1.153 4.53-9.073 2.31.799 3.141c6.458-1.286 11.59-1.123 12.046.52l.876 3.446c.385 1.662-4.045 4.257-10.331 6.214l1.961 7.71-6.024 1.533-1.962-7.71c-6.458 1.286-11.59 1.124-12.046-.52l-.876-3.445c-.385-1.662 4.045-4.257 10.331-6.215l-.799-3.141-9.073 2.308-1.153-4.53 24.171-6.151Zm-8.145 18.56c6.8-1.73 12.188-4.342 13.182-6.253-1.515-1.02-6.046-.974-11.536.12l.837 3.288a59.087 59.087 0 0 1-6.024 1.534l-.837-3.29c-5.344 1.664-9.347 3.789-10.19 5.41 1.787 1.203 7.767.922 14.568-.808Z" clip-rule="evenodd"/>
    <path fill="#1F2348" d="m96.456 149.157 4.956-10.955h1.678l5.019 10.955h-2.035l-1.337-3.077.808.544h-6.572l.839-.544-1.337 3.077h-2.02Zm5.78-8.81-2.191 5.189-.404-.481h5.221l-.327.481-2.237-5.189h-.062Zm10.459 8.965c-.808 0-1.518-.166-2.129-.497a3.468 3.468 0 0 1-1.398-1.414c-.332-.622-.498-1.357-.498-2.207 0-.849.166-1.574.498-2.175a3.486 3.486 0 0 1 1.414-1.383c.6-.321 1.305-.481 2.113-.481.518 0 1.02.082 1.507.248.497.156.901.383 1.212.684l-.59 1.352a2.71 2.71 0 0 0-.948-.575 2.738 2.738 0 0 0-1.01-.202c-.694 0-1.238.217-1.632.652-.383.435-.575 1.067-.575 1.896s.192 1.466.575 1.911c.394.446.938.668 1.632.668.321 0 .652-.062.994-.186a2.87 2.87 0 0 0 .964-.575l.59 1.336c-.321.301-.73.534-1.228.7a4.613 4.613 0 0 1-1.491.248Zm7.864 0c-1.315 0-2.346-.362-3.092-1.088-.746-.725-1.119-1.719-1.119-2.983 0-.818.161-1.533.482-2.144a3.567 3.567 0 0 1 1.336-1.43c.581-.342 1.254-.512 2.02-.512.757 0 1.389.16 1.896.481.508.321.891.772 1.15 1.352.269.58.404 1.259.404 2.036v.512h-5.718v-1.025h4.335l-.264.217c0-.725-.156-1.279-.466-1.662-.301-.384-.741-.575-1.321-.575-.642 0-1.139.228-1.492.684-.342.455-.512 1.092-.512 1.911v.202c0 .849.207 1.486.621 1.911.425.414 1.02.621 1.787.621.445 0 .86-.057 1.243-.17a3.66 3.66 0 0 0 1.119-.591l.575 1.305a4.094 4.094 0 0 1-1.337.7 5.395 5.395 0 0 1-1.647.248Zm4.722 3.201v-9.245c0-.321-.011-.648-.031-.979a14.689 14.689 0 0 0-.094-.979h1.88l.171 1.647h-.171c.156-.549.482-.984.979-1.305.508-.332 1.093-.497 1.756-.497.694 0 1.3.165 1.818.497.518.321.922.787 1.212 1.398.29.601.435 1.326.435 2.176 0 .849-.145 1.579-.435 2.19-.29.612-.694 1.083-1.212 1.414-.518.322-1.124.482-1.818.482-.652 0-1.227-.16-1.725-.482a2.312 2.312 0 0 1-.994-1.289h.171v4.972h-1.942Zm3.946-4.693c.622 0 1.119-.212 1.492-.637.373-.435.559-1.087.559-1.957 0-.871-.186-1.518-.559-1.943-.373-.424-.87-.637-1.492-.637-.611 0-1.103.213-1.476.637-.373.425-.559 1.072-.559 1.943 0 .87.186 1.522.559 1.957.373.425.865.637 1.476.637Zm8.97 1.492c-.933 0-1.637-.243-2.114-.73-.476-.487-.714-1.217-.714-2.191v-3.62h-1.508v-1.461h1.508v-2.004l1.942-.498v2.502h2.098v1.461h-2.098v3.496c0 .538.103.916.311 1.134.207.217.492.326.854.326.197 0 .363-.015.497-.046a2.79 2.79 0 0 0 .42-.125v1.539a2.483 2.483 0 0 1-.59.155c-.208.041-.41.062-.606.062Zm5.561 0c-.684 0-1.285-.16-1.803-.482-.518-.331-.922-.802-1.212-1.414-.29-.611-.435-1.341-.435-2.19 0-.85.145-1.575.435-2.176.29-.611.694-1.077 1.212-1.398.518-.332 1.119-.497 1.803-.497.663 0 1.243.165 1.74.497a2.29 2.29 0 0 1 1.01 1.305h-.171l.171-1.647h1.865l-.094.979c-.02.331-.031.658-.031.979v5.889h-1.926l-.016-1.616h.187c-.166.538-.503.968-1.01 1.289a3.153 3.153 0 0 1-1.725.482Zm.544-1.492c.611 0 1.103-.212 1.476-.637.373-.435.559-1.087.559-1.957 0-.871-.186-1.518-.559-1.943-.373-.424-.865-.637-1.476-.637-.612 0-1.104.213-1.477.637-.372.425-.559 1.072-.559 1.943 0 .87.181 1.522.544 1.957.373.425.87.637 1.492.637Zm6.061 1.337v-5.889a15.472 15.472 0 0 0-.124-1.958h1.88l.156 1.554h-.187a2.69 2.69 0 0 1 .995-1.259c.455-.3.994-.45 1.616-.45.621 0 1.134.15 1.538.45.414.29.704.746.87 1.368h-.249c.218-.56.575-1 1.072-1.321.498-.332 1.067-.497 1.71-.497.88 0 1.538.259 1.973.776.435.518.653 1.326.653 2.424v4.802h-1.943v-4.724c0-.621-.103-1.067-.31-1.336-.208-.28-.539-.42-.995-.42-.539 0-.963.192-1.274.575-.311.373-.466.881-.466 1.523v4.382h-1.942v-4.724c0-.621-.104-1.067-.311-1.336-.207-.28-.539-.42-.995-.42-.538 0-.963.192-1.274.575-.3.373-.45.881-.45 1.523v4.382h-1.943Zm17.518.155c-.808 0-1.507-.166-2.097-.497a3.494 3.494 0 0 1-1.383-1.414c-.321-.611-.482-1.336-.482-2.175 0-.839.161-1.559.482-2.16a3.488 3.488 0 0 1 1.383-1.414c.59-.332 1.289-.497 2.097-.497s1.508.165 2.098.497a3.368 3.368 0 0 1 1.383 1.414c.331.601.497 1.321.497 2.16 0 .839-.166 1.564-.497 2.175a3.373 3.373 0 0 1-1.383 1.414c-.59.331-1.29.497-2.098.497Zm0-1.492c.612 0 1.098-.212 1.461-.637.363-.435.544-1.087.544-1.957 0-.871-.181-1.518-.544-1.943-.363-.424-.849-.637-1.461-.637-.611 0-1.098.213-1.46.637-.363.425-.544 1.072-.544 1.943 0 .87.181 1.522.544 1.957.362.425.849.637 1.46.637Zm8.45 1.492a7.093 7.093 0 0 1-1.865-.233c-.559-.166-1.03-.394-1.414-.684l.544-1.305a4.946 4.946 0 0 0 2.751.839c.517 0 .901-.088 1.149-.264a.823.823 0 0 0 .389-.715.68.68 0 0 0-.249-.559c-.155-.145-.409-.254-.761-.326l-1.554-.296c-.663-.145-1.171-.393-1.523-.745-.342-.353-.512-.814-.512-1.383 0-.487.129-.917.388-1.29.269-.373.647-.663 1.134-.87.497-.218 1.078-.326 1.741-.326.58 0 1.123.077 1.631.233a3.42 3.42 0 0 1 1.305.699l-.559 1.258a3.675 3.675 0 0 0-1.103-.606 3.662 3.662 0 0 0-1.212-.217c-.539 0-.933.098-1.181.295a.871.871 0 0 0-.373.73c0 .228.072.42.217.575.156.145.394.254.715.327l1.554.295c.694.135 1.217.373 1.569.715.363.331.544.787.544 1.367 0 .518-.14.963-.419 1.336-.28.373-.669.658-1.166.855-.497.197-1.077.295-1.74.295Zm12.856 0c-.808 0-1.517-.166-2.129-.497a3.474 3.474 0 0 1-1.398-1.414c-.331-.622-.497-1.357-.497-2.207 0-.849.166-1.574.497-2.175a3.492 3.492 0 0 1 1.414-1.383c.601-.321 1.305-.481 2.113-.481.518 0 1.021.082 1.507.248.498.156.902.383 1.212.684l-.59 1.352a2.71 2.71 0 0 0-.948-.575 2.734 2.734 0 0 0-1.01-.202c-.694 0-1.238.217-1.631.652-.384.435-.575 1.067-.575 1.896s.191 1.466.575 1.911c.393.446.937.668 1.631.668.321 0 .653-.062.995-.186.352-.124.673-.316.963-.575l.59 1.336c-.321.301-.73.534-1.227.7a4.619 4.619 0 0 1-1.492.248Zm4.21-.155v-5.843c0-.331-.011-.668-.032-1.01-.01-.341-.036-.673-.077-.994h1.88l.217 2.144h-.31c.103-.518.274-.948.512-1.289.249-.342.549-.596.902-.762a2.66 2.66 0 0 1 1.15-.248c.186 0 .336.01.45.031.114.01.228.036.342.077l-.016 1.71a2.138 2.138 0 0 0-.512-.156 3.447 3.447 0 0 0-.513-.031c-.446 0-.824.093-1.134.28a1.772 1.772 0 0 0-.684.777 2.8 2.8 0 0 0-.218 1.134v4.18h-1.957Zm6.115 0v-7.847h1.942v7.847h-1.942Zm-.109-9.323v-1.896h2.16v1.896h-2.16Zm4.161 12.679v-9.245a15.482 15.482 0 0 0-.125-1.958h1.88l.171 1.647h-.171c.156-.549.482-.984.979-1.305.508-.332 1.093-.497 1.756-.497.694 0 1.3.165 1.818.497.518.321.922.787 1.212 1.398.29.601.435 1.326.435 2.176 0 .849-.145 1.579-.435 2.19-.29.612-.694 1.083-1.212 1.414-.518.322-1.124.482-1.818.482-.653 0-1.227-.16-1.725-.482a2.312 2.312 0 0 1-.994-1.289h.171v4.972h-1.942Zm3.946-4.693c.622 0 1.119-.212 1.492-.637.373-.435.559-1.087.559-1.957 0-.871-.186-1.518-.559-1.943-.373-.424-.87-.637-1.492-.637-.611 0-1.103.213-1.476.637-.373.425-.559 1.072-.559 1.943 0 .87.186 1.522.559 1.957.373.425.865.637 1.476.637Zm8.969 1.492c-.932 0-1.636-.243-2.113-.73-.476-.487-.715-1.217-.715-2.191v-3.62h-1.507v-1.461h1.507v-2.004l1.943-.498v2.502h2.097v1.461h-2.097v3.496c0 .538.103.916.311 1.134.207.217.492.326.854.326.197 0 .363-.015.497-.046a2.79 2.79 0 0 0 .42-.125v1.539a2.48 2.48 0 0 1-.591.155 3.117 3.117 0 0 1-.606.062Zm5.999 0c-.808 0-1.508-.166-2.098-.497a3.494 3.494 0 0 1-1.383-1.414c-.321-.611-.482-1.336-.482-2.175 0-.839.161-1.559.482-2.16a3.488 3.488 0 0 1 1.383-1.414c.59-.332 1.29-.497 2.098-.497.808 0 1.507.165 2.097.497a3.368 3.368 0 0 1 1.383 1.414c.332.601.497 1.321.497 2.16 0 .839-.165 1.564-.497 2.175a3.373 3.373 0 0 1-1.383 1.414c-.59.331-1.289.497-2.097.497Zm0-1.492c.611 0 1.098-.212 1.46-.637.363-.435.544-1.087.544-1.957 0-.871-.181-1.518-.544-1.943-.362-.424-.849-.637-1.46-.637-.612 0-1.098.213-1.461.637-.363.425-.544 1.072-.544 1.943 0 .87.181 1.522.544 1.957.363.425.849.637 1.461.637Z"/>
    <path fill="#F5871F" d="M218.477 29.265h4.287c0 1.462-1.159 2.81-2.809 2.81h-4.279c-.009-1.479 1.184-2.81 2.801-2.81Z"/>
    <path fill="#D84332" d="M225.076 33.3c.008.025 2.14 3.708 2.14 3.708-1.266.735-3.022.408-3.847-1.037-.008-.025-2.139-3.708-2.139-3.708 1.306-.735 3.046-.367 3.846 1.037Z"/>
    <path fill="#28B9A2" d="M213.193 38.028c.008.024 2.14 3.708 2.14 3.708-1.266.735-3.022.408-3.847-1.038a1204.4 1204.4 0 0 0-2.14-3.707c1.299-.727 3.038-.352 3.847 1.037Z"/>
    <path fill="#E7B121" d="M214.851 33.103c-.008.025-2.139 3.708-2.139 3.708-1.266-.735-1.862-2.417-1.038-3.846.009-.025 2.14-3.708 2.14-3.708 1.29.76 1.838 2.45 1.037 3.846Z"/>
    <path fill="#1D2348" d="M224.904 41.04c-.009.025-2.14 3.709-2.14 3.709-1.266-.735-1.862-2.418-1.037-3.847.008-.024 2.139-3.708 2.139-3.708a2.825 2.825 0 0 1 1.038 3.847Z"/>
    <path fill="#1681C4" d="M216.63 41.94h4.288c0 1.462-1.16 2.81-2.809 2.81h-4.28a2.791 2.791 0 0 1 2.801-2.81Z"/>
    <defs>
      <radialGradient id="a" cx="0" cy="0" r="1" gradientTransform="rotate(165 69.132 67.88) scale(55.7193 50.1474)" gradientUnits="userSpaceOnUse">
        <stop stop-color="#EC991C"/>
        <stop offset="1" stop-color="#E9B213"/>
      </radialGradient>
    </defs>
  </svg>