<svg width="245" height="152" viewBox="0 0 245 152" fill="none" xmlns="http://www.w3.org/2000/svg">
    <path fill-rule="evenodd" clip-rule="evenodd" d="M238.328 17.2609C240.434 25.1236 237.873 33.1374 232.341 38.359C230.498 40.0987 230.055 43.1009 231.82 44.9189L235.051 48.2454C236.262 49.4932 236.482 51.4013 235.586 52.8914L206.152 101.821C204.594 104.41 206.459 107.708 209.48 107.708H236.336C240.653 107.708 244.153 111.208 244.153 115.525V142.621C244.153 146.938 240.653 150.438 236.336 150.438H42.9813C42.045 150.438 41.1471 150.273 40.315 149.972C39.9632 149.844 39.6029 149.736 39.2326 149.682C22.1122 147.183 7.2768 134.799 2.51446 117.026C-3.87109 93.1945 10.2714 68.6989 34.1026 62.3134C49.1705 58.2759 64.504 62.4451 75.3576 72.081C77.7497 74.2048 81.8456 73.3008 82.6611 70.2077L86.3397 56.2563C86.6634 54.9875 87.3248 53.8238 88.2554 52.8852C89.1861 51.9467 90.3523 51.2674 91.6335 50.9177L127.909 41.1976C130.497 40.5043 133.262 41.2525 135.176 43.1707L140.909 48.9497C142.973 51.0301 146.509 50.1634 147.377 47.3645L149.704 39.8597C150.098 38.5882 151.124 37.6135 152.413 37.2855L193.117 26.9278C195.058 26.4339 196.265 24.5388 196.288 22.5361C196.397 13.1914 202.67 4.67909 212.14 2.14159C223.547 -0.914774 235.271 5.85436 238.328 17.2609Z" fill="white"/>
    <path d="M238.328 17.2609L237.577 17.4619L238.328 17.2609ZM235.051 48.2454L235.608 47.7042L235.608 47.7042L235.051 48.2454ZM235.586 52.8914L234.92 52.4909V52.4909L235.586 52.8914ZM2.51446 117.026L3.2649 116.825L2.51446 117.026ZM34.1026 62.3134L33.9015 61.5629L34.1026 62.3134ZM86.3397 56.2563L87.091 56.4544L87.0925 56.4483L86.3397 56.2563ZM88.2554 52.8852L87.7038 52.3382L88.2554 52.8852ZM91.6335 50.9177L91.4324 50.1672L91.4289 50.1682L91.6335 50.9177ZM127.909 41.1976L127.708 40.4472L127.909 41.1976ZM135.176 43.1707L135.727 42.6235L135.726 42.6219L135.176 43.1707ZM149.704 39.8597L148.962 39.6296V39.6296L149.704 39.8597ZM152.413 37.2855L152.605 38.0384L152.413 37.2855ZM212.14 2.14159L212.341 2.89203V2.89203L212.14 2.14159ZM82.6611 70.2077L83.4124 70.4057L82.6611 70.2077ZM140.909 48.9497L140.357 49.4969L140.909 48.9497ZM147.377 47.3645L146.635 47.1344L147.377 47.3645ZM206.152 101.821L206.818 102.222L206.152 101.821ZM40.315 149.972L40.58 149.241L40.315 149.972ZM39.2326 149.682L39.3448 148.913L39.2326 149.682ZM193.117 26.9278L193.309 27.6807L193.117 26.9278ZM196.288 22.5361L195.512 22.5271L196.288 22.5361ZM232.341 38.359L231.808 37.7941L232.341 38.359ZM231.82 44.9189L231.263 45.4602L231.82 44.9189ZM232.875 38.924C238.605 33.5142 241.262 25.2092 239.078 17.0598L237.577 17.4619C239.607 25.038 237.14 32.7607 231.808 37.7941L232.875 38.924ZM235.608 47.7042L232.378 44.3777L231.263 45.4602L234.493 48.7866L235.608 47.7042ZM236.252 53.2918C237.33 51.4995 237.065 49.2048 235.608 47.7042L234.493 48.7866C235.459 49.7816 235.635 51.3032 234.92 52.4909L236.252 53.2918ZM206.818 102.222L236.252 53.2918L234.92 52.4909L205.486 101.421L206.818 102.222ZM236.336 106.931H209.48V108.485H236.336V106.931ZM244.93 115.525C244.93 110.779 241.082 106.931 236.336 106.931V108.485C240.224 108.485 243.376 111.637 243.376 115.525H244.93ZM244.93 142.621V115.525H243.376V142.621H244.93ZM236.336 151.215C241.082 151.215 244.93 147.367 244.93 142.621H243.376C243.376 146.509 240.224 149.661 236.336 149.661V151.215ZM42.9813 151.215H236.336V149.661H42.9813V151.215ZM40.0501 150.702C40.9658 151.034 41.9533 151.215 42.9813 151.215V149.661C42.1366 149.661 41.3283 149.513 40.58 149.241L40.0501 150.702ZM1.76402 117.227C6.6095 135.31 21.704 147.909 39.1204 150.451L39.3448 148.913C22.5205 146.458 7.94411 134.288 3.2649 116.825L1.76402 117.227ZM33.9015 61.5629C9.65587 68.0595 -4.73258 92.9811 1.76402 117.227L3.2649 116.825C-3.0096 93.4078 10.8869 69.3383 34.3037 63.0638L33.9015 61.5629ZM75.8734 71.5C64.8328 61.6981 49.2322 57.4551 33.9015 61.5629L34.3037 63.0638C49.1088 59.0968 64.1752 63.1921 74.8418 72.662L75.8734 71.5ZM85.5885 56.0582L81.9099 70.0096L83.4124 70.4057L87.091 56.4544L85.5885 56.0582ZM87.7038 52.3382C86.6766 53.374 85.9452 54.66 85.5869 56.0642L87.0925 56.4483C87.3816 55.3151 87.9729 54.2735 88.8071 53.4323L87.7038 52.3382ZM91.4289 50.1682C90.0169 50.5536 88.7309 51.3024 87.7038 52.3382L88.8071 53.4323C89.6414 52.5909 90.6877 51.9812 91.8381 51.6672L91.4289 50.1682ZM127.708 40.4472L91.4324 50.1672L91.8346 51.6681L128.11 41.948L127.708 40.4472ZM135.726 42.6219C133.617 40.5093 130.567 39.6811 127.708 40.4472L128.11 41.948C130.427 41.3274 132.906 41.9958 134.626 43.7195L135.726 42.6219ZM141.46 48.4026L135.727 42.6236L134.624 43.7179L140.357 49.4969L141.46 48.4026ZM148.962 39.6296L146.635 47.1344L148.119 47.5947L150.446 40.0898L148.962 39.6296ZM152.221 36.5326C150.67 36.9273 149.436 38.1003 148.962 39.6296L150.446 40.0898C150.76 39.0762 151.578 38.2997 152.605 38.0384L152.221 36.5326ZM192.926 26.1749L152.221 36.5326L152.605 38.0384L193.309 27.6807L192.926 26.1749ZM211.939 1.39115C202.124 4.02114 195.624 12.8433 195.512 22.5271L197.065 22.545C197.17 13.5395 203.216 5.33704 212.341 2.89203L211.939 1.39115ZM239.078 17.0598C235.911 5.23882 223.76 -1.77627 211.939 1.39115L212.341 2.89203C223.333 -0.0532823 234.632 6.46989 237.577 17.4619L239.078 17.0598ZM74.8418 72.662C76.2468 73.9093 78.1367 74.257 79.7845 73.8555C81.4392 73.4524 82.9203 72.2719 83.4124 70.4057L81.9099 70.0096C81.5864 71.2366 80.6118 72.0547 79.4167 72.3459C78.2146 72.6387 76.8605 72.3764 75.8734 71.5L74.8418 72.662ZM140.357 49.4969C142.834 51.9933 147.077 50.9533 148.119 47.5947L146.635 47.1344C145.94 49.3735 143.111 50.0669 141.46 48.4026L140.357 49.4969ZM205.486 101.421C203.617 104.527 205.855 108.485 209.48 108.485V106.931C207.063 106.931 205.572 104.293 206.818 102.222L205.486 101.421ZM40.58 149.241C40.203 149.104 39.7877 148.978 39.3448 148.913L39.1204 150.451C39.4181 150.494 39.7235 150.583 40.0501 150.702L40.58 149.241ZM193.309 27.6807C195.662 27.082 197.039 24.8208 197.065 22.545L195.512 22.5271C195.492 24.2569 194.455 25.7858 192.926 26.1749L193.309 27.6807ZM231.808 37.7941C229.738 39.7484 229.118 43.2512 231.263 45.4602L232.378 44.3777C230.992 42.9506 231.259 40.4489 232.875 38.924L231.808 37.7941Z" fill="#E2E2E2"/>
    <path d="M72.2238 104.305C72.4927 119.687 60.2397 132.371 44.856 132.641C29.4798 132.908 16.7925 120.657 16.5263 105.278C16.2557 89.8968 28.5072 77.2106 43.8859 76.9421C59.2679 76.6727 71.9548 88.9256 72.223 104.305L72.2238 104.305Z" fill="#F7931A"/>
    <path d="M56.1048 97.0205C55.7106 93.3098 52.3479 92.1593 48.1089 91.9266L48.0806 86.7645L44.7982 86.8598L44.8259 91.8858C43.9523 91.9139 43.0789 91.9502 42.2056 91.9946L42.1785 86.9353L38.8969 87.0303L38.9248 92.1907C38.2142 92.2252 37.5164 92.258 36.8359 92.2781L36.8354 92.2621L32.3081 92.3916L32.3274 95.7474C32.3274 95.7474 34.751 95.6331 34.711 95.677C36.0405 95.6389 36.4773 96.3652 36.6067 96.9992L36.6391 102.88C36.7309 102.878 36.8508 102.879 36.9862 102.892L36.6394 102.902L36.6837 111.14C36.6275 111.543 36.385 112.188 35.4553 112.217C35.4983 112.251 33.0701 112.285 33.0701 112.285L32.4386 116.057L36.7104 115.934C37.5051 115.912 38.2874 115.902 39.0552 115.884L39.0852 121.105L42.364 121.011L42.3346 115.844C43.2352 115.837 44.1063 115.818 44.9571 115.793L44.9838 120.935L48.2653 120.84L48.2387 115.628C53.7554 115.166 57.6105 113.723 58.0632 108.749C58.4286 104.744 56.456 103.018 53.3193 102.388C55.217 101.404 56.3979 99.7356 56.1048 97.0205ZM51.5724 108.316C51.5956 112.218 44.6146 111.977 42.3898 112.042L42.3528 105.125C44.5783 105.062 51.5507 104.248 51.5724 108.316ZM49.9929 98.6026C50.0111 102.151 44.1886 101.906 42.3356 101.959L42.3015 95.6857C44.1545 95.6319 49.972 94.8995 49.9927 98.6018L49.9929 98.6026Z" fill="white"/>
    <path d="M79.4982 124.22C86.0005 122.478 89.8592 115.794 88.1169 109.292C86.3746 102.79 79.6911 98.9312 73.1889 100.673C66.6866 102.416 62.8279 109.099 64.5702 115.601C66.3125 122.104 72.996 125.962 79.4982 124.22Z" fill="#7B1AF7"/>
    <path d="M71.2997 114.072L77.3364 105.205C77.6197 104.895 78.0044 105.026 77.8963 105.458L76.7114 111.056L81.1786 109.859C81.1786 109.859 81.8883 109.668 81.3352 110.443L75.435 119.318C75.0153 119.922 74.5724 119.773 74.758 118.962L75.893 113.512L71.4675 114.698C71.4675 114.698 70.7578 114.888 71.2997 114.072Z" fill="white"/>
    <path d="M145.627 75.2266L129.14 58.5522C127.956 57.3608 126.245 56.8949 124.645 57.3236L102.217 63.3332C101.425 63.5494 100.704 63.9702 100.129 64.552C99.5544 65.1338 99.1461 65.8555 98.9467 66.6426L93.0057 89.3266C92.7982 90.126 92.8011 90.9631 93.0141 91.758C93.2271 92.553 93.6431 93.2794 94.2225 93.868L110.709 110.541C111.275 111.123 111.99 111.544 112.779 111.76C113.568 111.977 114.402 111.981 115.196 111.772L137.625 105.762C138.417 105.546 139.137 105.125 139.712 104.543C140.287 103.962 140.696 103.24 140.895 102.453L146.837 79.7701C147.047 78.9711 147.047 78.1335 146.835 77.3378C146.623 76.5422 146.207 75.8151 145.627 75.2266Z" fill="url(#paint0_radial_908_25173)"/>
    <path fill-rule="evenodd" clip-rule="evenodd" d="M167.768 48.3114L199.619 40.2065C200.379 40.0131 201.185 40.241 201.731 40.8042L215.12 54.5915C215.814 55.3066 215.94 56.3999 215.427 57.2537L196.315 89.024C195.696 90.0531 194.365 90.3918 193.329 89.7837L161.4 71.0379C160.521 70.5217 160.112 69.4674 160.414 68.4932L166.216 49.7864C166.442 49.0579 167.029 48.4994 167.768 48.3114ZM197.341 48.4628L198.494 52.9939L189.421 55.3027L190.22 58.4442C196.678 57.1584 201.81 57.3207 202.266 58.9643L203.142 62.4098C203.527 64.0715 199.098 66.6668 192.811 68.624L194.773 76.3337L188.748 77.8668L186.786 70.1571C180.328 71.4429 175.196 71.2806 174.741 69.637L173.864 66.1915C173.479 64.5298 177.909 61.9345 184.196 59.9773L183.396 56.8357L174.323 59.1445L173.17 54.6134L197.341 48.4628ZM189.196 67.0236C195.997 65.2932 201.384 62.6809 202.379 60.7699C200.863 59.7497 196.332 59.7963 190.843 60.8893L191.679 64.1785C190.722 64.4767 189.721 64.7601 188.687 65.0231C187.653 65.2861 186.639 65.5156 185.655 65.7115L184.818 62.4223C179.474 64.0861 175.471 66.211 174.628 67.8315C176.415 69.0345 182.396 68.7541 189.196 67.0236Z" fill="#009393"/>
    <path d="M100.559 135.157L96.6902 124.202H98.7723L101.756 133.183H101.134L104.351 124.202H105.842L108.826 133.183H108.251L111.374 124.202H113.332L109.432 135.157H107.769L104.879 126.735H105.221L102.222 135.157H100.559ZM117.583 135.312C116.268 135.312 115.237 134.95 114.491 134.224C113.745 133.499 113.372 132.505 113.372 131.241C113.372 130.423 113.533 129.708 113.854 129.097C114.175 128.486 114.621 128.009 115.19 127.667C115.77 127.325 116.444 127.155 117.21 127.155C117.966 127.155 118.598 127.315 119.106 127.636C119.613 127.957 119.997 128.408 120.256 128.988C120.525 129.568 120.66 130.247 120.66 131.024V131.536H114.942V130.511H119.277L119.013 130.728C119.013 130.003 118.857 129.449 118.547 129.066C118.246 128.682 117.806 128.491 117.226 128.491C116.584 128.491 116.086 128.719 115.734 129.175C115.392 129.63 115.221 130.267 115.221 131.086V131.288C115.221 132.137 115.429 132.774 115.843 133.199C116.268 133.613 116.863 133.82 117.63 133.82C118.075 133.82 118.49 133.763 118.873 133.65C119.266 133.525 119.639 133.328 119.992 133.059L120.567 134.364C120.194 134.665 119.748 134.898 119.23 135.064C118.712 135.229 118.163 135.312 117.583 135.312ZM129.598 135.312C128.915 135.312 128.314 135.152 127.796 134.83C127.278 134.499 126.874 134.028 126.584 133.416C126.294 132.805 126.149 132.075 126.149 131.226C126.149 130.376 126.294 129.651 126.584 129.05C126.874 128.439 127.278 127.973 127.796 127.652C128.314 127.32 128.915 127.155 129.598 127.155C130.261 127.155 130.841 127.32 131.339 127.652C131.846 127.973 132.183 128.408 132.349 128.957H132.178L132.349 127.31H134.213C134.182 127.631 134.151 127.957 134.12 128.289C134.099 128.62 134.089 128.947 134.089 129.268V135.157H132.162L132.147 133.541H132.333C132.167 134.079 131.831 134.509 131.323 134.83C130.816 135.152 130.241 135.312 129.598 135.312ZM130.142 133.82C130.753 133.82 131.245 133.608 131.618 133.183C131.991 132.748 132.178 132.096 132.178 131.226C132.178 130.355 131.991 129.708 131.618 129.283C131.245 128.859 130.753 128.646 130.142 128.646C129.531 128.646 129.039 128.859 128.666 129.283C128.293 129.708 128.107 130.355 128.107 131.226C128.107 132.096 128.288 132.748 128.651 133.183C129.023 133.608 129.521 133.82 130.142 133.82ZM139.809 135.312C139.001 135.312 138.291 135.146 137.68 134.815C137.079 134.483 136.613 134.012 136.282 133.401C135.95 132.779 135.784 132.044 135.784 131.194C135.784 130.345 135.95 129.62 136.282 129.019C136.623 128.418 137.095 127.957 137.696 127.636C138.296 127.315 139.001 127.155 139.809 127.155C140.327 127.155 140.829 127.237 141.316 127.403C141.813 127.559 142.217 127.786 142.528 128.087L141.938 129.439C141.658 129.18 141.342 128.988 140.99 128.864C140.648 128.729 140.311 128.662 139.98 128.662C139.286 128.662 138.742 128.879 138.348 129.314C137.965 129.749 137.773 130.381 137.773 131.21C137.773 132.039 137.965 132.676 138.348 133.121C138.742 133.567 139.286 133.789 139.98 133.789C140.301 133.789 140.632 133.727 140.974 133.603C141.326 133.479 141.647 133.287 141.938 133.028L142.528 134.364C142.207 134.665 141.798 134.898 141.3 135.064C140.814 135.229 140.316 135.312 139.809 135.312ZM147.487 135.312C146.679 135.312 145.969 135.146 145.358 134.815C144.757 134.483 144.291 134.012 143.96 133.401C143.628 132.779 143.462 132.044 143.462 131.194C143.462 130.345 143.628 129.62 143.96 129.019C144.302 128.418 144.773 127.957 145.374 127.636C145.974 127.315 146.679 127.155 147.487 127.155C148.005 127.155 148.507 127.237 148.994 127.403C149.491 127.559 149.895 127.786 150.206 128.087L149.616 129.439C149.336 129.18 149.02 128.988 148.668 128.864C148.326 128.729 147.989 128.662 147.658 128.662C146.964 128.662 146.42 128.879 146.026 129.314C145.643 129.749 145.451 130.381 145.451 131.21C145.451 132.039 145.643 132.676 146.026 133.121C146.42 133.567 146.964 133.789 147.658 133.789C147.979 133.789 148.31 133.727 148.652 133.603C149.004 133.479 149.326 133.287 149.616 133.028L150.206 134.364C149.885 134.665 149.476 134.898 148.979 135.064C148.492 135.229 147.994 135.312 147.487 135.312ZM155.351 135.312C154.036 135.312 153.005 134.95 152.259 134.224C151.513 133.499 151.141 132.505 151.141 131.241C151.141 130.423 151.301 129.708 151.622 129.097C151.943 128.486 152.389 128.009 152.958 127.667C153.539 127.325 154.212 127.155 154.978 127.155C155.735 127.155 156.367 127.315 156.874 127.636C157.382 127.957 157.765 128.408 158.024 128.988C158.293 129.568 158.428 130.247 158.428 131.024V131.536H152.71V130.511H157.045L156.781 130.728C156.781 130.003 156.625 129.449 156.315 129.066C156.014 128.682 155.574 128.491 154.994 128.491C154.352 128.491 153.855 128.719 153.502 129.175C153.16 129.63 152.99 130.267 152.99 131.086V131.288C152.99 132.137 153.197 132.774 153.611 133.199C154.036 133.613 154.631 133.82 155.398 133.82C155.843 133.82 156.258 133.763 156.641 133.65C157.035 133.525 157.408 133.328 157.76 133.059L158.335 134.364C157.962 134.665 157.516 134.898 156.998 135.064C156.48 135.229 155.931 135.312 155.351 135.312ZM160.073 138.513V129.268C160.073 128.947 160.062 128.62 160.042 128.289C160.021 127.957 159.99 127.631 159.948 127.31H161.828L161.999 128.957H161.828C161.984 128.408 162.31 127.973 162.807 127.652C163.315 127.32 163.9 127.155 164.563 127.155C165.257 127.155 165.863 127.32 166.381 127.652C166.899 127.973 167.303 128.439 167.593 129.05C167.883 129.651 168.028 130.376 168.028 131.226C168.028 132.075 167.883 132.805 167.593 133.416C167.303 134.028 166.899 134.499 166.381 134.83C165.863 135.152 165.257 135.312 164.563 135.312C163.911 135.312 163.336 135.152 162.838 134.83C162.341 134.509 162.01 134.079 161.844 133.541H162.015V138.513H160.073ZM164.019 133.82C164.641 133.82 165.138 133.608 165.511 133.183C165.884 132.748 166.07 132.096 166.07 131.226C166.07 130.355 165.884 129.708 165.511 129.283C165.138 128.859 164.641 128.646 164.019 128.646C163.408 128.646 162.916 128.859 162.543 129.283C162.17 129.708 161.984 130.355 161.984 131.226C161.984 132.096 162.17 132.748 162.543 133.183C162.916 133.608 163.408 133.82 164.019 133.82ZM172.989 135.312C172.056 135.312 171.352 135.069 170.875 134.582C170.399 134.095 170.161 133.365 170.161 132.391V128.771H168.653V127.31H170.161V125.306L172.103 124.808V127.31H174.201V128.771H172.103V132.267C172.103 132.805 172.206 133.183 172.414 133.401C172.621 133.618 172.906 133.727 173.268 133.727C173.465 133.727 173.631 133.712 173.765 133.681C173.911 133.65 174.05 133.608 174.185 133.556V135.095C174.009 135.167 173.812 135.219 173.595 135.25C173.387 135.291 173.185 135.312 172.989 135.312ZM183.389 135.312C182.581 135.312 181.871 135.146 181.26 134.815C180.659 134.483 180.193 134.012 179.861 133.401C179.53 132.779 179.364 132.044 179.364 131.194C179.364 130.345 179.53 129.62 179.861 129.019C180.203 128.418 180.675 127.957 181.275 127.636C181.876 127.315 182.581 127.155 183.389 127.155C183.907 127.155 184.409 127.237 184.896 127.403C185.393 127.559 185.797 127.786 186.108 128.087L185.517 129.439C185.238 129.18 184.922 128.988 184.57 128.864C184.228 128.729 183.891 128.662 183.56 128.662C182.866 128.662 182.322 128.879 181.928 129.314C181.545 129.749 181.353 130.381 181.353 131.21C181.353 132.039 181.545 132.676 181.928 133.121C182.322 133.567 182.866 133.789 183.56 133.789C183.881 133.789 184.212 133.727 184.554 133.603C184.906 133.479 185.227 133.287 185.517 133.028L186.108 134.364C185.787 134.665 185.378 134.898 184.88 135.064C184.393 135.229 183.896 135.312 183.389 135.312ZM187.598 135.157V129.314C187.598 128.983 187.588 128.646 187.567 128.304C187.557 127.963 187.531 127.631 187.489 127.31H189.369L189.587 129.454H189.276C189.38 128.936 189.551 128.506 189.789 128.165C190.038 127.823 190.338 127.569 190.69 127.403C191.042 127.237 191.426 127.155 191.84 127.155C192.026 127.155 192.177 127.165 192.291 127.186C192.405 127.196 192.518 127.222 192.632 127.263L192.617 128.973C192.42 128.89 192.249 128.838 192.104 128.817C191.969 128.796 191.799 128.786 191.591 128.786C191.146 128.786 190.768 128.879 190.457 129.066C190.157 129.252 189.929 129.511 189.773 129.843C189.628 130.174 189.556 130.552 189.556 130.977V135.157H187.598ZM194.029 138.684L193.578 137.146C194.065 137.042 194.474 136.923 194.805 136.788C195.137 136.654 195.411 136.477 195.629 136.26C195.847 136.042 196.028 135.763 196.173 135.421L196.561 134.504L196.515 135.266L193.096 127.31H195.163L197.618 133.432H197.167L199.638 127.31H201.596L198.022 135.592C197.784 136.151 197.525 136.612 197.245 136.975C196.965 137.348 196.665 137.643 196.344 137.86C196.023 138.088 195.67 138.264 195.287 138.389C194.904 138.513 194.484 138.611 194.029 138.684ZM202.621 138.513V129.268C202.621 128.947 202.61 128.62 202.59 128.289C202.569 127.957 202.538 127.631 202.496 127.31H204.377L204.547 128.957H204.377C204.532 128.408 204.858 127.973 205.355 127.652C205.863 127.32 206.448 127.155 207.111 127.155C207.805 127.155 208.411 127.32 208.929 127.652C209.447 127.973 209.851 128.439 210.141 129.05C210.431 129.651 210.576 130.376 210.576 131.226C210.576 132.075 210.431 132.805 210.141 133.416C209.851 134.028 209.447 134.499 208.929 134.83C208.411 135.152 207.805 135.312 207.111 135.312C206.459 135.312 205.884 135.152 205.386 134.83C204.889 134.509 204.558 134.079 204.392 133.541H204.563V138.513H202.621ZM206.567 133.82C207.189 133.82 207.686 133.608 208.059 133.183C208.432 132.748 208.618 132.096 208.618 131.226C208.618 130.355 208.432 129.708 208.059 129.283C207.686 128.859 207.189 128.646 206.567 128.646C205.956 128.646 205.464 128.859 205.091 129.283C204.718 129.708 204.532 130.355 204.532 131.226C204.532 132.096 204.718 132.748 205.091 133.183C205.464 133.608 205.956 133.82 206.567 133.82ZM215.537 135.312C214.604 135.312 213.9 135.069 213.423 134.582C212.947 134.095 212.709 133.365 212.709 132.391V128.771H211.201V127.31H212.709V125.306L214.651 124.808V127.31H216.749V128.771H214.651V132.267C214.651 132.805 214.755 133.183 214.962 133.401C215.169 133.618 215.454 133.727 215.816 133.727C216.013 133.727 216.179 133.712 216.314 133.681C216.459 133.65 216.598 133.608 216.733 133.556V135.095C216.557 135.167 216.36 135.219 216.143 135.25C215.935 135.291 215.733 135.312 215.537 135.312ZM221.535 135.312C220.727 135.312 220.028 135.146 219.437 134.815C218.847 134.483 218.386 134.012 218.054 133.401C217.733 132.79 217.572 132.065 217.572 131.226C217.572 130.387 217.733 129.667 218.054 129.066C218.386 128.455 218.847 127.983 219.437 127.652C220.028 127.32 220.727 127.155 221.535 127.155C222.343 127.155 223.042 127.32 223.632 127.652C224.233 127.983 224.694 128.455 225.015 129.066C225.347 129.667 225.512 130.387 225.512 131.226C225.512 132.065 225.347 132.79 225.015 133.401C224.694 134.012 224.233 134.483 223.632 134.815C223.042 135.146 222.343 135.312 221.535 135.312ZM221.535 133.82C222.146 133.82 222.633 133.608 222.995 133.183C223.358 132.748 223.539 132.096 223.539 131.226C223.539 130.355 223.358 129.708 222.995 129.283C222.633 128.859 222.146 128.646 221.535 128.646C220.924 128.646 220.437 128.859 220.074 129.283C219.712 129.708 219.53 130.355 219.53 131.226C219.53 132.096 219.712 132.748 220.074 133.183C220.437 133.608 220.924 133.82 221.535 133.82Z" fill="#1F2348"/>
    <path d="M218.323 15.2651C218.348 15.2651 222.611 15.2651 222.611 15.2651C222.611 16.727 221.451 18.0745 219.801 18.0745C219.777 18.0745 215.522 18.0745 215.522 18.0745C215.514 16.5963 216.706 15.2651 218.323 15.2651Z" fill="#F5871F"/>
    <path d="M224.923 19.3002C224.931 19.3247 227.062 23.0079 227.062 23.0079C225.796 23.7429 224.041 23.4163 223.216 21.9707C223.208 21.9462 221.076 18.263 221.076 18.263C222.383 17.528 224.122 17.8955 224.923 19.3002Z" fill="#D84332"/>
    <path d="M213.039 24.0278C213.047 24.0523 215.179 27.7355 215.179 27.7355C213.913 28.4705 212.157 28.1438 211.332 26.6983C211.324 26.6738 209.193 22.9906 209.193 22.9906C210.491 22.2638 212.231 22.6394 213.039 24.0278Z" fill="#28B9A2"/>
    <path d="M214.698 19.1034C214.689 19.1279 212.558 22.8111 212.558 22.8111C211.292 22.0761 210.696 20.3937 211.521 18.9646C211.529 18.9401 213.66 15.2568 213.66 15.2568C214.951 16.0163 215.498 17.7069 214.698 19.1034Z" fill="#E7B121"/>
    <path d="M224.75 27.0409C224.742 27.0654 222.61 30.7486 222.61 30.7486C221.344 30.0136 220.748 28.3312 221.573 26.9021C221.581 26.8776 223.713 23.1943 223.713 23.1943C225.003 23.9375 225.55 25.6362 224.75 27.0409Z" fill="#1D2348"/>
    <path d="M216.477 27.9399C216.501 27.9399 220.764 27.9399 220.764 27.9399C220.764 29.4018 219.605 30.7493 217.955 30.7493C217.93 30.7493 213.676 30.7493 213.676 30.7493C213.659 29.263 214.86 27.9399 216.477 27.9399Z" fill="#1681C4"/>
    <defs>
    <radialGradient id="paint0_radial_908_25173" cx="0" cy="0" r="1" gradientUnits="userSpaceOnUse" gradientTransform="translate(153.324 101.555) rotate(165) scale(55.7193 50.1474)">
    <stop stop-color="#EC991C"/>
    <stop offset="1" stop-color="#E9B213"/>
    </radialGradient>
    </defs>
    </svg>
    