<svg width="97" height="26" viewBox="0 0 97 26" fill="none" xmlns="http://www.w3.org/2000/svg">
    <path d="M25.6112 16.1445C23.8747 23.11 16.8201 27.3471 9.85374 25.6108C2.891 23.8745 -1.34791 16.8205 0.389422 9.8566C2.12513 2.89111 9.17928 -1.34725 16.1432 0.389043C23.1088 2.12534 27.3473 9.1802 25.6108 16.1445H25.6112Z" fill="#F7931A"/>
    <path d="M19.2259 10.9145C19.4964 9.19442 18.1196 8.26974 16.2372 7.65288L16.8478 5.32281L15.3568 4.96934L14.7623 7.23801C14.3652 7.14519 13.9671 7.05604 13.5682 6.97059L14.167 4.68697L12.6764 4.3335L12.0658 6.66276C11.7413 6.59247 11.4228 6.52299 11.1137 6.44987L11.1154 6.4426L9.05921 5.95421L8.66258 7.46908C8.66258 7.46908 9.76881 7.71025 9.74545 7.72519C10.3493 7.8686 10.4584 8.24873 10.4402 8.55009L9.7446 11.2046C9.78622 11.2147 9.84015 11.2296 9.8996 11.2518L9.74206 11.2147L8.76705 14.9332C8.69316 15.1077 8.50589 15.3694 8.08336 15.2701C8.09864 15.2907 7.00006 15.0127 7.00006 15.0127L6.25989 16.6367L8.20014 17.0972C8.56109 17.1828 8.91483 17.2729 9.26305 17.3578L8.64602 19.7145L10.1353 20.068L10.7459 17.7359C11.1528 17.8413 11.5477 17.9379 11.9341 18.0296L11.3252 20.3503L12.8157 20.7038L13.4332 18.3515C15.9756 18.8092 17.8874 18.6246 18.6921 16.4375C19.3405 14.6762 18.6598 13.6603 17.3221 12.9974C18.2963 12.7833 19.0301 12.1737 19.2259 10.9145ZM15.8189 15.4583C15.3581 17.2196 12.2407 16.2679 11.23 16.0287L12.0488 12.9065C13.0595 13.1468 16.3004 13.6219 15.8189 15.4583ZM16.28 10.8895C15.8596 12.4912 13.265 11.6772 12.4233 11.4776L13.1656 8.64583C14.0073 8.84539 16.7179 9.21785 16.28 10.8891V10.8895Z" fill="white"/>
    <path d="M26.4848 26C29.6259 26 32.1723 23.4537 32.1723 20.3125C32.1723 17.1714 29.6259 14.625 26.4848 14.625C23.3436 14.625 20.7972 17.1714 20.7972 20.3125C20.7972 23.4537 23.3436 26 26.4848 26Z" fill="#7B1AF7"/>
    <path d="M24.0153 20.4354L27.807 17.1681C27.9722 17.0623 28.1297 17.1681 28.0288 17.3496L26.8187 19.7295H28.9768C28.9768 19.7295 29.3196 19.7295 28.9768 20.0119L25.2456 23.2993C24.9834 23.5212 24.8019 23.4002 24.9834 23.0573L26.1532 20.7379H24.0153C24.0153 20.7379 23.6724 20.7379 24.0153 20.4354Z" fill="white"/>
    <path d="M62.2077 11.9036L56.7903 2.39691C56.4002 1.71684 55.6856 1.30029 54.9127 1.30029H44.0781C43.6949 1.30209 43.3192 1.4047 42.9898 1.59749C42.6604 1.79028 42.3892 2.06626 42.2042 2.39691L36.7869 11.9036C36.5968 12.2389 36.4971 12.6165 36.4971 13.0006C36.4971 13.3846 36.5968 13.7622 36.7869 14.0975L42.2042 23.6036C42.3892 23.9342 42.6604 24.2102 42.9898 24.403C43.3192 24.5958 43.6949 24.6984 44.0781 24.7002H54.9127C55.2959 24.6984 55.6716 24.5958 56.001 24.403C56.3304 24.2102 56.6016 23.9342 56.7866 23.6036L62.2039 14.0975C62.3954 13.7628 62.4963 13.3852 62.497 13.001C62.4976 12.6168 62.398 12.2389 62.2077 11.9036Z" fill="url(#paint0_radial_897_15136)"/>
    <path fill-rule="evenodd" clip-rule="evenodd" d="M75.2981 2.53955L90.6342 2.53955C91.0002 2.53955 91.3382 2.73531 91.5207 3.0529L95.9888 10.8284C96.2204 11.2316 96.1516 11.7405 95.8211 12.0675L83.5227 24.2352C83.1243 24.6294 82.4835 24.6294 82.0851 24.2352L69.8033 12.084C69.4651 11.7494 69.4018 11.2256 69.6505 10.8199L74.4265 3.02795C74.6125 2.72449 74.9425 2.53955 75.2981 2.53955ZM88.6541 6.01104L88.6541 8.19274L84.2854 8.19274L84.2854 9.70536C87.3537 9.86701 89.6557 10.5309 89.6728 11.3266L89.6727 12.9856C89.6556 13.7813 87.3537 14.4452 84.2854 14.6069L84.2854 18.319L81.3846 18.319L81.3846 14.6069C78.3163 14.4452 76.0144 13.7813 75.9973 12.9856L75.9974 11.3266C76.0145 10.5309 78.3163 9.86701 81.3846 9.70536L81.3846 8.19274L77.0159 8.19274L77.0159 6.01104L88.6541 6.01104ZM82.835 13.4672C86.1094 13.4672 88.8462 12.9058 89.5159 12.1561C88.948 11.5204 86.8936 11.02 84.2854 10.8826L84.2854 12.4664C83.818 12.491 83.3327 12.504 82.835 12.504C82.3373 12.504 81.8521 12.491 81.3846 12.4664L81.3846 10.8826C78.7765 11.02 76.722 11.5204 76.1541 12.1561C76.8238 12.9058 79.5607 13.4672 82.835 13.4672Z" fill="#009393"/>
    <defs>
    <radialGradient id="paint0_radial_897_15136" cx="0" cy="0" r="1" gradientUnits="userSpaceOnUse" gradientTransform="translate(62.497 24.7002) rotate(-180) scale(25.9999 23.3999)">
    <stop stop-color="#EC991C"/>
    <stop offset="1" stop-color="#E9B213"/>
    </radialGradient>
    </defs>
    </svg>
    