<svg xmlns="http://www.w3.org/2000/svg" width="259" height="180" fill="none" viewBox="0 0 259 180">
  <path fill="#fff" fill-rule="evenodd" d="M238.481 31.26c2.107 7.864-.455 15.877-5.986 21.099-1.843 1.74-2.286 4.742-.521 6.56l3.23 3.326a3.832 3.832 0 0 1 .535 4.646l-33.353 55.445a3.844 3.844 0 0 1-.421.573c-.228.257-.388.577-.388.922a1.17 1.17 0 0 0 1.169 1.169h47.437c4.317 0 7.817 3.5 7.817 7.817v23.366c0 4.317-3.5 7.817-7.817 7.817H49.399c-21.094 1.72-41.058-11.804-46.731-32.974-6.386-23.832 7.757-48.327 31.588-54.713 15.068-4.037 30.402.132 41.255 9.768 2.392 2.124 6.488 1.22 7.304-1.873l3.678-13.952a7.383 7.383 0 0 1 1.916-3.37 7.563 7.563 0 0 1 3.378-1.968l36.276-9.72a7.513 7.513 0 0 1 7.266 1.973l5.733 5.779c2.064 2.08 5.6 1.213 6.468-1.586l2.328-7.504a3.823 3.823 0 0 1 2.709-2.575l40.704-10.357c1.941-.494 3.148-2.39 3.171-4.392.108-9.345 6.382-17.857 15.852-20.394 11.406-3.057 23.131 3.712 26.187 15.119Z" clip-rule="evenodd"/>
  <path fill="#E2E2E2" d="m238.481 31.26-.75.202.75-.201Zm-3.277 30.985.558-.54-.558.54Zm.535 4.646-.665-.4.665.4Zm-33.353 55.445.666.4-.666-.4ZM49.399 164v-.777h-.032l-.031.003.063.774ZM2.668 131.026l-.75.201.75-.201Zm31.588-54.713-.2-.75.2.75Zm52.237-6.057.752.198.001-.006-.753-.192Zm1.916-3.37-.552-.548.552.547Zm3.378-1.968-.201-.75h-.004l.205.75Zm36.276-9.72-.201-.75.201.75Zm7.266 1.973.552-.547-.002-.002-.55.549Zm14.529-3.311-.742-.23.742.23Zm2.709-2.575.191.753-.191-.752Zm59.727-35.143.201.75-.201-.75Zm-19.023 24.786.191.753-.191-.753Zm3.171-4.392-.777-.009.777.01ZM82.815 84.208l.75.198-.75-.198Zm58.247-21.258-.551.547.551-.547Zm6.468-1.586-.742-.23.742.23Zm54.435 61.545.581.516-.581-.516Zm30.53-70.55-.534-.565.534.565Zm-.521 6.56-.557.541.557-.541Zm1.054-5.995c5.731-5.41 8.387-13.715 6.204-21.864l-1.501.402c2.03 7.576-.438 15.299-5.77 20.332l1.067 1.13Zm2.734 8.78-3.231-3.326-1.114 1.082 3.23 3.327 1.115-1.083Zm.643 5.588a4.61 4.61 0 0 0-.643-5.588l-1.115 1.083a3.058 3.058 0 0 1 .427 3.704l1.331.8Zm-33.353 55.444 33.353-55.444-1.331-.801-33.353 55.444 1.331.801Zm-.506.689c.187-.21.357-.44.506-.689l-1.331-.801c-.1.166-.213.319-.336.458l1.161 1.032Zm47.637.798h-47.437v1.554h47.437v-1.554Zm8.594 8.594a8.594 8.594 0 0 0-8.594-8.594v1.554a7.04 7.04 0 0 1 7.04 7.04h1.554Zm0 23.366v-23.366h-1.554v23.366h1.554Zm-8.594 8.594a8.594 8.594 0 0 0 8.594-8.594h-1.554a7.04 7.04 0 0 1-7.04 7.04v1.554Zm-200.784 0h200.784v-1.554H49.399v1.554Zm-47.481-33.55C7.689 152.766 28 166.525 49.462 164.774l-.126-1.548c-20.727 1.69-40.344-11.6-45.918-32.401l-1.5.402Zm32.137-55.664C9.81 82.059-4.579 106.98 1.918 131.227l1.5-.402c-6.274-23.417 7.622-47.487 31.04-53.761l-.403-1.501ZM76.027 85.5c-11.04-9.802-26.641-14.045-41.972-9.937l.402 1.5c14.805-3.966 29.872.13 40.538 9.599l1.032-1.162Zm9.715-15.442L82.064 84.01l1.502.396 3.678-13.952-1.502-.396Zm2.115-3.72a8.16 8.16 0 0 0-2.117 3.726l1.506.384a6.606 6.606 0 0 1 1.715-3.016l-1.104-1.094Zm3.725-2.17a8.34 8.34 0 0 0-3.725 2.17l1.104 1.094a6.785 6.785 0 0 1 3.03-1.765l-.409-1.499Zm36.28-9.72-36.276 9.72.402 1.5 36.276-9.72-.402-1.5Zm8.017 2.174a8.29 8.29 0 0 0-8.017-2.175l.402 1.501a6.736 6.736 0 0 1 6.515 1.771l1.1-1.097Zm5.735 5.78-5.733-5.778-1.103 1.094 5.733 5.779 1.103-1.094Zm7.502-8.772-2.328 7.504 1.484.46 2.328-7.504-1.484-.46Zm3.259-3.097a4.6 4.6 0 0 0-3.259 3.097l1.484.46a3.045 3.045 0 0 1 2.158-2.052l-.383-1.505Zm40.704-10.358-40.704 10.358.383 1.505 40.704-10.357-.383-1.506Zm19.014-24.784c-9.816 2.63-16.316 11.452-16.428 21.136l1.554.018c.104-9.006 6.151-17.208 15.276-19.653l-.402-1.5Zm27.139 15.669c-3.168-11.821-15.318-18.836-27.139-15.669l.402 1.501c10.992-2.945 22.29 3.578 25.236 14.57l1.501-.402Zm-45.77 10.62c2.353-.598 3.731-2.86 3.757-5.135l-1.554-.018c-.02 1.73-1.057 3.259-2.586 3.648l.383 1.506ZM74.995 86.663c1.405 1.247 3.295 1.595 4.943 1.194 1.655-.404 3.136-1.584 3.628-3.45l-1.502-.396c-.324 1.227-1.299 2.045-2.494 2.336-1.202.293-2.556.03-3.543-.846l-1.032 1.162ZM200.8 123.831c0 1.075.871 1.946 1.946 1.946v-1.554a.393.393 0 0 1-.392-.392H200.8Zm-60.289-60.334c2.476 2.496 6.72 1.456 7.761-1.902l-1.484-.46c-.694 2.239-3.523 2.932-5.174 1.268l-1.103 1.094Zm60.874 58.896c-.314.353-.585.849-.585 1.438h1.554c0-.1.049-.245.192-.406l-1.161-1.032Zm30.576-70.599c-2.07 1.954-2.69 5.457-.544 7.666l1.114-1.082c-1.385-1.427-1.118-3.93.497-5.454l-1.067-1.13Z"/>
  <path fill="#F7931A" d="M72.377 118.305c.27 15.382-11.984 28.066-27.367 28.336-15.376.267-28.064-11.984-28.33-27.363-.27-15.381 11.98-28.067 27.36-28.336 15.382-.27 28.069 11.984 28.337 27.363Z"/>
  <path fill="#fff" d="M56.258 111.02c-.394-3.71-3.757-4.861-7.995-5.093l-.029-5.162-3.282.095.027 5.026c-.873.028-1.747.064-2.62.109l-.027-5.06-3.282.095.028 5.161c-.71.034-1.408.067-2.089.087v-.016l-4.527.13.019 3.355s2.424-.114 2.384-.07c1.33-.038 1.766.688 1.895 1.322l.033 5.881c.091-.002.211-.001.347.012l-.347.01.044 8.238c-.056.403-.298 1.048-1.228 1.077.043.034-2.385.068-2.385.068l-.632 3.772 4.272-.123c.795-.022 1.577-.032 2.345-.05l.03 5.221 3.279-.094-.03-5.167c.9-.007 1.772-.026 2.623-.051l.026 5.142 3.282-.095-.027-5.212c5.517-.462 9.372-1.905 9.825-6.879.365-4.005-1.608-5.731-4.744-6.361 1.898-.984 3.078-2.652 2.785-5.368Zm-4.532 11.296c.023 3.902-6.958 3.661-9.183 3.726l-.037-6.917c2.226-.063 9.198-.877 9.22 3.191Zm-1.58-9.713c.019 3.548-5.804 3.303-7.657 3.356l-.034-6.273c1.853-.054 7.67-.787 7.691 2.916v.001Z"/>
  <path fill="#7B1AF7" d="M79.652 138.22c6.502-1.742 10.361-8.426 8.619-14.928-1.743-6.502-8.426-10.361-14.928-8.619-6.503 1.743-10.361 8.426-8.619 14.928 1.742 6.503 8.426 10.361 14.928 8.619Z"/>
  <path fill="#fff" d="m71.453 128.072 6.037-8.867c.283-.31.668-.179.56.253l-1.185 5.598 4.467-1.197s.71-.191.157.584l-5.9 8.875c-.42.604-.863.455-.677-.356l1.135-5.45-4.426 1.186s-.71.19-.168-.626Z"/>
  <path fill="url(#a)" d="m145.781 89.227-16.487-16.675a4.642 4.642 0 0 0-4.495-1.228l-22.428 6.01a4.663 4.663 0 0 0-2.088 1.218 4.571 4.571 0 0 0-1.183 2.09l-5.941 22.685a4.762 4.762 0 0 0 1.217 4.541l16.487 16.673a4.566 4.566 0 0 0 2.069 1.219 4.655 4.655 0 0 0 2.418.012l22.428-6.01a4.66 4.66 0 0 0 2.088-1.219 4.574 4.574 0 0 0 1.183-2.09l5.941-22.683a4.741 4.741 0 0 0-1.209-4.543Z"/>
  <path fill="#009393" fill-rule="evenodd" d="m167.921 62.311 31.851-8.105a2.192 2.192 0 0 1 2.113.598l13.388 13.787c.695.716.821 1.809.307 2.663l-19.112 31.77a2.19 2.19 0 0 1-2.985.76l-31.93-18.746a2.197 2.197 0 0 1-.985-2.545l5.801-18.707a2.192 2.192 0 0 1 1.552-1.475Zm29.573.152 1.153 4.53-9.073 2.31.8 3.141c6.457-1.286 11.589-1.123 12.045.52l.877 3.446c.385 1.662-4.045 4.257-10.332 6.214l1.962 7.71-6.025 1.533-1.962-7.71c-6.457 1.286-11.589 1.124-12.045-.52l-.877-3.445c-.385-1.662 4.045-4.257 10.332-6.215l-.799-3.141-9.074 2.308-1.153-4.53 24.171-6.151Zm-8.145 18.56c6.801-1.73 12.188-4.342 13.183-6.253-1.516-1.02-6.047-.974-11.536.12l.837 3.288a59.13 59.13 0 0 1-2.993.845 59.029 59.029 0 0 1-3.032.689l-.837-3.29c-5.344 1.664-9.346 3.789-10.19 5.41 1.787 1.203 7.768.922 14.568-.808Z" clip-rule="evenodd"/>
  <path fill="#1F2348" d="m96.456 149.157 4.956-10.955h1.678l5.019 10.955h-2.035l-1.337-3.077.808.544h-6.572l.839-.544-1.337 3.077h-2.02Zm5.78-8.81-2.191 5.189-.404-.481h5.221l-.327.481-2.237-5.189h-.062Zm6.93 8.81v-11.436h1.942v6.93h.031l3.186-3.341h2.346l-3.962 4.149.015-.777 4.226 4.475h-2.408l-3.403-3.512h-.031v3.512h-1.942Zm11.702.155c-.932 0-1.637-.243-2.113-.73-.477-.487-.715-1.217-.715-2.191v-3.62h-1.507v-1.461h1.507v-2.004l1.942-.498v2.502h2.098v1.461h-2.098v3.496c0 .538.104.916.311 1.134.207.217.492.326.854.326.197 0 .363-.015.498-.046.145-.031.285-.073.419-.125v1.539a2.483 2.483 0 0 1-.59.155 3.117 3.117 0 0 1-.606.062Zm5.328 0a7.093 7.093 0 0 1-1.865-.233c-.559-.166-1.03-.394-1.414-.684l.544-1.305a4.946 4.946 0 0 0 2.751.839c.517 0 .901-.088 1.149-.264a.823.823 0 0 0 .389-.715.68.68 0 0 0-.249-.559c-.155-.145-.409-.254-.761-.326l-1.554-.296c-.663-.145-1.171-.393-1.523-.745-.342-.353-.513-.814-.513-1.383 0-.487.13-.917.389-1.29.269-.373.647-.663 1.134-.87.497-.218 1.078-.326 1.74-.326.581 0 1.124.077 1.632.233a3.42 3.42 0 0 1 1.305.699l-.559 1.258a3.675 3.675 0 0 0-1.103-.606 3.662 3.662 0 0 0-1.212-.217c-.539 0-.933.098-1.181.295a.871.871 0 0 0-.373.73c0 .228.072.42.217.575.156.145.394.254.715.327l1.554.295c.694.135 1.217.373 1.569.715.363.331.544.787.544 1.367 0 .518-.14.963-.419 1.336-.28.373-.669.658-1.166.855-.497.197-1.077.295-1.74.295Zm8.779 0c-1.316 0-2.347-.362-3.092-1.088-.746-.725-1.119-1.719-1.119-2.983 0-.818.16-1.533.482-2.144a3.56 3.56 0 0 1 1.336-1.43c.58-.342 1.253-.512 2.02-.512.756 0 1.388.16 1.895.481.508.321.891.772 1.15 1.352.27.58.404 1.259.404 2.036v.512h-5.718v-1.025h4.335l-.264.217c0-.725-.155-1.279-.466-1.662-.3-.384-.741-.575-1.321-.575-.642 0-1.139.228-1.491.684-.342.455-.513 1.092-.513 1.911v.202c0 .849.207 1.486.621 1.911.425.414 1.021.621 1.787.621.446 0 .86-.057 1.243-.17a3.66 3.66 0 0 0 1.119-.591l.575 1.305a4.089 4.089 0 0 1-1.336.7 5.395 5.395 0 0 1-1.647.248Zm4.721 3.201v-9.245a15.472 15.472 0 0 0-.124-1.958h1.88l.171 1.647h-.171c.155-.549.482-.984.979-1.305.507-.332 1.093-.497 1.756-.497.694 0 1.3.165 1.818.497.517.321.921.787 1.212 1.398.29.601.435 1.326.435 2.176 0 .849-.145 1.579-.435 2.19-.291.612-.695 1.083-1.212 1.414-.518.322-1.124.482-1.818.482-.653 0-1.228-.16-1.725-.482a2.313 2.313 0 0 1-.995-1.289h.171v4.972h-1.942Zm3.947-4.693c.621 0 1.118-.212 1.491-.637.373-.435.56-1.087.56-1.957 0-.871-.187-1.518-.56-1.943-.373-.424-.87-.637-1.491-.637-.611 0-1.104.213-1.476.637-.373.425-.56 1.072-.56 1.943 0 .87.187 1.522.56 1.957.372.425.865.637 1.476.637Zm8.969 1.492c-.932 0-1.637-.243-2.113-.73-.477-.487-.715-1.217-.715-2.191v-3.62h-1.507v-1.461h1.507v-2.004l1.942-.498v2.502h2.098v1.461h-2.098v3.496c0 .538.104.916.311 1.134.207.217.492.326.855.326.196 0 .362-.015.497-.046.145-.031.285-.073.419-.125v1.539a2.483 2.483 0 0 1-.59.155 3.117 3.117 0 0 1-.606.062Zm6.247 0c-1.316 0-2.347-.362-3.092-1.088-.746-.725-1.119-1.719-1.119-2.983 0-.818.16-1.533.481-2.144a3.57 3.57 0 0 1 1.337-1.43c.58-.342 1.253-.512 2.02-.512.756 0 1.388.16 1.895.481.508.321.891.772 1.15 1.352.27.58.404 1.259.404 2.036v.512h-5.718v-1.025h4.335l-.264.217c0-.725-.155-1.279-.466-1.662-.3-.384-.741-.575-1.321-.575-.642 0-1.139.228-1.491.684-.342.455-.513 1.092-.513 1.911v.202c0 .849.207 1.486.621 1.911.425.414 1.021.621 1.787.621.446 0 .86-.057 1.243-.17a3.66 3.66 0 0 0 1.119-.591l.575 1.305a4.089 4.089 0 0 1-1.336.7 5.395 5.395 0 0 1-1.647.248Zm8.512 0c-1.315 0-2.346-.362-3.092-1.088-.746-.725-1.119-1.719-1.119-2.983 0-.818.161-1.533.482-2.144a3.567 3.567 0 0 1 1.336-1.43c.58-.342 1.254-.512 2.02-.512.757 0 1.388.16 1.896.481.508.321.891.772 1.15 1.352.269.58.404 1.259.404 2.036v.512h-5.718v-1.025h4.335l-.264.217c0-.725-.156-1.279-.466-1.662-.301-.384-.741-.575-1.321-.575-.642 0-1.14.228-1.492.684-.342.455-.513 1.092-.513 1.911v.202c0 .849.208 1.486.622 1.911.425.414 1.02.621 1.787.621.445 0 .86-.057 1.243-.17a3.67 3.67 0 0 0 1.119-.591l.575 1.305a4.094 4.094 0 0 1-1.337.7 5.395 5.395 0 0 1-1.647.248Zm4.706-.155v-5.843c0-.331-.01-.668-.031-1.01a9.906 9.906 0 0 0-.078-.994h1.88l.218 2.144h-.311c.104-.518.275-.948.513-1.289.249-.342.549-.596.901-.762a2.663 2.663 0 0 1 1.15-.248c.186 0 .337.01.451.031.114.01.227.036.341.077l-.015 1.71a2.158 2.158 0 0 0-.513-.156 3.438 3.438 0 0 0-.513-.031c-.445 0-.823.093-1.134.28-.3.186-.528.445-.684.777a2.8 2.8 0 0 0-.217 1.134v4.18h-1.958Zm6.116 0v-7.847h1.942v7.847h-1.942Zm-.109-9.323v-1.896h2.16v1.896h-2.16Zm8.651 9.478c-.663 0-1.243-.16-1.741-.482a2.373 2.373 0 0 1-.994-1.336h.171v1.663h-1.927v-11.436h1.942v5.189H184a2.318 2.318 0 0 1 1.01-1.274c.497-.321 1.072-.481 1.725-.481.694 0 1.3.165 1.818.497.517.331.921.803 1.212 1.414.29.601.435 1.326.435 2.175 0 .85-.145 1.58-.435 2.191a3.305 3.305 0 0 1-1.228 1.398c-.518.322-1.119.482-1.802.482Zm-.544-1.492c.611 0 1.103-.212 1.476-.637.383-.424.575-1.072.575-1.942 0-.87-.192-1.517-.575-1.942-.373-.435-.865-.653-1.476-.653s-1.103.213-1.476.637c-.373.425-.56 1.072-.56 1.943 0 .87.187 1.522.56 1.957.373.425.865.637 1.476.637Zm9.952 1.337v-11.436h1.943v6.93h.031l3.185-3.341h2.346l-3.962 4.149.016-.777 4.226 4.475h-2.408l-3.403-3.512h-.031v3.512h-1.943Zm8.558 0v-5.843c0-.331-.01-.668-.031-1.01a9.906 9.906 0 0 0-.078-.994h1.881l.217 2.144h-.311c.104-.518.275-.948.513-1.289.249-.342.549-.596.901-.762a2.666 2.666 0 0 1 1.15-.248c.187 0 .337.01.451.031.114.01.228.036.342.077l-.016 1.71a2.158 2.158 0 0 0-.513-.156 3.423 3.423 0 0 0-.512-.031c-.446 0-.824.093-1.135.28-.3.186-.528.445-.683.777a2.8 2.8 0 0 0-.218 1.134v4.18h-1.958Zm8.944.155c-.964 0-1.684-.264-2.16-.792-.477-.529-.715-1.337-.715-2.424v-4.786h1.942v4.77c0 .58.12 1.01.358 1.29.238.269.601.404 1.087.404.549 0 .995-.187 1.337-.56.352-.372.528-.865.528-1.476v-4.428h1.942v7.847h-1.895v-1.601h.217c-.228.56-.575.995-1.041 1.306-.456.3-.989.45-1.6.45Zm1.32-9.447v-1.787h1.787v1.787h-1.787Zm-2.936 0v-1.787h1.787v1.787h-1.787Zm8.044 12.648v-9.245a15.472 15.472 0 0 0-.124-1.958h1.88l.171 1.647h-.171c.155-.549.481-.984.979-1.305.507-.332 1.092-.497 1.755-.497.694 0 1.3.165 1.818.497.518.321.922.787 1.212 1.398.29.601.435 1.326.435 2.176 0 .849-.145 1.579-.435 2.19-.29.612-.694 1.083-1.212 1.414-.518.322-1.124.482-1.818.482-.652 0-1.227-.16-1.724-.482a2.309 2.309 0 0 1-.995-1.289h.171v4.972h-1.942Zm3.947-4.693c.621 0 1.118-.212 1.491-.637.373-.435.56-1.087.56-1.957 0-.871-.187-1.518-.56-1.943-.373-.424-.87-.637-1.491-.637-.612 0-1.104.213-1.477.637-.372.425-.559 1.072-.559 1.943 0 .87.187 1.522.559 1.957.373.425.865.637 1.477.637Zm8.969 1.492c-.932 0-1.637-.243-2.113-.73-.477-.487-.715-1.217-.715-2.191v-3.62h-1.507v-1.461h1.507v-2.004l1.942-.498v2.502h2.098v1.461h-2.098v3.496c0 .538.104.916.311 1.134.207.217.492.326.855.326.196 0 .362-.015.497-.046.145-.031.285-.073.419-.125v1.539a2.483 2.483 0 0 1-.59.155 3.117 3.117 0 0 1-.606.062Zm5.998 0c-.808 0-1.507-.166-2.098-.497a3.507 3.507 0 0 1-1.383-1.414c-.321-.611-.481-1.336-.481-2.175 0-.839.16-1.559.481-2.16a3.5 3.5 0 0 1 1.383-1.414c.591-.332 1.29-.497 2.098-.497.808 0 1.507.165 2.098.497.6.331 1.061.803 1.382 1.414.332.601.498 1.321.498 2.16 0 .839-.166 1.564-.498 2.175a3.377 3.377 0 0 1-1.382 1.414c-.591.331-1.29.497-2.098.497Zm0-1.492c.611 0 1.098-.212 1.461-.637.362-.435.543-1.087.543-1.957 0-.871-.181-1.518-.543-1.943-.363-.424-.85-.637-1.461-.637-.611 0-1.098.213-1.461.637-.362.425-.543 1.072-.543 1.943 0 .87.181 1.522.543 1.957.363.425.85.637 1.461.637Z"/>
  <path fill="#F5871F" d="M218.477 29.265h4.287c0 1.462-1.16 2.81-2.809 2.81h-4.28c-.008-1.479 1.185-2.81 2.802-2.81Z"/>
  <path fill="#D84332" d="M225.076 33.3c.008.025 2.14 3.708 2.14 3.708-1.266.735-3.022.408-3.847-1.037-.008-.025-2.14-3.708-2.14-3.708 1.307-.735 3.047-.367 3.847 1.037Z"/>
  <path fill="#28B9A2" d="M213.193 38.028c.008.024 2.139 3.708 2.139 3.708-1.265.735-3.021.408-3.846-1.038a1204.4 1204.4 0 0 0-2.14-3.707c1.299-.727 3.038-.352 3.847 1.037Z"/>
  <path fill="#E7B121" d="M214.851 33.103c-.008.025-2.14 3.708-2.14 3.708-1.266-.735-1.862-2.417-1.037-3.846.008-.025 2.14-3.708 2.14-3.708 1.29.76 1.837 2.45 1.037 3.846Z"/>
  <path fill="#1D2348" d="M224.904 41.04c-.009.025-2.14 3.709-2.14 3.709-1.266-.735-1.862-2.418-1.037-3.847.008-.024 2.139-3.708 2.139-3.708a2.825 2.825 0 0 1 1.038 3.847Z"/>
  <path fill="#1681C4" d="M216.63 41.94h4.288c0 1.462-1.16 2.81-2.809 2.81h-4.28a2.791 2.791 0 0 1 2.801-2.81Z"/>
  <defs>
    <radialGradient id="a" cx="0" cy="0" r="1" gradientTransform="rotate(165 69.132 67.88) scale(55.7193 50.1474)" gradientUnits="userSpaceOnUse">
      <stop stop-color="#EC991C"/>
      <stop offset="1" stop-color="#E9B213"/>
    </radialGradient>
  </defs>
</svg>
