<svg width="97" height="26" viewBox="0 0 97 26" fill="none" xmlns="http://www.w3.org/2000/svg">
<g clip-path="url(#clip0_3780_3282)">
<path d="M25.611 16.145C23.875 23.11 16.821 27.347 9.854 25.611C2.89 23.875 -1.348 16.82 0.389 9.857C2.125 2.89 9.18 -1.347 16.143 0.389C23.109 2.125 27.347 9.18 25.611 16.145Z" fill="#F7931A"/>
<path d="M19.226 10.915C19.496 9.195 18.12 8.27 16.237 7.653L16.847 5.323L15.357 4.969L14.762 7.238C14.3648 7.14531 13.9668 7.05631 13.568 6.971L14.167 4.687L12.677 4.333L12.066 6.663C11.7407 6.59367 11.4233 6.52267 11.114 6.45L11.115 6.443L9.059 5.954L8.663 7.469C8.663 7.469 9.769 7.71 9.745 7.725C10.349 7.869 10.458 8.249 10.44 8.55L9.745 11.205C9.787 11.215 9.83867 11.2307 9.9 11.252L9.742 11.215L8.767 14.933C8.693 15.108 8.506 15.369 8.083 15.27C8.1 15.29 7 15.013 7 15.013L6.26 16.637L8.2 17.097C8.561 17.183 8.915 17.273 9.263 17.357L8.646 19.715L10.136 20.068L10.746 17.736C11.1527 17.8407 11.5487 17.9387 11.934 18.03L11.325 20.35L12.815 20.704L13.433 18.352C15.976 18.809 17.887 18.625 18.693 16.437C19.34 14.677 18.66 13.66 17.323 12.997C18.296 12.783 19.03 12.174 19.226 10.915ZM15.819 15.458C15.359 17.22 12.241 16.268 11.23 16.028L12.049 12.907C13.059 13.147 16.3 13.622 15.819 15.458ZM16.28 10.89C15.86 12.491 13.265 11.677 12.423 11.478L13.166 8.646C14.007 8.846 16.718 9.218 16.28 10.889" fill="white"/>
<path d="M26.485 26C27.9934 26 29.4401 25.4008 30.5067 24.3342C31.5733 23.2676 32.1725 21.8209 32.1725 20.3125C32.1725 18.8041 31.5733 17.3574 30.5067 16.2908C29.4401 15.2242 27.9934 14.625 26.485 14.625C24.9766 14.625 23.5299 15.2242 22.4633 16.2908C21.3967 17.3574 20.7975 18.8041 20.7975 20.3125C20.7975 21.8209 21.3967 23.2676 22.4633 24.3342C23.5299 25.4008 24.9766 26 26.485 26Z" fill="#7B1AF7"/>
<path d="M24.015 20.435L27.807 17.168C27.972 17.062 28.13 17.168 28.029 17.35L26.819 19.73H28.977C28.977 19.73 29.32 19.73 28.977 20.012L25.246 23.299C24.983 23.521 24.802 23.4 24.983 23.057L26.153 20.737H24.015C24.015 20.737 23.672 20.737 24.015 20.435Z" fill="white"/>
<path d="M62.7022 11.8759L57.0754 2.12513C56.8793 1.78484 56.5959 1.50163 56.2536 1.30409C55.9114 1.10654 55.5224 1.00165 55.126 1H43.8733C43.4762 1.00285 43.0868 1.10784 42.7433 1.30462C42.4006 1.50256 42.1202 1.78667 41.927 2.12513L36.3012 11.8759C36.1038 12.2188 36 12.6066 36 13.001C36 13.3955 36.1038 13.7832 36.3012 14.1262L41.927 23.8759C42.1191 24.2144 42.4006 24.4974 42.7433 24.6954C43.086 24.8933 43.4755 24.9979 43.8733 25H55.126C55.5227 24.997 55.9118 24.892 56.2549 24.6954C56.5976 24.4974 56.878 24.2144 57.0712 23.8749L62.6971 14.1251C62.8949 13.7827 62.9993 13.3953 63 13.0011C63.0007 12.6068 62.8988 12.2191 62.7022 11.8759Z" fill="url(#paint0_radial_3780_3282)"/>
<path d="M84 26C91.2042 26 97 20.2042 97 13C97 5.79579 91.2042 0 84 0C76.7958 0 71 5.79579 71 13C71 20.2042 76.7958 26 84 26Z" fill="#2775CA"/>
<path d="M87.575 15.0583C87.575 13.1625 86.4375 12.5125 84.1625 12.2417C82.5375 12.025 82.2125 11.5917 82.2125 10.8333C82.2125 10.0749 82.7542 9.5875 83.8375 9.5875C84.8125 9.5875 85.3542 9.9125 85.625 10.725C85.6792 10.8875 85.8417 10.9958 86.0042 10.9958H86.8708C87.0875 10.9958 87.25 10.8333 87.25 10.6167V10.5625C87.0333 9.37079 86.0583 8.45 84.8125 8.34171V7.04171C84.8125 6.825 84.65 6.6625 84.3792 6.60829H83.5667C83.35 6.60829 83.1875 6.77079 83.1333 7.04171V8.2875C81.5083 8.50421 80.4792 9.5875 80.4792 10.9417C80.4792 12.7292 81.5625 13.4333 83.8375 13.7042C85.3542 13.975 85.8417 14.3 85.8417 15.1667C85.8417 16.0334 85.0833 16.6292 84.0542 16.6292C82.6458 16.6292 82.1583 16.0333 81.9958 15.2208C81.9417 15.0042 81.7792 14.8958 81.6167 14.8958H80.6958C80.4792 14.8958 80.3167 15.0583 80.3167 15.275V15.3292C80.5333 16.6833 81.4 17.6583 83.1875 17.9292V19.2292C83.1875 19.4458 83.35 19.6083 83.6208 19.6625H84.4333C84.65 19.6625 84.8125 19.5 84.8667 19.2292V17.9292C86.4917 17.6583 87.575 16.5208 87.575 15.0583Z" fill="white"/>
<path d="M81.2375 20.7458C77.0125 19.2292 74.8458 14.5167 76.4167 10.3458C77.2292 8.07079 79.0167 6.3375 81.2375 5.525C81.4542 5.41671 81.5625 5.25421 81.5625 4.98329V4.225C81.5625 4.00829 81.4542 3.84579 81.2375 3.79171C81.1833 3.79171 81.075 3.79171 81.0208 3.84579C75.875 5.47079 73.0583 10.9417 74.6833 16.0875C75.6583 19.1208 77.9875 21.45 81.0208 22.425C81.2375 22.5333 81.4542 22.425 81.5083 22.2083C81.5625 22.1542 81.5625 22.1 81.5625 21.9917V21.2333C81.5625 21.0708 81.4 20.8542 81.2375 20.7458ZM86.9792 3.84579C86.7625 3.7375 86.5458 3.84579 86.4917 4.0625C86.4375 4.11671 86.4375 4.17079 86.4375 4.27921V5.0375C86.4375 5.25421 86.6 5.47079 86.7625 5.57921C90.9875 7.09579 93.1542 11.8083 91.5833 15.9792C90.7708 18.2542 88.9833 19.9875 86.7625 20.8C86.5458 20.9083 86.4375 21.0708 86.4375 21.3417V22.1C86.4375 22.3167 86.5458 22.4792 86.7625 22.5333C86.8167 22.5333 86.925 22.5333 86.9792 22.4792C92.125 20.8542 94.9417 15.3833 93.3167 10.2375C92.3417 7.15 89.9583 4.82079 86.9792 3.84579Z" fill="white"/>
</g>
<defs>
<radialGradient id="paint0_radial_3780_3282" cx="0" cy="0" r="1" gradientUnits="userSpaceOnUse" gradientTransform="translate(63.0024 25) rotate(180) scale(27.0023 23.9999)">
<stop stop-color="#EC991C"/>
<stop offset="1" stop-color="#E9B213"/>
</radialGradient>
<clipPath id="clip0_3780_3282">
<rect width="97" height="26" fill="white"/>
</clipPath>
</defs>
</svg>
