<svg width="96" height="106" fill="none" xmlns="http://www.w3.org/2000/svg">
  <path d="M92.56 46.67 9 .72a5.76 5.76 0 0 0-6.05.3 6.62 6.62 0 0 0-2.17 2.5A7.4 7.4 0 0 0 0 6.84v91.9c0 1.17.27 2.32.8 3.34a6.62 6.62 0 0 0 2.16 2.49 5.76 5.76 0 0 0 6.06.3l83.54-45.95a6.5 6.5 0 0 0 2.51-2.53 7.37 7.37 0 0 0 0-7.2 6.5 6.5 0 0 0-2.51-2.53Z" fill="url(#a)" />
  <defs>
    <radialGradient id="a" cx="0" cy="0" r="1" gradientUnits="userSpaceOnUse" gradientTransform="matrix(-96 0 0 -105.6 96 105.6)">
      <stop stop-color="#EC991C" />
      <stop offset="1" stop-color="#E9B213" />
    </radialGradient>
  </defs>
</svg>