<svg version="1.1" stroke="currentColor" xmlns="http://www.w3.org/2000/svg" xmlns:xlink="http://www.w3.org/1999/xlink"
    x="0px" y="0px" viewBox="0 0 40 40" xml:space="preserve">
    <path style="fill:none; stroke-width:2; stroke-linecap:round; stroke-linejoin:round;" d="M24.27,11.91h-4.2c-0.48,0.01-0.96,0.11-1.41,0.3c-0.44,0.19-0.85,0.47-1.18,0.82
	c-0.34,0.35-0.6,0.76-0.78,1.21c-0.18,0.45-0.27,0.93-0.26,1.42c0,0.69,0.18,1.36,0.53,1.95c0.35,0.59,0.86,1.07,1.47,1.39
	l3.81,1.97c0.61,0.32,1.12,0.8,1.47,1.39c0.35,0.59,0.54,1.27,0.53,1.95c0.01,0.48-0.08,0.97-0.26,1.42
	c-0.18,0.45-0.44,0.86-0.78,1.21c-0.34,0.35-0.74,0.62-1.18,0.82c-0.44,0.19-0.92,0.29-1.41,0.3h-4.19" />
    <path style="fill:none; stroke-width:2; stroke-linecap:round; stroke-linejoin:round;" d="M20.91,11.91V8.54" />
    <path style="fill:none; stroke-width:2; stroke-linecap:round; stroke-linejoin:round;" d="M20.91,30.98v-2.94" />
    <path style="fill:none; stroke-width:1.5;" opacity="0.6"
        d="M39.25,20c0,10.63-8.62,19.25-19.25,19.25S0.75,30.63,0.75,20S9.37,0.75,20,0.75S39.25,9.37,39.25,20z" />
</svg>
