<svg width="37" height="40" viewBox="0 0 37 40" fill="none" xmlns="http://www.w3.org/2000/svg"><path d="M22.978 25.5c-.07-.622-.275-1.07-.69-1.485-.776-.808-2.137-1.345-3.74-1.345-1.604 0-2.967.518-3.742 1.345-.395.4-.639.925-.69 1.484-.138 1.206-.052 2.24.085 3.913.139 1.586.398 3.707.724 5.845.243 1.536.432 2.362.605 2.948.292.965 1.345 1.795 3.017 1.795s2.742-.846 3.017-1.795c.172-.586.362-1.414.602-2.948.329-2.154.587-4.259.725-5.845.155-1.673.226-2.707.087-3.913Zm-.19-8.797a4.239 4.239 0 0 1-5.866 3.92 4.238 4.238 0 0 1-2.618-3.92 4.239 4.239 0 0 1 7.239-2.997 4.249 4.249 0 0 1 1.244 2.997h.002Z" fill="#1F2348"/><path d="M18.496 0C8.6.032.497 8.066.36 17.963.255 25.98 5.376 32.842 12.531 35.358c.173.07.345-.085.328-.258-.087-.621-.19-1.242-.258-1.863a.684.684 0 0 0-.364-.499C6.583 30.273 2.636 24.6 2.704 18.031c.085-8.62 7.12-15.637 15.724-15.707 8.809-.07 15.999 7.069 15.999 15.862 0 6.5-3.93 12.087-9.534 14.552a.585.585 0 0 0-.362.501l-.258 1.86c-.034.191.155.329.328.26 7.086-2.484 12.171-9.242 12.171-17.173C36.738 8.153 28.548-.02 18.496 0Z" fill="#1F2348"/><path d="M18.081 6.032C11.632 6.273 6.46 11.601 6.374 18.05a12.178 12.178 0 0 0 5.328 10.225c.155.103.38-.018.38-.207a16.935 16.935 0 0 1-.017-2.087.7.7 0 0 0-.242-.587 9.86 9.86 0 0 1-3.12-7.448 9.88 9.88 0 0 1 9.464-9.585c5.622-.225 10.241 4.293 10.241 9.844a9.874 9.874 0 0 1-3.12 7.19.82.82 0 0 0-.242.586c.036.672.018 1.327-.016 2.069-.016.19.207.328.378.207a12.201 12.201 0 0 0 5.328-10.07c.018-6.862-5.722-12.43-12.655-12.155v.001Z" fill="#1F2348"/></svg>