<svg width="40" height="27" viewBox="0 0 40 27" fill="none" xmlns="http://www.w3.org/2000/svg">
<path d="M25.7956 4.63036V19.2423C25.7956 19.8071 25.5712 20.3488 25.1719 20.7482C24.7725 21.1475 24.2308 21.3719 23.666 21.3719C23.1012 21.3719 22.5595 21.1475 22.1602 20.7482C21.7608 20.3488 21.5364 19.8071 21.5364 19.2423V15.1203C21.4565 14.802 21.271 14.5203 21.0101 14.3212C20.7493 14.1222 20.4286 14.0175 20.1005 14.0244C19.7725 14.0314 19.4565 14.1494 19.2043 14.3594C18.9521 14.5693 18.7786 14.8586 18.7122 15.1799H18.7062V18.9859C18.6893 19.5395 18.4576 20.0647 18.06 20.4503C17.6625 20.8358 17.1305 21.0515 16.5767 21.0515C16.0229 21.0515 15.4908 20.8358 15.0933 20.4503C14.6958 20.0647 14.464 19.5395 14.4471 18.9859V13.8185C14.3788 13.4924 14.2004 13.1998 13.9418 12.9897C13.6832 12.7797 13.3602 12.665 13.027 12.665C12.6939 12.665 12.3709 12.7797 12.1123 12.9897C11.8537 13.1998 11.6752 13.4924 11.607 13.8185V24.0739C11.59 24.6274 11.3583 25.1526 10.9607 25.5382C10.5632 25.9238 10.0312 26.1394 9.47737 26.1394C8.92357 26.1394 8.39154 25.9238 7.99401 25.5382C7.59648 25.1526 7.3647 24.6274 7.34779 24.0739V16.5413C7.30921 16.2017 7.13898 15.8907 6.87366 15.6752C6.60833 15.4597 6.26907 15.3568 5.92872 15.3886C5.58818 15.3573 5.24892 15.4607 4.98366 15.6765C4.7184 15.8924 4.54825 16.2035 4.50966 16.5433V17.0958C4.49275 17.6494 4.26097 18.1746 3.86344 18.5602C3.46591 18.9457 2.93387 19.1614 2.38007 19.1614C1.82628 19.1614 1.29424 18.9457 0.896709 18.5602C0.49918 18.1746 0.267401 17.6494 0.250488 17.0958V10.5173C0.250488 9.95248 0.474855 9.41081 0.87423 9.01144C1.2736 8.61206 1.81527 8.3877 2.38007 8.3877C2.94488 8.3877 3.48655 8.61206 3.88592 9.01144C4.2853 9.41081 4.50966 9.95248 4.50966 10.5173V11.0698C4.54776 11.4098 4.71778 11.7213 4.98316 11.9372C5.24854 12.1532 5.58807 12.2563 5.92872 12.2245C6.26969 12.2563 6.60949 12.1529 6.87492 11.9365C7.14035 11.7202 7.31017 11.4082 7.34779 11.0678V6.32767C7.34779 5.76287 7.57215 5.2212 7.97153 4.82183C8.3709 4.42245 8.91257 4.19809 9.47737 4.19809C10.0422 4.19809 10.5838 4.42245 10.9832 4.82183C11.3826 5.2212 11.607 5.76287 11.607 6.32767V8.33106C11.6752 8.65713 11.8537 8.94978 12.1123 9.15982C12.3709 9.36987 12.6939 9.48453 13.027 9.48453C13.3602 9.48453 13.6832 9.36987 13.9418 9.15982C14.2004 8.94978 14.3788 8.65713 14.4471 8.33106V2.80586C14.4471 2.24105 14.6714 1.69939 15.0708 1.30001C15.4702 0.900636 16.0119 0.67627 16.5767 0.67627C17.1415 0.67627 17.6831 0.900636 18.0825 1.30001C18.4819 1.69939 18.7062 2.24105 18.7062 2.80586V9.70639H18.7122C18.7768 10.0292 18.9496 10.3203 19.202 10.5316C19.4544 10.743 19.7713 10.862 20.1004 10.8689C20.4295 10.8759 20.7512 10.7704 21.0122 10.5699C21.2733 10.3693 21.4582 10.0858 21.5364 9.76602V4.63036C21.5364 4.06556 21.7608 3.52389 22.1602 3.12452C22.5595 2.72514 23.1012 2.50078 23.666 2.50078C24.2308 2.50078 24.7725 2.72514 25.1719 3.12452C25.5712 3.52389 25.7956 4.06556 25.7956 4.63036V4.63036ZM30.7722 8.20187C30.2123 8.19763 29.6735 8.4159 29.2744 8.8087C28.8752 9.2015 28.6484 9.73669 28.6437 10.2967V18.6501C28.6606 19.2036 28.8923 19.7288 29.2899 20.1144C29.6874 20.4999 30.2194 20.7156 30.7732 20.7156C31.327 20.7156 31.8591 20.4999 32.2566 20.1144C32.6541 19.7288 32.8859 19.2036 32.9028 18.6501V10.2967C32.8976 9.73651 32.6703 9.20132 32.2708 8.80858C31.8714 8.41583 31.3324 8.19763 30.7722 8.20187V8.20187ZM37.8715 12.4432C37.5941 12.4408 37.3189 12.4931 37.0617 12.5971C36.8044 12.7011 36.5702 12.8548 36.3724 13.0493C36.1745 13.2438 36.0169 13.4754 35.9086 13.7308C35.8003 13.9862 35.7433 14.2605 35.7409 14.538V16.6208C35.7409 17.1856 35.9653 17.7273 36.3647 18.1267C36.7641 18.5261 37.3057 18.7504 37.8705 18.7504C38.4353 18.7504 38.977 18.5261 39.3764 18.1267C39.7758 17.7273 40.0001 17.1856 40.0001 16.6208V14.538C39.9954 13.978 39.7685 13.4428 39.3694 13.05C38.9703 12.6572 38.4315 12.4389 37.8715 12.4432Z" fill="#1F2348"/>
</svg>
