<svg width="40" height="40" viewBox="0 0 40 40" fill="none" xmlns="http://www.w3.org/2000/svg"><path fill-rule="evenodd" clip-rule="evenodd" d="M2.395 16.003a2.395 2.395 0 0 1 2.395 2.393v2.703a2.395 2.395 0 0 1-4.79 0v-2.705a2.394 2.394 0 0 1 2.395-2.393v.002Zm34.705 0a2.395 2.395 0 0 1 2.395 2.393v2.703a2.395 2.395 0 0 1-4.79 0v-2.705a2.393 2.393 0 0 1 2.395-2.393v.002ZM11.074 7.902a2.394 2.394 0 0 1 2.394 2.395v8.833a2.395 2.395 0 0 1-4.79 0v-8.833a2.395 2.395 0 0 1 2.396-2.395Zm0 16.205a2.393 2.393 0 0 1 2.394 2.393v2.703a2.395 2.395 0 0 1-4.79 0V26.5a2.395 2.395 0 0 1 2.396-2.393ZM28.426 7.902a2.394 2.394 0 0 1 2.395 2.395v2.699a2.395 2.395 0 1 1-4.79 0v-2.7a2.395 2.395 0 0 1 2.395-2.394Zm0 10.073a2.392 2.392 0 0 1 2.395 2.393v8.835a2.395 2.395 0 0 1-4.79 0v-8.835a2.396 2.396 0 0 1 2.395-2.395v.002ZM19.748 0a2.395 2.395 0 0 1 2.394 2.395v2.699a2.395 2.395 0 1 1-4.79 0V2.396A2.394 2.394 0 0 1 19.748.002V0Zm0 10.152a2.396 2.396 0 0 1 2.394 2.395V26.95a2.395 2.395 0 0 1-4.79 0V12.546a2.395 2.395 0 0 1 2.395-2.394Zm0 21.855a2.395 2.395 0 0 1 2.394 2.395v2.7a2.395 2.395 0 0 1-4.79 0v-2.7a2.394 2.394 0 0 1 2.395-2.395Z" fill="#1F2348"/></svg>