<svg width="40" height="40" viewBox="0 0 40 40" fill="none" xmlns="http://www.w3.org/2000/svg">
<path fill-rule="evenodd" clip-rule="evenodd" d="M20 40C17.3719 40.0062 14.7684 39.4931 12.3391 38.4902C9.90977 37.4873 7.70253 36.0144 5.84413 34.156C3.98573 32.2976 2.51278 30.0903 1.50987 27.661C0.506969 25.2317 -0.00612634 22.6282 5.51955e-05 20C-0.00612634 17.3719 0.506969 14.7684 1.50987 12.3391C2.51278 9.90977 3.98573 7.70253 5.84413 5.84413C7.70253 3.98573 9.90977 2.51278 12.3391 1.50987C14.7684 0.506969 17.3719 -0.00612634 20 5.51955e-05C22.6282 -0.00612634 25.2317 0.506969 27.661 1.50987C30.0903 2.51278 32.2976 3.98573 34.156 5.84413C36.0144 7.70253 37.4873 9.90977 38.4902 12.3391C39.4931 14.7684 40.0062 17.3719 40 20C40.0062 22.6282 39.4931 25.2317 38.4902 27.661C37.4873 30.0903 36.0144 32.2976 34.156 34.156C32.2976 36.0144 30.0903 37.4873 27.661 38.4902C25.2317 39.4931 22.6282 40.0062 20 40ZM20 32.0829L21.5 30.5829L20 24.8329L18.5 30.5829L20 32.0829ZM18.0829 31.9985L17.3329 34.8328L19.0829 33.0828L18.0829 31.9985ZM21.9157 31.9985L20.9157 32.9985L22.6657 34.7485L21.9157 31.9985ZM23.3329 37.1657L19.9985 33.8329L16.6657 37.1657C17.7485 37.3328 18.8329 37.4985 19.9985 37.4985C21.1657 37.4985 22.2485 37.4157 23.3329 37.1657ZM19.9985 2.49849C10.3329 2.50005 2.50005 10.3329 2.50005 20C2.50005 27.6672 7.41724 34.1672 14.25 36.5L18 22.5844C17.1672 22 16.6672 21 16.6672 19.9172C16.6701 19.0342 17.0222 18.1882 17.6466 17.5638C18.271 16.9394 19.117 16.5873 20 16.5844C20.8833 16.5869 21.7298 16.9388 22.3545 17.5632C22.9793 18.1877 23.3315 19.0339 23.3344 19.9172C23.3344 21 22.8344 21.9172 22 22.5844L25.75 36.5C29.1847 35.3187 32.164 33.0929 34.2709 30.1342C36.3778 27.1756 37.5069 23.6322 37.5 20C37.5 10.3344 29.6672 2.50005 20 2.50005L19.9985 2.49849ZM31.4157 28.6657C30.9985 29.1657 30.2485 29.3329 29.6657 28.9157C29.0829 28.4985 28.9985 27.7485 29.4157 27.2485C29.4157 27.2485 31.6657 24.2485 31.6657 19.9985C31.6657 15.7485 29.4157 12.7485 29.4157 12.7485C28.9985 12.2485 29.0829 11.4985 29.6657 11.0829C30.2485 10.6657 30.9985 10.8329 31.4157 11.3329C31.5829 11.4985 34.1657 14.9157 34.1657 19.9985C34.1657 25.0829 31.5829 28.4985 31.4157 28.6657ZM25.3329 25.4157C24.8329 24.9157 24.9157 23.9985 25.4157 23.4985C25.4157 23.4985 26.6657 22.1657 26.6657 19.9985C26.6657 17.8329 25.4157 16.5829 25.4157 16.4985C24.9157 15.9985 24.9157 15.1657 25.3329 14.5829C25.8329 13.9985 26.5829 13.9985 27.0829 14.4985C27.1657 14.5829 29.1657 16.6657 29.1657 19.9985C29.1657 23.3329 27.1657 25.4157 27.0829 25.4985C26.5829 25.9985 25.8329 25.9157 25.3329 25.4157ZM14.6657 25.4157C14.1657 25.9157 13.4157 25.9985 12.9157 25.4985C12.8329 25.3329 10.8329 23.3329 10.8329 19.9985C10.8329 16.6657 12.8329 14.6657 12.9157 14.4985C13.4157 13.9985 14.2485 13.9985 14.6657 14.5829C15.1657 15.0829 15.0829 15.9985 14.5829 16.4985C14.5829 16.5829 13.3329 17.8329 13.3329 19.9985C13.3329 22.1657 14.5829 23.4985 14.5829 23.4985C15.0829 23.9985 15.1657 24.8329 14.6657 25.4157ZM10.3329 28.9157C9.74849 29.3329 8.99849 29.1657 8.58286 28.6657C8.41568 28.4985 5.83286 25.0829 5.83286 19.9985C5.83286 14.9157 8.41568 11.4985 8.58286 11.3329C8.99849 10.8329 9.74849 10.6657 10.3329 11.0829C10.9157 11.4985 10.9985 12.2485 10.5829 12.7485C10.5829 12.7485 8.33286 15.7485 8.33286 19.9985C8.33286 24.2485 10.5829 27.2485 10.5829 27.2485C10.9985 27.7485 10.8329 28.4985 10.3329 28.9157Z" fill="#1F2348"/>
</svg>
