<svg width="41" height="27" viewBox="0 0 41 27" fill="none" xmlns="http://www.w3.org/2000/svg"><path d="M36.931 10.234C27.65 4.754 12.338 4.25 3.475 6.924a2.708 2.708 0 0 1-2.051-.2A2.68 2.68 0 0 1 .116 5.14 2.663 2.663 0 0 1 .318 3.1a2.69 2.69 0 0 1 1.593-1.3C12.084-1.27 28.994-.676 39.681 5.63a2.68 2.68 0 0 1 1.236 1.64c.176.689.07 1.418-.294 2.03a2.692 2.692 0 0 1-1.651 1.227 2.708 2.708 0 0 1-2.04-.292Zm-.304 8.117a2.258 2.258 0 0 1-3.088.733c-7.74-4.728-19.54-6.097-28.696-3.335-.57.172-1.185.111-1.71-.167a2.24 2.24 0 0 1-1.092-1.32 2.222 2.222 0 0 1 .17-1.699c.28-.522.758-.912 1.327-1.084 10.46-3.154 23.463-1.628 32.351 3.804a2.223 2.223 0 0 1 .738 3.068Zm-3.522 7.793a1.788 1.788 0 0 1-1.111.806 1.807 1.807 0 0 1-1.359-.212c-6.762-4.108-15.273-5.036-25.297-2.76-.463.105-.95.022-1.353-.229a1.774 1.774 0 0 1-.565-2.458c.253-.4.655-.684 1.12-.79 10.97-2.492 20.377-1.42 27.969 3.19a1.79 1.79 0 0 1 .808 1.104 1.775 1.775 0 0 1-.214 1.349h.002Z" fill="#1F2348"/></svg>