<svg xmlns="http://www.w3.org/2000/svg" width="259" height="180" fill="none" viewBox="0 0 259 180">
  <path fill="#fff" fill-rule="evenodd" d="M241.346 31.592c2.401 8.96-1.26 18.114-8.468 23.111-1.955 1.356-2.839 3.995-1.82 6.144a44.916 44.916 0 0 1 2.805 7.635c6.225 23.235-7.063 47.101-29.818 54.199a.853.853 0 0 0-.603.81.84.84 0 0 0 .84.841h43.766a7.816 7.816 0 0 1 7.817 7.817v23.365a7.817 7.817 0 0 1-7.817 7.818H51.262c-21.094 1.719-41.056-11.806-46.729-32.975-6.385-23.831 7.757-48.327 31.588-54.712 15.068-4.038 30.402.131 41.255 9.767 2.393 2.124 6.489 1.22 7.304-1.873l3.679-13.951a7.384 7.384 0 0 1 1.915-3.371 7.563 7.563 0 0 1 3.379-1.968l36.275-9.72a7.514 7.514 0 0 1 7.267 1.973l6.092 6.142c2.077 2.093 5.684 1.207 6.93-1.465 5.389-11.551 15.658-20.728 28.933-24.285a44.583 44.583 0 0 1 15.701-1.343c2.369.221 4.545-1.515 5.147-3.817 1.882-7.192 7.466-13.2 15.161-15.261 11.407-3.056 23.131 3.713 26.187 15.12Z" clip-rule="evenodd"/>
  <path fill="#E2E2E2" d="m241.346 31.592-.75.201.75-.2Zm-7.483 36.89.75-.201-.75.2Zm-182.601 94.85v-.777h-.032l-.032.002.063.775ZM4.533 130.357l-.75.201.75-.201Zm31.588-54.712.201.75-.2-.75Zm52.238-6.057.751.198.002-.006-.753-.192Zm1.915-3.371-.551-.547.551.547Zm3.379-1.968-.202-.75h-.003l.205.75Zm36.275-9.72-.201-.75.201.75Zm7.267 1.973.551-.547-.001-.002-.55.55Zm41.955-19.608-.201-.75.201.75Zm36.009-20.421-.201-.75.201.75Zm-20.308 19.078-.072.774.072-.774ZM77.376 85.412l-.515.581.515-.58Zm7.304-1.873-.751-.198.751.198Zm58.607-20.895.552-.547-.552.547Zm60.758 60.037-.232-.742.232.742Zm28.833-67.977.443.638-.443-.639Zm-1.82 6.143-.701.333.701-.333Zm2.263-5.505c7.469-5.178 11.264-14.665 8.776-23.95l-1.501.401c2.313 8.633-1.213 17.456-8.16 22.272l.885 1.277Zm1.292 12.939a45.677 45.677 0 0 0-2.853-7.767l-1.403.666a44.24 44.24 0 0 1 2.755 7.503l1.501-.402Zm-30.337 55.142c23.152-7.222 36.671-31.503 30.337-55.142l-1.501.402c6.118 22.83-6.939 46.282-29.299 53.256l.463 1.484Zm43.772.132h-43.766v1.553h43.766v-1.553Zm8.594 8.594a8.593 8.593 0 0 0-8.594-8.594v1.553a7.04 7.04 0 0 1 7.041 7.041h1.553Zm0 23.365v-23.365h-1.553v23.365h1.553Zm-8.594 8.594a8.593 8.593 0 0 0 8.594-8.594h-1.553a7.04 7.04 0 0 1-7.041 7.041v1.553Zm-196.786 0h196.786v-1.553H51.262v1.553Zm-47.48-33.55c5.772 21.538 26.082 35.297 47.543 33.548l-.127-1.549c-20.726 1.689-40.34-11.601-45.914-32.401l-1.501.402ZM35.92 74.894c-24.245 6.497-38.634 31.418-32.137 55.664l1.5-.402c-6.274-23.417 7.623-47.486 31.04-53.76l-.403-1.502Zm41.972 9.937c-11.04-9.802-26.64-14.045-41.972-9.937l.402 1.501c14.806-3.967 29.872.128 40.539 9.598l1.031-1.162Zm9.716-15.441-3.68 13.951 1.503.396 3.679-13.951-1.502-.396Zm2.115-3.72a8.16 8.16 0 0 0-2.117 3.726l1.506.384a6.606 6.606 0 0 1 1.714-3.016l-1.103-1.094Zm3.725-2.17a8.34 8.34 0 0 0-3.725 2.17l1.103 1.094a6.785 6.785 0 0 1 3.031-1.765l-.41-1.5Zm36.279-9.721-36.276 9.72.403 1.5 36.275-9.72-.402-1.5Zm8.018 2.174a8.292 8.292 0 0 0-8.018-2.174l.402 1.5a6.737 6.737 0 0 1 6.516 1.772l1.1-1.098Zm6.094 6.144-6.093-6.142-1.103 1.094 6.093 6.142 1.103-1.094Zm35.11-25.954c-13.506 3.62-23.954 12.957-29.436 24.708l1.408.657c5.296-11.353 15.386-20.369 28.43-23.864l-.402-1.5Zm15.974-1.365a45.357 45.357 0 0 0-15.974 1.365l.402 1.501a43.809 43.809 0 0 1 15.428-1.32l.144-1.546Zm20.035-19.055c-7.976 2.137-13.762 8.363-15.711 15.815l1.503.393c1.813-6.934 7.196-12.72 14.61-14.707l-.402-1.501Zm27.139 15.668c-3.167-11.82-15.318-18.836-27.139-15.668l.402 1.5c10.992-2.945 22.291 3.578 25.236 14.57l1.501-.402Zm-47.318 4.934c2.798.26 5.286-1.775 5.971-4.394l-1.503-.393c-.519 1.984-2.384 3.42-4.324 3.24l-.144 1.547ZM76.861 85.993c1.405 1.248 3.295 1.595 4.942 1.194 1.655-.403 3.136-1.584 3.628-3.45l-1.502-.396c-.324 1.227-1.298 2.045-2.493 2.336-1.202.293-2.557.03-3.544-.846l-1.031 1.162Zm125.804 37.498c0 .893.724 1.617 1.617 1.617v-1.553a.064.064 0 0 1-.063-.064h-1.554Zm-59.929-60.3c2.516 2.536 6.747 1.4 8.185-1.683l-1.408-.657c-1.054 2.26-4.037 2.895-5.674 1.246l-1.103 1.094Zm61.077 58.748a1.632 1.632 0 0 0-1.148 1.552h1.554c0-.023.018-.056.057-.068l-.463-1.484Zm28.623-67.874c-2.225 1.542-3.284 4.577-2.079 7.115l1.403-.666c-.835-1.76-.125-4.003 1.561-5.172l-.885-1.277Z"/>
  <path fill="#F7931A" d="M74.243 117.636c.269 15.382-11.984 28.066-27.368 28.336-15.376.268-28.063-11.983-28.33-27.362-.27-15.382 11.981-28.068 27.36-28.336 15.382-.27 28.069 11.983 28.337 27.363v-.001Z"/>
  <path fill="#fff" d="M58.124 110.352c-.394-3.711-3.757-4.861-7.996-5.094l-.028-5.162-3.283.095.028 5.026c-.874.028-1.747.065-2.62.109l-.028-5.059-3.281.095.028 5.16c-.71.034-1.409.067-2.089.087v-.016l-4.528.13.02 3.356s2.423-.115 2.383-.071c1.33-.038 1.766.689 1.896 1.323l.032 5.88c.092-.002.212-.001.347.012l-.347.01.045 8.239c-.056.402-.299 1.048-1.229 1.076.043.034-2.385.069-2.385.069l-.631 3.772 4.272-.123c.794-.023 1.576-.033 2.344-.05l.03 5.22 3.28-.094-.03-5.166c.9-.008 1.771-.027 2.622-.051l.027 5.142 3.281-.096-.026-5.211c5.517-.463 9.371-1.906 9.824-6.879.366-4.006-1.607-5.731-4.744-6.362 1.898-.983 3.079-2.652 2.786-5.367Zm-4.532 11.295c.023 3.902-6.958 3.661-9.183 3.726l-.037-6.917c2.225-.063 9.198-.877 9.22 3.191Zm-1.58-9.713c.018 3.549-5.804 3.303-7.657 3.357l-.034-6.274c1.852-.054 7.67-.786 7.69 2.916v.001Z"/>
  <path fill="#7B1AF7" d="M81.517 137.552c6.502-1.743 10.361-8.426 8.619-14.928-1.742-6.503-8.426-10.361-14.928-8.619-6.502 1.742-10.361 8.426-8.619 14.928 1.743 6.502 8.426 10.361 14.928 8.619Z"/>
  <path fill="#fff" d="m73.319 127.403 6.036-8.866c.284-.311.668-.179.56.252l-1.185 5.598 4.468-1.197s.71-.19.156.584l-5.9 8.875c-.42.605-.863.455-.677-.355l1.135-5.45-4.425 1.185s-.71.191-.168-.626Z"/>
  <path fill="url(#a)" d="m147.646 88.558-16.487-16.674a4.642 4.642 0 0 0-4.495-1.229l-22.428 6.01a4.663 4.663 0 0 0-2.088 1.219 4.58 4.58 0 0 0-1.183 2.09l-5.94 22.684a4.767 4.767 0 0 0 1.216 4.542l16.487 16.673a4.578 4.578 0 0 0 2.07 1.219c.788.216 1.623.22 2.417.011l22.428-6.009a4.66 4.66 0 0 0 2.088-1.219 4.573 4.573 0 0 0 1.183-2.091l5.941-22.682a4.74 4.74 0 0 0-1.209-4.544Z"/>
  <g clip-path="url(#b)">
    <path fill="#2775CA" d="M198.332 106.942a27.793 27.793 0 0 0 19.7-34.121 27.793 27.793 0 0 0-34.121-19.7 27.793 27.793 0 0 0-19.7 34.121 27.793 27.793 0 0 0 34.121 19.7Z"/>
    <path fill="#fff" d="M199.664 82.31c-1.052-3.925-3.767-4.64-8.627-3.938-3.484.452-4.397-.264-4.817-1.834-.421-1.57.43-2.88 2.672-3.48 2.019-.541 3.32-.169 4.332 1.363.202.306.598.44.935.35l1.794-.48a.794.794 0 0 0 .574-.996l-.03-.112a5.798 5.798 0 0 0-6.277-3.245l-.721-2.691c-.121-.449-.547-.695-1.138-.657l-1.682.45c-.448.12-.695.547-.656 1.138l.691 2.58c-3.244 1.35-4.773 4.162-4.022 6.966.991 3.7 3.624 4.556 8.484 3.855 3.29-.28 4.479.122 4.96 1.916.481 1.794-.759 3.448-2.889 4.02-2.916.78-4.255-.183-5.042-1.775-.233-.418-.629-.552-.965-.462l-1.907.51a.794.794 0 0 0-.574.996l.03.112c1.199 2.683 3.534 4.22 7.385 3.79l.721 2.691c.12.448.546.695 1.137.657l1.682-.451c.449-.12.695-.547.657-1.137l-.721-2.692c3.213-1.462 4.825-4.417 4.014-7.445Z"/>
    <path fill="#fff" d="M189.699 97.598c-9.587-.796-16.686-9.35-15.747-18.855.42-5.16 3.158-9.74 7.305-12.653.388-.344.522-.74.372-1.302l-.42-1.57c-.121-.448-.435-.724-.914-.716-.112.03-.336.09-.418.232-9.751 6.218-12.547 19.106-6.329 28.857 3.701 5.738 9.814 9.267 16.634 9.603.509.104.897-.24.889-.719.082-.142.052-.254-.008-.478l-.42-1.57c-.091-.337-.547-.695-.944-.829Zm2.512-38.169c-.509-.104-.897.24-.889.72-.082.142-.052.254.008.478l.421 1.57c.12.448.576.806.973.94 9.587.797 16.686 9.35 15.748 18.855-.42 5.16-3.159 9.74-7.305 12.654-.389.344-.523.74-.373 1.301l.421 1.57c.12.449.434.725.913.717.112-.03.336-.09.419-.233 9.75-6.218 12.546-19.105 6.328-28.856-3.73-5.85-9.956-9.35-16.664-9.716Z"/>
  </g>
  <path fill="#1F2348" d="M99.533 148.488v-10.954h2.004v4.848h.031l4.771-4.848h2.423l-5.718 5.702.016-.87 6.075 6.122h-2.501l-5.066-5.065h-.031v5.065h-2.004Zm10.178 0v-5.842c0-.332-.011-.668-.032-1.01a10.19 10.19 0 0 0-.077-.994h1.88l.217 2.144h-.31c.103-.518.274-.948.512-1.29a2.34 2.34 0 0 1 .902-.761 2.66 2.66 0 0 1 1.149-.249c.187 0 .337.011.451.031.114.011.228.036.342.078l-.016 1.709a2.086 2.086 0 0 0-.512-.155 3.447 3.447 0 0 0-.513-.031c-.446 0-.824.093-1.134.279a1.783 1.783 0 0 0-.684.777 2.81 2.81 0 0 0-.218 1.135v4.179h-1.957Zm6.43 3.528-.451-1.539a7.303 7.303 0 0 0 1.228-.357c.331-.135.606-.311.824-.528.217-.218.398-.498.543-.84l.389-.916-.047.761-3.418-7.955h2.066l2.455 6.122h-.45l2.47-6.122h1.958l-3.574 8.281c-.238.56-.497 1.021-.777 1.383a3.82 3.82 0 0 1-.901.886 3.87 3.87 0 0 1-1.056.528 8.313 8.313 0 0 1-1.259.296Zm8.592-.171v-9.246a15.496 15.496 0 0 0-.124-1.957h1.88l.171 1.647h-.171c.155-.549.482-.984.979-1.306.508-.331 1.093-.497 1.756-.497.694 0 1.3.166 1.818.497.518.322.922.788 1.212 1.399.29.601.435 1.326.435 2.175 0 .85-.145 1.58-.435 2.191-.29.611-.694 1.083-1.212 1.414-.518.321-1.124.482-1.818.482-.653 0-1.228-.161-1.725-.482a2.306 2.306 0 0 1-.994-1.29h.171v4.973h-1.943Zm3.947-4.693c.621 0 1.119-.212 1.492-.637.373-.435.559-1.088.559-1.958 0-.87-.186-1.517-.559-1.942-.373-.425-.871-.637-1.492-.637-.611 0-1.103.212-1.476.637-.373.425-.56 1.072-.56 1.942 0 .87.187 1.523.56 1.958.373.425.865.637 1.476.637Zm8.969 1.492c-.932 0-1.637-.244-2.113-.731-.477-.486-.715-1.217-.715-2.19v-3.621h-1.507v-1.46h1.507v-2.005l1.942-.497v2.502h2.098v1.46h-2.098v3.496c0 .539.104.917.311 1.135.207.217.492.326.855.326.197 0 .362-.016.497-.047.145-.031.285-.072.42-.124v1.538a2.492 2.492 0 0 1-.591.156 3.117 3.117 0 0 1-.606.062Zm5.998 0c-.808 0-1.507-.166-2.097-.497a3.494 3.494 0 0 1-1.383-1.414c-.321-.612-.482-1.337-.482-2.176 0-.839.161-1.559.482-2.16a3.494 3.494 0 0 1 1.383-1.414c.59-.331 1.289-.497 2.097-.497s1.507.166 2.098.497a3.373 3.373 0 0 1 1.383 1.414c.331.601.497 1.321.497 2.16 0 .839-.166 1.564-.497 2.176a3.373 3.373 0 0 1-1.383 1.414c-.591.331-1.29.497-2.098.497Zm0-1.492c.611 0 1.098-.212 1.461-.637.362-.435.544-1.088.544-1.958 0-.87-.182-1.517-.544-1.942-.363-.425-.85-.637-1.461-.637-.611 0-1.098.212-1.46.637-.363.425-.544 1.072-.544 1.942 0 .87.181 1.523.544 1.958.362.425.849.637 1.46.637Zm12.092 1.336-3.061-7.846h2.005l2.206 6.106h-.404l2.238-6.106h1.382l2.222 6.106h-.357l2.191-6.106h1.896l-3.061 7.846h-1.71l-2.346-6.246h.824l-2.3 6.246h-1.725Zm11.542 0v-7.846h1.943v7.846h-1.943Zm-.109-9.323v-1.895h2.16v1.895h-2.16Zm4.161 9.323v-11.436h1.942v11.436h-1.942Zm4.051 0v-11.436h1.942v11.436h-1.942Zm4.052 0v-11.436h1.942v6.93h.031l3.185-3.34h2.347l-3.963 4.148.016-.777 4.226 4.475h-2.408l-3.403-3.511h-.031v3.511h-1.942Zm11.964.156c-.808 0-1.507-.166-2.098-.497a3.507 3.507 0 0 1-1.383-1.414c-.321-.612-.481-1.337-.481-2.176 0-.839.16-1.559.481-2.16a3.507 3.507 0 0 1 1.383-1.414c.591-.331 1.29-.497 2.098-.497.808 0 1.507.166 2.098.497.6.332 1.061.803 1.383 1.414.331.601.497 1.321.497 2.16 0 .839-.166 1.564-.497 2.176a3.385 3.385 0 0 1-1.383 1.414c-.591.331-1.29.497-2.098.497Zm0-1.492c.611 0 1.098-.212 1.461-.637.362-.435.543-1.088.543-1.958 0-.87-.181-1.517-.543-1.942-.363-.425-.85-.637-1.461-.637-.611 0-1.098.212-1.461.637-.362.425-.543 1.072-.543 1.942 0 .87.181 1.523.543 1.958.363.425.85.637 1.461.637Zm5.653 1.336v-5.889a14.723 14.723 0 0 0-.125-1.957h1.881l.155 1.553h-.187c.218-.538.549-.958.995-1.258.456-.301.994-.451 1.616-.451.621 0 1.134.15 1.538.451.415.29.705.746.87 1.367h-.248a2.7 2.7 0 0 1 1.072-1.321 3.013 3.013 0 0 1 1.709-.497c.881 0 1.538.259 1.973.777.435.518.653 1.326.653 2.424v4.801h-1.942v-4.723c0-.622-.104-1.067-.311-1.337-.207-.279-.539-.419-.995-.419-.538 0-.963.192-1.274.575-.31.373-.466.88-.466 1.523v4.381h-1.942v-4.723c0-.622-.104-1.067-.311-1.337-.207-.279-.538-.419-.994-.419-.539 0-.964.192-1.274.575-.301.373-.451.88-.451 1.523v4.381h-1.942Zm13.975 0v-5.889a15.496 15.496 0 0 0-.124-1.957h1.88l.155 1.553h-.186c.217-.538.549-.958.994-1.258.456-.301.995-.451 1.616-.451.622 0 1.134.15 1.538.451.415.29.705.746.871 1.367h-.249a2.705 2.705 0 0 1 1.072-1.321 3.013 3.013 0 0 1 1.709-.497c.881 0 1.539.259 1.974.777.435.518.652 1.326.652 2.424v4.801h-1.942v-4.723c0-.622-.104-1.067-.311-1.337-.207-.279-.538-.419-.994-.419-.539 0-.964.192-1.274.575-.311.373-.466.88-.466 1.523v4.381H216v-4.723c0-.622-.103-1.067-.311-1.337-.207-.279-.538-.419-.994-.419-.539 0-.963.192-1.274.575-.301.373-.451.88-.451 1.523v4.381h-1.942Zm17.767.156c-1.316 0-2.347-.363-3.092-1.088-.746-.725-1.119-1.72-1.119-2.983 0-.819.16-1.533.481-2.145a3.567 3.567 0 0 1 1.337-1.429c.58-.342 1.253-.513 2.02-.513.756 0 1.388.161 1.895.482.508.321.891.772 1.15 1.352.27.58.404 1.258.404 2.035v.513h-5.718v-1.026h4.335l-.264.218c0-.725-.155-1.279-.466-1.663-.3-.383-.741-.575-1.321-.575-.642 0-1.139.228-1.491.684-.342.456-.513 1.093-.513 1.911v.202c0 .85.207 1.487.621 1.912.425.414 1.021.621 1.787.621.446 0 .86-.057 1.243-.171a3.634 3.634 0 0 0 1.119-.59l.575 1.305c-.373.3-.818.533-1.336.699a5.365 5.365 0 0 1-1.647.249Zm4.721-.156v-5.889a15.496 15.496 0 0 0-.124-1.957h1.88l.155 1.553h-.186a2.727 2.727 0 0 1 1.103-1.258c.487-.301 1.051-.451 1.694-.451.921 0 1.616.259 2.082.777.466.518.699 1.326.699 2.424v4.801h-1.942v-4.708c0-.632-.125-1.082-.373-1.352-.239-.279-.601-.419-1.088-.419-.601 0-1.077.186-1.429.559-.353.373-.529.87-.529 1.492v4.428h-1.942Z"/>
  <path fill="#F5871F" d="M221.342 29.597h4.288c0 1.462-1.16 2.81-2.81 2.81h-4.279c-.008-1.479 1.184-2.81 2.801-2.81Z"/>
  <path fill="#D84332" d="M227.942 33.632c.008.024 2.139 3.707 2.139 3.707-1.266.735-3.021.409-3.846-1.037-.008-.024-2.14-3.708-2.14-3.708 1.307-.735 3.046-.367 3.847 1.038Z"/>
  <path fill="#28B9A2" d="M216.058 38.36c.008.024 2.14 3.707 2.14 3.707-1.266.735-3.022.408-3.847-1.037-.008-.025-2.139-3.708-2.139-3.708 1.298-.727 3.038-.351 3.846 1.037Z"/>
  <path fill="#E7B121" d="M217.717 33.435c-.009.024-2.14 3.708-2.14 3.708-1.266-.735-1.862-2.418-1.037-3.847.008-.024 2.139-3.708 2.139-3.708 1.291.76 1.838 2.45 1.038 3.847Z"/>
  <path fill="#1D2348" d="M227.769 41.373a1204.4 1204.4 0 0 1-2.14 3.707c-1.266-.735-1.862-2.417-1.037-3.846.008-.025 2.14-3.708 2.14-3.708a2.826 2.826 0 0 1 1.037 3.847Z"/>
  <path fill="#1681C4" d="M219.496 42.272h4.287c0 1.462-1.159 2.81-2.809 2.81h-4.279a2.79 2.79 0 0 1 2.801-2.81Z"/>
  <defs>
    <radialGradient id="a" cx="0" cy="0" r="1" gradientTransform="rotate(165 70.109 67.67) scale(55.7193 50.1474)" gradientUnits="userSpaceOnUse">
      <stop stop-color="#EC991C"/>
      <stop offset="1" stop-color="#E9B213"/>
    </radialGradient>
    <clipPath id="b">
      <path fill="#fff" d="m157 60.332 53.82-14.422 14.422 53.822-53.822 14.421z"/>
    </clipPath>
  </defs>
</svg>
