<svg xmlns="http://www.w3.org/2000/svg" width="259" height="180" fill="none" viewBox="0 0 259 180">
  <path fill="#fff" fill-rule="evenodd" d="M241.346 31.331c2.401 8.96-1.26 18.114-8.468 23.112-1.955 1.355-2.839 3.994-1.82 6.143a44.918 44.918 0 0 1 2.805 7.635c6.225 23.235-7.063 47.102-29.818 54.199a.855.855 0 0 0-.603.811c0 .464.377.84.841.84h41.765c4.318 0 7.817 3.5 7.817 7.817v23.366a7.817 7.817 0 0 1-7.817 7.817H51.261c-21.093 1.719-41.055-11.806-46.728-32.975-6.385-23.831 7.757-48.327 31.588-54.712 15.068-4.038 30.402.132 41.255 9.768 2.393 2.123 6.489 1.22 7.304-1.874l3.679-13.951a7.384 7.384 0 0 1 1.915-3.371 7.563 7.563 0 0 1 3.379-1.968l36.275-9.72a7.514 7.514 0 0 1 7.267 1.973l6.092 6.142c2.077 2.093 5.684 1.207 6.93-1.465 5.389-11.551 15.658-20.728 28.933-24.285a44.583 44.583 0 0 1 15.701-1.343c2.369.221 4.545-1.514 5.147-3.816 1.882-7.193 7.466-13.2 15.161-15.262 11.407-3.056 23.131 3.713 26.187 15.12Z" clip-rule="evenodd"/>
  <path fill="#E2E2E2" d="m241.346 31.331-.75.202.75-.202Zm-7.483 36.89.75-.201-.75.2ZM51.261 163.07v-.777h-.031l-.032.002.063.775ZM4.533 130.096l.75-.201-.75.201Zm31.588-54.712-.2-.75.2.75Zm52.238-6.057.751.198.002-.006-.753-.192Zm1.915-3.371-.551-.547.551.547Zm3.379-1.968-.202-.75h-.003l.205.75Zm36.275-9.72.201.75-.201-.75Zm7.267 1.973.551-.547-.001-.001-.55.548Zm41.955-19.608-.201-.75.201.75Zm36.009-20.42-.201-.751.201.75ZM194.851 35.29l-.072.773.072-.773ZM77.376 85.15l-.515.582.515-.581Zm65.911-22.768.552-.547-.552.547Zm60.758 60.037-.232-.741.232.741Zm27.013-61.834-.701.333.701-.333Zm2.263-5.505c7.469-5.178 11.264-14.665 8.776-23.95l-1.501.402c2.313 8.632-1.213 17.455-8.16 22.271l.885 1.277Zm1.292 12.939a45.679 45.679 0 0 0-2.853-7.767l-1.403.666a44.233 44.233 0 0 1 2.755 7.503l1.501-.402Zm-30.337 55.142c23.152-7.221 36.671-31.503 30.337-55.142l-1.501.402c6.118 22.83-6.939 46.282-29.299 53.257l.463 1.483Zm41.772.132h-41.765v1.554h41.765v-1.554Zm8.594 8.594a8.593 8.593 0 0 0-8.594-8.594v1.554a7.041 7.041 0 0 1 7.041 7.04h1.553Zm0 23.366v-23.366h-1.553v23.366h1.553Zm-8.594 8.594a8.594 8.594 0 0 0 8.594-8.594h-1.553a7.04 7.04 0 0 1-7.041 7.04v1.554Zm-194.787 0h194.787v-1.554H51.261v1.554Zm-47.478-33.55c5.771 21.539 26.08 35.297 47.541 33.548l-.126-1.549c-20.726 1.689-40.34-11.601-45.914-32.401l-1.501.402ZM35.92 74.633C11.675 81.13-2.714 106.052 3.783 130.297l1.5-.402c-6.274-23.417 7.623-47.486 31.04-53.76l-.403-1.502Zm41.972 9.938c-11.04-9.802-26.64-14.046-41.972-9.938l.402 1.501c14.806-3.967 29.872.129 40.539 9.599l1.031-1.162Zm9.716-15.442-3.68 13.951 1.503.396 3.679-13.951-1.502-.396Zm2.115-3.72a8.162 8.162 0 0 0-2.117 3.726l1.506.384a6.606 6.606 0 0 1 1.714-3.016l-1.103-1.094Zm3.725-2.17a8.341 8.341 0 0 0-3.725 2.17l1.103 1.094a6.787 6.787 0 0 1 3.031-1.765l-.41-1.5Zm36.279-9.721-36.276 9.72.403 1.5 36.275-9.72-.402-1.5Zm8.018 2.175a8.292 8.292 0 0 0-8.018-2.175l.402 1.5a6.737 6.737 0 0 1 6.516 1.772l1.1-1.097Zm6.094 6.143-6.093-6.142-1.103 1.094 6.093 6.142 1.103-1.094Zm35.11-25.954c-13.506 3.62-23.954 12.957-29.436 24.708l1.408.657c5.296-11.352 15.386-20.368 28.43-23.864l-.402-1.5Zm15.974-1.365a45.36 45.36 0 0 0-15.974 1.365l.402 1.501a43.809 43.809 0 0 1 15.428-1.319l.144-1.547Zm20.035-19.055c-7.976 2.137-13.762 8.363-15.711 15.815l1.503.393c1.813-6.933 7.196-12.72 14.61-14.707l-.402-1.501Zm27.139 15.668c-3.167-11.82-15.318-18.836-27.139-15.668l.402 1.5c10.992-2.945 22.291 3.579 25.236 14.57l1.501-.402Zm-47.318 4.934c2.798.26 5.286-1.774 5.971-4.394l-1.503-.393c-.519 1.984-2.384 3.42-4.324 3.24l-.144 1.547ZM76.861 85.733c1.405 1.247 3.295 1.595 4.942 1.193 1.655-.403 3.136-1.584 3.628-3.45l-1.502-.396c-.324 1.227-1.298 2.045-2.493 2.337-1.202.292-2.557.03-3.544-.846l-1.031 1.162Zm125.804 37.498c0 .893.724 1.617 1.618 1.617v-1.554a.064.064 0 0 1-.064-.063h-1.554Zm-59.929-60.3c2.516 2.535 6.747 1.399 8.185-1.684l-1.408-.657c-1.054 2.26-4.037 2.895-5.674 1.246l-1.103 1.094Zm61.077 58.748a1.63 1.63 0 0 0-1.148 1.552h1.554c0-.023.018-.057.057-.069l-.463-1.483Zm28.623-67.875c-2.225 1.542-3.284 4.577-2.079 7.115l1.403-.666c-.835-1.76-.125-4.003 1.561-5.172l-.885-1.277Z"/>
  <path fill="#F7931A" d="M74.243 117.375c.269 15.382-11.984 28.066-27.368 28.336-15.376.268-28.063-11.983-28.33-27.362-.27-15.382 11.981-28.068 27.36-28.336 15.382-.27 28.069 11.983 28.337 27.363v-.001Z"/>
  <path fill="#fff" d="M58.124 110.091c-.394-3.711-3.757-4.861-7.996-5.094l-.028-5.162-3.283.095.028 5.026c-.874.028-1.747.065-2.62.109l-.028-5.059-3.281.095.028 5.16c-.71.035-1.409.067-2.089.088v-.016l-4.528.129.02 3.356s2.423-.114 2.383-.071c1.33-.038 1.766.689 1.896 1.323l.032 5.88c.092-.002.212-.001.347.012l-.347.011.045 8.238c-.056.402-.299 1.048-1.229 1.076.043.035-2.385.069-2.385.069l-.631 3.772 4.272-.123c.794-.023 1.576-.033 2.344-.05l.03 5.221 3.28-.095-.03-5.166c.9-.007 1.771-.027 2.622-.051l.027 5.142 3.281-.095-.026-5.212c5.517-.463 9.371-1.905 9.824-6.879.366-4.006-1.607-5.731-4.744-6.362 1.898-.983 3.079-2.652 2.786-5.367Zm-4.532 11.296c.023 3.901-6.958 3.66-9.183 3.726l-.037-6.918c2.225-.063 9.198-.877 9.22 3.192Zm-1.58-9.714c.018 3.549-5.804 3.303-7.657 3.357l-.034-6.274c1.852-.054 7.67-.786 7.69 2.916v.001Z"/>
  <path fill="#7B1AF7" d="M81.517 137.291c6.502-1.742 10.361-8.426 8.619-14.928-1.742-6.502-8.426-10.361-14.928-8.619-6.502 1.742-10.361 8.426-8.619 14.928 1.743 6.502 8.426 10.361 14.928 8.619Z"/>
  <path fill="#fff" d="m73.319 127.142 6.036-8.866c.284-.311.668-.179.56.252l-1.185 5.598 4.468-1.197s.71-.19.156.585l-5.9 8.874c-.42.605-.863.455-.677-.355l1.135-5.45-4.425 1.186s-.71.19-.168-.627Z"/>
  <path fill="url(#a)" d="m147.646 88.297-16.487-16.674a4.642 4.642 0 0 0-4.495-1.229l-22.428 6.01a4.663 4.663 0 0 0-2.088 1.219 4.58 4.58 0 0 0-1.183 2.09l-5.94 22.684a4.767 4.767 0 0 0 1.216 4.542l16.487 16.673a4.57 4.57 0 0 0 2.07 1.219c.788.216 1.623.22 2.417.012l22.428-6.01a4.66 4.66 0 0 0 2.088-1.219 4.57 4.57 0 0 0 1.183-2.09l5.941-22.683a4.741 4.741 0 0 0-1.209-4.544Z"/>
  <g clip-path="url(#b)">
    <path fill="#2775CA" d="M198.332 106.681a27.793 27.793 0 0 0 19.7-34.121 27.793 27.793 0 0 0-34.121-19.7 27.793 27.793 0 0 0-19.7 34.121 27.793 27.793 0 0 0 34.121 19.7Z"/>
    <path fill="#fff" d="M199.664 82.049c-1.052-3.925-3.767-4.64-8.627-3.938-3.484.453-4.397-.264-4.817-1.834-.421-1.57.43-2.88 2.672-3.48 2.019-.541 3.32-.169 4.332 1.363.202.306.598.44.935.35l1.794-.48a.794.794 0 0 0 .574-.996l-.03-.112a5.798 5.798 0 0 0-6.277-3.245l-.721-2.691c-.121-.449-.547-.695-1.138-.657l-1.682.45c-.448.121-.695.547-.656 1.138l.691 2.58c-3.244 1.35-4.773 4.162-4.022 6.966.991 3.7 3.624 4.557 8.484 3.856 3.29-.281 4.479.121 4.96 1.915.481 1.794-.759 3.449-2.889 4.02-2.916.78-4.255-.183-5.042-1.775-.233-.418-.629-.552-.965-.462l-1.907.51a.794.794 0 0 0-.574.996l.03.112c1.199 2.683 3.534 4.22 7.385 3.79l.721 2.691c.12.448.546.695 1.137.657l1.682-.45c.449-.121.695-.548.657-1.138l-.721-2.691c3.213-1.463 4.825-4.418 4.014-7.445Z"/>
    <path fill="#fff" d="M189.699 97.337c-9.587-.796-16.686-9.35-15.747-18.855.42-5.16 3.158-9.739 7.305-12.653.388-.344.522-.74.372-1.301l-.42-1.57c-.121-.449-.435-.725-.914-.717-.112.03-.336.09-.418.232-9.751 6.219-12.547 19.106-6.329 28.857 3.701 5.738 9.814 9.268 16.634 9.603.509.104.897-.24.889-.719.082-.142.052-.254-.008-.478l-.42-1.57c-.091-.336-.547-.695-.944-.829Zm2.512-38.169c-.509-.103-.897.24-.889.72-.082.142-.052.254.008.478l.421 1.57c.12.449.576.807.973.941 9.587.796 16.686 9.35 15.748 18.855-.42 5.16-3.159 9.74-7.305 12.653-.389.344-.523.74-.373 1.301l.421 1.57c.12.449.434.725.913.717.112-.03.336-.09.419-.232 9.75-6.218 12.546-19.106 6.328-28.856-3.73-5.851-9.956-9.35-16.664-9.717Z"/>
  </g>
  <path fill="#1F2348" d="m98.32 148.228 4.957-10.955h1.679l5.018 10.955h-2.035l-1.336-3.077.808.544h-6.573l.839-.544-1.336 3.077h-2.02Zm5.781-8.811-2.191 5.19-.404-.482h5.221l-.326.482-2.238-5.19h-.062Zm10.459 8.966c-.808 0-1.518-.166-2.129-.497a3.474 3.474 0 0 1-1.398-1.414c-.332-.622-.497-1.357-.497-2.207 0-.849.165-1.574.497-2.175a3.492 3.492 0 0 1 1.414-1.383c.601-.321 1.305-.482 2.113-.482.518 0 1.02.083 1.507.249.497.155.901.383 1.212.684l-.59 1.351a2.708 2.708 0 0 0-.948-.574 2.738 2.738 0 0 0-1.01-.202c-.694 0-1.238.217-1.632.652-.383.435-.574 1.067-.574 1.896s.191 1.466.574 1.911c.394.445.938.668 1.632.668.321 0 .653-.062.994-.186.353-.125.674-.316.964-.575l.59 1.336c-.321.3-.73.534-1.227.699a4.593 4.593 0 0 1-1.492.249Zm7.678 0c-.808 0-1.517-.166-2.129-.497a3.474 3.474 0 0 1-1.398-1.414c-.332-.622-.497-1.357-.497-2.207 0-.849.165-1.574.497-2.175a3.492 3.492 0 0 1 1.414-1.383c.601-.321 1.305-.482 2.113-.482.518 0 1.02.083 1.507.249.498.155.902.383 1.212.684l-.59 1.351a2.708 2.708 0 0 0-.948-.574 2.734 2.734 0 0 0-1.01-.202c-.694 0-1.238.217-1.631.652-.384.435-.575 1.067-.575 1.896s.191 1.466.575 1.911c.393.445.937.668 1.631.668.321 0 .653-.062.994-.186.353-.125.674-.316.964-.575l.59 1.336c-.321.3-.73.534-1.227.699a4.593 4.593 0 0 1-1.492.249Zm7.865 0c-1.316 0-2.347-.363-3.092-1.088-.746-.725-1.119-1.719-1.119-2.983 0-.818.16-1.533.481-2.144a3.563 3.563 0 0 1 1.337-1.43c.58-.342 1.253-.513 2.02-.513.756 0 1.388.161 1.895.482.508.321.891.772 1.15 1.352.27.58.404 1.258.404 2.035v.513h-5.718v-1.025h4.335l-.264.217c0-.725-.155-1.279-.466-1.662-.3-.384-.741-.575-1.321-.575-.642 0-1.139.228-1.491.683-.342.456-.513 1.093-.513 1.911v.202c0 .85.207 1.487.621 1.912.425.414 1.021.621 1.787.621.446 0 .86-.057 1.243-.171a3.634 3.634 0 0 0 1.119-.59l.575 1.305c-.373.3-.818.534-1.336.699a5.365 5.365 0 0 1-1.647.249Zm4.721 3.201v-9.245a15.449 15.449 0 0 0-.124-1.958h1.88l.171 1.647h-.171c.155-.549.481-.984.979-1.305.507-.332 1.093-.498 1.756-.498.694 0 1.3.166 1.817.498.518.321.922.787 1.212 1.398.291.601.436 1.326.436 2.175 0 .85-.145 1.58-.436 2.191-.29.611-.694 1.083-1.212 1.414-.517.321-1.123.482-1.817.482-.653 0-1.228-.161-1.725-.482a2.313 2.313 0 0 1-.995-1.289h.171v4.972h-1.942Zm3.947-4.693c.621 0 1.118-.212 1.491-.637.373-.435.56-1.088.56-1.958 0-.87-.187-1.517-.56-1.942-.373-.425-.87-.637-1.491-.637-.611 0-1.104.212-1.476.637-.373.425-.56 1.072-.56 1.942 0 .87.187 1.523.56 1.958.372.425.865.637 1.476.637Zm8.969 1.492c-.932 0-1.637-.244-2.113-.73-.477-.487-.715-1.218-.715-2.191v-3.621h-1.507v-1.46h1.507v-2.005l1.942-.497v2.502h2.098v1.46h-2.098v3.496c0 .539.104.917.311 1.135.207.217.492.326.855.326.196 0 .362-.016.497-.047a2.74 2.74 0 0 0 .419-.124v1.538a2.437 2.437 0 0 1-.59.156 3.117 3.117 0 0 1-.606.062Zm6.247 0c-1.316 0-2.347-.363-3.093-1.088-.745-.725-1.118-1.719-1.118-2.983 0-.818.16-1.533.481-2.144a3.563 3.563 0 0 1 1.337-1.43c.58-.342 1.253-.513 2.02-.513.756 0 1.388.161 1.895.482.508.321.891.772 1.15 1.352.269.58.404 1.258.404 2.035v.513h-5.718v-1.025h4.335l-.264.217c0-.725-.155-1.279-.466-1.662-.3-.384-.741-.575-1.321-.575-.642 0-1.139.228-1.491.683-.342.456-.513 1.093-.513 1.911v.202c0 .85.207 1.487.621 1.912.425.414 1.021.621 1.787.621.446 0 .86-.057 1.243-.171a3.634 3.634 0 0 0 1.119-.59l.575 1.305c-.373.3-.818.534-1.336.699a5.365 5.365 0 0 1-1.647.249Zm4.705-.155v-5.843c0-.331-.01-.668-.031-1.01a10.19 10.19 0 0 0-.077-.994h1.88l.217 2.144h-.311c.104-.518.275-.948.513-1.29.249-.342.549-.595.901-.761a2.667 2.667 0 0 1 1.15-.249c.187 0 .337.011.451.031.114.011.228.037.342.078l-.016 1.709a2.15 2.15 0 0 0-.513-.155 3.423 3.423 0 0 0-.512-.031c-.446 0-.824.093-1.135.28-.3.186-.528.445-.683.776a2.81 2.81 0 0 0-.218 1.135v4.18h-1.958Zm10.38 0v-11.437h1.942v11.437h-1.942Zm7.843.155c-1.316 0-2.347-.363-3.093-1.088-.745-.725-1.118-1.719-1.118-2.983 0-.818.16-1.533.481-2.144a3.563 3.563 0 0 1 1.337-1.43c.58-.342 1.253-.513 2.02-.513.756 0 1.388.161 1.895.482.508.321.891.772 1.15 1.352.269.58.404 1.258.404 2.035v.513h-5.718v-1.025h4.335l-.264.217c0-.725-.155-1.279-.466-1.662-.3-.384-.741-.575-1.321-.575-.642 0-1.139.228-1.491.683-.342.456-.513 1.093-.513 1.911v.202c0 .85.207 1.487.621 1.912.425.414 1.021.621 1.787.621.446 0 .86-.057 1.243-.171a3.634 3.634 0 0 0 1.119-.59l.575 1.305c-.373.3-.818.534-1.336.699a5.365 5.365 0 0 1-1.647.249Zm7.518 0a7.087 7.087 0 0 1-1.865-.233c-.559-.166-1.031-.394-1.414-.684l.544-1.305c.394.269.829.476 1.305.621a4.94 4.94 0 0 0 1.445.218c.518 0 .902-.088 1.15-.264a.824.824 0 0 0 .389-.715c0-.238-.083-.425-.249-.559-.155-.145-.409-.254-.761-.327l-1.554-.295c-.663-.145-1.171-.393-1.523-.746-.342-.352-.513-.813-.513-1.383 0-.486.13-.916.389-1.289.269-.373.647-.663 1.134-.87.497-.218 1.077-.327 1.74-.327.58 0 1.124.078 1.632.233.518.156.953.389 1.305.7l-.559 1.258a3.668 3.668 0 0 0-1.104-.606 3.654 3.654 0 0 0-1.212-.217c-.538 0-.932.098-1.18.295a.87.87 0 0 0-.373.73c0 .228.072.42.217.575.156.145.394.254.715.326l1.554.296c.694.134 1.217.373 1.569.714.363.332.544.788.544 1.368 0 .518-.14.963-.42 1.336-.279.373-.668.658-1.165.855-.497.196-1.077.295-1.74.295Zm12.856 0c-.808 0-1.518-.166-2.129-.497a3.468 3.468 0 0 1-1.398-1.414c-.332-.622-.497-1.357-.497-2.207 0-.849.165-1.574.497-2.175a3.492 3.492 0 0 1 1.414-1.383c.601-.321 1.305-.482 2.113-.482.518 0 1.02.083 1.507.249.497.155.901.383 1.212.684l-.59 1.351a2.708 2.708 0 0 0-.948-.574 2.738 2.738 0 0 0-1.01-.202c-.694 0-1.238.217-1.632.652-.383.435-.575 1.067-.575 1.896s.192 1.466.575 1.911c.394.445.938.668 1.632.668.321 0 .652-.062.994-.186.353-.125.674-.316.964-.575l.59 1.336c-.321.3-.73.534-1.227.699a4.593 4.593 0 0 1-1.492.249Zm4.209-.155v-5.843c0-.331-.01-.668-.031-1.01a10.19 10.19 0 0 0-.077-.994h1.88l.217 2.144h-.311c.104-.518.275-.948.513-1.29.249-.342.549-.595.901-.761a2.667 2.667 0 0 1 1.15-.249c.187 0 .337.011.451.031.114.011.228.037.342.078l-.016 1.709a2.15 2.15 0 0 0-.513-.155 3.423 3.423 0 0 0-.512-.031c-.446 0-.824.093-1.135.28-.3.186-.528.445-.683.776a2.81 2.81 0 0 0-.218 1.135v4.18h-1.958Zm6.431 3.527-.451-1.539a7.332 7.332 0 0 0 1.228-.357c.331-.135.606-.311.823-.528.218-.218.399-.498.544-.839l.389-.917-.047.761-3.418-7.955h2.066l2.455 6.122h-.45l2.47-6.122h1.958l-3.574 8.282c-.238.559-.497 1.02-.777 1.382-.279.373-.58.669-.901.886a3.862 3.862 0 0 1-1.057.528 8.27 8.27 0 0 1-1.258.296Zm8.592-.171v-9.245a15.449 15.449 0 0 0-.124-1.958h1.88l.171 1.647h-.171c.155-.549.482-.984.979-1.305.507-.332 1.093-.498 1.756-.498.694 0 1.3.166 1.818.498.517.321.921.787 1.212 1.398.29.601.435 1.326.435 2.175 0 .85-.145 1.58-.435 2.191-.291.611-.695 1.083-1.212 1.414-.518.321-1.124.482-1.818.482-.653 0-1.228-.161-1.725-.482a2.313 2.313 0 0 1-.995-1.289h.171v4.972h-1.942Zm3.947-4.693c.621 0 1.118-.212 1.491-.637.373-.435.56-1.088.56-1.958 0-.87-.187-1.517-.56-1.942-.373-.425-.87-.637-1.491-.637-.611 0-1.103.212-1.476.637-.373.425-.56 1.072-.56 1.942 0 .87.187 1.523.56 1.958.373.425.865.637 1.476.637Zm8.969 1.492c-.932 0-1.637-.244-2.113-.73-.477-.487-.715-1.218-.715-2.191v-3.621h-1.507v-1.46h1.507v-2.005l1.942-.497v2.502h2.098v1.46h-2.098v3.496c0 .539.104.917.311 1.135.207.217.492.326.855.326.196 0 .362-.016.497-.047a2.74 2.74 0 0 0 .419-.124v1.538a2.437 2.437 0 0 1-.59.156 3.117 3.117 0 0 1-.606.062Zm5.998 0c-.808 0-1.507-.166-2.098-.497a3.507 3.507 0 0 1-1.383-1.414c-.321-.611-.481-1.337-.481-2.176 0-.839.16-1.559.481-2.159a3.495 3.495 0 0 1 1.383-1.414c.591-.332 1.29-.498 2.098-.498.808 0 1.507.166 2.098.498.6.331 1.061.802 1.383 1.414.331.6.497 1.32.497 2.159 0 .839-.166 1.565-.497 2.176a3.385 3.385 0 0 1-1.383 1.414c-.591.331-1.29.497-2.098.497Zm0-1.492c.611 0 1.098-.212 1.461-.637.362-.435.543-1.088.543-1.958 0-.87-.181-1.517-.543-1.942-.363-.425-.85-.637-1.461-.637-.611 0-1.098.212-1.461.637-.362.425-.543 1.072-.543 1.942 0 .87.181 1.523.543 1.958.363.425.85.637 1.461.637Z"/>
  <path fill="#F5871F" d="M221.342 29.336h4.288c0 1.462-1.16 2.81-2.81 2.81h-4.279c-.008-1.479 1.184-2.81 2.801-2.81Z"/>
  <path fill="#D84332" d="M227.942 33.37c.008.025 2.139 3.709 2.139 3.709-1.266.734-3.021.408-3.846-1.038a1204.4 1204.4 0 0 0-2.14-3.707c1.307-.735 3.046-.368 3.847 1.037Z"/>
  <path fill="#28B9A2" d="M216.058 38.098c.008.025 2.14 3.708 2.14 3.708-1.266.735-3.022.409-3.847-1.037-.008-.024-2.139-3.708-2.139-3.708 1.298-.727 3.038-.35 3.846 1.037Z"/>
  <path fill="#E7B121" d="M217.717 33.174c-.009.025-2.14 3.708-2.14 3.708-1.266-.735-1.862-2.417-1.037-3.847.008-.024 2.139-3.707 2.139-3.707 1.291.76 1.838 2.45 1.038 3.846Z"/>
  <path fill="#1D2348" d="M227.769 41.112a1204.4 1204.4 0 0 1-2.14 3.707c-1.266-.735-1.862-2.417-1.037-3.846.008-.025 2.14-3.708 2.14-3.708a2.826 2.826 0 0 1 1.037 3.847Z"/>
  <path fill="#1681C4" d="M219.496 42.01h4.287c0 1.463-1.159 2.81-2.809 2.81h-4.279a2.79 2.79 0 0 1 2.801-2.81Z"/>
  <defs>
    <radialGradient id="a" cx="0" cy="0" r="1" gradientTransform="rotate(165 70.126 67.539) scale(55.7193 50.1474)" gradientUnits="userSpaceOnUse">
      <stop stop-color="#EC991C"/>
      <stop offset="1" stop-color="#E9B213"/>
    </radialGradient>
    <clipPath id="b">
      <path fill="#fff" d="m157 60.07 53.821-14.42 14.422 53.82-53.822 14.422z"/>
    </clipPath>
  </defs>
</svg>
