<svg width="29" height="20" fill="none" xmlns="http://www.w3.org/2000/svg">
  <g fill="currentColor">
    <path d="M13.43 13.42a1.51 1.51 0 0 0 2.13 0l11.7-11.7a.6.6 0 0 0-.33-1.03 2.37 2.37 0 0 0-.35-.02H2.41c-.11 0-.23 0-.35.02a.6.6 0 0 0-.34 1.03l11.7 11.7Z" />
    <path d="M28.86 2.88a.22.22 0 0 0-.24.05l-7.49 7.49a.3.3 0 0 0 0 .43l6.1 6.1a.9.9 0 1 1-1.29 1.27l-6.09-6.1a.3.3 0 0 0-.43 0l-2.57 2.58a3.32 3.32 0 0 1-4.7 0l-2.57-2.57a.3.3 0 0 0-.43 0l-6.1 6.1a.9.9 0 0 1-1.27-1.29l6.09-6.1a.3.3 0 0 0 0-.42L.37 2.93a.22.22 0 0 0-.23-.05.22.22 0 0 0-.14.2v14.5A2.42 2.42 0 0 0 2.42 20h24.16A2.42 2.42 0 0 0 29 17.58V3.08a.22.22 0 0 0-.14-.2Z" />
  </g>
</svg>