<svg width="24" height="24" viewBox="0 0 24 24" fill="none" xmlns="http://www.w3.org/2000/svg">
<g clip-path="url(#clip0_3656_13529)">
<path d="M12 0C5.3724 0 0 5.3724 0 12C0 17.0844 3.1632 21.426 7.6272 23.1744C7.5228 22.2252 7.4268 20.7684 7.6692 19.7328C7.8876 18.7968 9.0756 13.7676 9.0756 13.7676C9.0756 13.7676 8.7168 13.0488 8.7168 11.9868C8.7168 10.3176 9.684 9.0732 10.8876 9.0732C11.9112 9.0732 12.4056 9.8424 12.4056 10.7628C12.4056 11.7924 11.7504 13.332 11.412 14.7576C11.1288 15.9528 12.0108 16.926 13.1892 16.926C15.3216 16.926 16.9608 14.6772 16.9608 11.4312C16.9608 8.5584 14.8968 6.5496 11.9484 6.5496C8.5344 6.5496 6.5304 9.1104 6.5304 11.7576C6.5304 12.7884 6.9276 13.8948 7.4232 14.496C7.5216 14.6148 7.5348 14.7192 7.506 14.8404C7.4148 15.2196 7.2132 16.0344 7.1736 16.2012C7.122 16.4208 6.9996 16.4676 6.7728 16.3608C5.274 15.6624 4.3368 13.4712 4.3368 11.712C4.3368 7.9272 7.0872 4.4496 12.2664 4.4496C16.4292 4.4496 19.6644 7.416 19.6644 11.3808C19.6644 15.5172 17.0568 18.8448 13.4376 18.8448C12.222 18.8448 11.0784 18.2124 10.6872 17.4672C10.6872 17.4672 10.0848 19.758 9.9396 20.3208C9.6684 21.3624 8.9376 22.6704 8.448 23.4672C9.57 23.8116 10.7628 24 12 24C18.6264 24 24 18.6264 24 12C24 5.3736 18.6276 0 12 0Z" fill="#1F2348"/>
</g>
<defs>
<clipPath id="clip0_3656_13529">
<rect width="24" height="24" fill="white"/>
</clipPath>
</defs>
</svg>
