<svg width="24" height="24" viewBox="0 0 24 24" fill="none" xmlns="http://www.w3.org/2000/svg">
<path d="M12 0C18.6275 0 24 5.3725 24 12C24 18.6275 18.6275 24 12 24C5.3725 24 0 18.6275 0 12C0 5.3725 5.3725 0 12 0ZM16.1395 16.8915C16.36 16.2145 17.3945 9.465 17.522 8.135C17.5605 7.732 17.4335 7.4645 17.184 7.345C16.8825 7.2 16.436 7.2725 15.9175 7.4595C15.207 7.7155 6.1225 11.573 5.5975 11.796C5.1 12.0075 4.629 12.238 4.629 12.572C4.629 12.807 4.7685 12.939 5.1525 13.076C5.552 13.2185 6.5585 13.5235 7.153 13.6875C7.7255 13.8455 8.377 13.7085 8.742 13.4815C9.129 13.241 13.597 10.2515 13.9175 9.9895C14.238 9.7275 14.4935 10.063 14.2315 10.3255C13.9695 10.5875 10.903 13.564 10.4985 13.976C10.0075 14.4765 10.356 14.995 10.6855 15.2025C11.0615 15.4395 13.767 17.254 14.1745 17.545C14.582 17.836 14.995 17.968 15.3735 17.968C15.752 17.968 15.951 17.47 16.1395 16.8915Z" fill="#1F2348"/>
</svg>
