<svg width="24" height="24" viewBox="0 0 24 24" fill="none" xmlns="http://www.w3.org/2000/svg">
<g clip-path="url(#clip0_3656_13536)">
<path d="M4 0C1.80671 0 0 1.80671 0 4V20C0 22.1933 1.80671 24 4 24H20C22.1933 24 24 22.1933 24 20V4C24 1.80671 22.1933 0 20 0H4ZM12 5.33333H14.6667C14.6667 6.67333 16.628 8 17.3333 8V10.6667C16.5267 10.6667 15.5573 10.3122 14.6667 9.71354V14.6667C14.6667 16.872 12.872 18.6667 10.6667 18.6667C8.46133 18.6667 6.66667 16.872 6.66667 14.6667C6.66667 12.4613 8.46133 10.6667 10.6667 10.6667V13.3333C9.93067 13.3333 9.33333 13.932 9.33333 14.6667C9.33333 15.4013 9.93067 16 10.6667 16C11.4027 16 12 15.4013 12 14.6667V5.33333Z" fill="#1F2348"/>
</g>
<defs>
<clipPath id="clip0_3656_13536">
<rect width="24" height="24" fill="white"/>
</clipPath>
</defs>
</svg>
