<svg width="24" height="24" viewBox="0 0 24 24" fill="none" xmlns="http://www.w3.org/2000/svg">
<g clip-path="url(#clip0_3656_13531)">
<path fill-rule="evenodd" clip-rule="evenodd" d="M21 20.34C22.26 20.16 23.28 19.2 23.52 17.94C23.76 16.56 24 14.52 24.06 12C24.06 9.48 23.76 7.44 23.52 6.06C23.28 4.8 22.26 3.84 21 3.66C18.96 3.36 15.72 3 12 3C8.28 3 4.98 3.36 3 3.66C1.74 3.84 0.72 4.8 0.48 6.06C0.24 7.44 0 9.48 0 12C0 14.52 0.24 16.56 0.48 17.94C0.72 19.2 1.74 20.16 3 20.34C5.04 20.64 8.34 21 12 21C15.72 21 19.02 20.64 21 20.34ZM16.8001 12L9.6001 7.80005V16.2L16.8001 12Z" fill="#1F2348"/>
</g>
<defs>
<clipPath id="clip0_3656_13531">
<rect width="24" height="24" fill="white"/>
</clipPath>
</defs>
</svg>
