<svg width="215" height="40" viewBox="0 0 215 40" fill="none" xmlns="http://www.w3.org/2000/svg"><path d="M23.447.026h11.02c0 3.753-2.986 7.215-7.214 7.215H16.258c-.026-3.806 3.04-7.215 7.189-7.215ZM40.44 10.388c.026.053 5.496 9.514 5.496 9.514-3.25 1.877-7.77 1.058-9.884-2.67-.026-.052-5.497-9.514-5.497-9.514 3.303-1.876 7.824-.925 9.885 2.67ZM9.884 22.543c.027.053 5.498 9.515 5.498 9.515-3.251 1.876-7.77 1.057-9.885-2.67C5.471 29.336 0 19.875 0 19.875c3.33-1.877 7.797-.901 9.884 2.668Zm4.256-12.66c-.027.054-5.498 9.515-5.498 9.515-3.25-1.876-4.784-6.21-2.67-9.884C6 9.462 11.47 0 11.47 0c3.356 1.956 4.757 6.317 2.67 9.885v-.002Zm25.82 20.403c-.027.053-5.498 9.515-5.498 9.515-3.25-1.877-4.783-6.211-2.669-9.885.026-.053 5.497-9.514 5.497-9.514 3.33 1.903 4.757 6.263 2.67 9.884Zm-21.248 2.3h11.021c0 3.754-2.986 7.216-7.215 7.216H11.524c-.027-3.832 3.065-7.216 7.188-7.216Z" fill="#1F2348" fill-opacity=".5"/><path d="M23.447.026h11.02c0 3.753-2.986 7.215-7.214 7.215H16.258c-.026-3.806 3.04-7.215 7.189-7.215ZM40.44 10.388c.026.053 5.496 9.514 5.496 9.514-3.25 1.877-7.77 1.058-9.884-2.67-.026-.052-5.497-9.514-5.497-9.514 3.303-1.876 7.824-.925 9.885 2.67ZM9.884 22.543c.027.053 5.498 9.515 5.498 9.515-3.251 1.876-7.77 1.057-9.885-2.67C5.471 29.336 0 19.875 0 19.875c3.33-1.877 7.797-.901 9.884 2.668Zm4.256-12.66c-.027.054-5.498 9.515-5.498 9.515-3.25-1.876-4.784-6.21-2.67-9.884C6 9.462 11.47 0 11.47 0c3.356 1.956 4.757 6.317 2.67 9.885v-.002Zm25.82 20.403c-.027.053-5.498 9.515-5.498 9.515-3.25-1.877-4.783-6.211-2.669-9.885.026-.053 5.497-9.514 5.497-9.514 3.33 1.903 4.757 6.263 2.67 9.884Zm-21.248 2.3h11.021c0 3.754-2.986 7.216-7.215 7.216H11.524c-.027-3.832 3.065-7.216 7.188-7.216Z" fill="#898B9E"/><path d="M34.467.026h-11.02c-4.149 0-7.215 3.409-7.189 7.215h10.995c4.228 0 7.214-3.462 7.214-7.215Z" fill="#1F2348" fill-opacity=".5"/><path d="M34.467.026h-11.02c-4.149 0-7.215 3.409-7.189 7.215h10.995c4.228 0 7.214-3.462 7.214-7.215Z" fill="#898B9E"/><path d="M45.936 19.902s-5.47-9.461-5.496-9.514c-2.061-3.595-6.582-4.546-9.885-2.67 0 0 5.471 9.462 5.497 9.514 2.114 3.728 6.634 4.547 9.884 2.67Z" fill="#1F2348" fill-opacity=".5"/><path d="M45.936 19.902s-5.47-9.461-5.496-9.514c-2.061-3.595-6.582-4.546-9.885-2.67 0 0 5.471 9.462 5.497 9.514 2.114 3.728 6.634 4.547 9.884 2.67Z" fill="#898B9E"/><path d="M15.382 32.058s-5.471-9.462-5.498-9.515C7.797 18.974 3.33 17.998 0 19.875c0 0 5.471 9.461 5.497 9.513 2.115 3.727 6.634 4.546 9.885 2.67Z" fill="#1F2348" fill-opacity=".5"/><path d="M15.382 32.058s-5.471-9.462-5.498-9.515C7.797 18.974 3.33 17.998 0 19.875c0 0 5.471 9.461 5.497 9.513 2.115 3.727 6.634 4.546 9.885 2.67Z" fill="#898B9E"/><path d="M8.642 19.398s5.471-9.461 5.498-9.515v.002c2.087-3.568.686-7.929-2.67-9.885 0 0-5.47 9.462-5.498 9.514-2.114 3.674-.58 8.008 2.67 9.884Z" fill="#1F2348" fill-opacity=".5"/><path d="M8.642 19.398s5.471-9.461 5.498-9.515v.002c2.087-3.568.686-7.929-2.67-9.885 0 0-5.47 9.462-5.498 9.514-2.114 3.674-.58 8.008 2.67 9.884Z" fill="#898B9E"/><path d="M34.462 39.801s5.471-9.462 5.498-9.515c2.087-3.621.66-7.981-2.67-9.884 0 0-5.471 9.461-5.497 9.514-2.114 3.674-.581 8.008 2.669 9.885Z" fill="#1F2348" fill-opacity=".5"/><path d="M34.462 39.801s5.471-9.462 5.498-9.515c2.087-3.621.66-7.981-2.67-9.884 0 0-5.471 9.461-5.497 9.514-2.114 3.674-.581 8.008 2.669 9.885Z" fill="#898B9E"/><path d="M29.733 32.586H18.712c-4.123 0-7.215 3.384-7.188 7.216h10.994c4.229 0 7.215-3.462 7.215-7.216Z" fill="#1F2348" fill-opacity=".5"/><path d="M29.733 32.586H18.712c-4.123 0-7.215 3.384-7.188 7.216h10.994c4.229 0 7.215-3.462 7.215-7.216Z" fill="#898B9E"/><path d="M128.703 36.206v-10.59h1.698l3.655 8.23 3.659-8.23h1.684v10.59h-1.758v-6.643l-3.019 6.643h-1.158l-3.003-6.643v6.643h-1.758ZM79.663 36.24V25.646h1.47l5.77 7.455v-7.455h1.795V36.24h-1.472l-5.767-7.475v7.475h-1.796ZM91.303 36.24V25.646h1.472l5.77 7.455v-7.455h1.795V36.24h-1.473l-5.769-7.475v7.475h-1.795ZM114.874 36.194V25.598h7.153v1.532h-5.269v2.943h4.946v1.53h-4.946v3.09h5.269v1.53h-7.153v-.029ZM66.94 36.205l4.8-10.586h1.621l4.864 10.586h-1.971L75.19 33.75h-5.225l-1.075 2.454h-1.95Zm5.59-8.526-1.93 4.556h3.946l-1.972-4.556h-.043ZM54.753 36.22V25.628h1.698l3.655 8.231 3.66-8.231h1.691V36.22h-1.758v-6.643l-3.017 6.643h-1.168l-3.003-6.643v6.643h-1.758ZM102.958 36.22V25.628h1.936v4.425h5.424v-4.425h1.94V36.22h-1.938v-4.568h-5.426v4.568h-1.936ZM124.121 36.22V25.628h1.938V36.22h-1.938ZM54 18.47V4.237h2.622v6.306h.029l6.212-6.306h3.154l-6.867 6.834 7.337 7.397h-3.235l-6.601-6.602h-.03v6.602L54 18.47ZM68.763 4.237h6.212c1.562 0 2.769.383 3.624 1.12.855.738 1.296 1.767 1.296 3.094a4.142 4.142 0 0 1-.588 2.239 3.7 3.7 0 0 1-1.656 1.414c-.22.097-.447.176-.68.236.22.069.43.168.622.294a3.23 3.23 0 0 1 1.091 1.357l2.091 4.479h-2.84l-2.094-4.626a1.514 1.514 0 0 0-.853-.942 3.852 3.852 0 0 0-1.386-.236h-2.216v5.775h-2.623V4.237Zm2.592 6.542h3.183c.913 0 1.622-.207 2.094-.59.472-.383.706-.942.706-1.68 0-.737-.236-1.296-.706-1.679s-1.18-.56-2.094-.56h-3.183v4.509ZM87.034 18.47v-5.982l-5.579-8.25h3.007l3.92 6.04 3.918-6.04h2.926l-5.57 8.283v5.951l-2.622-.002ZM97.583 18.47V4.237h6.337c1.561 0 2.77.383 3.566 1.12.795.738 1.242 1.798 1.242 3.123 0 1.326-.414 2.357-1.242 3.123-.829.766-2.005 1.15-3.566 1.15h-3.713v5.746h-2.624v-.029Zm2.595-7.78h3.417c.855 0 1.503-.207 1.946-.588.443-.381.648-.915.648-1.622 0-.706-.207-1.242-.648-1.621-.441-.379-1.091-.588-1.946-.588h-3.417v4.419ZM114.735 18.47V6.358h-4.715V4.206h12.023v2.152h-4.716V18.47h-2.592ZM123.25 11.338c0-1.501.265-2.8.828-3.889a5.94 5.94 0 0 1 2.355-2.535 7.245 7.245 0 0 1 3.655-.913c1.414 0 2.622.294 3.653.913a6.006 6.006 0 0 1 2.383 2.535c.559 1.09.829 2.388.829 3.86a8.816 8.816 0 0 1-.829 3.891 6.268 6.268 0 0 1-2.387 2.564c-1.036.621-2.239.913-3.653.913-1.415 0-2.624-.296-3.655-.913a6.024 6.024 0 0 1-2.357-2.564c-.557-1.091-.822-2.358-.822-3.862Zm2.711 0c0 1.593.354 2.86 1.035 3.773.681.913 1.709 1.354 3.063 1.354s2.33-.44 3.067-1.354c.737-.913 1.06-2.152 1.06-3.773s-.354-2.858-1.06-3.77c-.706-.914-1.742-1.328-3.069-1.328-1.328 0-2.386.443-3.063 1.327-.677.884-1.033 2.152-1.033 3.771ZM144.851 18.677a10.53 10.53 0 0 1-3.152-.443 7.458 7.458 0 0 1-2.485-1.207l.795-2.034c.46.315.945.592 1.45.828a7.135 7.135 0 0 0 1.59.502 8.84 8.84 0 0 0 1.797.178c1.064 0 1.83-.177 2.299-.53a1.624 1.624 0 0 0 .708-1.386 1.387 1.387 0 0 0-.472-1.15c-.325-.264-.913-.471-1.739-.647l-2.299-.473c-1.296-.264-2.296-.708-2.947-1.356-.65-.648-.958-1.476-.958-2.539a3.97 3.97 0 0 1 .706-2.327 4.538 4.538 0 0 1 1.975-1.533 7.65 7.65 0 0 1 2.976-.559 8.603 8.603 0 0 1 2.8.441c.797.258 1.53.681 2.151 1.243l-.795 1.944a6.252 6.252 0 0 0-1.915-1.089 6.975 6.975 0 0 0-2.299-.354c-.944 0-1.71.176-2.241.559a1.795 1.795 0 0 0-.795 1.532 1.507 1.507 0 0 0 .501 1.18c.323.295.885.53 1.68.678l2.278.441c1.354.265 2.356.708 3.004 1.327.649.62.974 1.445.974 2.475a3.86 3.86 0 0 1-.68 2.24 4.526 4.526 0 0 1-1.944 1.502c-.812.379-1.814.557-2.963.557ZM156.405 18.47V6.358h-4.716V4.206h12.024v2.152h-4.716V18.47h-2.592ZM163.003 18.47l6.461-14.233h2.174l6.542 14.233h-2.653l-1.449-3.3h-7.008l-1.45 3.3h-2.617Zm7.515-11.433-2.593 6.13h5.304l-2.653-6.13h-.058ZM180.273 18.47V4.237h5.177c1.622 0 3.005.265 4.126.829a5.82 5.82 0 0 1 2.574 2.416c.59 1.06.884 2.328.884 3.86 0 1.533-.294 2.771-.884 3.831a5.863 5.863 0 0 1-2.564 2.446c-1.12.561-2.504.855-4.125.855l-5.188-.004Zm2.595-2.151h2.417c1.737 0 3.005-.415 3.829-1.243.824-.828 1.267-2.07 1.267-3.744 0-1.673-.414-2.947-1.267-3.742-.853-.795-2.121-1.207-3.829-1.207h-2.417v9.935ZM198.691 18.47V6.358h-4.713V4.206h12.023v2.152h-4.716V18.47h-2.594Z" fill="#1F2348" fill-opacity=".5"/></svg>