<svg xmlns="http://www.w3.org/2000/svg" viewBox="0 0 996 336">
  <path d="M163.19 137.23a41.32 41.32 0 1 0-41.36-41.32 41.34 41.34 0 0 0 41.36 41.32Z" fill="none" stroke="#fff"
    stroke-width="2" opacity=".1" style="isolation:isolate" />
  <path d="M335.83 167.26c111.91-27.33 202.63-29.83 314.5 0" fill="none" stroke="#fff" stroke-linecap="round"
    stroke-linejoin="round" stroke-width="3" />
  <path d="M335.83 167.26c111.91-27.33 202.63-29.83 314.5 0" fill="none" stroke="#fff" stroke-linecap="round"
    stroke-linejoin="round" stroke-opacity=".3" stroke-width="3" />
  <path d="m640.84 139.59 12.71 29-29 12.7" fill="none" stroke="#fff" stroke-linecap="round" stroke-linejoin="round"
    stroke-width="3" />
  <path d="m640.84 139.59 12.71 29-29 12.7" fill="none" stroke="#fff" stroke-linecap="round" stroke-linejoin="round"
    stroke-opacity=".3" stroke-width="3" />
  <circle cx="262.22" cy="222.52" r="41.35" fill="none" stroke="#fff" stroke-width="2" opacity=".2"
    style="isolation:isolate" />
  <path
    d="m272.15 239.68-1.53.65a13 13 0 0 1-5 1h-.86a12.87 12.87 0 0 1-12.87-12.87v-12.67a12.88 12.88 0 0 1 12.87-12.88h1.82a12.87 12.87 0 0 1 5.49 1.23l1.11.53M246.72 218h21.5m-21.5 8.68h18.19"
    fill="none" stroke="#fff" stroke-linecap="round" stroke-linejoin="round" stroke-width="3.72" />
  <path d="M169.19 235.23a41.32 41.32 0 1 0-41.36-41.32 41.34 41.34 0 0 0 41.36 41.32Z" fill="none" stroke="#fff"
    stroke-width="2" opacity=".4" style="isolation:isolate" />
  <path d="M191.19 333.23a41.32 41.32 0 1 0-41.36-41.32 41.34 41.34 0 0 0 41.36 41.32Z" fill="none" stroke="#fff"
    stroke-width="2" opacity=".1" style="isolation:isolate" />
  <path d="M100.19 300.23a41.32 41.32 0 1 0-41.36-41.32 41.34 41.34 0 0 0 41.36 41.32Z" fill="none" stroke="#fff"
    stroke-width="2" opacity=".2" style="isolation:isolate" />
  <path d="M9.19 263.23a41.32 41.32 0 1 0-41.36-41.32 41.34 41.34 0 0 0 41.36 41.32Z" fill="none" stroke="#fff"
    stroke-width="2" opacity=".1" style="isolation:isolate" />
  <path
    d="M-8.81 165.23a41.34 41.34 0 0 0 41.35-41.32A41.33 41.33 0 0 0-8.81 82.6a41.34 41.34 0 0 0-41.36 41.31 41.34 41.34 0 0 0 41.36 41.32Z"
    fill="none" stroke="#fff" stroke-width="2" opacity=".2" style="isolation:isolate" />
  <path
    d="M80.19 199.23a41.32 41.32 0 1 0-41.36-41.32 41.34 41.34 0 0 0 41.36 41.32Zm-7-96a41.32 41.32 0 1 0-41.36-41.32 41.34 41.34 0 0 0 41.36 41.32Z"
    fill="none" stroke="#fff" stroke-width="2" opacity=".1" style="isolation:isolate" />
  <path
    d="M178.05 177.28h-8.71A7.8 7.8 0 0 0 166 192l7.92 4.08A7.77 7.77 0 0 1 178 203a7.65 7.65 0 0 1-7.54 7.76h-8.69m9.26-33.46v-7m0 50.51v-6.08"
    fill="none" stroke="#fff" stroke-linecap="round" stroke-linejoin="round" stroke-width="3.72" />
  <path d="M249.19 171.23a41.32 41.32 0 1 0-41.36-41.32 41.34 41.34 0 0 0 41.36 41.32Z" fill="none" stroke="#fff"
    stroke-width="2" opacity=".2" style="isolation:isolate" />
  <path
    d="m262.48 146.45-3.58.92a13.21 13.21 0 0 1-3.19.4h-2.84a17 17 0 0 1-17-17h0a17 17 0 0 1 17-17h2.53a12.9 12.9 0 0 1 3.55.5l3.14.91M236.89 150.52l17.31-46.08M243.25 152.9l17.31-46.07"
    fill="none" stroke="#fff" stroke-linecap="round" stroke-linejoin="round" stroke-width="3.72" />
  <path
    d="M413.71 130.6a29.5 29.5 0 1 0-29.5-29.5 29.5 29.5 0 0 0 29.5 29.5Zm8.81-39a1.5 1.5 0 0 0-2.52-1.68l-13.8 20.42a1.5 1.5 0 0 0 2.49 1.68Zm-13.78 1.86a3.5 3.5 0 1 1-6.87 1.37 3.5 3.5 0 0 1 6.87-1.34Zm15.9 18.22a3.5 3.5 0 0 0-1.34-6.88 3.5 3.5 0 1 0 1.34 6.88Z"
    fill="#fff" fill-rule="evenodd" opacity=".2" style="isolation:isolate" />
  <path
    d="M337.21 167.1c30.5 39.5 50 14.62 50-5 0-28-36.5-28.5-19-56.5m276.12 88c-38-6.5-41 50.5-69.5 24s51-57 31.5-86.5m-86.5-37c-63.5 12.5 50.38 116.5 8.38 151m-85 12c-71-37 51.5-82 5.5-126"
    fill="none" stroke="#fff" stroke-linecap="round" stroke-width="4" stroke-dasharray="10 15" opacity=".2"
    style="isolation:isolate" />
  <circle cx="742" cy="122.77" r="42.17" fill="none" stroke="#fff" stroke-width="2" opacity=".4"
    style="isolation:isolate" />
  <path
    d="M734.29 107.33h11.85a7.34 7.34 0 0 1 7.33 7.34h0a7.33 7.33 0 0 1-7.33 7.33h-11.85Zm0 14.67h12.41a7.9 7.9 0 0 1 7.9 7.9h0a7.9 7.9 0 0 1-7.9 7.9h-12.41Zm3.54-14.51v-5.95m0 42.06v-5.95m6.77-30.16v-5.95m0 42.06v-5.95m-9 0h-6m6-30.46h-6"
    fill="none" stroke="#fff" stroke-linecap="round" stroke-linejoin="round" stroke-width="3.08" />
  <circle cx="728" cy="219.15" r="42.17" fill="none" stroke="#fff" stroke-width="2" opacity=".2"
    style="isolation:isolate" />
  <circle cx="820" cy="184.77" r="42.17" fill="none" stroke="#fff" stroke-width="2" opacity=".1"
    style="isolation:isolate" />
  <circle cx="912" cy="153.77" r="42.17" fill="none" stroke="#fff" stroke-width="2" opacity=".2"
    style="isolation:isolate" />
  <circle cx="834" cy="88.77" r="42.17" fill="none" stroke="#fff" stroke-width="2" opacity=".1"
    style="isolation:isolate" />
  <circle cx="925" cy="57.77" r="42.17" fill="none" stroke="#fff" stroke-width="2" opacity=".1"
    style="isolation:isolate" />
  <circle cx="1004" cy="117.77" r="42.17" fill="none" stroke="#fff" stroke-width="2" opacity=".1"
    style="isolation:isolate" />
  <circle cx="986" cy="216.77" r="42.17" fill="none" stroke="#fff" stroke-width="2" opacity=".1"
    style="isolation:isolate" />
  <circle cx="802" cy="281.77" r="42.17" fill="none" stroke="#fff" stroke-width="2" opacity=".2"
    style="isolation:isolate" />
  <circle cx="894" cy="250.77" r="42.17" fill="none" stroke="#fff" stroke-width="2" opacity=".1"
    style="isolation:isolate" />
  <path
    d="m752.1 216.42-10.27-18.29a4.1 4.1 0 0 0-3.56-2.11h-20.55a4.07 4.07 0 0 0-3.55 2.11l-10.27 18.29a4.34 4.34 0 0 0 0 4.22l10.27 18.29a4.07 4.07 0 0 0 3.55 2.11h20.55a4.11 4.11 0 0 0 3.55-2.11l10.27-18.29a4.31 4.31 0 0 0 0-4.22Z"
    fill="none" stroke="#fff" stroke-linecap="round" stroke-linejoin="round" stroke-width="3" />
  <path
    d="M539.85 105.81a4.93 4.93 0 0 0 1.48 3.53l14.56 14.5a4.91 4.91 0 0 0 3.5 1.45h20.43a5 5 0 0 0 3.49-1.43l14.76-14.54a5 5 0 0 0 1.49-3.54V85.39a4.93 4.93 0 0 0-1.45-3.51l-14.74-14.81a5 5 0 0 0-3.53-1.47h-20.41a5 5 0 0 0-3.55 1.47l-14.61 14.84a5 5 0 0 0-1.44 3.49v20.41Zm19.92-23.12a2.31 2.31 0 0 1 1.86-2.7 2.28 2.28 0 0 1 1.65.31 2.35 2.35 0 0 1 1 1.42l2.35 10.93a.12.12 0 0 0 .14.1.13.13 0 0 0 .11-.12V79.11a2.32 2.32 0 0 1 4.63 0v13.55a.13.13 0 0 0 .11.13.14.14 0 0 0 .14-.1l2.35-10.42a2.32 2.32 0 0 1 4.55.92v.06l-2.39 13a.12.12 0 0 0 .08.14.12.12 0 0 0 .15 0l3.86-6.07a2.32 2.32 0 0 1 4 2.42l-3.3 6.2a8.18 8.18 0 0 0-1 3.93c0 5.21-1.46 9.5-6.95 9.5h-5.42a7 7 0 0 1-5-2.14l-8.12-10.81a2.32 2.32 0 1 1 3.14-3.41l4.29 3.73a.14.14 0 0 0 .15 0 .11.11 0 0 0 .06-.12l-2.45-16.94Z"
    fill="#fff" opacity=".2" style="isolation:isolate" />
  <g opacity=".2" fill="#fff">
    <path
      d="M482.76 242.55a17.82 17.82 0 0 1 4.57-10.91 17.75 17.75 0 0 1 4.56 10.91Zm-3 0a20.21 20.21 0 0 1 3.39-10.36 12.2 12.2 0 0 0-8.27 10.36Zm-4.82 3h4.92a25.42 25.42 0 0 0 3.61 10.34 12.68 12.68 0 0 1-8.53-10.34Zm7.94 0h8.9a24 24 0 0 1-4.46 10.77 24 24 0 0 1-4.44-10.77Zm11.91 0a25.44 25.44 0 0 1-3.64 10.39 12.53 12.53 0 0 0 8.58-10.39Zm4.95-3a12.42 12.42 0 0 0-8.19-10.29 20.12 20.12 0 0 1 3.34 10.29Z" />
    <path
      d="M456.21 221.48a4.88 4.88 0 0 1 4.88-4.88h51.24a4.89 4.89 0 0 1 4.88 4.88v72a4.88 4.88 0 0 1-4.88 4.88h-51.24a4.87 4.87 0 0 1-4.88-4.88v-72Zm10.7 52.12a1.5 1.5 0 0 1 1.5-1.5H505a1.5 1.5 0 0 1 0 3h-36.6a1.5 1.5 0 0 1-1.49-1.5Zm8.82 5.82a1.5 1.5 0 0 0 0 3h22a1.5 1.5 0 0 0 0-3Zm-3.9-35a15.72 15.72 0 0 0 14.61 15.09 1.76 1.76 0 0 0 .4 0h1.07a15.5 15.5 0 0 0-.59-31h-.65a15.2 15.2 0 0 0-14.85 15.15 1.59 1.59 0 0 0 0 .72Z"
      fill-rule="evenodd" />
  </g>
</svg>
