<svg xmlns="http://www.w3.org/2000/svg" fill="#FFF" viewBox="0 0 2795 544" width="2795" height="544">
  <path opacity=".01" d="m168.12 297.84-25.84-44.68a10.32 10.32 0 0 0-8.94-5.16H81.66a10.32 10.32 0 0 0-8.94 5.16l-25.84 44.68a10.34 10.34 0 0 0 0 10.32l25.84 44.68a10.32 10.32 0 0 0 8.94 5.16h51.68a10.32 10.32 0 0 0 8.94-5.16l25.84-44.68a10.34 10.34 0 0 0 0-10.32Z"/>
  <path opacity=".02" d="m168.12 421.84-25.84-44.68a10.32 10.32 0 0 0-8.94-5.16H81.66a10.32 10.32 0 0 0-8.94 5.16l-25.84 44.68a10.34 10.34 0 0 0 0 10.32l25.84 44.68a10.32 10.32 0 0 0 8.94 5.16h51.68a10.32 10.32 0 0 0 8.94-5.16l25.84-44.68a10.34 10.34 0 0 0 0-10.32Z"/>
  <path opacity=".03" d="m275.62 359.84-25.84-44.68a10.32 10.32 0 0 0-8.94-5.16h-51.68a10.32 10.32 0 0 0-8.94 5.16l-25.84 44.68a10.34 10.34 0 0 0 0 10.32l25.84 44.68a10.32 10.32 0 0 0 8.94 5.16h51.68a10.32 10.32 0 0 0 8.94-5.16l25.84-44.68a10.34 10.34 0 0 0 0-10.32Z"/>
  <path opacity=".02" d="m383.12 297.84-25.84-44.68a10.32 10.32 0 0 0-8.94-5.16h-51.68a10.32 10.32 0 0 0-8.94 5.16l-25.84 44.68a10.34 10.34 0 0 0 0 10.32l25.84 44.68a10.32 10.32 0 0 0 8.94 5.16h51.68a10.32 10.32 0 0 0 8.94-5.16l25.84-44.68a10.34 10.34 0 0 0 0-10.32Z"/>
  <path opacity=".04" d="m383.12 421.84-25.84-44.68a10.32 10.32 0 0 0-8.94-5.16h-51.68a10.32 10.32 0 0 0-8.94 5.16l-25.84 44.68a10.34 10.34 0 0 0 0 10.32l25.84 44.68a10.32 10.32 0 0 0 8.94 5.16h51.68a10.32 10.32 0 0 0 8.94-5.16l25.84-44.68a10.34 10.34 0 0 0 0-10.32Z"/>
  <path opacity=".03" d="m490.62 235.84-25.84-44.68a10.32 10.32 0 0 0-8.94-5.16h-51.68a10.32 10.32 0 0 0-8.94 5.16l-25.84 44.68a10.34 10.34 0 0 0 0 10.32l25.84 44.68a10.32 10.32 0 0 0 8.94 5.16h51.68a10.32 10.32 0 0 0 8.94-5.16l25.84-44.68a10.34 10.34 0 0 0 0-10.32Z"/>
  <path opacity=".01" d="m490.62 359.84-25.84-44.68a10.32 10.32 0 0 0-8.94-5.16h-51.68a10.32 10.32 0 0 0-8.94 5.16l-25.84 44.68a10.34 10.34 0 0 0 0 10.32l25.84 44.68a10.32 10.32 0 0 0 8.94 5.16h51.68a10.32 10.32 0 0 0 8.94-5.16l25.84-44.68a10.34 10.34 0 0 0 0-10.32Z"/>
  <path opacity=".02" d="m598.12 297.84-25.84-44.68a10.32 10.32 0 0 0-8.94-5.16h-51.68a10.32 10.32 0 0 0-8.94 5.16l-25.84 44.68a10.34 10.34 0 0 0 0 10.32l25.84 44.68a10.32 10.32 0 0 0 8.94 5.16h51.68a10.32 10.32 0 0 0 8.94-5.16l25.84-44.68a10.34 10.34 0 0 0 0-10.32Z"/>
  <path opacity=".03" d="m598.12 421.84-25.84-44.68a10.32 10.32 0 0 0-8.94-5.16h-51.68a10.32 10.32 0 0 0-8.94 5.16l-25.84 44.68a10.34 10.34 0 0 0 0 10.32l25.84 44.68a10.32 10.32 0 0 0 8.94 5.16h51.68a10.32 10.32 0 0 0 8.94-5.16l25.84-44.68a10.34 10.34 0 0 0 0-10.32Z"/>
  <path opacity=".06" d="m705.62 235.84-25.84-44.68a10.32 10.32 0 0 0-8.94-5.16h-51.68a10.32 10.32 0 0 0-8.94 5.16l-25.84 44.68a10.34 10.34 0 0 0 0 10.32l25.84 44.68a10.32 10.32 0 0 0 8.94 5.16h51.68a10.32 10.32 0 0 0 8.94-5.16l25.84-44.68a10.34 10.34 0 0 0 0-10.32Z"/>
  <path opacity=".02" d="m705.62 359.84-25.84-44.68a10.32 10.32 0 0 0-8.94-5.16h-51.68a10.32 10.32 0 0 0-8.94 5.16l-25.84 44.68a10.34 10.34 0 0 0 0 10.32l25.84 44.68a10.32 10.32 0 0 0 8.94 5.16h51.68a10.32 10.32 0 0 0 8.94-5.16l25.84-44.68a10.34 10.34 0 0 0 0-10.32ZM813.12 297.84l-25.84-44.68a10.32 10.32 0 0 0-8.94-5.16h-51.68a10.32 10.32 0 0 0-8.94 5.16l-25.84 44.68a10.34 10.34 0 0 0 0 10.32l25.84 44.68a10.32 10.32 0 0 0 8.94 5.16h51.68a10.32 10.32 0 0 0 8.94-5.16l25.84-44.68a10.34 10.34 0 0 0 0-10.32Z"/>
  <path opacity=".03" d="m813.12 421.84-25.84-44.68a10.32 10.32 0 0 0-8.94-5.16h-51.68a10.32 10.32 0 0 0-8.94 5.16l-25.84 44.68a10.34 10.34 0 0 0 0 10.32l25.84 44.68a10.32 10.32 0 0 0 8.94 5.16h51.68a10.32 10.32 0 0 0 8.94-5.16l25.84-44.68a10.34 10.34 0 0 0 0-10.32Z"/>
  <path opacity=".01" d="m920.62 235.84-25.84-44.68a10.32 10.32 0 0 0-8.94-5.16h-51.68a10.32 10.32 0 0 0-8.94 5.16l-25.84 44.68a10.34 10.34 0 0 0 0 10.32l25.84 44.68a10.32 10.32 0 0 0 8.94 5.16h51.68a10.32 10.32 0 0 0 8.94-5.16l25.84-44.68a10.34 10.34 0 0 0 0-10.32Z"/>
  <path opacity=".06" d="m920.62 359.84-25.84-44.68a10.32 10.32 0 0 0-8.94-5.16h-51.68a10.32 10.32 0 0 0-8.94 5.16l-25.84 44.68a10.34 10.34 0 0 0 0 10.32l25.84 44.68a10.32 10.32 0 0 0 8.94 5.16h51.68a10.32 10.32 0 0 0 8.94-5.16l25.84-44.68a10.34 10.34 0 0 0 0-10.32Z"/>
  <path opacity=".03" d="m920.62 483.84-25.84-44.68a10.32 10.32 0 0 0-8.94-5.16h-51.68a10.32 10.32 0 0 0-8.94 5.16l-25.84 44.68a10.34 10.34 0 0 0 0 10.32l25.84 44.68a10.32 10.32 0 0 0 8.94 5.16h51.68a10.32 10.32 0 0 0 8.94-5.16l25.84-44.68a10.34 10.34 0 0 0 0-10.32Z"/>
  <path opacity=".02" d="m1028.12 297.84-25.84-44.68a10.32 10.32 0 0 0-8.94-5.16h-51.68a10.32 10.32 0 0 0-8.94 5.16l-25.84 44.68a10.34 10.34 0 0 0 0 10.32l25.84 44.68a10.32 10.32 0 0 0 8.94 5.16h51.68a10.32 10.32 0 0 0 8.94-5.16l25.84-44.68a10.34 10.34 0 0 0 0-10.32Z"/>
  <path opacity=".04" d="m1028.12 421.84-25.84-44.68a10.32 10.32 0 0 0-8.94-5.16h-51.68a10.32 10.32 0 0 0-8.94 5.16l-25.84 44.68a10.34 10.34 0 0 0 0 10.32l25.84 44.68a10.32 10.32 0 0 0 8.94 5.16h51.68a10.32 10.32 0 0 0 8.94-5.16l25.84-44.68a10.34 10.34 0 0 0 0-10.32Z"/>
  <path opacity=".02" d="m1135.62 359.84-25.84-44.68a10.32 10.32 0 0 0-8.94-5.16h-51.68a10.32 10.32 0 0 0-8.94 5.16l-25.84 44.68a10.34 10.34 0 0 0 0 10.32l25.84 44.68a10.32 10.32 0 0 0 8.94 5.16h51.68a10.32 10.32 0 0 0 8.94-5.16l25.84-44.68a10.34 10.34 0 0 0 0-10.32Z"/>
  <path opacity=".01" d="m1243.12 297.84-25.84-44.68a10.32 10.32 0 0 0-8.94-5.16h-51.68a10.32 10.32 0 0 0-8.94 5.16l-25.84 44.68a10.34 10.34 0 0 0 0 10.32l25.84 44.68a10.32 10.32 0 0 0 8.94 5.16h51.68a10.32 10.32 0 0 0 8.94-5.16l25.84-44.68a10.34 10.34 0 0 0 0-10.32Z"/>
  <path opacity=".05" d="m1243.12 421.84-25.84-44.68a10.32 10.32 0 0 0-8.94-5.16h-51.68a10.32 10.32 0 0 0-8.94 5.16l-25.84 44.68a10.34 10.34 0 0 0 0 10.32l25.84 44.68a10.32 10.32 0 0 0 8.94 5.16h51.68a10.32 10.32 0 0 0 8.94-5.16l25.84-44.68a10.34 10.34 0 0 0 0-10.32Z"/>
  <path opacity=".03" d="m1350.62 359.84-25.84-44.68a10.32 10.32 0 0 0-8.94-5.16h-51.68a10.32 10.32 0 0 0-8.94 5.16l-25.84 44.68a10.34 10.34 0 0 0 0 10.32l25.84 44.68a10.32 10.32 0 0 0 8.94 5.16h51.68a10.32 10.32 0 0 0 8.94-5.16l25.84-44.68a10.34 10.34 0 0 0 0-10.32Z"/>
  <path opacity=".01" d="m1458.12 297.84-25.84-44.68a10.32 10.32 0 0 0-8.94-5.16h-51.68a10.32 10.32 0 0 0-8.94 5.16l-25.84 44.68a10.34 10.34 0 0 0 0 10.32l25.84 44.68a10.32 10.32 0 0 0 8.94 5.16h51.68a10.32 10.32 0 0 0 8.94-5.16l25.84-44.68a10.34 10.34 0 0 0 0-10.32Z"/>
  <path opacity=".02" d="m1458.12 421.84-25.84-44.68a10.32 10.32 0 0 0-8.94-5.16h-51.68a10.32 10.32 0 0 0-8.94 5.16l-25.84 44.68a10.34 10.34 0 0 0 0 10.32l25.84 44.68a10.32 10.32 0 0 0 8.94 5.16h51.68a10.32 10.32 0 0 0 8.94-5.16l25.84-44.68a10.34 10.34 0 0 0 0-10.32Z"/>
  <path opacity=".03" d="m1565.62 359.84-25.84-44.68a10.32 10.32 0 0 0-8.94-5.16h-51.68a10.32 10.32 0 0 0-8.94 5.16l-25.84 44.68a10.34 10.34 0 0 0 0 10.32l25.84 44.68a10.32 10.32 0 0 0 8.94 5.16h51.68a10.32 10.32 0 0 0 8.94-5.16l25.84-44.68a10.34 10.34 0 0 0 0-10.32Z"/>
  <path opacity=".02" d="m1673.12 297.84-25.84-44.68a10.32 10.32 0 0 0-8.94-5.16h-51.68a10.32 10.32 0 0 0-8.94 5.16l-25.84 44.68a10.34 10.34 0 0 0 0 10.32l25.84 44.68a10.32 10.32 0 0 0 8.94 5.16h51.68a10.32 10.32 0 0 0 8.94-5.16l25.84-44.68a10.34 10.34 0 0 0 0-10.32Z"/>
  <path opacity=".04" d="m1673.12 421.84-25.84-44.68a10.32 10.32 0 0 0-8.94-5.16h-51.68a10.32 10.32 0 0 0-8.94 5.16l-25.84 44.68a10.34 10.34 0 0 0 0 10.32l25.84 44.68a10.32 10.32 0 0 0 8.94 5.16h51.68a10.32 10.32 0 0 0 8.94-5.16l25.84-44.68a10.34 10.34 0 0 0 0-10.32Z"/>
  <path opacity=".01" d="m1780.62 359.84-25.84-44.68a10.32 10.32 0 0 0-8.94-5.16h-51.68a10.32 10.32 0 0 0-8.94 5.16l-25.84 44.68a10.34 10.34 0 0 0 0 10.32l25.84 44.68a10.32 10.32 0 0 0 8.94 5.16h51.68a10.32 10.32 0 0 0 8.94-5.16l25.84-44.68a10.34 10.34 0 0 0 0-10.32Z"/>
  <path opacity=".05" d="m1888.12 297.84-25.84-44.68a10.32 10.32 0 0 0-8.94-5.16h-51.68a10.32 10.32 0 0 0-8.94 5.16l-25.84 44.68a10.34 10.34 0 0 0 0 10.32l25.84 44.68a10.32 10.32 0 0 0 8.94 5.16h51.68a10.32 10.32 0 0 0 8.94-5.16l25.84-44.68a10.34 10.34 0 0 0 0-10.32Z"/>
  <path opacity=".03" d="m1888.12 421.84-25.84-44.68a10.32 10.32 0 0 0-8.94-5.16h-51.68a10.32 10.32 0 0 0-8.94 5.16l-25.84 44.68a10.34 10.34 0 0 0 0 10.32l25.84 44.68a10.32 10.32 0 0 0 8.94 5.16h51.68a10.32 10.32 0 0 0 8.94-5.16l25.84-44.68a10.34 10.34 0 0 0 0-10.32Z"/>
  <path opacity=".06" d="m1995.62 235.84-25.84-44.68a10.32 10.32 0 0 0-8.94-5.16h-51.68a10.32 10.32 0 0 0-8.94 5.16l-25.84 44.68a10.34 10.34 0 0 0 0 10.32l25.84 44.68a10.32 10.32 0 0 0 8.94 5.16h51.68a10.32 10.32 0 0 0 8.94-5.16l25.84-44.68a10.34 10.34 0 0 0 0-10.32Z"/>
  <path opacity=".02" d="m1995.62 359.84-25.84-44.68a10.32 10.32 0 0 0-8.94-5.16h-51.68a10.32 10.32 0 0 0-8.94 5.16l-25.84 44.68a10.34 10.34 0 0 0 0 10.32l25.84 44.68a10.32 10.32 0 0 0 8.94 5.16h51.68a10.32 10.32 0 0 0 8.94-5.16l25.84-44.68a10.34 10.34 0 0 0 0-10.32Z"/>
  <path opacity=".04" d="m2103.12 173.84-25.84-44.68a10.32 10.32 0 0 0-8.94-5.16h-51.68a10.32 10.32 0 0 0-8.94 5.16l-25.84 44.68a10.34 10.34 0 0 0 0 10.32l25.84 44.68a10.32 10.32 0 0 0 8.94 5.16h51.68a10.32 10.32 0 0 0 8.94-5.16l25.84-44.68a10.34 10.34 0 0 0 0-10.32Z"/>
  <path opacity=".06" d="m2103.12 297.84-25.84-44.68a10.32 10.32 0 0 0-8.94-5.16h-51.68a10.32 10.32 0 0 0-8.94 5.16l-25.84 44.68a10.34 10.34 0 0 0 0 10.32l25.84 44.68a10.32 10.32 0 0 0 8.94 5.16h51.68a10.32 10.32 0 0 0 8.94-5.16l25.84-44.68a10.34 10.34 0 0 0 0-10.32Z"/>
  <path opacity=".03" d="m2103.12 421.84-25.84-44.68a10.32 10.32 0 0 0-8.94-5.16h-51.68a10.32 10.32 0 0 0-8.94 5.16l-25.84 44.68a10.34 10.34 0 0 0 0 10.32l25.84 44.68a10.32 10.32 0 0 0 8.94 5.16h51.68a10.32 10.32 0 0 0 8.94-5.16l25.84-44.68a10.34 10.34 0 0 0 0-10.32Z"/>
  <path opacity=".04" d="m2210.62 235.84-25.84-44.68a10.32 10.32 0 0 0-8.94-5.16h-51.68a10.32 10.32 0 0 0-8.94 5.16l-25.84 44.68a10.34 10.34 0 0 0 0 10.32l25.84 44.68a10.32 10.32 0 0 0 8.94 5.16h51.68a10.32 10.32 0 0 0 8.94-5.16l25.84-44.68a10.34 10.34 0 0 0 0-10.32Z"/>
  <path opacity=".01" d="m2210.62 359.84-25.84-44.68a10.32 10.32 0 0 0-8.94-5.16h-51.68a10.32 10.32 0 0 0-8.94 5.16l-25.84 44.68a10.34 10.34 0 0 0 0 10.32l25.84 44.68a10.32 10.32 0 0 0 8.94 5.16h51.68a10.32 10.32 0 0 0 8.94-5.16l25.84-44.68a10.34 10.34 0 0 0 0-10.32ZM2318.12 173.84l-25.84-44.68a10.32 10.32 0 0 0-8.94-5.16h-51.68a10.32 10.32 0 0 0-8.94 5.16l-25.84 44.68a10.34 10.34 0 0 0 0 10.32l25.84 44.68a10.32 10.32 0 0 0 8.94 5.16h51.68a10.32 10.32 0 0 0 8.94-5.16l25.84-44.68a10.34 10.34 0 0 0 0-10.32Z"/>
  <path opacity=".05" d="m2318.12 297.84-25.84-44.68a10.32 10.32 0 0 0-8.94-5.16h-51.68a10.32 10.32 0 0 0-8.94 5.16l-25.84 44.68a10.34 10.34 0 0 0 0 10.32l25.84 44.68a10.32 10.32 0 0 0 8.94 5.16h51.68a10.32 10.32 0 0 0 8.94-5.16l25.84-44.68a10.34 10.34 0 0 0 0-10.32Z"/>
  <path opacity=".03" d="m2425.62 235.84-25.84-44.68a10.32 10.32 0 0 0-8.94-5.16h-51.68a10.32 10.32 0 0 0-8.94 5.16l-25.84 44.68a10.34 10.34 0 0 0 0 10.32l25.84 44.68a10.32 10.32 0 0 0 8.94 5.16h51.68a10.32 10.32 0 0 0 8.94-5.16l25.84-44.68a10.34 10.34 0 0 0 0-10.32Z"/>
  <path opacity=".02" d="m2425.62 359.84-25.84-44.68a10.32 10.32 0 0 0-8.94-5.16h-51.68a10.32 10.32 0 0 0-8.94 5.16l-25.84 44.68a10.34 10.34 0 0 0 0 10.32l25.84 44.68a10.32 10.32 0 0 0 8.94 5.16h51.68a10.32 10.32 0 0 0 8.94-5.16l25.84-44.68a10.34 10.34 0 0 0 0-10.32Z"/>
  <path opacity=".01" d="m2533.12 173.84-25.84-44.68a10.32 10.32 0 0 0-8.94-5.16h-51.68a10.32 10.32 0 0 0-8.94 5.16l-25.84 44.68a10.34 10.34 0 0 0 0 10.32l25.84 44.68a10.32 10.32 0 0 0 8.94 5.16h51.68a10.32 10.32 0 0 0 8.94-5.16l25.84-44.68a10.34 10.34 0 0 0 0-10.32Z"/>
  <path opacity=".02" d="m2533.12 297.84-25.84-44.68a10.32 10.32 0 0 0-8.94-5.16h-51.68a10.32 10.32 0 0 0-8.94 5.16l-25.84 44.68a10.34 10.34 0 0 0 0 10.32l25.84 44.68a10.32 10.32 0 0 0 8.94 5.16h51.68a10.32 10.32 0 0 0 8.94-5.16l25.84-44.68a10.34 10.34 0 0 0 0-10.32Z"/>
  <path opacity=".03" d="m2533.12 421.84-25.84-44.68a10.32 10.32 0 0 0-8.94-5.16h-51.68a10.32 10.32 0 0 0-8.94 5.16l-25.84 44.68a10.34 10.34 0 0 0 0 10.32l25.84 44.68a10.32 10.32 0 0 0 8.94 5.16h51.68a10.32 10.32 0 0 0 8.94-5.16l25.84-44.68a10.34 10.34 0 0 0 0-10.32Z"/>
  <path opacity=".02" d="m2640.62 111.84-25.84-44.68a10.32 10.32 0 0 0-8.94-5.16h-51.68a10.32 10.32 0 0 0-8.94 5.16l-25.84 44.68a10.34 10.34 0 0 0 0 10.32l25.84 44.68a10.32 10.32 0 0 0 8.94 5.16h51.68a10.32 10.32 0 0 0 8.94-5.16l25.84-44.68a10.34 10.34 0 0 0 0-10.32Z"/>
  <path opacity=".03" d="m2640.62 235.84-25.84-44.68a10.32 10.32 0 0 0-8.94-5.16h-51.68a10.32 10.32 0 0 0-8.94 5.16l-25.84 44.68a10.34 10.34 0 0 0 0 10.32l25.84 44.68a10.32 10.32 0 0 0 8.94 5.16h51.68a10.32 10.32 0 0 0 8.94-5.16l25.84-44.68a10.34 10.34 0 0 0 0-10.32Z"/>
  <path opacity=".02" d="m2640.62 359.84-25.84-44.68a10.32 10.32 0 0 0-8.94-5.16h-51.68a10.32 10.32 0 0 0-8.94 5.16l-25.84 44.68a10.34 10.34 0 0 0 0 10.32l25.84 44.68a10.32 10.32 0 0 0 8.94 5.16h51.68a10.32 10.32 0 0 0 8.94-5.16l25.84-44.68a10.34 10.34 0 0 0 0-10.32Z"/>
  <path opacity=".01" d="m2748.12 173.84-25.84-44.68a10.32 10.32 0 0 0-8.94-5.16h-51.68a10.32 10.32 0 0 0-8.94 5.16l-25.84 44.68a10.34 10.34 0 0 0 0 10.32l25.84 44.68a10.32 10.32 0 0 0 8.94 5.16h51.68a10.32 10.32 0 0 0 8.94-5.16l25.84-44.68a10.34 10.34 0 0 0 0-10.32Z"/>
  <path opacity=".03" d="m2748.12 297.84-25.84-44.68a10.32 10.32 0 0 0-8.94-5.16h-51.68a10.32 10.32 0 0 0-8.94 5.16l-25.84 44.68a10.34 10.34 0 0 0 0 10.32l25.84 44.68a10.32 10.32 0 0 0 8.94 5.16h51.68a10.32 10.32 0 0 0 8.94-5.16l25.84-44.68a10.34 10.34 0 0 0 0-10.32ZM60.62 359.84l-25.84-44.68a10.32 10.32 0 0 0-8.94-5.16H0v110h25.84a10.32 10.32 0 0 0 8.94-5.16l25.84-44.68a10.34 10.34 0 0 0 0-10.32Z"/>
  <path opacity=".02" d="m60.62 235.84-25.84-44.68a10.32 10.32 0 0 0-8.94-5.16H0v110h25.84a10.32 10.32 0 0 0 8.94-5.16l25.84-44.68a10.34 10.34 0 0 0 0-10.32Z"/>
  <path opacity=".03" d="M2795 310h-25.84a10.32 10.32 0 0 0-8.94 5.16l-25.84 44.68a10.34 10.34 0 0 0 0 10.32l25.84 44.68a10.32 10.32 0 0 0 8.94 5.16H2795Z"/>
  <path opacity=".02" d="M2795 186h-25.84a10.32 10.32 0 0 0-8.94 5.16l-25.84 44.68a10.34 10.34 0 0 0 0 10.32l25.84 44.68a10.32 10.32 0 0 0 8.94 5.16H2795Z"/>

    <path opacity=".04" d="m1780.62 235.84-25.84-44.68a10.32 10.32 0 0 0-8.94-5.16h-51.68a10.32 10.32 0 0 0-8.94 5.16l-25.84 44.68a10.34 10.34 0 0 0 0 10.32l25.84 44.68a10.32 10.32 0 0 0 8.94 5.16h51.68a10.32 10.32 0 0 0 8.94-5.16l25.84-44.68a10.34 10.34 0 0 0 0-10.32Z"/>
    <path opacity=".02" d="m1888.12 49.84-25.84-44.68a10.32 10.32 0 0 0-8.94-5.16h-51.68a10.32 10.32 0 0 0-8.94 5.16l-25.84 44.68a10.34 10.34 0 0 0 0 10.32l25.84 44.68a10.32 10.32 0 0 0 8.94 5.16h51.68a10.32 10.32 0 0 0 8.94-5.16l25.84-44.68a10.34 10.34 0 0 0 0-10.32Z"/>
    <path opacity=".01" d="m1888.12 173.84-25.84-44.68a10.32 10.32 0 0 0-8.94-5.16h-51.68a10.32 10.32 0 0 0-8.94 5.16l-25.84 44.68a10.34 10.34 0 0 0 0 10.32l25.84 44.68a10.32 10.32 0 0 0 8.94 5.16h51.68a10.32 10.32 0 0 0 8.94-5.16l25.84-44.68a10.34 10.34 0 0 0 0-10.32Z"/>
    <path opacity=".03" d="m1995.62 111.84-25.84-44.68a10.32 10.32 0 0 0-8.94-5.16h-51.68a10.32 10.32 0 0 0-8.94 5.16l-25.84 44.68a10.34 10.34 0 0 0 0 10.32l25.84 44.68a10.32 10.32 0 0 0 8.94 5.16h51.68a10.32 10.32 0 0 0 8.94-5.16l25.84-44.68a10.34 10.34 0 0 0 0-10.32Z"/>
    <path opacity=".02" d="m2103.12 49.84-25.84-44.68a10.32 10.32 0 0 0-8.94-5.16h-51.68a10.32 10.32 0 0 0-8.94 5.16l-25.84 44.68a10.34 10.34 0 0 0 0 10.32l25.84 44.68a10.32 10.32 0 0 0 8.94 5.16h51.68a10.32 10.32 0 0 0 8.94-5.16l25.84-44.68a10.34 10.34 0 0 0 0-10.32ZM2210.62 111.84l-25.84-44.68a10.32 10.32 0 0 0-8.94-5.16h-51.68a10.32 10.32 0 0 0-8.94 5.16l-25.84 44.68a10.34 10.34 0 0 0 0 10.32l25.84 44.68a10.32 10.32 0 0 0 8.94 5.16h51.68a10.32 10.32 0 0 0 8.94-5.16l25.84-44.68a10.34 10.34 0 0 0 0-10.32Z"/>

</svg>
