<svg xmlns="http://www.w3.org/2000/svg" viewBox="0 0 996 336">
  <defs>
    <clipPath id="graphic-hold-it-hero">
      <rect x="639" y="254" width="310" height="81" rx="6" fill="none" />
    </clipPath>
    <clipPath id="b">
      <rect x="12" y="156" width="310" height="82" rx="6" fill="none" />
    </clipPath>
    <clipPath id="c">
      <rect x="-54" y="254" width="407" height="82" rx="6" fill="none" />
    </clipPath>
    <clipPath id="d">
      <rect x="664" y="156" width="310" height="82" rx="6" fill="none" />
    </clipPath>
  </defs>
  <g clip-path="url(#graphic-hold-it-hero)">
    <path
      d="M844.33 276.44h3.25a1.87 1.87 0 0 0 1.56-1l1.68-2.89a1.63 1.63 0 0 0 0-1.8l-1.56-2.75a1.75 1.75 0 0 0-1.56-.84h-3.25a1.9 1.9 0 0 0-1.57 1l-1.68 2.76a1.64 1.64 0 0 0 0 1.8l1.56 2.77a1.9 1.9 0 0 0 1.57.95Zm13.23-3.44h-3.13a1.87 1.87 0 0 0-1.56 1l-1.68 2.89a1.6 1.6 0 0 0 0 1.8l1.56 2.76a1.87 1.87 0 0 0 1.56 1h3.25a1.87 1.87 0 0 0 1.56-1l1.57-2.76a1.63 1.63 0 0 0 0-1.8l-1.57-2.89a1.55 1.55 0 0 0-1.56-1.08Zm31.63 14.18 1.57-2.77a1.63 1.63 0 0 0 0-1.8l-1.57-2.76a1.87 1.87 0 0 0-1.56-1h-3.25a1.87 1.87 0 0 0-1.56 1l-1.56 2.76a1.6 1.6 0 0 0 0 1.8l1.68 2.89a1.87 1.87 0 0 0 1.56 1h3.25a4.14 4.14 0 0 0 1.44-1.08Zm-11.66-2.53h-3.25a2.06 2.06 0 0 0-1.56.85l-1.72 2.71a1.64 1.64 0 0 0 0 1.8l1.69 2.76a1.75 1.75 0 0 0 1.56.84h3.25a2.05 2.05 0 0 0 1.56-.84l1.57-2.76a1.63 1.63 0 0 0 0-1.8l-1.63-2.88a1.88 1.88 0 0 0-1.44-.73Zm6.85 49.85h3.13a1.87 1.87 0 0 0 1.56-1l1.57-2.76a1.63 1.63 0 0 0 0-1.8l-1.57-2.77a1.87 1.87 0 0 0-1.56-1h-3a1.87 1.87 0 0 0-1.56 1l-1.68 2.89a1.6 1.6 0 0 0 0 1.8l1.56 2.76a2.05 2.05 0 0 0 1.55.83Zm14.68-6.73 1.68-2.88a1.63 1.63 0 0 0 0-1.8l-1.56-2.64a1.75 1.75 0 0 0-1.56-.84h-3.25a2.07 2.07 0 0 0-1.57.84l-1.56 2.76a1.64 1.64 0 0 0 0 1.8l1.68 2.88a1.75 1.75 0 0 0 1.57.85h3a1.61 1.61 0 0 0 1.57-1Zm-39.93-69.66 1.56-2.76a1.64 1.64 0 0 0 0-1.8l-1.56-2.77a1.9 1.9 0 0 0-1.57-1h-3.13a1.87 1.87 0 0 0-1.56 1l-1.56 2.77a1.64 1.64 0 0 0 0 1.8l1.56 2.76a1.87 1.87 0 0 0 1.56 1h3.25a1.58 1.58 0 0 0 1.45-1Zm20 69.66 1.68-2.88a1.63 1.63 0 0 0 0-1.8l-1.56-2.76a1.87 1.87 0 0 0-1.56-1h-3.29a1.9 1.9 0 0 0-1.57 1l-1.56 2.64a1.64 1.64 0 0 0 0 1.8l1.73 2.83a1.86 1.86 0 0 0 1.56 1h3a1.37 1.37 0 0 0 1.53-.88Zm-4.57 12.62h3a1.87 1.87 0 0 0 1.56-1l1.68-2.89a1.6 1.6 0 0 0 0-1.8l-1.56-2.76a1.87 1.87 0 0 0-1.56-1h-3.13a1.87 1.87 0 0 0-1.56 1l-1.57 2.76a1.64 1.64 0 0 0 0 1.8l1.57 2.77a1.77 1.77 0 0 0 1.56 1.08Zm-136.81-90.62h-3.13a1.87 1.87 0 0 0-1.56 1l-1.68 2.89a1.63 1.63 0 0 0 0 1.8l1.56 2.64a1.87 1.87 0 0 0 1.56 1h3.25a2.09 2.09 0 0 0 1.57-.84l1.68-2.76a1.64 1.64 0 0 0 0-1.8l-1.68-2.77a1.8 1.8 0 0 0-1.57-1.16Zm161.31 89.61 1.68-2.89a1.63 1.63 0 0 0 0-1.8l-1.56-2.76a1.75 1.75 0 0 0-1.56-.84h-3a2.05 2.05 0 0 0-1.56.84l-1.69 2.88a1.64 1.64 0 0 0 0 1.8l1.56 2.77a1.78 1.78 0 0 0 1.57.84h3a2.05 2.05 0 0 0 1.56-.84Zm5.41-4.93h3a1.87 1.87 0 0 0 1.56-1l1.57-2.76a1.65 1.65 0 0 0 0-1.81l-1.68-2.88a1.87 1.87 0 0 0-1.56-1h-3a1.87 1.87 0 0 0-1.56 1l-1.57 2.76a1.65 1.65 0 0 0 0 1.81l1.57 2.76a2.09 2.09 0 0 0 1.67 1.12Zm-145.31-64.74 1.69-2.88a1.64 1.64 0 0 0 0-1.8l-1.57-2.77a1.87 1.87 0 0 0-1.56-1h-3.25a1.87 1.87 0 0 0-1.56 1l-1.56 2.74a1.6 1.6 0 0 0 0 1.8l1.56 2.76a1.87 1.87 0 0 0 1.56 1h3.25a1.3 1.3 0 0 0 1.44-.84Zm30 17.42 1.69-2.88a1.65 1.65 0 0 0 0-1.81l-1.57-2.76a1.87 1.87 0 0 0-1.56-1h-3.13a1.87 1.87 0 0 0-1.56 1l-1.56 2.76a1.61 1.61 0 0 0 0 1.81L783 287a1.87 1.87 0 0 0 1.56 1h3a1.52 1.52 0 0 0 1.55-.87Zm10.11 5.76 1.63-2.89a1.64 1.64 0 0 0 0-1.8l-1.56-2.76a1.88 1.88 0 0 0-1.56-1h-3.13a1.91 1.91 0 0 0-1.57 1l-1.56 2.76a1.64 1.64 0 0 0 0 1.8l1.69 2.88a1.87 1.87 0 0 0 1.56 1h3a1.85 1.85 0 0 0 1.45-.99Zm-20.09-11.53 1.68-2.76a1.64 1.64 0 0 0 0-1.8l-1.73-2.8a1.75 1.75 0 0 0-1.56-.84h-3a2.09 2.09 0 0 0-1.57.84l-1.68 2.77a1.64 1.64 0 0 0 0 1.8l1.68 2.76a1.78 1.78 0 0 0 1.57.84h3a1.72 1.72 0 0 0 1.56-.81Zm-9.86-5.88 1.68-2.77a1.63 1.63 0 0 0 0-1.8l-1.68-2.76a1.75 1.75 0 0 0-1.56-.84h-3.13a1.89 1.89 0 0 0-1.57 1l-1.68 2.88a1.63 1.63 0 0 0 0 1.8l1.56 2.77a1.89 1.89 0 0 0 1.57 1h3.12a2.91 2.91 0 0 0 1.69-1.2Zm60 34.83 1.57-2.76a1.65 1.65 0 0 0 0-1.81l-1.69-2.88a1.87 1.87 0 0 0-1.56-1h-3.13a1.87 1.87 0 0 0-1.56 1l-1.69 2.88a1.65 1.65 0 0 0 0 1.81l1.57 2.76a1.75 1.75 0 0 0 1.56.84h3.25a1.61 1.61 0 0 0 1.65-.84Zm15.16 24.14h3.25a2.05 2.05 0 0 0 1.56-.84l1.69-2.88a1.63 1.63 0 0 0 0-1.8l-1.57-2.77a1.75 1.75 0 0 0-1.56-.84h-3.13a2.05 2.05 0 0 0-1.56.84l-1.69 2.89a1.64 1.64 0 0 0 0 1.8l1.57 2.64a1.35 1.35 0 0 0 1.44 1Zm-35.37-35.67 1.57-2.77a1.64 1.64 0 0 0 0-1.8l-1.68-2.88a1.87 1.87 0 0 0-1.56-1h-3a1.87 1.87 0 0 0-1.56 1l-1.57 2.76a1.64 1.64 0 0 0 0 1.8l1.69 2.89a1.87 1.87 0 0 0 1.56 1h3a2.09 2.09 0 0 0 1.56-1Zm10.11 5.76 1.68-2.88a1.63 1.63 0 0 0 0-1.8l-1.56-2.76a1.75 1.75 0 0 0-1.57-.84h-3.12a2.07 2.07 0 0 0-1.57.84l-1.56 2.76a1.64 1.64 0 0 0 0 1.8l1.68 2.88a1.89 1.89 0 0 0 1.57 1h3a1.85 1.85 0 0 0 1.45-1Zm-49.92-17.41 1.68-2.77a1.63 1.63 0 0 0 0-1.8l-1.68-2.76a1.75 1.75 0 0 0-1.56-.84h-3.13a1.89 1.89 0 0 0-1.57 1l-1.68 2.88a1.64 1.64 0 0 0 0 1.8l1.56 2.77a1.89 1.89 0 0 0 1.57 1h3.25a3.9 3.9 0 0 0 1.53-1.28ZM829.17 322l1.69-2.88a1.65 1.65 0 0 0 0-1.81l-1.57-2.76a1.87 1.87 0 0 0-1.56-1h-3.25a1.87 1.87 0 0 0-1.56 1l-1.69 2.88a1.65 1.65 0 0 0 0 1.81l1.57 2.76a1.87 1.87 0 0 0 1.56 1h3.25a1.81 1.81 0 0 0 1.56-1Zm-20.09-11.65 1.57-2.77a1.63 1.63 0 0 0 0-1.8l-1.57-2.78a1.87 1.87 0 0 0-1.56-1h-3a1.87 1.87 0 0 0-1.56 1l-1.69 2.88a1.64 1.64 0 0 0 0 1.8l1.57 2.77a1.87 1.87 0 0 0 1.56 1h3.13a1.92 1.92 0 0 0 1.56-1.08Zm30.08 17.41 1.68-2.88a1.63 1.63 0 0 0 0-1.8l-1.56-2.64a1.9 1.9 0 0 0-1.57-1h-3.25a1.87 1.87 0 0 0-1.56 1l-1.68 2.88a1.64 1.64 0 0 0 0 1.8l1.56 2.76a1.86 1.86 0 0 0 1.56 1h3.13a2.35 2.35 0 0 0 1.69-1.16Zm-80-46.36 1.69-2.88a1.64 1.64 0 0 0 0-1.8l-1.57-2.77a1.87 1.87 0 0 0-1.56-1h-3.25a1.87 1.87 0 0 0-1.56 1l-1.56 2.77a1.6 1.6 0 0 0 0 1.8l1.56 2.76a1.87 1.87 0 0 0 1.56 1h3.25a1.66 1.66 0 0 0 1.44-.84Zm40.06 23.18 1.56-2.76a1.63 1.63 0 0 0 0-1.8l-1.68-2.88a1.89 1.89 0 0 0-1.57-1h-3.12a1.88 1.88 0 0 0-1.57 1l-1.68 2.86a1.64 1.64 0 0 0 0 1.8l1.56 2.76a1.88 1.88 0 0 0 1.57 1h3.24a1.92 1.92 0 0 0 1.69-1.02Zm-10-5.76 1.58-2.82a1.63 1.63 0 0 0 0-1.8l-1.68-2.88a1.76 1.76 0 0 0-1.57-.84h-3a1.88 1.88 0 0 0-1.57 1l-1.68 2.88a1.64 1.64 0 0 0 0 1.8l1.56 2.77a1.88 1.88 0 0 0 1.57 1h3.12a3.4 3.4 0 0 0 1.69-1.15Zm-10-5.89 1.56-2.76a1.63 1.63 0 0 0 0-1.8l-1.68-2.88a1.76 1.76 0 0 0-1.56-.85h-3a2.1 2.1 0 0 0-1.57.85l-1.68 2.88a1.64 1.64 0 0 0 0 1.8l1.56 2.76a1.76 1.76 0 0 0 1.57.84h3.13a1.61 1.61 0 0 0 1.68-.84Zm89.86 40.72 1.68-2.76a1.63 1.63 0 0 0 0-1.8l-1.68-2.77a1.75 1.75 0 0 0-1.56-.84h-3.13a2.09 2.09 0 0 0-1.57.84l-1.56 2.77a1.64 1.64 0 0 0 0 1.8l1.68 2.88a1.78 1.78 0 0 0 1.57.84h3a2.67 2.67 0 0 0 1.6-1Zm-49.92-52.25 1.68-2.76a1.63 1.63 0 0 0 0-1.8l-1.65-2.84a1.76 1.76 0 0 0-1.57-.84h-3.24a1.88 1.88 0 0 0-1.57 1l-1.56 2.77a1.64 1.64 0 0 0 0 1.8l1.56 2.76a1.88 1.88 0 0 0 1.57 1h3.24a3.69 3.69 0 0 0 1.57-1.13Zm-30-17.53 1.57-2.77a1.64 1.64 0 0 0 0-1.8l-1.57-2.76a1.87 1.87 0 0 0-1.56-1h-3.13a1.87 1.87 0 0 0-1.56 1l-1.56 2.76a1.6 1.6 0 0 0 0 1.8l1.56 2.77a1.87 1.87 0 0 0 1.56 1h3.13a1.87 1.87 0 0 0 1.63-1.04Zm-14.6-4.87h3a2.05 2.05 0 0 0 1.56-.84l1.68-2.76a1.64 1.64 0 0 0 0-1.8l-1.68-2.77a1.75 1.75 0 0 0-1.56-.84h-3a2.09 2.09 0 0 0-1.57.84l-1.68 2.77a1.63 1.63 0 0 0 0 1.8l1.68 2.76a2.09 2.09 0 0 0 1.57.84Zm14.67 16.46 1.57-2.77a1.64 1.64 0 0 0 0-1.8l-1.57-2.76a1.87 1.87 0 0 0-1.56-1h-3.13a1.87 1.87 0 0 0-1.56 1l-1.56 2.76a1.6 1.6 0 0 0 0 1.8l1.56 2.77a1.87 1.87 0 0 0 1.56 1h3.13a1.87 1.87 0 0 0 1.56-.98Zm-10.1-5.77 1.68-2.76a1.63 1.63 0 0 0 0-1.8l-1.68-2.77a1.75 1.75 0 0 0-1.56-.84h-3a2.09 2.09 0 0 0-1.57.84l-1.68 2.77a1.63 1.63 0 0 0 0 1.8l1.68 2.76a1.78 1.78 0 0 0 1.57.84h3a1.72 1.72 0 0 0 1.56-.82Zm-9.86-5.69 1.68-2.77a1.63 1.63 0 0 0 0-1.8l-1.68-2.76a1.75 1.75 0 0 0-1.56-.84h-3.13a1.89 1.89 0 0 0-1.57 1l-1.68 2.88a1.63 1.63 0 0 0 0 1.8l1.56 2.77a1.89 1.89 0 0 0 1.57 1h3.12a4.62 4.62 0 0 0 1.69-1.2Zm49.92 28.94 1.68-2.76a1.63 1.63 0 0 0 0-1.8l-1.68-2.77a1.76 1.76 0 0 0-1.57-.84h-3.24a1.86 1.86 0 0 0-1.57 1l-1.56 2.64a1.64 1.64 0 0 0 0 1.8l1.68 2.88a1.75 1.75 0 0 0 1.57.84h3.12a1.89 1.89 0 0 0 1.57-1.04Zm35.24 47.45h3.25a1.87 1.87 0 0 0 1.56-1l1.57-2.77a1.63 1.63 0 0 0 0-1.8l-1.57-2.76a1.87 1.87 0 0 0-1.56-1h-3.25a2.05 2.05 0 0 0-1.56.84l-1.68 2.88a1.6 1.6 0 0 0 0 1.8l1.56 2.77a2.25 2.25 0 0 0 1.68 1Z"
      fill="#fff" opacity=".2" style="isolation:isolate" />
    <g opacity=".4" fill="none" stroke="#fff" stroke-linecap="round" stroke-width="2">
      <path d="M685.39 313a18.68 18.68 0 1 1 18.17-24.12" />
      <path
        d="M693.1 296.6v-2.28c0-10.32-3.34-18.68-7.47-18.68s-7.47 8.36-7.47 18.68c0 10.07 3.19 18.28 7.18 18.67M668 289.43h35.55m-34.67 12.41h17.43" />
    </g>
    <path d="m693.15 308.73 4.27 4.27 10.68-14.94" fill="none" stroke="#fff" stroke-linecap="round"
      stroke-linejoin="round" stroke-width="3" />
  </g>
  <rect x="640" y="255" width="308" height="79" rx="5" fill="none" stroke="#fff" stroke-opacity=".1" stroke-width="2" />
  <rect x="847" y="59" width="308" height="80" rx="5" fill="none" stroke="#fff" stroke-opacity=".05" stroke-width="2" />
  <rect x="966" y="255" width="308" height="80" rx="5" fill="none" stroke="#fff" stroke-opacity=".1" stroke-width="2" />
  <rect x="991" y="157" width="308" height="80" rx="5" fill="none" stroke="#fff" stroke-opacity=".1" stroke-width="2" />
  <g opacity=".4" fill="#fff">
    <path
      d="M202.65 79.71a21.25 21.25 0 0 1 4.3 3.6 2.17 2.17 0 0 1 0 2.9C204.4 89 200.16 92 195.91 92h-.3a11 11 0 0 1-4.31-.94l-4.15 4.15a1 1 0 0 1-1.63-1.09l19.5-19.5a.66.66 0 0 0 .17-.29 1 1 0 0 1 1.44 1.38l-4 4Zm-5.59 9.35a4.56 4.56 0 0 0 3-3 4.31 4.31 0 0 0-.2-3.06.25.25 0 0 0-.34-.12h-.06l-5.56 5.56a.24.24 0 0 0 0 .35l.07.05a4.26 4.26 0 0 0 3.09.22Z"
      fill-rule="evenodd" />
    <path
      d="M191.37 86.17a.27.27 0 0 0 .06-.24 4.6 4.6 0 0 1-.18-1.16 4.5 4.5 0 0 1 4.5-4.5 4.07 4.07 0 0 1 1.16.17.26.26 0 0 0 .24-.06l1.94-1.95a.23.23 0 0 0 .07-.23.25.25 0 0 0-.16-.2 10.43 10.43 0 0 0-3.24-.49c-4.3-.06-8.6 3-11.18 5.8a2.14 2.14 0 0 0 0 2.9 21.58 21.58 0 0 0 3.44 3 .26.26 0 0 0 .32 0l3.05-3Z" />
  </g>
  <path
    d="M245.83 103a4.09 4.09 0 0 1-2-.5 4.22 4.22 0 0 1-1.48-1.43 3.94 3.94 0 0 1-.55-2 3.82 3.82 0 0 1 .51-1.91 4.06 4.06 0 0 1 1.43-1.45 3.9 3.9 0 0 1 2.09-.57 3.85 3.85 0 0 1 2 .52 4 4 0 0 1 1.45 1.39 3.64 3.64 0 0 1 .57 2 4 4 0 0 1-2 3.41 3.79 3.79 0 0 1-2 .53Zm21.65 0a4 4 0 0 1-3.48-1.93 3.76 3.76 0 0 1-.55-2 3.82 3.82 0 0 1 .51-1.91 4.06 4.06 0 0 1 5.5-1.5 4 4 0 0 1 1.45 1.39 3.64 3.64 0 0 1 .57 2 3.69 3.69 0 0 1-.55 2 4 4 0 0 1-3.45 2Zm21.64 0a4.09 4.09 0 0 1-2-.5 4.14 4.14 0 0 1-1.48-1.43 3.94 3.94 0 0 1-.55-2 3.82 3.82 0 0 1 .51-1.91 4.06 4.06 0 0 1 1.4-1.42 3.9 3.9 0 0 1 2.09-.57 3.85 3.85 0 0 1 2 .52 4 4 0 0 1 1.45 1.39 3.64 3.64 0 0 1 .57 2 3.69 3.69 0 0 1-.55 2 3.76 3.76 0 0 1-1.45 1.43 3.82 3.82 0 0 1-1.99.49Zm21.64 0a4.12 4.12 0 0 1-2-.5 4.19 4.19 0 0 1-1.47-1.43 3.76 3.76 0 0 1-.55-2 3.92 3.92 0 0 1 .5-1.91 4.06 4.06 0 0 1 1.43-1.45 3.93 3.93 0 0 1 2.09-.57 3.85 3.85 0 0 1 2 .52 4 4 0 0 1 1.46 1.39 3.64 3.64 0 0 1 .57 2 3.79 3.79 0 0 1-.55 2 4 4 0 0 1-3.46 2Zm21.65 0a4.09 4.09 0 0 1-2-.5 4.14 4.14 0 0 1-1.48-1.43 3.89 3.89 0 0 1 0-3.92 4.06 4.06 0 0 1 1.43-1.45 4.07 4.07 0 0 1 4.07 0 4 4 0 0 1 1.45 1.39 3.64 3.64 0 0 1 .57 2 3.69 3.69 0 0 1-.55 2 4 4 0 0 1-3.45 2Zm21.64 0a4.09 4.09 0 0 1-2-.5 4.19 4.19 0 0 1-1.47-1.43 3.76 3.76 0 0 1-.55-2 3.92 3.92 0 0 1 .5-1.91 4.06 4.06 0 0 1 1.47-1.42 3.93 3.93 0 0 1 2.09-.57 3.85 3.85 0 0 1 2 .52 4.05 4.05 0 0 1 1.46 1.39 3.64 3.64 0 0 1 .57 2 3.79 3.79 0 0 1-.55 2 4 4 0 0 1-3.46 2Zm21.65 0a4.09 4.09 0 0 1-2-.5 4.14 4.14 0 0 1-1.48-1.43 3.76 3.76 0 0 1-.55-2 3.82 3.82 0 0 1 .51-1.91 4 4 0 0 1 1.43-1.45 4.07 4.07 0 0 1 4.07 0 4 4 0 0 1 1.45 1.39 3.64 3.64 0 0 1 .57 2 3.69 3.69 0 0 1-.55 2 4 4 0 0 1-3.45 2Zm21.64 0a3.95 3.95 0 0 1-3.47-1.93 3.76 3.76 0 0 1-.55-2 3.81 3.81 0 0 1 .5-1.91 4.06 4.06 0 0 1 1.43-1.45 3.9 3.9 0 0 1 2.09-.57 3.85 3.85 0 0 1 2 .52 4 4 0 0 1 1.45 1.39 3.57 3.57 0 0 1 .58 2 4 4 0 0 1-4 3.94Z"
    fill="#fff" opacity=".3" style="isolation:isolate" />
  <path d="M322.5 83.47v31.06" fill="none" stroke="#fff" stroke-linecap="square" stroke-width="3" />
  <rect x="168" y="59" width="308" height="80" rx="5" fill="none" stroke="#fff" stroke-opacity=".1" stroke-width="2" />
  <rect x="-158" y="59" width="308" height="80" rx="5" fill="none" stroke="#fff" stroke-opacity=".05"
    stroke-width="2" />
  <rect x="-201" y="-39" width="308" height="80" rx="5" fill="none" stroke="#fff" stroke-opacity=".05"
    stroke-width="2" />
  <rect x="125" y="-39" width="308" height="80" rx="5" fill="none" stroke="#fff" stroke-opacity=".05"
    stroke-width="2" />
  <rect x="451" y="-39" width="308" height="80" rx="5" fill="none" stroke="#fff" stroke-opacity=".05"
    stroke-width="2" />
  <rect x="777" y="-39" width="308" height="80" rx="5" fill="none" stroke="#fff" stroke-opacity=".05"
    stroke-width="2" />
  <path
    d="M584.33 105V93.61h4.77a4.3 4.3 0 0 1 2.73.78 2.89 2.89 0 0 1 .45 3.86 2.84 2.84 0 0 1-1.47 1v-.13a2.86 2.86 0 0 1 1.69 1 3.12 3.12 0 0 1-.41 4.16 4.47 4.47 0 0 1-2.83.8Zm1.63-1.33h3.14a3 3 0 0 0 1.82-.45 1.64 1.64 0 0 0 .59-1.42 1.73 1.73 0 0 0-.59-1.44 2.85 2.85 0 0 0-1.82-.48H586Zm0-5.12h2.86a2.89 2.89 0 0 0 1.81-.46 1.63 1.63 0 0 0 .59-1.38 1.54 1.54 0 0 0-.59-1.33 3 3 0 0 0-1.81-.44H586Zm9.16 6.45v-8.06h1.62V105ZM595 93.42h1.87v1.69H595Zm3 4.76v-1.24h5.41v1.24Zm5.39 5.44v1.32a2.85 2.85 0 0 1-.58.12 3.05 3.05 0 0 1-.62 0 2.66 2.66 0 0 1-1.94-.69 2.84 2.84 0 0 1-.68-2.06v-7.39l1.61-.56v7.87a2 2 0 0 0 .18.93 1.06 1.06 0 0 0 .48.46 1.78 1.78 0 0 0 .7.13 2.77 2.77 0 0 0 .42 0 2.89 2.89 0 0 0 .43-.1Zm5 1.49a4.24 4.24 0 0 1-2.12-.51 3.56 3.56 0 0 1-1.36-1.44 5.18 5.18 0 0 1 0-4.4 3.63 3.63 0 0 1 1.39-1.49 4.26 4.26 0 0 1 2.15-.53 4.66 4.66 0 0 1 1.61.28 3.23 3.23 0 0 1 1.28.76l-.45 1.22a4.68 4.68 0 0 0-1.14-.67 3.05 3.05 0 0 0-1.15-.22 2.34 2.34 0 0 0-1.83.75 3.18 3.18 0 0 0-.65 2.14 3.14 3.14 0 0 0 .65 2.13 2.34 2.34 0 0 0 1.83.74 3.14 3.14 0 0 0 1.15-.23 4.38 4.38 0 0 0 1.14-.67l.49 1.17a3.55 3.55 0 0 1-1.31.75 5.25 5.25 0 0 1-1.66.27Zm8 0a4.19 4.19 0 0 1-2.1-.51 3.49 3.49 0 0 1-1.36-1.44 4.9 4.9 0 0 1-.48-2.24 4.83 4.83 0 0 1 .48-2.21 3.41 3.41 0 0 1 1.36-1.45 4.19 4.19 0 0 1 2.1-.52 4 4 0 0 1 2.06.52 3.45 3.45 0 0 1 1.38 1.45 4.71 4.71 0 0 1 .49 2.21 4.78 4.78 0 0 1-.49 2.24 3.42 3.42 0 0 1-1.38 1.44 4.06 4.06 0 0 1-2.07.51Zm0-1.28a2 2 0 0 0 1.68-.73 3.39 3.39 0 0 0 .6-2.18 3.3 3.3 0 0 0-.6-2.13 2 2 0 0 0-1.68-.75 2.12 2.12 0 0 0-1.72.75 3.3 3.3 0 0 0-.6 2.13 3.39 3.39 0 0 0 .59 2.18 2.11 2.11 0 0 0 1.73.73Zm5.8 1.17v-8.06h1.62V105Zm-.11-11.58h1.87v1.69h-1.87Zm4.07 11.58v-6.93a8.47 8.47 0 0 0-.1-1.13h1.54l.14 1.63-.16.09a2.77 2.77 0 0 1 1.12-1.42 3.31 3.31 0 0 1 1.8-.5c1.93 0 2.89 1.09 2.89 3.25v5h-1.61v-4.94a2.26 2.26 0 0 0-.42-1.52 1.6 1.6 0 0 0-1.28-.48 2.19 2.19 0 0 0-1.66.64 2.34 2.34 0 0 0-.61 1.71v4.6Zm90.65-9.87a3.59 3.59 0 0 1-3.09-1.49 7.41 7.41 0 0 1-1.07-4.34 7.4 7.4 0 0 1 1.06-4.3 4 4 0 0 1 6.19 0 7.36 7.36 0 0 1 1.11 4.29 7.42 7.42 0 0 1-1.07 4.35 3.59 3.59 0 0 1-3.13 1.49Zm0-1.6a1.7 1.7 0 0 0 1.62-1 7.64 7.64 0 0 0 .51-3.23 7.43 7.43 0 0 0-.51-3.19 1.81 1.81 0 0 0-3.24 0 7.33 7.33 0 0 0-.51 3.17 7.64 7.64 0 0 0 .51 3.23 1.71 1.71 0 0 0 1.62 1.02Zm5.67-.77h2.26V95h-2.26Zm7.94 2.37a3.59 3.59 0 0 1-3.09-1.49 7.41 7.41 0 0 1-1.07-4.34 7.4 7.4 0 0 1 1.06-4.3 4 4 0 0 1 6.19 0 7.36 7.36 0 0 1 1.07 4.32 7.42 7.42 0 0 1-1.07 4.35 3.59 3.59 0 0 1-3.09 1.46Zm0-1.6a1.71 1.71 0 0 0 1.62-1 7.64 7.64 0 0 0 .51-3.23 7.43 7.43 0 0 0-.54-3.2 1.81 1.81 0 0 0-3.24 0 7.33 7.33 0 0 0-.51 3.17 7.64 7.64 0 0 0 .51 3.23 1.71 1.71 0 0 0 1.65 1.03Zm9.39 1.58a7.62 7.62 0 0 1-2.23-.33 4.88 4.88 0 0 1-1.74-1l.7-1.5a6.06 6.06 0 0 0 1.54.89 4.86 4.86 0 0 0 1.65.29 2.61 2.61 0 0 0 1.63-.42 1.6 1.6 0 0 0 .53-1.32 1.51 1.51 0 0 0-.55-1.28 2.73 2.73 0 0 0-1.68-.42h-1.5v-1.61h1.23A2.69 2.69 0 0 0 741 88a1.45 1.45 0 0 0 .56-1.25 1.52 1.52 0 0 0-.48-1.21 2 2 0 0 0-1.33-.42 4.43 4.43 0 0 0-1.57.31 5.16 5.16 0 0 0-1.52.88l-.7-1.51a5.18 5.18 0 0 1 1.74-1 6.93 6.93 0 0 1 2.16-.35 4.63 4.63 0 0 1 1.94.37 2.91 2.91 0 0 1 1.28 1.05 2.8 2.8 0 0 1 .45 1.59 2.88 2.88 0 0 1-.53 1.74 2.78 2.78 0 0 1-1.49 1v-.16a3 3 0 0 1 1.72 1 3.1 3.1 0 0 1-.5 4.2 4.65 4.65 0 0 1-2.93.87Zm9.27-1v-8.98l1 .22-3.34 2v-1.82l3.16-1.92h1.2v10.45Zm-2.48.94v-1.71h7V95Zm12.23-11.52a4 4 0 0 1 3.33 1.46 6.44 6.44 0 0 1 1.17 4.16 8.61 8.61 0 0 1-.56 3.26 4.43 4.43 0 0 1-1.58 2.06 4.37 4.37 0 0 1-2.5.71 6 6 0 0 1-2-.34 5 5 0 0 1-1.68-1l.7-1.51a6.28 6.28 0 0 0 1.52.91 3.8 3.8 0 0 0 1.4.28 2.21 2.21 0 0 0 2-1.12 6.31 6.31 0 0 0 .69-3.25v-.87l.22.4a2.62 2.62 0 0 1-.57 1.2 3.09 3.09 0 0 1-1.08.79 3.38 3.38 0 0 1-1.37.27 3.53 3.53 0 0 1-1.81-.46 3.49 3.49 0 0 1-1.23-1.3 3.92 3.92 0 0 1-.45-1.9 3.74 3.74 0 0 1 .5-2 3.5 3.5 0 0 1 1.34-1.28 4 4 0 0 1 2-.48Zm.12 1.63a1.86 1.86 0 0 0-1.44.58 2.05 2.05 0 0 0-.53 1.5 2.12 2.12 0 0 0 .53 1.52 1.88 1.88 0 0 0 1.44.56 2.14 2.14 0 0 0 1-.25 1.87 1.87 0 0 0 .71-.74 2.28 2.28 0 0 0 .25-1.09 2.25 2.25 0 0 0-.25-1.09 1.82 1.82 0 0 0-.71-.72 2.13 2.13 0 0 0-1-.32ZM769.61 95V83.61h5a4.38 4.38 0 0 1 2.75.78 2.62 2.62 0 0 1 1 2.19 2.59 2.59 0 0 1-.53 1.65 2.71 2.71 0 0 1-1.48 1v-.13a2.87 2.87 0 0 1 1.69 1 2.8 2.8 0 0 1 .61 1.86 2.76 2.76 0 0 1-1 2.28 4.47 4.47 0 0 1-2.88.82Zm2-1.62h2.93a2.75 2.75 0 0 0 1.66-.38 1.51 1.51 0 0 0 .53-1.28 1.53 1.53 0 0 0-.53-1.28 2.63 2.63 0 0 0-1.65-.42h-2.93Zm0-5h2.64a2.71 2.71 0 0 0 1.64-.4 1.42 1.42 0 0 0 .52-1.2 1.37 1.37 0 0 0-.52-1.2 2.79 2.79 0 0 0-1.64-.39h-2.64ZM783.17 95v-9.7h-3.71v-1.69H789v1.69h-3.71V95Zm11.71.13a5.87 5.87 0 0 1-2.94-.71 4.82 4.82 0 0 1-1.92-2 6.81 6.81 0 0 1-.66-3.1 6.65 6.65 0 0 1 .66-3.07 4.68 4.68 0 0 1 1.92-2 5.77 5.77 0 0 1 2.94-.72 6.61 6.61 0 0 1 2.16.35 4.44 4.44 0 0 1 1.7 1l-.67 1.51a5.4 5.4 0 0 0-1.54-.9 4.63 4.63 0 0 0-1.61-.29 3.15 3.15 0 0 0-2.56 1.08 4.59 4.59 0 0 0-.9 3.07 4.73 4.73 0 0 0 .9 3.1 3.15 3.15 0 0 0 2.56 1.07 4.73 4.73 0 0 0 1.61-.27 5.7 5.7 0 0 0 1.54-.91l.67 1.5a4.35 4.35 0 0 1-1.7 1 6.83 6.83 0 0 1-2.16.34Z"
    fill="#fff" opacity=".4" style="isolation:isolate" />
  <path
    d="M743.09 116v-1.08l3.43-3.76a6.06 6.06 0 0 0 1-1.32 2.48 2.48 0 0 0 .31-1.19 1.45 1.45 0 0 0-.45-1.15 1.73 1.73 0 0 0-1.24-.4 3.68 3.68 0 0 0-1.4.28 5.11 5.11 0 0 0-1.37.81l-.52-1.08a4.56 4.56 0 0 1 1.5-.87 5.48 5.48 0 0 1 1.84-.32 3.88 3.88 0 0 1 1.63.32 2.53 2.53 0 0 1 1.08.93 2.56 2.56 0 0 1 .37 1.41 3.71 3.71 0 0 1-.37 1.64 8 8 0 0 1-1.26 1.72l-3.21 3.46-.14-.59h5.39V116Zm11.59.1a5.37 5.37 0 0 1-1.82-.32 4.36 4.36 0 0 1-1.48-.87l.5-1.08a5.4 5.4 0 0 0 1.39.81 3.71 3.71 0 0 0 1.42.28 2.07 2.07 0 0 0 1.54-.53 2 2 0 0 0 .56-1.5 2.1 2.1 0 0 0-.25-1.06 1.82 1.82 0 0 0-.71-.72 2.25 2.25 0 0 0-1.07-.25 2.71 2.71 0 0 0-2.17 1h-.92V106h6.1v1.16h-4.67v3.7l-.45-.07a3 3 0 0 1 1-.84 3.16 3.16 0 0 1 1.4-.29 3.22 3.22 0 0 1 1.64.4 2.59 2.59 0 0 1 1.09 1.11 3.39 3.39 0 0 1 .39 1.66 3.31 3.31 0 0 1-.43 1.7 3 3 0 0 1-1.22 1.13 4 4 0 0 1-1.86.41Zm8-10.18a3.4 3.4 0 0 1 2.84 1.26 5.66 5.66 0 0 1 1 3.61 7.66 7.66 0 0 1-.48 2.87 3.85 3.85 0 0 1-1.34 1.82 3.58 3.58 0 0 1-2.13.63 4.79 4.79 0 0 1-1.71-.31 4.16 4.16 0 0 1-1.45-.88l.53-1.08a5 5 0 0 0 1.33.84 3.43 3.43 0 0 0 1.27.26 2.1 2.1 0 0 0 1.88-1.07 5.85 5.85 0 0 0 .66-3.05v-1l.19.37a2.54 2.54 0 0 1-.52 1.16 2.65 2.65 0 0 1-1 .74 3.32 3.32 0 0 1-2.89-.13 2.77 2.77 0 0 1-1.08-1.12 3.45 3.45 0 0 1-.39-1.66 3.29 3.29 0 0 1 .42-1.67 3 3 0 0 1 1.16-1.16 3.38 3.38 0 0 1 1.68-.42Zm.08 1.18a1.82 1.82 0 0 0-1.41.56 2.32 2.32 0 0 0 0 3 1.88 1.88 0 0 0 1.43.56 2.09 2.09 0 0 0 1-.25 1.87 1.87 0 0 0 .72-.73 2.26 2.26 0 0 0 .25-1 2.21 2.21 0 0 0-.25-1.06 1.85 1.85 0 0 0-.72-.72 2 2 0 0 0-1.03-.36Zm5.27 7.22h1.68V116H768Zm6.41-8.4a3.42 3.42 0 0 1 2.84 1.26 5.66 5.66 0 0 1 1 3.61 7.66 7.66 0 0 1-.48 2.87 3.92 3.92 0 0 1-1.34 1.82 3.58 3.58 0 0 1-2.13.63 4.75 4.75 0 0 1-1.71-.31 4.29 4.29 0 0 1-1.46-.88l.54-1.08a5 5 0 0 0 1.33.84 3.39 3.39 0 0 0 1.27.26 2.1 2.1 0 0 0 1.88-1.07 6 6 0 0 0 .65-3.05v-1l.2.37a2.54 2.54 0 0 1-.52 1.16 2.65 2.65 0 0 1-1 .74 3.14 3.14 0 0 1-1.29.27 3.18 3.18 0 0 1-1.61-.4 2.82 2.82 0 0 1-1.07-1.12 3.34 3.34 0 0 1-.4-1.66 3.29 3.29 0 0 1 .42-1.67 3 3 0 0 1 1.17-1.16 3.38 3.38 0 0 1 1.68-.42Zm.08 1.18a1.82 1.82 0 0 0-1.41.56 2.28 2.28 0 0 0 0 3 1.87 1.87 0 0 0 1.42.56 2.11 2.11 0 0 0 1-.25 1.78 1.78 0 0 0 .71-.73 2.15 2.15 0 0 0 .26-1 2.11 2.11 0 0 0-.26-1.06 1.76 1.76 0 0 0-.71-.72 2 2 0 0 0-1.02-.36Zm8.31 8.24V107l.77.28-2.8 1.73v-1.33l2.65-1.65h.84v9.31Zm-2.18.66v-1.19h5.82V116Zm15.66.11a3.41 3.41 0 0 1-2-.6 3.77 3.77 0 0 1-1.29-1.74 7.79 7.79 0 0 1-.43-2.77 7.65 7.65 0 0 1 .43-2.74 3.77 3.77 0 0 1 1.29-1.74 3.41 3.41 0 0 1 2-.6 4.27 4.27 0 0 1 1.63.32 4 4 0 0 1 1.36.9l-.52 1.08a4.74 4.74 0 0 0-1.21-.83 2.75 2.75 0 0 0-1.2-.28 1.92 1.92 0 0 0-1.76 1A5.76 5.76 0 0 0 794 111a5.88 5.88 0 0 0 .58 3 1.91 1.91 0 0 0 1.76 1 2.77 2.77 0 0 0 1.2-.28 5 5 0 0 0 1.21-.82l.52 1.07a4 4 0 0 1-1.36.9 4.34 4.34 0 0 1-1.63.32Zm-5-3.55v-1h5.21v1Zm0-2.15v-1h5.21v1Z"
    fill="#fff" opacity=".2" style="isolation:isolate" />
  <path
    d="M539.42 119.37a21 21 0 0 0 25.45-15.29 21 21 0 1 0-25.45 15.29Zm10.31-29c3 1 5.26 2.49 4.83 5.27a3.74 3.74 0 0 1-3.08 3.36c2.16 1.07 3.26 2.71 2.21 5.55-1.3 3.54-4.38 3.83-8.49 3.09l-1 3.8-2.41-.57 1-3.75c-.64-.15-1.28-.3-1.92-.47l-1 3.77-2.4-.57 1-3.81-.65-.16-1.06-.26-3.14-.75 1.2-2.62s1.77.45 1.75.42a.88.88 0 0 0 1.1-.55l1.58-6 .25.06-.25-.08 1.12-4.29c0-.49-.14-1.1-1.12-1.33l-1.75-.41.64-2.45 3.33.79 1.54.34L544 85l2.4.57-1 3.69 1.93.43 1-3.66 2.41.57-1 3.76ZM542.11 104c2 .49 6.26 1.57 6.94-1s-3.46-3.56-5.49-4l-.6-.13-1.32 5Zm1.89-7.36c1.64.41 5.22 1.32 5.84-1s-2.84-3.16-4.54-3.52l-.49-.1-1.2 4.57.39.1Z"
    fill="#fff" fill-rule="evenodd" />
  <rect x="494" y="59" width="335" height="80" rx="5" fill="none" stroke="#fff" stroke-opacity=".1" stroke-width="2" />
  <path d="M453 294a1 1 0 0 0 0 2Zm74 2a1 1 0 0 0 0-2Zm-74 0h74v-2h-74Z" fill="#fff" opacity=".2"
    style="isolation:isolate" />
  <path
    d="M410.49 315.27a20.44 20.44 0 1 0-14.88-24.77 20.44 20.44 0 0 0 14.88 24.77Zm3.85-32.22a2.72 2.72 0 0 1 2.2 0 2.86 2.86 0 0 1 .88.6 3.22 3.22 0 0 1 .61 1 3 3 0 0 1 .23 1.12 3.19 3.19 0 0 1-.23 1.15 3.12 3.12 0 0 1-1.49 1.55 2.93 2.93 0 0 1-1.1.24 2.72 2.72 0 0 1-1.1-.24 2.93 2.93 0 0 1-.88-.64 3 3 0 0 1-.61-.91 3.06 3.06 0 0 1-.23-1.15 3 3 0 0 1 .23-1.12 3.22 3.22 0 0 1 .61-1 2.86 2.86 0 0 1 .88-.6Zm-5.6 7.59a2.53 2.53 0 0 1 1.06-.2h11.28a2.53 2.53 0 0 1 1.06.2 2.87 2.87 0 0 1 .92.64 3.22 3.22 0 0 1 .61 1 2.73 2.73 0 0 1 .19 1.11v1.2H411v1.74h12.91v6.44a3.09 3.09 0 0 1-.19 1.15 3 3 0 0 1-1.53 1.55 2.42 2.42 0 0 1-1.06.24H409.8a2.42 2.42 0 0 1-1.06-.24 3.2 3.2 0 0 1-.92-.63 3 3 0 0 1-.57-.92 3 3 0 0 1-.23-1.15v-1.15h12.91v-1.79H407v-6.44a2.76 2.76 0 0 1 .23-1.11 2.66 2.66 0 0 1 1.49-1.59Zm159.17 24.63a20.43 20.43 0 0 0 24.77-14.89 20.43 20.43 0 1 0-24.77 14.89ZM578 287c3 1 5.12 2.43 4.69 5.13a3.63 3.63 0 0 1-3 3.28c2.1 1 3.18 2.63 2.16 5.4-1.27 3.44-4.28 3.73-8.27 3l-1 3.7-2.35-.55 1-3.65-1.87-.46-1 3.66L566 306l1-3.71-.63-.16-1-.25-3-.72 1.16-2.56s1.73.44 1.71.41a.87.87 0 0 0 1.07-.53l1.53-5.85.25.06-.24-.07 1.09-4.18a1.19 1.19 0 0 0-1.09-1.29s-1.7-.41-1.7-.41l.62-2.38 3.23.77 1.5.34 1-3.67 2.34.56-.94 3.59c.63.13 1.25.27 1.88.42l.93-3.57 2.35.56L578 287Zm-7.42 13.28c1.91.48 6.09 1.54 6.76-1s-3.37-3.46-5.35-3.88l-.58-.13-1.29 4.91.46.11Zm1.8-7.17c1.6.41 5.08 1.29 5.68-1s-2.76-3.07-4.41-3.42c-.19 0-.35-.07-.48-.11l-1.17 4.47Z"
    fill="#fff" fill-rule="evenodd" />
  <path
    d="M584.16 312.46a20.44 20.44 0 0 0 2.09-32.46h4.44a3 3 0 0 1 2.63 1.52l7.61 13.19a3 3 0 0 1 0 3l-7.61 13.19a3.05 3.05 0 0 1-2.63 1.52Zm-22.62 0h-7a3 3 0 0 1-2.6-1.52l-7.52-13.19a3.1 3.1 0 0 1 0-3l7.52-13.19a3 3 0 0 1 2.6-1.52h5a20.44 20.44 0 0 0 2.07 32.46Zm0 0h8a3 3 0 0 0 2.6-1.52l.34-.59.34.59a3.06 3.06 0 0 0 2.64 1.52h8.69a20.38 20.38 0 0 1-16.25 2.81 20.09 20.09 0 0 1-6.36-2.81ZM559.47 280a20.44 20.44 0 0 1 26.78 0h-10.78a3 3 0 0 0-2.63 1.52l-.35.6-.33-.6a3 3 0 0 0-2.61-1.52Z"
    fill="#fff" fill-rule="evenodd" opacity=".4" style="isolation:isolate" />
  <rect x="370" y="255" width="252" height="80" rx="5" fill="none" stroke="#fff" stroke-opacity=".1" stroke-width="2" />
  <g clip-path="url(#b)">
    <path d="M167 178a16 16 0 0 1 16 16 16 16 0 0 1-16 16 16 16 0 0 1-16-16 16 16 0 0 1 16-16Z" fill="#fff"
      opacity=".06" style="isolation:isolate" />
    <path d="m166 201-3-3 3-3m-1.82 2.87h7.07M169 187l3 3-3 3m1.82-2.86h-7.07" fill="none" stroke="#fff"
      stroke-linecap="round" stroke-linejoin="round" stroke-width="1.5" opacity=".6" style="isolation:isolate" />
    <path d="M192.5 193.5h111" fill="none" stroke="#fff" stroke-linecap="round" stroke-width="3" />
    <path
      d="M225.9 213.1a2.91 2.91 0 0 1-2.51-1.2 6 6 0 0 1-.87-3.53 6.08 6.08 0 0 1 .86-3.52 2.9 2.9 0 0 1 2.52-1.21 2.87 2.87 0 0 1 2.51 1.21 6 6 0 0 1 .87 3.51 6 6 0 0 1-.87 3.54 2.91 2.91 0 0 1-2.51 1.2Zm0-1.3a1.37 1.37 0 0 0 1.31-.81 6.17 6.17 0 0 0 .42-2.63 5.93 5.93 0 0 0-.42-2.59 1.46 1.46 0 0 0-2.62 0 5.83 5.83 0 0 0-.42 2.57 6.17 6.17 0 0 0 .42 2.63 1.37 1.37 0 0 0 1.31.83Zm5-.62h1.83V213h-1.83v-1.82Zm6.84 1.92a2.91 2.91 0 0 1-2.51-1.2 7.61 7.61 0 0 1 0-7.05 2.9 2.9 0 0 1 2.52-1.21 2.87 2.87 0 0 1 2.51 1.21 6 6 0 0 1 .87 3.51 6 6 0 0 1-.87 3.54 2.91 2.91 0 0 1-2.52 1.2Zm0-1.3a1.38 1.38 0 0 0 1.31-.81 6.17 6.17 0 0 0 .42-2.63 5.93 5.93 0 0 0-.42-2.59 1.38 1.38 0 0 0-1.31-.8 1.36 1.36 0 0 0-1.31.82 5.83 5.83 0 0 0-.42 2.57 6.17 6.17 0 0 0 .42 2.63 1.37 1.37 0 0 0 1.31.81Zm8.18 1.3a2.91 2.91 0 0 1-2.51-1.2 6 6 0 0 1-.87-3.53 6.08 6.08 0 0 1 .86-3.52 2.9 2.9 0 0 1 2.52-1.21 2.87 2.87 0 0 1 2.51 1.21 6 6 0 0 1 .87 3.51 6 6 0 0 1-.87 3.54 2.9 2.9 0 0 1-2.51 1.2Zm0-1.3a1.39 1.39 0 0 0 1.32-.81 6.36 6.36 0 0 0 .41-2.63 6.11 6.11 0 0 0-.41-2.59 1.4 1.4 0 0 0-1.32-.8 1.38 1.38 0 0 0-1.31.82 5.83 5.83 0 0 0-.42 2.57 6.17 6.17 0 0 0 .42 2.63 1.39 1.39 0 0 0 1.31.81Zm8 1.29a6.2 6.2 0 0 1-1.81-.27 4.13 4.13 0 0 1-1.42-.79l.58-1.23a4.69 4.69 0 0 0 1.24.73 3.87 3.87 0 0 0 1.34.24 2.18 2.18 0 0 0 1.33-.34 1.32 1.32 0 0 0 .43-1.08 1.23 1.23 0 0 0-.44-1 2.23 2.23 0 0 0-1.37-.34h-1.2v-1.33h1a2.22 2.22 0 0 0 1.34-.33 1.21 1.21 0 0 0 .45-1 1.25 1.25 0 0 0-.39-1 1.59 1.59 0 0 0-1.07-.33 3.62 3.62 0 0 0-1.28.24 4.23 4.23 0 0 0-1.23.72l-.58-1.22a4.12 4.12 0 0 1 1.42-.78 5.55 5.55 0 0 1 1.76-.29 3.79 3.79 0 0 1 1.57.3 2.25 2.25 0 0 1 1.4 2.14 2.3 2.3 0 0 1-.43 1.42 2.26 2.26 0 0 1-1.2.81v-.13a2.38 2.38 0 0 1 1.39.8 2.5 2.5 0 0 1-.4 3.42 3.79 3.79 0 0 1-2.39.69Zm8.05-9.45a3.27 3.27 0 0 1 2.71 1.18 5.27 5.27 0 0 1 .95 3.38 6.88 6.88 0 0 1-.46 2.66 3.58 3.58 0 0 1-1.29 1.67 3.5 3.5 0 0 1-2 .57 5 5 0 0 1-1.63-.27 4 4 0 0 1-1.36-.79l.57-1.22a5.49 5.49 0 0 0 1.23.74 3.39 3.39 0 0 0 1.13.22 1.79 1.79 0 0 0 1.62-.91 5.18 5.18 0 0 0 .56-2.64v-.7l.18.32a2.13 2.13 0 0 1-.47 1 2.46 2.46 0 0 1-.87.63 2.73 2.73 0 0 1-1.12.23 3 3 0 0 1-1.47-.38 2.88 2.88 0 0 1-1-1.05 3.28 3.28 0 0 1-.36-1.55 3.08 3.08 0 0 1 .4-1.59 2.88 2.88 0 0 1 1.1-1.09 3.27 3.27 0 0 1 1.6-.39Zm.09 1.33a1.55 1.55 0 0 0-1.17.46 2 2 0 0 0 0 2.46 1.59 1.59 0 0 0 1.17.46 1.71 1.71 0 0 0 .86-.21 1.49 1.49 0 0 0 .57-.6 2 2 0 0 0 0-1.77 1.28 1.28 0 0 0-.57-.58 1.6 1.6 0 0 0-.84-.19Zm9 8v-7.19h.39l-3.2 4.59v-.53h5.76v1.31h-7V210l4.33-6.21h1.34V213Zm8.62 0v-9.26h4.07a3.61 3.61 0 0 1 2.24.64 2.13 2.13 0 0 1 .83 1.78 2.11 2.11 0 0 1-.43 1.34 2.29 2.29 0 0 1-1.21.78v-.1a2.32 2.32 0 0 1 1.38.79 2.28 2.28 0 0 1 .49 1.51 2.26 2.26 0 0 1-.84 1.86 3.7 3.7 0 0 1-2.34.66Zm1.64-1.31h2.38a2.34 2.34 0 0 0 1.34-.31 1.47 1.47 0 0 0 0-2.08 2.15 2.15 0 0 0-1.34-.34h-2.38v2.73Zm0-4.05h2.14a2.19 2.19 0 0 0 1.33-.32 1.14 1.14 0 0 0 .43-1 1.11 1.11 0 0 0-.43-1 2.27 2.27 0 0 0-1.33-.31h-2.14Zm9.77 5.36v-7.88h-3v-1.38h7.73v1.38h-3V213Zm9.91.1a4.78 4.78 0 0 1-2.39-.57 3.88 3.88 0 0 1-1.56-1.65 5.51 5.51 0 0 1-.54-2.52 5.45 5.45 0 0 1 .54-2.5 3.72 3.72 0 0 1 1.56-1.63 4.68 4.68 0 0 1 2.39-.59 5.27 5.27 0 0 1 1.75.29 3.47 3.47 0 0 1 1.38.8l-.54 1.22a4.5 4.5 0 0 0-1.25-.72 3.72 3.72 0 0 0-1.32-.24 2.6 2.6 0 0 0-2.08.87 3.82 3.82 0 0 0-.72 2.5 3.9 3.9 0 0 0 .72 2.52 2.6 2.6 0 0 0 2.08.87 3.81 3.81 0 0 0 1.32-.22 4.8 4.8 0 0 0 1.25-.74l.54 1.22a3.5 3.5 0 0 1-1.38.82 5.21 5.21 0 0 1-1.75.3Z"
      fill="#fff" opacity=".4" style="isolation:isolate" />
    <path d="M32.5 193.5h40m6 0h63" fill="none" stroke="#fff" stroke-linecap="round" stroke-width="3" />
    <path
      d="M34.47 212.23V205l.85.18-2.72 1.62v-1.5l2.57-1.56h1v8.49Zm-2 .77v-1.35h5.72V213Zm10.63.1a2.9 2.9 0 0 1-2.51-1.2 6 6 0 0 1-.87-3.53 6.08 6.08 0 0 1 .85-3.52 2.91 2.91 0 0 1 2.53-1.21 2.86 2.86 0 0 1 2.5 1.21 6 6 0 0 1 .87 3.51 6 6 0 0 1-.87 3.54 2.9 2.9 0 0 1-2.51 1.2Zm0-1.3a1.39 1.39 0 0 0 1.3-.8 6.19 6.19 0 0 0 .41-2.63 6 6 0 0 0-.41-2.59 1.47 1.47 0 0 0-2.63 0 6 6 0 0 0-.41 2.57 6.36 6.36 0 0 0 .41 2.63 1.39 1.39 0 0 0 1.32.82Zm8.18 1.3a2.91 2.91 0 0 1-2.51-1.2 6 6 0 0 1-.87-3.53 6.08 6.08 0 0 1 .86-3.52 2.9 2.9 0 0 1 2.52-1.21 2.87 2.87 0 0 1 2.51 1.21 6 6 0 0 1 .87 3.51 6 6 0 0 1-.87 3.54 2.91 2.91 0 0 1-2.51 1.2Zm0-1.3a1.37 1.37 0 0 0 1.31-.81 6.17 6.17 0 0 0 .42-2.63 5.93 5.93 0 0 0-.42-2.59 1.46 1.46 0 0 0-2.62 0 5.83 5.83 0 0 0-.42 2.57A6.17 6.17 0 0 0 50 211a1.37 1.37 0 0 0 1.27.8Zm12.14 1.3a2.91 2.91 0 0 1-2.51-1.2 6 6 0 0 1-.87-3.53 6.08 6.08 0 0 1 .86-3.52 2.9 2.9 0 0 1 2.52-1.21 2.87 2.87 0 0 1 2.51 1.21 6 6 0 0 1 .87 3.51 6 6 0 0 1-.87 3.54 2.91 2.91 0 0 1-2.52 1.2Zm0-1.3a1.39 1.39 0 0 0 1.32-.81 6.36 6.36 0 0 0 .41-2.63 6.11 6.11 0 0 0-.41-2.59 1.4 1.4 0 0 0-1.32-.8 1.37 1.37 0 0 0-1.31.82 5.83 5.83 0 0 0-.42 2.57 6.17 6.17 0 0 0 .41 2.64 1.38 1.38 0 0 0 1.31.8Zm7.89-8.16a3.25 3.25 0 0 1 2.7 1.18 5.22 5.22 0 0 1 1 3.38 7.08 7.08 0 0 1-.45 2.66 3.71 3.71 0 0 1-1.29 1.67 3.54 3.54 0 0 1-2 .57 5 5 0 0 1-1.62-.27 4 4 0 0 1-1.37-.79l.57-1.22a5.77 5.77 0 0 0 1.24.74 3.34 3.34 0 0 0 1.13.22 1.77 1.77 0 0 0 1.61-.91 5.18 5.18 0 0 0 .56-2.64v-.7l.18.32a2.13 2.13 0 0 1-.47 1 2.38 2.38 0 0 1-.87.63 2.83 2.83 0 0 1-1.11.23 3 3 0 0 1-1.47-.38 2.8 2.8 0 0 1-1-1.05 3.39 3.39 0 0 1 0-3.14A2.84 2.84 0 0 1 69.7 204a3.24 3.24 0 0 1 1.6-.39Zm.09 1.33a1.52 1.52 0 0 0-1.17.46 2 2 0 0 0 0 2.46 1.56 1.56 0 0 0 1.17.46 1.74 1.74 0 0 0 .86-.21 1.5 1.5 0 0 0 .57-.6 1.93 1.93 0 0 0 .21-.88 1.8 1.8 0 0 0-.21-.89 1.39 1.39 0 0 0-.57-.58 1.62 1.62 0 0 0-.87-.19Zm5.43 8v-1.23l3.13-3.4a5.34 5.34 0 0 0 .81-1.12 2.19 2.19 0 0 0 .26-1 1.21 1.21 0 0 0-.37-1 1.5 1.5 0 0 0-1.06-.22 3.52 3.52 0 0 0-1.26.24 5 5 0 0 0-1.25.72l-.57-1.22a3.94 3.94 0 0 1 1.42-.78 5.43 5.43 0 0 1 1.74-.29 3.84 3.84 0 0 1 1.58.3 2.3 2.3 0 0 1 1 .87 2.34 2.34 0 0 1 .37 1.34 3.38 3.38 0 0 1-.34 1.51 6.89 6.89 0 0 1-1.14 1.56l-2.82 3-.2-.56H83V213ZM89 213v-9.26h1.24l5.33 6.93-.35.19v-7.12h1.58V213h-1.23l-5.31-6.9.34-.21V213Zm10.2 0v-9.26h1.68V213Zm4.11 0v-9.26h1.34l3.5 8h-.64l3.47-8h1.34V213h-1.5v-6.85l.44.1-2.86 6.75h-1.11l-3-6.75.47-.1V213Z"
      fill="#fff" opacity=".4" style="isolation:isolate" />
  </g>
  <rect x="13" y="157" width="308" height="80" rx="5" fill="none" stroke="#fff" stroke-opacity=".1" stroke-width="2" />
  <path
    d="M420.33 193v-11.39h7.23V183H422v3.57h5.28v1.36H422V193Zm8.92 0v-11.78h1.61V193Zm3.68 3.63-.35-1.25a5.22 5.22 0 0 0 1.23-.4 2.59 2.59 0 0 0 .85-.57 3.22 3.22 0 0 0 .57-.91l.55-1.25.38-.56 2.78-6.75h1.62l-3.76 8.7a5.64 5.64 0 0 1-1 1.62 3.93 3.93 0 0 1-1.28.92 6.13 6.13 0 0 1-1.57.45Zm2.88-3.17-3.67-8.52h1.68l2.76 6.75Zm6-.46v-8.06h1.62V193Zm-.11-11.58h1.87v1.69h-1.87Zm4.08 11.58v-6.93a10.54 10.54 0 0 0-.1-1.13h1.54l.14 1.63-.16.09a2.76 2.76 0 0 1 1.12-1.42 3.28 3.28 0 0 1 1.79-.5c1.93 0 2.9 1.09 2.9 3.25v5h-1.62v-4.94a2.32 2.32 0 0 0-.41-1.52 1.62 1.62 0 0 0-1.28-.48 2.22 2.22 0 0 0-1.67.64 2.38 2.38 0 0 0-.61 1.71v4.6Zm13.1 3.57a6.33 6.33 0 0 1-3.22-.8l.26-1.27a7.13 7.13 0 0 0 1.44.6 5.92 5.92 0 0 0 1.5.19 2.29 2.29 0 0 0 1.7-.58 2.36 2.36 0 0 0 .57-1.73v-2.09l.18-.11a3 3 0 0 1-.61 1 2.79 2.79 0 0 1-1 .7 3.35 3.35 0 0 1-1.3.24 3.46 3.46 0 0 1-1.88-.5 3.57 3.57 0 0 1-1.27-1.4 4.67 4.67 0 0 1-.45-2.12 4.6 4.6 0 0 1 .45-2.09 3.54 3.54 0 0 1 1.27-1.39 3.47 3.47 0 0 1 1.88-.52 3.21 3.21 0 0 1 1.86.53 2.62 2.62 0 0 1 1 1.47l-.19-.08v-1.72h1.61v7.9a3.64 3.64 0 0 1-1 2.78 4 4 0 0 1-2.8.99Zm-.08-5.11a2.09 2.09 0 0 0 1.69-.72 2.92 2.92 0 0 0 .63-2 2.87 2.87 0 0 0-.63-2 2.07 2.07 0 0 0-1.69-.74 2.23 2.23 0 0 0-1.75.72 3.5 3.5 0 0 0 0 4 2.23 2.23 0 0 0 1.75.74ZM420.33 213v-11.39H422v10h5.53V213Zm12.12.11a4.12 4.12 0 0 1-2.09-.51 3.43 3.43 0 0 1-1.36-1.44 4.9 4.9 0 0 1-.48-2.24 4.83 4.83 0 0 1 .48-2.21 3.4 3.4 0 0 1 1.36-1.45 4.13 4.13 0 0 1 2.09-.52 4.08 4.08 0 0 1 2.07.52 3.37 3.37 0 0 1 1.37 1.45 4.71 4.71 0 0 1 .5 2.21 4.78 4.78 0 0 1-.5 2.24 3.34 3.34 0 0 1-1.37 1.44 4.07 4.07 0 0 1-2.07.51Zm0-1.28a2 2 0 0 0 1.68-.73 3.33 3.33 0 0 0 .61-2.18 3.24 3.24 0 0 0-.61-2.13 2 2 0 0 0-1.68-.75 2.12 2.12 0 0 0-1.71.75 3.3 3.3 0 0 0-.61 2.13 3.39 3.39 0 0 0 .6 2.18 2.1 2.1 0 0 0 1.72.73Zm4.71-5.65v-1.24h5.41v1.24Zm5.39 5.44v1.32a2.9 2.9 0 0 1-.57.12 3.16 3.16 0 0 1-.63.05 2.66 2.66 0 0 1-1.94-.69 2.84 2.84 0 0 1-.68-2.06v-7.44l1.61-.56v7.87a2 2 0 0 0 .18.93 1.06 1.06 0 0 0 .48.46 1.78 1.78 0 0 0 .7.13 2.77 2.77 0 0 0 .42 0 2.89 2.89 0 0 0 .43-.1Zm4.37 1.49a2.8 2.8 0 0 1-2.19-.8 3.51 3.51 0 0 1-.73-2.43v-4.94h1.61v4.92a2.26 2.26 0 0 0 .4 1.48 1.62 1.62 0 0 0 1.27.46 2 2 0 0 0 1.56-.64 2.35 2.35 0 0 0 .61-1.7v-4.52h1.62V213h-1.57v-1.71l.19-.07a2.71 2.71 0 0 1-1.07 1.41 3 3 0 0 1-1.7.48Zm9.31 0a5.09 5.09 0 0 1-3.34-1l.5-1.17a4.5 4.5 0 0 0 1.34.74 5.19 5.19 0 0 0 1.55.22 2.42 2.42 0 0 0 1.27-.27.93.93 0 0 0 .43-.8.79.79 0 0 0-.31-.67 2.42 2.42 0 0 0-1-.44l-1.36-.32a3.09 3.09 0 0 1-1.61-.78 2 2 0 0 1-.55-1.42 2.16 2.16 0 0 1 .4-1.27 2.72 2.72 0 0 1 1.12-.85 4.16 4.16 0 0 1 1.68-.32 4.85 4.85 0 0 1 1.65.24 3.56 3.56 0 0 1 1.33.76l-.49 1.14a4.46 4.46 0 0 0-1.22-.69 3.35 3.35 0 0 0-1.25-.24 2 2 0 0 0-1.21.31.92.92 0 0 0-.44.81.94.94 0 0 0 .26.69 2 2 0 0 0 .9.38l1.36.34a3.26 3.26 0 0 1 1.71.82 2 2 0 0 1 .54 1.44 2 2 0 0 1-.88 1.71 4 4 0 0 1-2.37.62Zm54.57-20a6.08 6.08 0 0 1-2.22-.37 3.43 3.43 0 0 1-1.51-1.1 2.83 2.83 0 0 1-.53-1.71 2.59 2.59 0 0 1 .79-2 3.6 3.6 0 0 1 2.14-.95l-.06.24a3.58 3.58 0 0 1-1.91-1 2.48 2.48 0 0 1-.7-1.77 2.69 2.69 0 0 1 .51-1.64 3.36 3.36 0 0 1 1.43-1.05 5.89 5.89 0 0 1 4.11 0 3.21 3.21 0 0 1 1.42 1.05 2.64 2.64 0 0 1 .53 1.64 2.49 2.49 0 0 1-.7 1.79 3.34 3.34 0 0 1-1.89.94l-.07-.24a3.64 3.64 0 0 1 2.13 1 2.58 2.58 0 0 1 .79 1.94 2.72 2.72 0 0 1-.55 1.71 3.26 3.26 0 0 1-1.49 1.1 6.08 6.08 0 0 1-2.22.37Zm0-1.6a2.93 2.93 0 0 0 1.7-.43 1.51 1.51 0 0 0 .62-1.3 1.49 1.49 0 0 0-.66-1.28 3.35 3.35 0 0 0-1.66-.6 3.5 3.5 0 0 0-1.68.6 1.49 1.49 0 0 0-.64 1.28 1.51 1.51 0 0 0 .62 1.3 3 3 0 0 0 1.7.43Zm0-4.93a3.11 3.11 0 0 0 1.46-.59 1.52 1.52 0 0 0 .57-1.25 1.43 1.43 0 0 0-.56-1.23 2.28 2.28 0 0 0-1.47-.43 2.38 2.38 0 0 0-1.49.43 1.46 1.46 0 0 0-.54 1.23 1.52 1.52 0 0 0 .57 1.25 3.11 3.11 0 0 0 1.46.59Zm9.39 6.53a7.57 7.57 0 0 1-2.23-.33 4.88 4.88 0 0 1-1.74-1l.7-1.5a6.06 6.06 0 0 0 1.54.89 4.86 4.86 0 0 0 1.65.29 2.61 2.61 0 0 0 1.63-.42 1.6 1.6 0 0 0 .53-1.32 1.51 1.51 0 0 0-.55-1.28A2.73 2.73 0 0 0 520 188h-1.5v-1.63h1.23a2.67 2.67 0 0 0 1.65-.42 1.45 1.45 0 0 0 .56-1.25 1.52 1.52 0 0 0-.48-1.21 2 2 0 0 0-1.33-.42 4.18 4.18 0 0 0-1.57.31 5.16 5.16 0 0 0-1.52.88l-.7-1.51a5.18 5.18 0 0 1 1.74-1 6.93 6.93 0 0 1 2.16-.35 4.63 4.63 0 0 1 1.94.37 2.91 2.91 0 0 1 1.28 1.05 2.8 2.8 0 0 1 .45 1.59 2.88 2.88 0 0 1-.53 1.74 2.78 2.78 0 0 1-1.49 1v-.16a3 3 0 0 1 1.72 1 3.1 3.1 0 0 1-.5 4.2 4.65 4.65 0 0 1-2.92.92Zm8.6-.11h-2.21l5.5-10.37v.64H526v-1.66h8v1.53l-5.21 9.86Zm15.18.13a3.59 3.59 0 0 1-3.09-1.49 9.36 9.36 0 0 1 0-8.67 3.59 3.59 0 0 1 3.1-1.49 3.55 3.55 0 0 1 3.09 1.49 9.32 9.32 0 0 1 0 8.67 3.57 3.57 0 0 1-3.09 1.49Zm0-1.6a1.7 1.7 0 0 0 1.62-1 7.64 7.64 0 0 0 .51-3.23 7.43 7.43 0 0 0-.51-3.19 1.8 1.8 0 0 0-3.23 0 7.3 7.3 0 0 0-.52 3.17 7.61 7.61 0 0 0 .52 3.23 1.7 1.7 0 0 0 1.61 1Zm5.95 1.47v-1.52l3.85-4.18a7.19 7.19 0 0 0 1-1.37 2.78 2.78 0 0 0 .32-1.23 1.51 1.51 0 0 0-.45-1.19 1.92 1.92 0 0 0-1.3-.4 4.33 4.33 0 0 0-1.55.31 5.9 5.9 0 0 0-1.54.88l-.7-1.51a5.18 5.18 0 0 1 1.74-1 6.87 6.87 0 0 1 2.15-.35 4.71 4.71 0 0 1 1.95.37 2.82 2.82 0 0 1 1.28 1.07 3 3 0 0 1 .45 1.65 4.15 4.15 0 0 1-.42 1.85 8.12 8.12 0 0 1-1.41 1.92l-3.47 3.7-.24-.68h6V193Zm12.71-.94v-8.93l1 .22-3.34 2v-1.84l3.17-1.92h1.2v10.45Zm-2.48.94v-1.66h7V193Zm8.68-2.24h2.26V193h-2.26v-2.24Zm7.94 2.37a3.59 3.59 0 0 1-3.09-1.49 9.36 9.36 0 0 1 0-8.67 4 4 0 0 1 6.19 0 9.32 9.32 0 0 1 0 8.67 3.59 3.59 0 0 1-3.09 1.49Zm0-1.6a1.71 1.71 0 0 0 1.62-1 7.64 7.64 0 0 0 .51-3.23 7.43 7.43 0 0 0-.51-3.19 1.81 1.81 0 0 0-3.24 0 7.33 7.33 0 0 0-.51 3.17 7.64 7.64 0 0 0 .51 3.23 1.7 1.7 0 0 0 1.62 1Zm9.59 1.6a3.56 3.56 0 0 1-3.08-1.49 7.33 7.33 0 0 1-1.08-4.34 7.48 7.48 0 0 1 1.06-4.33 3.59 3.59 0 0 1 3.1-1.49 3.55 3.55 0 0 1 3.09 1.49 9.32 9.32 0 0 1 0 8.67 3.57 3.57 0 0 1-3.09 1.49Zm0-1.6a1.7 1.7 0 0 0 1.62-1 7.64 7.64 0 0 0 .51-3.23 7.43 7.43 0 0 0-.51-3.19 1.8 1.8 0 0 0-3.23 0 7.33 7.33 0 0 0-.51 3.17 7.64 7.64 0 0 0 .51 3.23 1.7 1.7 0 0 0 1.61 1Zm10.42 1.47v-11.39h1.54l6.56 8.53-.44.22v-8.75h1.94V193h-1.55l-6.53-8.5.42-.25V193Zm12.08 0v-11.39h2.06V193Zm4.58 0v-11.39h1.64l4.31 9.81h-.79l4.28-9.81h1.64V193h-1.84v-8.43l.54.13-3.55 8.3h-1.37l-3.63-8.3.57-.13V193Z"
    fill="#fff" opacity=".4" style="isolation:isolate" />
  <path
    d="M557.09 214v-1.08l3.43-3.76a6.06 6.06 0 0 0 1-1.32 2.48 2.48 0 0 0 .31-1.19 1.45 1.45 0 0 0-.45-1.15 1.73 1.73 0 0 0-1.24-.4 3.68 3.68 0 0 0-1.4.28 5.11 5.11 0 0 0-1.37.81l-.52-1.08a4.56 4.56 0 0 1 1.5-.87 5.48 5.48 0 0 1 1.84-.32 3.88 3.88 0 0 1 1.63.32 2.53 2.53 0 0 1 1.08.93 2.56 2.56 0 0 1 .37 1.41 3.71 3.71 0 0 1-.37 1.64 8 8 0 0 1-1.26 1.72l-3.21 3.46-.14-.59h5.39V214Zm15.24.11a3 3 0 0 1-2.65-1.29 6.56 6.56 0 0 1-.91-3.8 6.69 6.69 0 0 1 .9-3.8 3 3 0 0 1 2.66-1.3 3 3 0 0 1 2.64 1.3 8.37 8.37 0 0 1 0 7.59 3 3 0 0 1-2.64 1.3Zm0-1.16a1.67 1.67 0 0 0 1.59-.95 6.5 6.5 0 0 0 .52-3 6.39 6.39 0 0 0-.52-3 1.67 1.67 0 0 0-1.59-.93 1.69 1.69 0 0 0-1.61 1 6.44 6.44 0 0 0-.51 2.95 6.66 6.66 0 0 0 .51 3 1.71 1.71 0 0 0 1.61.95Zm8.25 1.15a5.81 5.81 0 0 1-1.89-.31 4.3 4.3 0 0 1-1.51-.88l.52-1.08a5.51 5.51 0 0 0 1.37.83 4.29 4.29 0 0 0 1.47.26 2.37 2.37 0 0 0 1.53-.42 1.61 1.61 0 0 0 .51-1.3 1.47 1.47 0 0 0-.53-1.25 2.56 2.56 0 0 0-1.61-.42h-1.22v-1.17h1a2.45 2.45 0 0 0 1.57-.44 1.73 1.73 0 0 0 .09-2.42 1.81 1.81 0 0 0-1.27-.4 3.66 3.66 0 0 0-1.41.28 4.74 4.74 0 0 0-1.36.81l-.52-1.08a4.56 4.56 0 0 1 1.5-.87 5.6 5.6 0 0 1 1.86-.32 3.87 3.87 0 0 1 1.62.32 2.33 2.33 0 0 1 1.07.9 2.7 2.7 0 0 1-.1 2.92 2.43 2.43 0 0 1-1.27.94v-.14a2.57 2.57 0 0 1 1.52.85 2.47 2.47 0 0 1 .53 1.64 2.51 2.51 0 0 1-.92 2.06 3.84 3.84 0 0 1-2.55.69Zm8.21-10.18a3.42 3.42 0 0 1 2.85 1.26 5.66 5.66 0 0 1 1 3.61 7.67 7.67 0 0 1-.47 2.87 3.87 3.87 0 0 1-1.35 1.82 3.52 3.52 0 0 1-2.12.63 4.75 4.75 0 0 1-1.71-.31 4.29 4.29 0 0 1-1.46-.88l.53-1.08a5.18 5.18 0 0 0 1.33.84 3.48 3.48 0 0 0 1.28.26 2.07 2.07 0 0 0 1.87-1.07 5.85 5.85 0 0 0 .66-3.05v-1l.2.37a2.51 2.51 0 0 1-1.5 1.9 3.14 3.14 0 0 1-1.29.27A3.18 3.18 0 0 1 587 210a2.84 2.84 0 0 1-1.08-1.12 3.45 3.45 0 0 1-.39-1.66 3.29 3.29 0 0 1 .42-1.67 3.08 3.08 0 0 1 1.16-1.16 3.43 3.43 0 0 1 1.68-.42Zm.09 1.18a1.85 1.85 0 0 0-1.42.56 2.32 2.32 0 0 0 0 3 1.91 1.91 0 0 0 1.43.56 2.11 2.11 0 0 0 1-.25 1.85 1.85 0 0 0 .71-.73 2.14 2.14 0 0 0 .25-1.05 2.1 2.1 0 0 0-.25-1.06 1.76 1.76 0 0 0-.71-.72 2 2 0 0 0-1-.26Zm5.27 7.22h1.68V214h-1.68v-1.68Zm3.62 1.68v-1.08l3.43-3.76a6.83 6.83 0 0 0 .95-1.32 2.73 2.73 0 0 0 .31-1.19 1.45 1.45 0 0 0-.45-1.15 1.77 1.77 0 0 0-1.25-.4 3.72 3.72 0 0 0-1.4.28 5.27 5.27 0 0 0-1.37.81l-.52-1.08a4.56 4.56 0 0 1 1.5-.87 5.54 5.54 0 0 1 1.85-.32 3.87 3.87 0 0 1 1.62.32 2.47 2.47 0 0 1 1.08.93 2.56 2.56 0 0 1 .38 1.41 3.72 3.72 0 0 1-.38 1.64 7.41 7.41 0 0 1-1.26 1.72l-3.21 3.46-.14-.59h5.39V214ZM609 203.92a3.4 3.4 0 0 1 2.84 1.26 5.66 5.66 0 0 1 1 3.61 7.66 7.66 0 0 1-.48 2.87 3.92 3.92 0 0 1-1.34 1.82 3.58 3.58 0 0 1-2.13.63 4.79 4.79 0 0 1-1.71-.31 4.29 4.29 0 0 1-1.46-.88l.54-1.08a5 5 0 0 0 1.33.84 3.43 3.43 0 0 0 1.27.26 2.1 2.1 0 0 0 1.88-1.07 5.86 5.86 0 0 0 .65-3.05v-1l.2.37a2.54 2.54 0 0 1-.52 1.16 2.65 2.65 0 0 1-1 .74 3.14 3.14 0 0 1-1.29.27 3.18 3.18 0 0 1-1.61-.4 2.82 2.82 0 0 1-1.07-1.12 3.45 3.45 0 0 1-.4-1.66 3.29 3.29 0 0 1 .42-1.67 3 3 0 0 1 1.17-1.16 3.38 3.38 0 0 1 1.68-.42Zm.08 1.18a1.82 1.82 0 0 0-1.41.56 2.28 2.28 0 0 0 0 3 1.87 1.87 0 0 0 1.42.56 2.11 2.11 0 0 0 1-.25 1.78 1.78 0 0 0 .71-.73 2.15 2.15 0 0 0 .26-1.05 2.11 2.11 0 0 0-.26-1.06 1.76 1.76 0 0 0-.71-.72 2 2 0 0 0-1.05-.26Zm13.4 9a3.41 3.41 0 0 1-2-.6 3.77 3.77 0 0 1-1.29-1.74 7.77 7.77 0 0 1-.44-2.77 7.64 7.64 0 0 1 .44-2.74 3.77 3.77 0 0 1 1.29-1.74 3.41 3.41 0 0 1 2-.6 4.3 4.3 0 0 1 1.63.32 3.9 3.9 0 0 1 1.35.9l-.51 1.08a4.74 4.74 0 0 0-1.21-.83 2.78 2.78 0 0 0-1.2-.28 1.93 1.93 0 0 0-1.77 1 5.88 5.88 0 0 0-.57 2.92 6 6 0 0 0 .57 3 1.92 1.92 0 0 0 1.77 1 2.77 2.77 0 0 0 1.2-.28 5 5 0 0 0 1.21-.82l.51 1.07a4 4 0 0 1-1.35.9 4.34 4.34 0 0 1-1.68.22Zm-5-3.55v-1h5.2v1Zm0-2.15v-1h5.2v1Z"
    fill="#fff" opacity=".2" style="isolation:isolate" />
  <path
    d="m402.5 195.13-9.37-16.25a3.74 3.74 0 0 0-3.25-1.88h-18.75a3.76 3.76 0 0 0-3.25 1.88l-9.38 16.25a3.75 3.75 0 0 0 0 3.75l9.38 16.25a3.75 3.75 0 0 0 3.25 1.87h18.75a3.75 3.75 0 0 0 3.24-1.87l9.38-16.25a3.75 3.75 0 0 0 0-3.75Z"
    fill="none" stroke="#fff" stroke-width="3" />
  <rect x="339" y="157" width="308" height="80" rx="5" fill="none" stroke="#fff" stroke-opacity=".1" stroke-width="2" />
  <g clip-path="url(#c)">
    <path
      d="M-96 275a20 20 0 0 0-20 20 20 20 0 0 0 20 20h408a20 20 0 0 0 0-40Zm-18 20a18 18 0 0 1 18-18h283a18 18 0 0 1 0 36H-96a18 18 0 0 1-18-18Z"
      fill="#fff" fill-rule="evenodd" opacity=".06" style="isolation:isolate" />
    <path
      d="M204.75 306.75v1.5m0-26.5v1.5m5.72-1.5v26.5m6-26.5v26.5m6-26.5v26.5m6-26.5v26.5m6-26.5v26.5m6-26.5v26.5m6-26.5v26.5m6-26.5v26.5m6-26.5v26.5m6-26.5v26.5m6-26.5v26.5m6-26.5v26.5m6-26.5v26.5m6-26.5v26.5m6-26.5v26.5"
      fill="none" stroke="#fff" stroke-linecap="round" stroke-width="1.5" opacity=".2" style="isolation:isolate" />
    <path d="M312.13 296.24v9m8-11.12c0 5.25-2.75 8-8 8-.01-7.44 2.3-8 7.99-8Z" fill="none" stroke="#fff"
      stroke-linecap="round" stroke-linejoin="round" stroke-width="1.5" />
    <path d="M315.58 285.5c2.36 4.69 1.2 8.64-3.49 11-2.45-6.83-.95-8.58 3.49-11Z" fill="none" stroke="#fff"
      stroke-linecap="round" stroke-linejoin="round" stroke-width="1.5" />
    <path d="M304.64 292c.33 5.68 2.24 8.38 7.49 8.07-.34-5.65-.94-8.44-7.49-8.07Z" fill="none" stroke="#fff"
      stroke-linecap="round" stroke-linejoin="round" stroke-width="1.5" />
    <path
      d="M-113.5 295A17.51 17.51 0 0 1-96 277.5h283a17.5 17.5 0 0 1 0 35H-96a17.5 17.5 0 0 1-17.5-17.5ZM187 278.5a16.5 16.5 0 1 0 16.5 16.5 16.5 16.5 0 0 0-16.5-16.5Z"
      fill="#fff" stroke="#fff" opacity=".2" style="isolation:isolate" />
    <path
      d="M187.75 294.25v9m8-11.12c0 5.25-2.75 8-8 8 0-7.44 2.31-8 8-8Zm-15-4.5c0 5.68 1.75 8.5 7 8.5 0-5.69-.44-8.5-7-8.5Z"
      fill="none" stroke="#fff" stroke-linecap="round" stroke-linejoin="round" stroke-width="1.5" />
  </g>
  <rect x="-53" y="255" width="405" height="80" rx="5" fill="none" stroke="#fff" stroke-opacity=".1" stroke-width="2" />
  <g clip-path="url(#d)">
    <path d="M707 177.5a20 20 0 0 1 20 20 20 20 0 0 1-20 20 20 20 0 0 1-20-20 20 20 0 0 1 20-20Z" fill="none"
      stroke="#fff" stroke-width="2" opacity=".3" style="isolation:isolate" />
    <path d="M707 173.5a24 24 0 0 1 24 24 24 24 0 0 1-24 24 24 24 0 0 1-24-24 24 24 0 0 1 24-24Z" fill="none"
      stroke="#fff" stroke-width="2" opacity=".2" style="isolation:isolate" />
    <path d="M707 169.5a28 28 0 0 1 28 28 28 28 0 0 1-28 28 28 28 0 0 1-28-28 28 28 0 0 1 28-28Z" fill="none"
      stroke="#fff" stroke-width="2" opacity=".07" style="isolation:isolate" />
    <path d="M707 180.5a17 17 0 0 1 17 17 17 17 0 0 1-17 17 17 17 0 0 1-17-17 17 17 0 0 1 17-17Z" fill="#fff"
      opacity=".3" style="isolation:isolate" />
    <path
      d="M707 197.5v8.09m7.69-10.42c0 5.05-2.64 7.69-7.69 7.69 0-7.15 2.22-7.69 7.69-7.69Zm-14.42-4.33c0 5.47 1.68 8.18 6.73 8.18 0-5.47-.42-8.18-6.73-8.18Z"
      fill="none" stroke="#fff" stroke-linecap="round" stroke-linejoin="round" stroke-width="2" />
    <path
      d="M752.45 189.11A9.11 9.11 0 0 1 751 189a6.64 6.64 0 0 1-1.31-.41 4.82 4.82 0 0 1-1.07-.64l.6-1.32a5.41 5.41 0 0 0 1.54.81 5.33 5.33 0 0 0 1.73.25 2.92 2.92 0 0 0 1.59-.36 1.13 1.13 0 0 0 .58-1 .94.94 0 0 0-.26-.65 2 2 0 0 0-.75-.44 9.3 9.3 0 0 0-1.25-.35 11.79 11.79 0 0 1-1.55-.41 4.29 4.29 0 0 1-1.12-.59 2.32 2.32 0 0 1-.69-.8 2.57 2.57 0 0 1-.22-1.12 2.71 2.71 0 0 1 .47-1.56 3.15 3.15 0 0 1 1.33-1.07 4.93 4.93 0 0 1 2-.39 6.75 6.75 0 0 1 1.36.14 5.08 5.08 0 0 1 1.23.41 3.13 3.13 0 0 1 1 .63l-.62 1.31a4.85 4.85 0 0 0-1.4-.8 4.58 4.58 0 0 0-1.52-.26 2.65 2.65 0 0 0-1.53.39 1.27 1.27 0 0 0-.56 1.09 1 1 0 0 0 .23.67 1.74 1.74 0 0 0 .71.45 11 11 0 0 0 1.25.37 11.65 11.65 0 0 1 1.54.42 5 5 0 0 1 1.16.57 2.18 2.18 0 0 1 .71.78 2.16 2.16 0 0 1 .25 1.08 2.63 2.63 0 0 1-.47 1.57 3.08 3.08 0 0 1-1.37 1 5.64 5.64 0 0 1-2.12.35Zm8.78-.11v-8.48H758V179h8.31v1.49h-3.25V189Zm6.83 0h-1.82l4.51-10h1.47l4.51 10h-1.79l-3.67-8.57h.49Zm.17-2.34.69-1.4H774l.66 1.4Zm17 2.34-5.06-5.08 4.88-4.89h2.18l-5.4 5.35.12-1 5.49 5.61Zm-6.44 0v-10h1.8v10Zm10.32 0v-10h6.67v1.42h-4.9v2.77h4.62v1.43h-4.6v2.94h4.9V189Zm9.33 0v-10h3.67a6 6 0 0 1 2.78.59 4 4 0 0 1 1.75 1.71 5.43 5.43 0 0 1 .62 2.67 5.5 5.5 0 0 1-.62 2.7 4 4 0 0 1-1.76 1.71 6.06 6.06 0 0 1-2.77.59Zm1.8-1.47H802a3.43 3.43 0 0 0 2.58-.88 3.63 3.63 0 0 0 .87-2.65q0-3.5-3.45-3.5h-1.75Z"
      fill="#fff" opacity=".2" style="isolation:isolate" />
    <path
      d="M749.44 217v-1.9l4.82-5.22a8.73 8.73 0 0 0 1.24-1.72 3.3 3.3 0 0 0 .4-1.54 1.89 1.89 0 0 0-.56-1.48 2.36 2.36 0 0 0-1.62-.5 5.39 5.39 0 0 0-1.94.38 7.55 7.55 0 0 0-1.92 1.1l-.88-1.88a6.08 6.08 0 0 1 2.18-1.2 8.41 8.41 0 0 1 2.68-.44 5.94 5.94 0 0 1 2.44.46 3.53 3.53 0 0 1 1.6 1.34 3.71 3.71 0 0 1 .56 2.06 5.22 5.22 0 0 1-.52 2.32 10.45 10.45 0 0 1-1.76 2.4l-4.34 4.6-.3-.86H759V217Zm16.55.16a4.47 4.47 0 0 1-3.86-1.86 11.71 11.71 0 0 1 0-10.84 4.5 4.5 0 0 1 3.87-1.86 4.43 4.43 0 0 1 3.86 1.86 11.63 11.63 0 0 1 0 10.84 4.46 4.46 0 0 1-3.86 1.86Zm0-2a2.12 2.12 0 0 0 2-1.26 9.47 9.47 0 0 0 .64-4 9.13 9.13 0 0 0-.64-4 2.26 2.26 0 0 0-4 0 9.24 9.24 0 0 0-.64 4 9.63 9.63 0 0 0 .64 4 2.13 2.13 0 0 0 2.01 1.26Zm12 2a4.47 4.47 0 0 1-3.86-1.86 11.71 11.71 0 0 1 0-10.84 4.5 4.5 0 0 1 3.87-1.86 4.43 4.43 0 0 1 3.86 1.86 11.63 11.63 0 0 1 0 10.84 4.46 4.46 0 0 1-3.86 1.86Zm0-2a2.12 2.12 0 0 0 2-1.26 9.47 9.47 0 0 0 .64-4 9.13 9.13 0 0 0-.64-4 2.26 2.26 0 0 0-4 0 9.24 9.24 0 0 0-.64 4 9.63 9.63 0 0 0 .64 4 2.13 2.13 0 0 0 2.01 1.26Zm12 2a4.46 4.46 0 0 1-3.86-1.86 9.17 9.17 0 0 1-1.34-5.42 9.33 9.33 0 0 1 1.32-5.42 5 5 0 0 1 7.74 0 11.63 11.63 0 0 1 0 10.84 4.47 4.47 0 0 1-3.85 1.86Zm0-2a2.13 2.13 0 0 0 2-1.26 9.63 9.63 0 0 0 .64-4 9.28 9.28 0 0 0-.64-4 2.26 2.26 0 0 0-4 0 9.09 9.09 0 0 0-.64 4 9.47 9.47 0 0 0 .64 4 2.12 2.12 0 0 0 2.01 1.26ZM803 217v-14.24h1.92l8.2 10.66-.54.28v-10.94H815V217h-1.94l-8.16-10.62.52-.32V217Zm15.1 0v-14.24h2.58V217Zm5.72 0v-14.24h2.06l5.38 12.24h-1l5.34-12.26h2.06V217h-2.3v-10.54l.68.16L831.6 217h-1.7l-4.54-10.38.72-.16V217Z"
      fill="#fff" opacity=".4" style="isolation:isolate" />
    <path
      d="m1008.2 178-17 2.4a132.33 132.33 0 0 0-51 18.45A131.91 131.91 0 0 1 897 216l-5.13 1a150.21 150.21 0 0 0-54.14 22.66l-9.73 6.61"
      fill="none" stroke="#fff" stroke-width="2" opacity=".3" style="isolation:isolate" />
    <path
      d="m966.32 186.82-2 .71V236h2Zm-10 4.07c.67-.31 1.33-.62 2-.91v46h-2Zm-6 3.09c-.67.37-1.33.76-2 1.15V236h2Zm-10 6.07 2-1.24V236h-2v-35.95Zm-6 3.51c-.66.37-1.33.73-2 1.09V236h2v-32.44Zm-10 5c.67-.3 1.34-.6 2-.92V236h-2v-27.44Zm-6 2.53-2 .77V236h2v-24.91Zm-10 3.5c.67-.2 1.34-.42 2-.63v22h-2v-21.37Zm-6 1.69-2 .5V236h2v-19.72Zm-10 2.31 2-.45V236h-2v-17.41Zm-6 1.34-2 .45V236h2v-16.07Zm-10 2.5 2-.57V236h-2v-13.57Zm-6 1.91-2 .72V236h2v-11.66Zm-10 4 2-.87V236h-2v-7.7Zm-6 2.87-2 1V236h2v-4.83Z"
      fill="#fff" fill-rule="evenodd" opacity=".15" style="isolation:isolate" />
  </g>
  <rect x="665" y="157" width="308" height="80" rx="5" fill="none" stroke="#fff" stroke-opacity=".1" stroke-width="2" />
</svg>
