<svg xmlns="http://www.w3.org/2000/svg" viewBox="0 0 996 336">
  <defs>
    <clipPath id="graphic-spend-it-hero">
      <rect width="996" height="336" fill="none"/>
    </clipPath>
  </defs>
  <g clip-path="url(#graphic-spend-it-hero)">
    <path d="M323 249.27V133a5 5 0 0 0-5-5h-83a5 5 0 0 0-5 5v116.27a5 5 0 0 0 2 4l41.5 31.23a5 5 0 0 0 6 0l41.5-31.24a5 5 0 0 0 2-3.99Zm-111-24V109a5 5 0 0 0-5-5h-83a5 5 0 0 0-5 5v116.27a5 5 0 0 0 2 4l41.5 31.23a5 5 0 0 0 6 0l41.5-31.24a5 5 0 0 0 2-3.99Zm555 24V133a5 5 0 0 0-5-5h-83a5 5 0 0 0-5 5v116.27a5 5 0 0 0 2 4l41.5 31.23a5 5 0 0 0 6 0l41.5-31.24a5 5 0 0 0 2-4Zm111-24V109a5 5 0 0 0-5-5h-83a5 5 0 0 0-5 5v116.27a5 5 0 0 0 2 4l41.5 31.23a5 5 0 0 0 6 0l41.5-31.24a5 5 0 0 0 2-4Z" fill="none" stroke="#fff" stroke-width="2" opacity=".1" style="isolation:isolate"/>
    <circle cx="276" cy="258" r="7" fill="none" stroke="#fff" stroke-width="2" opacity=".1" style="isolation:isolate"/>
    <circle cx="165" cy="234" r="7" fill="none" stroke="#fff" stroke-width="2" opacity=".1" style="isolation:isolate"/>
    <circle cx="720" cy="258" r="7" fill="none" stroke="#fff" stroke-width="2" opacity=".1" style="isolation:isolate"/>
    <circle cx="831" cy="234" r="7" fill="none" stroke="#fff" stroke-width="2" opacity=".1" style="isolation:isolate"/>
    <path d="M545 297.27V181a5 5 0 0 0-5-5h-83a5 5 0 0 0-5 5v116.27a5 5 0 0 0 2 4l41.5 31.23a5 5 0 0 0 6 0l41.5-31.24a5 5 0 0 0 2-3.99Z" fill="none" stroke="#fff" stroke-width="2" opacity=".3" style="isolation:isolate"/>
    <path d="M498.5 277.11a3.13 3.13 0 0 1-2.7-1.3 6.41 6.41 0 0 1-.94-3.79 6.5 6.5 0 0 1 .93-3.8 3.47 3.47 0 0 1 5.42 0 8.21 8.21 0 0 1 0 7.59 3.14 3.14 0 0 1-2.71 1.3Zm0-1.4a1.48 1.48 0 0 0 1.42-.88 6.85 6.85 0 0 0 .44-2.83 6.55 6.55 0 0 0-.44-2.78 1.58 1.58 0 0 0-2.83 0 6.35 6.35 0 0 0-.45 2.77 6.66 6.66 0 0 0 .45 2.83 1.48 1.48 0 0 0 1.41.88Zm5-.67h2v2h-2Zm6.94 2.07a3.11 3.11 0 0 1-2.7-1.3 6.41 6.41 0 0 1-.94-3.79 6.5 6.5 0 0 1 .93-3.8 3.12 3.12 0 0 1 2.71-1.3 3.08 3.08 0 0 1 2.7 1.3 8.13 8.13 0 0 1 0 7.59 3.11 3.11 0 0 1-2.7 1.3Zm0-1.4a1.47 1.47 0 0 0 1.41-.88 6.66 6.66 0 0 0 .45-2.83 6.55 6.55 0 0 0-.44-2.78 1.58 1.58 0 0 0-2.83 0 6.35 6.35 0 0 0-.45 2.77 6.66 6.66 0 0 0 .45 2.83 1.48 1.48 0 0 0 1.41.88Zm8.39 1.39a5.78 5.78 0 0 1-1.84-.31 4.32 4.32 0 0 1-1.5-.84l.6-1.32a5.54 5.54 0 0 0 1.36.77 3.92 3.92 0 0 0 1.41.27 2 2 0 0 0 1.43-.46 1.76 1.76 0 0 0 .5-1.35 1.85 1.85 0 0 0-.23-1 1.52 1.52 0 0 0-.65-.63 2.12 2.12 0 0 0-1-.23 2.7 2.7 0 0 0-1.09.23 2.83 2.83 0 0 0-.94.63h-1.08V267h6.2v1.42h-4.48v3.29l-.55-.09a2.93 2.93 0 0 1 1-.77 3.19 3.19 0 0 1 1.33-.26 3.24 3.24 0 0 1 1.64.4 2.89 2.89 0 0 1 1.1 1.12 3.54 3.54 0 0 1-.05 3.4 3 3 0 0 1-1.28 1.15 4.31 4.31 0 0 1-1.94.41Z" fill="#fff" opacity=".6" style="isolation:isolate"/>
    <path d="M717.11 229.11a3.11 3.11 0 0 1-2.7-1.3 6.41 6.41 0 0 1-.94-3.79 6.58 6.58 0 0 1 .92-3.8 3.14 3.14 0 0 1 2.72-1.3 3.11 3.11 0 0 1 2.7 1.3 8.13 8.13 0 0 1 0 7.59 3.13 3.13 0 0 1-2.7 1.3Zm0-1.4a1.48 1.48 0 0 0 1.41-.88A6.66 6.66 0 0 0 719 224a6.34 6.34 0 0 0-.45-2.78 1.58 1.58 0 0 0-2.83 0 6.53 6.53 0 0 0-.44 2.77 6.85 6.85 0 0 0 .44 2.83 1.48 1.48 0 0 0 1.42.88Zm5-.67h2v2h-2v-2Zm6.95 2.07a3.14 3.14 0 0 1-2.71-1.3 8.25 8.25 0 0 1 0-7.59 3.14 3.14 0 0 1 2.72-1.3 3.11 3.11 0 0 1 2.7 1.3 8.13 8.13 0 0 1 0 7.59 3.13 3.13 0 0 1-2.7 1.3Zm0-1.4a1.48 1.48 0 0 0 1.41-.88 6.66 6.66 0 0 0 .45-2.83 6.37 6.37 0 0 0-.45-2.78 1.58 1.58 0 0 0-2.83 0 6.35 6.35 0 0 0-.45 2.77 6.66 6.66 0 0 0 .45 2.83 1.48 1.48 0 0 0 1.42.88Zm8.39 1.4a3.11 3.11 0 0 1-2.7-1.3 6.41 6.41 0 0 1-.94-3.79 6.5 6.5 0 0 1 .93-3.8 3.12 3.12 0 0 1 2.71-1.3 3.08 3.08 0 0 1 2.7 1.3 8.13 8.13 0 0 1 0 7.59 3.11 3.11 0 0 1-2.7 1.3Zm0-1.4a1.49 1.49 0 0 0 1.42-.88 6.85 6.85 0 0 0 .44-2.83 6.55 6.55 0 0 0-.44-2.78 1.5 1.5 0 0 0-1.42-.87 1.48 1.48 0 0 0-1.41.88 6.35 6.35 0 0 0-.45 2.77 6.66 6.66 0 0 0 .45 2.83 1.48 1.48 0 0 0 1.41.88Zm8.21 1.39a6.3 6.3 0 0 1-1.94-.3 4.18 4.18 0 0 1-1.53-.85l.62-1.32a5.17 5.17 0 0 0 1.34.79 4.16 4.16 0 0 0 1.44.25 2.31 2.31 0 0 0 1.43-.36 1.42 1.42 0 0 0 .46-1.17A1.35 1.35 0 0 0 747 225a2.45 2.45 0 0 0-1.47-.36h-1.32v-1.43h1.08a2.39 2.39 0 0 0 1.44-.36 1.26 1.26 0 0 0 .49-1.09 1.35 1.35 0 0 0-.42-1.07 1.73 1.73 0 0 0-1.16-.36 3.91 3.91 0 0 0-1.37.26 4.88 4.88 0 0 0-1.33.77l-.62-1.31a4.16 4.16 0 0 1 1.53-.84 5.76 5.76 0 0 1 1.89-.31 4.14 4.14 0 0 1 1.69.32 2.53 2.53 0 0 1 1.12.93 2.43 2.43 0 0 1 .39 1.38 2.5 2.5 0 0 1-.46 1.53 2.47 2.47 0 0 1-1.3.87v-.14a2.6 2.6 0 0 1 1.49.86 2.43 2.43 0 0 1 .54 1.63 2.5 2.5 0 0 1-1 2.06 4.1 4.1 0 0 1-2.58.74Z" fill="#fff" opacity=".2" style="isolation:isolate"/>
    <circle cx="499" cy="306" r="7" fill="none" stroke="#fff" stroke-width="2" opacity=".2" style="isolation:isolate"/>
    <path d="m481.48 260-.16.52v15.21l.16.16 7-4.18Z" fill="#fff" opacity=".6" style="isolation:isolate"/>
    <path d="m481.46 260-7.06 11.71 7.06 4.18Z" fill="#fff" opacity=".4" style="isolation:isolate"/>
    <path d="m481.5 277.22-.09.11v5.41l.09.26 7.06-9.95Z" fill="#fff" opacity=".6" style="isolation:isolate"/>
    <path d="M481.46 283v-5.78l-7.06-4.17 7.06 9.95Z" fill="#fff" opacity=".4" style="isolation:isolate"/>
    <path d="m481.5 275.88 7.06-4.17-7.06-3.21v7.38Z" fill="#fff"/>
    <path d="m474.4 271.71 7.06 4.17v-7.38l-7.06 3.21Z" fill="#fff" opacity=".4" style="isolation:isolate"/>
    <g opacity=".2" fill="#fff">
      <path d="m698.47 212-.15.52v15.21l.15.16 7.06-4.18Z" opacity=".6" style="isolation:isolate"/>
      <path d="m698.46 212-7.06 11.71 7.06 4.18Z" opacity=".4" style="isolation:isolate"/>
      <path d="m698.5 229.22-.09.11v5.41l.09.26 7.06-9.95Z" opacity=".6" style="isolation:isolate"/>
      <path d="M698.46 235v-5.78l-7.06-4.17Z" opacity=".4" style="isolation:isolate"/>
      <path d="m698.5 227.88 7.06-4.17-7.06-3.21Z"/>
      <path d="m691.4 223.71 7.06 4.17v-7.38Z" opacity=".4" style="isolation:isolate"/>
    </g>
    <path d="M434 273.27V157a5 5 0 0 0-5-5h-83a5 5 0 0 0-5 5v116.27a5 5 0 0 0 2 4l41.5 31.23a5 5 0 0 0 6 0l41.5-31.24a5 5 0 0 0 2-4Z" fill="none" stroke="#fff" stroke-width="2" opacity=".3" style="isolation:isolate"/>
    <path d="M381.14 253.11a3.13 3.13 0 0 1-2.7-1.3 8.17 8.17 0 0 1 0-7.59 3.47 3.47 0 0 1 5.42 0 8.21 8.21 0 0 1 0 7.59 3.14 3.14 0 0 1-2.71 1.3Zm0-1.4a1.48 1.48 0 0 0 1.42-.88A6.66 6.66 0 0 0 383 248a6.34 6.34 0 0 0-.45-2.78 1.58 1.58 0 0 0-2.83 0 6.35 6.35 0 0 0-.45 2.77 6.66 6.66 0 0 0 .45 2.83 1.48 1.48 0 0 0 1.41.88Zm5-.67h2v2h-2v-2Zm6.94 2.07a3.13 3.13 0 0 1-2.7-1.3 6.41 6.41 0 0 1-.94-3.79 6.5 6.5 0 0 1 .93-3.8 3.12 3.12 0 0 1 2.71-1.3 3.08 3.08 0 0 1 2.7 1.3 8.13 8.13 0 0 1 0 7.59 3.11 3.11 0 0 1-2.7 1.3Zm0-1.4a1.48 1.48 0 0 0 1.42-.88 6.85 6.85 0 0 0 .44-2.83 6.55 6.55 0 0 0-.44-2.78 1.58 1.58 0 0 0-2.83 0 6.35 6.35 0 0 0-.45 2.77 6.66 6.66 0 0 0 .45 2.83 1.48 1.48 0 0 0 1.41.88Zm8.4 1.4a3.14 3.14 0 0 1-2.71-1.3 8.25 8.25 0 0 1 0-7.59 3.14 3.14 0 0 1 2.72-1.3 3.11 3.11 0 0 1 2.7 1.3 8.13 8.13 0 0 1 0 7.59 3.13 3.13 0 0 1-2.7 1.3Zm0-1.4a1.48 1.48 0 0 0 1.41-.88 6.66 6.66 0 0 0 .45-2.83 6.37 6.37 0 0 0-.45-2.78 1.58 1.58 0 0 0-2.83 0 6.35 6.35 0 0 0-.45 2.77 6.66 6.66 0 0 0 .45 2.83 1.48 1.48 0 0 0 1.42.88Zm9.06 1.29v-7.74h.42l-3.44 4.94v-.57h6.21V251h-7.52v-1.33l4.66-6.68h1.44v10Z" fill="#fff" opacity=".6" style="isolation:isolate"/>
    <path d="M825.14 205.11a3.13 3.13 0 0 1-2.7-1.3 8.17 8.17 0 0 1 0-7.59 3.47 3.47 0 0 1 5.42 0 8.21 8.21 0 0 1 0 7.59 3.14 3.14 0 0 1-2.71 1.3Zm0-1.4a1.48 1.48 0 0 0 1.42-.88A6.66 6.66 0 0 0 827 200a6.34 6.34 0 0 0-.45-2.78 1.58 1.58 0 0 0-2.83 0 6.35 6.35 0 0 0-.45 2.77 6.66 6.66 0 0 0 .45 2.83 1.48 1.48 0 0 0 1.41.88Zm5-.67h2v2h-2v-2Zm6.94 2.07a3.12 3.12 0 0 1-2.7-1.3 6.41 6.41 0 0 1-.94-3.79 6.5 6.5 0 0 1 .93-3.8 3.12 3.12 0 0 1 2.71-1.3 3.08 3.08 0 0 1 2.7 1.3 8.13 8.13 0 0 1 0 7.59 3.11 3.11 0 0 1-2.7 1.3Zm0-1.4a1.48 1.48 0 0 0 1.42-.88 6.85 6.85 0 0 0 .44-2.83 6.55 6.55 0 0 0-.44-2.78 1.58 1.58 0 0 0-2.83 0 6.35 6.35 0 0 0-.45 2.77 6.66 6.66 0 0 0 .45 2.83 1.48 1.48 0 0 0 1.41.88Zm8.4 1.4a3.14 3.14 0 0 1-2.71-1.3 8.25 8.25 0 0 1 0-7.59 3.47 3.47 0 0 1 5.42 0 8.13 8.13 0 0 1 0 7.59 3.13 3.13 0 0 1-2.7 1.3Zm0-1.4a1.48 1.48 0 0 0 1.41-.88 6.66 6.66 0 0 0 .45-2.83 6.37 6.37 0 0 0-.45-2.78 1.58 1.58 0 0 0-2.83 0 6.35 6.35 0 0 0-.45 2.77 6.66 6.66 0 0 0 .45 2.83 1.48 1.48 0 0 0 1.42.88Zm9.06 1.29v-7.74h.42l-3.44 4.94v-.57h6.21V203h-7.52v-1.33l4.66-6.68h1.44v10Z" fill="#fff" opacity=".1" style="isolation:isolate"/>
    <path d="M362.35 242.78h4.48a2.77 2.77 0 0 1 2.78 2.77h0a2.77 2.77 0 0 1-2.78 2.78h-4.48Zm0 5.55h4.7a3 3 0 0 1 3 3h0a3 3 0 0 1-3 3h-4.7Zm.92-5.91V241m0 15.08v-1.41m2.56-12.25V241m0 15.08v-1.41m-3.41 0H361m1.42-11.53H361" fill="none" stroke="#fff" stroke-linecap="round" stroke-linejoin="round" stroke-width="2" opacity=".6" style="isolation:isolate"/>
    <path d="M806.35 194.78h4.48a2.77 2.77 0 0 1 2.78 2.77h0a2.77 2.77 0 0 1-2.78 2.78h-4.48Zm0 5.55h4.7a3 3 0 0 1 3 3h0a3 3 0 0 1-3 3h-4.7Zm.92-5.91V193m0 15.08v-1.41m2.56-12.25V193m0 15.08v-1.41m-3.41 0H805m1.42-11.53H805" fill="none" stroke="#fff" stroke-linecap="round" stroke-linejoin="round" stroke-width="2" opacity=".1" style="isolation:isolate"/>
    <circle cx="387" cy="282" r="7" fill="none" stroke="#fff" stroke-width="2" opacity=".2" style="isolation:isolate"/>
    <path d="M656 273.27V157a5 5 0 0 0-5-5h-83a5 5 0 0 0-5 5v116.27a5 5 0 0 0 2 4l41.5 31.23a5 5 0 0 0 6 0l41.5-31.24a5 5 0 0 0 2-4Z" fill="none" stroke="#fff" stroke-width="2" opacity=".3" style="isolation:isolate"/>
    <path d="M608.82 253v-1.33l3.38-3.67a6.07 6.07 0 0 0 .87-1.21 2.41 2.41 0 0 0 .28-1.08 1.28 1.28 0 0 0-.4-1 1.6 1.6 0 0 0-1.13-.35 3.9 3.9 0 0 0-1.36.26 5.42 5.42 0 0 0-1.34.77l-.62-1.31a4.16 4.16 0 0 1 1.53-.84 5.69 5.69 0 0 1 1.87-.31 4.24 4.24 0 0 1 1.71.32 2.48 2.48 0 0 1 1.12.94 2.58 2.58 0 0 1 .39 1.44 3.69 3.69 0 0 1-.36 1.63 7.48 7.48 0 0 1-1.23 1.68l-3 3.22-.21-.61h5.22V253Zm11.13-.83v-7.81l.91.2-2.93 1.76v-1.61l2.77-1.71h1v9.14Zm-2.17.83v-1.46h6.16V253Zm11 .11a3.13 3.13 0 0 1-2.7-1.3 8.17 8.17 0 0 1 0-7.59 3.47 3.47 0 0 1 5.42 0 8.13 8.13 0 0 1 0 7.59 3.14 3.14 0 0 1-2.71 1.3Zm0-1.4a1.48 1.48 0 0 0 1.42-.88 6.66 6.66 0 0 0 .45-2.83 6.34 6.34 0 0 0-.45-2.78 1.58 1.58 0 0 0-2.83 0 6.35 6.35 0 0 0-.45 2.77 6.66 6.66 0 0 0 .45 2.83 1.48 1.48 0 0 0 1.41.88Z" fill="#fff" opacity=".6" style="isolation:isolate"/>
    <path d="M595.83 214.75a6.34 6.34 0 1 0-6.33-6.33 6.34 6.34 0 0 0 6.33 6.33Zm25.34-7.6a6.34 6.34 0 0 0 0-12.67h0a6.34 6.34 0 1 0 0 12.67Z" fill="none" stroke="#fff" stroke-linecap="round" stroke-linejoin="round" stroke-width="3"/>
    <path d="M602.17 208.42v-21.59a5.07 5.07 0 0 1 3.46-4.81l18.66-5.18a2.54 2.54 0 0 1 2.21.43 2.51 2.51 0 0 1 1 2v21.54m-25.33-10.61 25.33-7.6" fill="none" stroke="#fff" stroke-linecap="round" stroke-linejoin="round" stroke-width="3"/>
    <g opacity=".1" fill="none" stroke="#fff" stroke-linecap="round" stroke-linejoin="round" stroke-width="3">
      <path d="M707.33 87a6.34 6.34 0 1 0 0-12.67h0a6.34 6.34 0 0 0 0 12.67Zm25.34-7.6a6.34 6.34 0 0 0 0-12.67h0a6.34 6.34 0 1 0 0 12.67Z"/>
      <path d="M713.67 80.67V59.08a5.07 5.07 0 0 1 3.46-4.81l18.66-5.18a2.54 2.54 0 0 1 3.12 1.76 2.65 2.65 0 0 1 .09.68v21.54m-25.33-10.61 25.33-7.6"/>
    </g>
    <g opacity=".1" fill="none" stroke="#fff" stroke-linecap="round" stroke-linejoin="round" stroke-width="3">
      <path d="M152.33 63a6.34 6.34 0 1 0 0-12.67h0a6.34 6.34 0 0 0 0 12.67Zm25.33-7.6a6.34 6.34 0 1 0 0-12.67h0a6.34 6.34 0 0 0 0 12.67Z"/>
      <path d="M158.67 56.67V35.08a5.07 5.07 0 0 1 3.46-4.81l18.66-5.18a2.54 2.54 0 0 1 3.12 1.76 2.65 2.65 0 0 1 .09.68v21.54m-25.33-10.61 25.33-7.6"/>
    </g>
    <g opacity=".1" fill="none" stroke="#fff" stroke-linecap="round" stroke-linejoin="round" stroke-width="3">
      <path d="M850.19 151.37h0a.84.84 0 0 1 .85.85h0c-.49 9.71-9 14.38-19.5 14.38s-19-4.68-19.5-14.39h0a.87.87 0 0 1 .81-.9h0l18.68.05Z"/>
      <path d="m839.19 165.7 1.23 3.17a.84.84 0 0 1-.48 1.09h0a1.13 1.13 0 0 1-.32 0h-16.2a.87.87 0 0 1-.87-.85.7.7 0 0 1 .05-.32l1.25-3.19m21.27-34.6-4.24 17m10.18-17-7.64 17m4.13-1.41a4.24 4.24 0 0 1 2.67 3.94m-36.5.86a6.78 6.78 0 0 1 6.77-6.81h0a6 6 0 0 1 2.63.53h0a7.63 7.63 0 0 1 15.18 1.15"/>
    </g>
    <g opacity=".1" fill="none" stroke="#fff" stroke-linecap="round" stroke-linejoin="round" stroke-width="3">
      <path d="M516.19 115.37h0a.84.84 0 0 1 .85.85h0c-.49 9.71-9 14.38-19.5 14.38s-19-4.68-19.5-14.39h0a.87.87 0 0 1 .81-.9h0l37.36.09Z"/>
      <path d="m505.19 129.7 1.24 3.17a.86.86 0 0 1-.49 1.09h0a1.13 1.13 0 0 1-.32 0h-16.2a.87.87 0 0 1-.87-.85.59.59 0 0 1 .06-.32l1.24-3.19M511.12 95l-4.24 17m10.18-17-7.64 17m4.13-1.4a4.24 4.24 0 0 1 2.67 3.94m-36.51.86a6.8 6.8 0 0 1 6.78-6.81h0a6 6 0 0 1 2.63.53h0a7.63 7.63 0 0 1 15.18 1.15"/>
    </g>
    <circle cx="609" cy="282" r="7" fill="none" stroke="#fff" stroke-width="2" opacity=".2" style="isolation:isolate"/>
    <path d="m600.82 247.8-3.33-6.1a1.35 1.35 0 0 0-1.16-.7h-6.67a1.33 1.33 0 0 0-1.15.7l-3.33 6.1a1.45 1.45 0 0 0 0 1.4l3.33 6.1a1.33 1.33 0 0 0 1.15.7h6.67a1.33 1.33 0 0 0 1.16-.7l3.33-6.1a1.45 1.45 0 0 0 0-1.4Z" fill="#fff" opacity=".6" style="isolation:isolate"/>
    <path d="M487.5 212v9m4.5-4.5h-9" fill="none" stroke="#fff" stroke-linecap="round" stroke-width="2"/>
    <g opacity=".1" fill="none" stroke="#fff" stroke-linecap="round" stroke-linejoin="round" stroke-width="3">
      <path d="M737.29 193.41s6.71-12.47 6.71-23.77a23.78 23.78 0 1 0-47.56.17c0 11.31 6.88 23.72 6.88 23.72"/>
      <path d="m707.72 174.6-3.41 1.4a2.11 2.11 0 0 0-1.13 2.77h0l5.14 12.23a2.11 2.11 0 0 0 2.77 1.13l3.41-1.44a2.12 2.12 0 0 0 1.12-2.77h0l-5.13-12.17a2.12 2.12 0 0 0-2.77-1.13Zm18.22 16.07 3.41 1.44a2.12 2.12 0 0 0 2.77-1.13h0l5.13-12.17a2.12 2.12 0 0 0-1.12-2.77h0l-3.41-1.44a2.11 2.11 0 0 0-2.77 1.13h0l-5.14 12.17a2.11 2.11 0 0 0 1.13 2.77Z"/>
    </g>
    <g opacity=".1" fill="none" stroke="#fff" stroke-linecap="round" stroke-linejoin="round" stroke-width="3">
      <path d="M403.85 110.47s6.75-12.47 6.71-23.78a23.78 23.78 0 0 0-47.56.18c0 11.31 6.88 23.72 6.88 23.72"/>
      <path d="m374.28 91.66-3.41 1.44a2.11 2.11 0 0 0-1.12 2.77l5.13 12.13a2.12 2.12 0 0 0 2.77 1.13h0l3.41-1.44a2.12 2.12 0 0 0 1.13-2.77l-5.14-12.17a2.11 2.11 0 0 0-2.77-1.09Zm18.22 16.07 3.41 1.44a2.12 2.12 0 0 0 2.77-1.13l5.14-12.17a2.12 2.12 0 0 0-1.13-2.77l-3.41-1.44a2.12 2.12 0 0 0-2.77 1.13L391.38 105a2.11 2.11 0 0 0 1.12 2.77Z"/>
    </g>
    <g opacity=".1" fill="none" stroke="#fff" stroke-linecap="round" stroke-linejoin="round" stroke-width="3">
      <path d="M847.85 62.47s6.75-12.47 6.71-23.78a23.78 23.78 0 0 0-47.56.18c0 11.31 6.88 23.72 6.88 23.72"/>
      <path d="m818.28 43.66-3.41 1.44a2.11 2.11 0 0 0-1.12 2.77L818.88 60a2.12 2.12 0 0 0 2.77 1.13l3.41-1.44a2.12 2.12 0 0 0 1.13-2.69h0l-5.14-12.17a2.11 2.11 0 0 0-2.77-1.17Zm18.22 16.07 3.41 1.44a2.12 2.12 0 0 0 2.77-1.17l5.14-12.17a2.12 2.12 0 0 0-1.13-2.77l-3.41-1.44a2.12 2.12 0 0 0-2.77 1.13L835.38 57a2.1 2.1 0 0 0 1.12 2.77Z"/>
    </g>
    <path d="M399.27 198.91h0a.49.49 0 0 1 .49.47.5.5 0 0 1-.49.49.53.53 0 0 1-.51-.49.49.49 0 0 1 .46-.5h0m-9.7 0h0a.49.49 0 0 1 .49.47.5.5 0 0 1-.49.49.51.51 0 0 1-.5-.49.47.47 0 0 1 .45-.5h0m4.94 2h0a.48.48 0 0 1 .49.46.5.5 0 0 1-.49.49.53.53 0 0 1-.51-.49.49.49 0 0 1 .46-.5h0m-6.4-9.23.59-4.76v0a1 1 0 0 0-.86-1.09.25.25 0 0 0-.12 0h-21.49a.94.94 0 0 0-1 .91v.12l3.66 29.24h0a1 1 0 0 0 1 .84h8" fill="none" stroke="#fff" stroke-linecap="round" stroke-linejoin="round" stroke-width="2.5"/>
    <path d="M408.05 205.26h-27.32v-2a7.8 7.8 0 0 1 7.79-7.82h11.68a7.8 7.8 0 0 1 7.81 7.78v2Z" fill="none" stroke="#fff" stroke-linecap="round" stroke-linejoin="round" stroke-width="2.5"/>
    <path d="M410 208.18a2.94 2.94 0 0 1-2.92 2.93h-25.39a2.94 2.94 0 0 1-2.92-2.93v0a2.91 2.91 0 0 1 2.91-2.92H407a2.91 2.91 0 0 1 2.92 2.92Z" fill="none" stroke="#fff" stroke-linecap="round" stroke-linejoin="round" stroke-width="2.5"/>
    <path d="M408.05 213.06a3.92 3.92 0 0 1-3.9 3.9h-19.53a3.92 3.92 0 0 1-3.91-3.92v-1.95H408v2Zm-34.15-4.88 3.68-34.36h0a1.93 1.93 0 0 1 2.14-1.73.5.5 0 0 1 .16 0l8.64 1.64" fill="none" stroke="#fff" stroke-linecap="round" stroke-linejoin="round" stroke-width="2.5"/>
    <g opacity=".1" fill="none" stroke="#fff" stroke-linecap="round" stroke-linejoin="round" stroke-width="3">
      <path d="m265.48 183.32-5 11.67m-4.48-1.92 9 3.84m1.88-34.23 12.57 5.37m-10 .59a.48.48 0 0 0-.53.1.49.49 0 1 0 .79.16.47.47 0 0 0-.26-.26m2.93 5.85a.49.49 0 0 0-.64.26v.09a.49.49 0 0 0 .2.5.49.49 0 1 0 .55-.8h-.08m13.9-5.73a.48.48 0 0 0 .1.53.5.5 0 0 0 .84-.34.5.5 0 0 0-.3-.45h0a.48.48 0 0 0-.37 0 .46.46 0 0 0-.27.26Zm1 7.81a.49.49 0 0 0 .26.64h.09a.49.49 0 0 0 .5-.2.48.48 0 0 0-.13-.68.47.47 0 0 0-.67.13.22.22 0 0 0-.05.08Zm2.93-3.91a.49.49 0 0 0 .1.54.49.49 0 0 0 .69 0l.06-.07a.49.49 0 0 0-.67-.69.55.55 0 0 0-.21.17Zm-23.67 3.78a.49.49 0 0 0-.64.26v.09a.48.48 0 0 0 .38.58.49.49 0 0 0 .58-.37.5.5 0 0 0-.35-.61Z"/>
      <path d="M261.36 173.07 271.55 154a1 1 0 0 1 1.25-.44l9.13 3.91a1 1 0 0 1 .54 1.2l-6.75 20.56a7.81 7.81 0 0 1-14.37-6.14Zm28.74 9.61 2.09 12.52m4.81-.81-9.63 1.61m6.25-33.7-8.38 1.4"/>
      <path d="M281.11 176.26a7.81 7.81 0 0 0 15.31.48 8 8 0 0 0 .1-3.05l-5.41-21A1 1 0 0 0 290 152l-7.63 1.28"/>
    </g>
    <g opacity=".1" fill="none" stroke="#fff" stroke-linecap="round" stroke-linejoin="round" stroke-width="3">
      <path d="m597.47 98.32-5 11.67m-4.47-1.92 9 3.84m1.88-34.23 12.57 5.37m-10 .58a.5.5 0 0 0-.65.64.49.49 0 0 0 .64.27l.08-.05a.48.48 0 0 0 .14-.67.48.48 0 0 0-.21-.19m2.93 5.86a.49.49 0 0 0-.64.26.48.48 0 0 0 .26.64h0a.49.49 0 0 0 .64-.26.49.49 0 0 0-.26-.64m13.9-5.73a.49.49 0 0 0 .25.64.5.5 0 0 0 .38 0 .49.49 0 0 0 .27-.64s0-.05 0-.08a.49.49 0 0 0-.22-.18h0a.49.49 0 0 0-.64.25Zm1 7.81a.48.48 0 0 0 .22.65.47.47 0 0 0 .65-.21v-.06a.49.49 0 0 0-.9-.38Zm2.93-3.91a.49.49 0 0 0 .1.54.49.49 0 0 0 .69 0l.06-.07a.49.49 0 0 0-.13-.68h-.08a.48.48 0 0 0-.64.21Zm-23.67 3.78a.49.49 0 0 0-.44.88h.06a.49.49 0 0 0 .62-.29.5.5 0 0 0-.24-.59Z"/>
      <path d="M593.36 88.07 603.55 69a1 1 0 0 1 1.25-.44l9.12 3.91a1 1 0 0 1 .55 1.2l-6.75 20.56a7.82 7.82 0 0 1-14.37-6.14Zm28.74 9.61 2.09 12.52m4.81-.81-9.63 1.61m6.25-33.7-8.38 1.4"/>
      <path d="M613.11 91.26a7.81 7.81 0 0 0 15.41-2.57l-5.41-21A1 1 0 0 0 622 67l-7.63 1.28"/>
    </g>
    <path d="M274.16 228.17v-7.81l.91.2-2.93 1.76v-1.61l2.78-1.68H276v9.14ZM272 229v-1.46h6.16V229Zm11 .11a3.14 3.14 0 0 1-2.71-1.3 8.25 8.25 0 0 1 0-7.59 3.14 3.14 0 0 1 2.72-1.3 3.11 3.11 0 0 1 2.7 1.3 8.13 8.13 0 0 1 0 7.59 3.13 3.13 0 0 1-2.7 1.3Zm0-1.4a1.48 1.48 0 0 0 1.41-.88 6.66 6.66 0 0 0 .45-2.83 6.34 6.34 0 0 0-.45-2.78 1.58 1.58 0 0 0-2.83 0 6.35 6.35 0 0 0-.45 2.77 6.66 6.66 0 0 0 .45 2.83 1.48 1.48 0 0 0 1.42.88Zm8.39 1.4a3.11 3.11 0 0 1-2.7-1.3 6.41 6.41 0 0 1-.94-3.79 6.5 6.5 0 0 1 .93-3.8 3.12 3.12 0 0 1 2.71-1.3 3.08 3.08 0 0 1 2.7 1.3 8.13 8.13 0 0 1 0 7.59 3.11 3.11 0 0 1-2.7 1.3Zm0-1.4a1.47 1.47 0 0 0 1.41-.88 6.66 6.66 0 0 0 .45-2.83 6.34 6.34 0 0 0-.45-2.78 1.57 1.57 0 0 0-2.82 0 6.35 6.35 0 0 0-.45 2.77 6.66 6.66 0 0 0 .45 2.83 1.48 1.48 0 0 0 1.41.88Zm8.39 1.4a3.13 3.13 0 0 1-2.7-1.3 8.25 8.25 0 0 1 0-7.59 3.14 3.14 0 0 1 2.72-1.3 3.11 3.11 0 0 1 2.7 1.3 8.13 8.13 0 0 1 0 7.59 3.13 3.13 0 0 1-2.7 1.3Zm0-1.4a1.48 1.48 0 0 0 1.42-.88 6.66 6.66 0 0 0 .45-2.83 6.34 6.34 0 0 0-.45-2.78 1.58 1.58 0 0 0-2.83 0 6.35 6.35 0 0 0-.45 2.77 6.66 6.66 0 0 0 .45 2.83 1.48 1.48 0 0 0 1.41.88ZM163.3 194.92a3.54 3.54 0 0 1 2.91 1.27 5.68 5.68 0 0 1 1 3.64 7.44 7.44 0 0 1-.49 2.86 3.93 3.93 0 0 1-1.38 1.81 3.83 3.83 0 0 1-2.19.61 5.54 5.54 0 0 1-1.75-.29 4.45 4.45 0 0 1-1.4-.82l.62-1.31a5.86 5.86 0 0 0 1.33.8 3.64 3.64 0 0 0 1.22.23 1.9 1.9 0 0 0 1.73-1 5.52 5.52 0 0 0 .61-2.84v-.75l.19.35a2.49 2.49 0 0 1-.5 1 2.77 2.77 0 0 1-.94.68 2.92 2.92 0 0 1-1.2.24 3.07 3.07 0 0 1-1.59-.41 2.91 2.91 0 0 1-1.07-1.13 3.36 3.36 0 0 1-.4-1.67 3.29 3.29 0 0 1 .44-1.7 3 3 0 0 1 1.19-1.18 3.48 3.48 0 0 1 1.72-.42Zm.1 1.43a1.68 1.68 0 0 0-1.26.5 1.85 1.85 0 0 0-.46 1.32 1.89 1.89 0 0 0 .46 1.33 1.71 1.71 0 0 0 1.26.49 1.87 1.87 0 0 0 .92-.23 1.53 1.53 0 0 0 .62-.64 2 2 0 0 0 .22-1 1.91 1.91 0 0 0-.22-.95 1.45 1.45 0 0 0-.62-.63 1.67 1.67 0 0 0-.92-.19Zm8.62 8.76a3.14 3.14 0 0 1-2.71-1.3 8.25 8.25 0 0 1 0-7.59 3.14 3.14 0 0 1 2.72-1.3 3.11 3.11 0 0 1 2.7 1.3 8.13 8.13 0 0 1 0 7.59 3.13 3.13 0 0 1-2.7 1.3Zm0-1.4a1.48 1.48 0 0 0 1.41-.88 6.66 6.66 0 0 0 .45-2.83 6.34 6.34 0 0 0-.45-2.78 1.58 1.58 0 0 0-2.83 0 6.35 6.35 0 0 0-.45 2.77 6.66 6.66 0 0 0 .45 2.83 1.48 1.48 0 0 0 1.42.88Zm8.39 1.4a3.12 3.12 0 0 1-2.7-1.3 6.41 6.41 0 0 1-.94-3.79 6.5 6.5 0 0 1 .93-3.8 3.12 3.12 0 0 1 2.71-1.3 3.08 3.08 0 0 1 2.7 1.3 8.13 8.13 0 0 1 0 7.59 3.11 3.11 0 0 1-2.7 1.3Zm0-1.4a1.48 1.48 0 0 0 1.42-.88 6.85 6.85 0 0 0 .44-2.83 6.52 6.52 0 0 0-.44-2.78 1.58 1.58 0 0 0-2.83 0 6.35 6.35 0 0 0-.45 2.77 6.66 6.66 0 0 0 .45 2.83 1.48 1.48 0 0 0 1.41.88Zm8.4 1.4a3.14 3.14 0 0 1-2.71-1.3 8.25 8.25 0 0 1 0-7.59 3.14 3.14 0 0 1 2.72-1.3 3.11 3.11 0 0 1 2.7 1.3 8.13 8.13 0 0 1 0 7.59 3.13 3.13 0 0 1-2.7 1.3Zm0-1.4a1.48 1.48 0 0 0 1.41-.88 6.66 6.66 0 0 0 .45-2.83 6.34 6.34 0 0 0-.45-2.78 1.58 1.58 0 0 0-2.83 0 6.35 6.35 0 0 0-.45 2.77 6.66 6.66 0 0 0 .45 2.83 1.48 1.48 0 0 0 1.42.88Zm75 20.09-3.33-6.1a1.35 1.35 0 0 0-1.16-.7h-6.66a1.33 1.33 0 0 0-1.16.7l-3.33 6.1a1.45 1.45 0 0 0 0 1.4l3.33 6.1a1.33 1.33 0 0 0 1.16.7h6.66a1.33 1.33 0 0 0 1.16-.7l3.33-6.1a1.45 1.45 0 0 0 0-1.4Zm-111-24-3.33-6.1a1.35 1.35 0 0 0-1.16-.7h-6.66a1.33 1.33 0 0 0-1.16.7l-3.33 6.1a1.45 1.45 0 0 0 0 1.4l3.33 6.1a1.33 1.33 0 0 0 1.16.7h6.66a1.33 1.33 0 0 0 1.16-.7l3.33-6.1a1.45 1.45 0 0 0 .01-1.4Z" fill="#fff" opacity=".1" style="isolation:isolate"/>
    <path d="M166.76 151.68a1.09 1.09 0 0 1-.76.32 1.07 1.07 0 0 1-.76-.32l-4.35-4.53a3 3 0 0 1 1.65-5.11 3.05 3.05 0 0 1 2.62.84l.84.84.84-.84a3 3 0 1 1 4.27 4.27l-4.35 4.53Z" fill="none" stroke="#fff" stroke-linecap="round" stroke-linejoin="round" stroke-width="3" opacity=".1" style="isolation:isolate"/>
    <path d="m188.79 128.47-9.17-4.38a1.07 1.07 0 0 0-1.28.32 16.49 16.49 0 0 1-25.68 0 1.06 1.06 0 0 0-1.27-.32l-9.18 4.38a2.13 2.13 0 0 0-1.06 2.7l2.41 6.17a2.12 2.12 0 0 0 2.28 1.33l5.81-.82v22.42a1.08 1.08 0 0 0 1 1.07 9.58 9.58 0 0 1 8.63 9.53 2.13 2.13 0 0 0 2.13 2.13h4.26a2.12 2.12 0 0 0 2.13-2.12h0a9.59 9.59 0 0 1 8.63-9.54 1.07 1.07 0 0 0 1-1.07v-22.42l5.82.82a2.13 2.13 0 0 0 2.29-1.33l2.4-6.18a2.14 2.14 0 0 0-1.07-2.69Z" fill="none" stroke="#fff" stroke-linecap="round" stroke-linejoin="round" stroke-width="3" opacity=".1" style="isolation:isolate"/>
    <path d="M486.36 231.46a59.26 59.26 0 0 1-6.7 6.65 5.47 5.47 0 0 1-8.92-3.21 30.59 30.59 0 0 1 .4-11.79c1.59-8.44 3.67-15.15 10-19.6 3.79-2.67 8.56-1.31 12.52.38a12.5 12.5 0 0 0 9.91 0c4-1.69 8.83-3.08 12.64-.39 6.32 4.45 8.41 11.16 10 19.6a30.8 30.8 0 0 1 .41 11.79 5.47 5.47 0 0 1-8.93 3.21 59.26 59.26 0 0 1-6.7-6.65c-5-5.8-19.89-5.5-24.61 0Z" fill="none" stroke="#fff" stroke-width="3"/>
    <path d="M265.17 56v9m4.5-4.5h-9" fill="none" stroke="#fff" stroke-linecap="round" stroke-width="2" opacity=".1" style="isolation:isolate"/>
    <path d="M264 75.46a60.1 60.1 0 0 1-6.7 6.65 5.47 5.47 0 0 1-8.92-3.21 30.59 30.59 0 0 1 .4-11.79c1.59-8.44 3.67-15.15 10-19.6 3.79-2.67 8.56-1.31 12.51.38a12.53 12.53 0 0 0 9.92 0c4-1.69 8.82-3.08 12.64-.39 6.31 4.45 8.4 11.16 10 19.6a30.59 30.59 0 0 1 .4 11.79 5.47 5.47 0 0 1-8.92 3.21 59.26 59.26 0 0 1-6.7-6.65c-5-5.8-19.89-5.51-24.61 0Z" fill="none" stroke="#fff" stroke-width="3" opacity=".1" style="isolation:isolate"/>
    <path d="M989 201.27V85a5 5 0 0 0-5-5h-83a5 5 0 0 0-5 5v116.27a5 5 0 0 0 2 4l41.5 31.23a5 5 0 0 0 6 0l41.5-31.24a5 5 0 0 0 2-4Z" fill="none" stroke="#fff" stroke-width="2" opacity=".1" style="isolation:isolate"/>
    <path d="M936.14 181.11a3.13 3.13 0 0 1-2.7-1.3 8.17 8.17 0 0 1 0-7.59 3.47 3.47 0 0 1 5.42 0 8.21 8.21 0 0 1 0 7.59 3.14 3.14 0 0 1-2.71 1.3Zm0-1.4a1.48 1.48 0 0 0 1.42-.88A6.66 6.66 0 0 0 938 176a6.34 6.34 0 0 0-.45-2.78 1.58 1.58 0 0 0-2.83 0 6.35 6.35 0 0 0-.45 2.77 6.66 6.66 0 0 0 .45 2.83 1.48 1.48 0 0 0 1.41.88Zm5-.67h2v2h-2v-2Zm6.94 2.07a3.12 3.12 0 0 1-2.7-1.3 6.41 6.41 0 0 1-.94-3.79 6.5 6.5 0 0 1 .93-3.8 3.12 3.12 0 0 1 2.71-1.3 3.08 3.08 0 0 1 2.7 1.3 8.13 8.13 0 0 1 0 7.59 3.11 3.11 0 0 1-2.7 1.3Zm0-1.4a1.48 1.48 0 0 0 1.42-.88 6.85 6.85 0 0 0 .44-2.83 6.55 6.55 0 0 0-.44-2.78 1.58 1.58 0 0 0-2.83 0 6.35 6.35 0 0 0-.45 2.77 6.66 6.66 0 0 0 .45 2.83 1.48 1.48 0 0 0 1.41.88Zm8.4 1.4a3.14 3.14 0 0 1-2.71-1.3 8.25 8.25 0 0 1 0-7.59 3.47 3.47 0 0 1 5.42 0 8.13 8.13 0 0 1 0 7.59 3.13 3.13 0 0 1-2.7 1.3Zm0-1.4a1.48 1.48 0 0 0 1.41-.88 6.66 6.66 0 0 0 .45-2.83 6.37 6.37 0 0 0-.45-2.78 1.58 1.58 0 0 0-2.83 0 6.35 6.35 0 0 0-.45 2.77 6.66 6.66 0 0 0 .45 2.83 1.48 1.48 0 0 0 1.42.88Zm9.06 1.29v-7.74h.42l-3.44 4.94v-.57h6.21V179h-7.52v-1.33l4.66-6.68h1.44v10Z" fill="#fff" opacity=".1" style="isolation:isolate"/>
    <path d="M917.35 170.78h4.48a2.77 2.77 0 0 1 2.78 2.77h0a2.77 2.77 0 0 1-2.78 2.78h-4.48Zm0 5.55h4.7a3 3 0 0 1 3 3h0a3 3 0 0 1-3 3h-4.7Zm.92-5.91V169m0 15.08v-1.41m2.56-12.25V169m0 15.08v-1.41m-3.41 0H916m1.42-11.53H916" fill="none" stroke="#fff" stroke-linecap="round" stroke-linejoin="round" stroke-width="2" opacity=".1" style="isolation:isolate"/>
    <circle cx="942" cy="210" r="7" fill="none" stroke="#fff" stroke-width="2" opacity=".1" style="isolation:isolate"/>
    <g opacity=".1" fill="none" stroke="#fff" stroke-linecap="round" stroke-linejoin="round" stroke-width="3">
      <path d="M954.27 126.91h0a.49.49 0 0 1 .49.47.5.5 0 0 1-.49.49.53.53 0 0 1-.51-.49.49.49 0 0 1 .46-.5h0m-9.7 0h0a.49.49 0 0 1 .49.47.5.5 0 0 1-.49.49.52.52 0 0 1-.5-.49.47.47 0 0 1 .45-.5h0m4.94 2h0a.47.47 0 0 1 .49.46.5.5 0 0 1-.49.49.53.53 0 0 1-.51-.49.49.49 0 0 1 .46-.5h0m-6.4-9.23.59-4.76v0a1 1 0 0 0-.86-1.09.25.25 0 0 0-.12 0h-21.49a.94.94 0 0 0-1 .91v.12l3.67 29.24h0a.94.94 0 0 0 .95.84h8"/>
      <path d="M963 133.26h-27.27v-2a7.8 7.8 0 0 1 7.78-7.82h11.69a7.8 7.8 0 0 1 7.81 7.78Z"/>
      <path d="M965 136.18a3 3 0 0 1-2.93 2.93h-25.38a2.94 2.94 0 0 1-2.92-2.93v0a2.91 2.91 0 0 1 2.91-2.92H962a2.91 2.91 0 0 1 2.92 2.92Z"/>
      <path d="M963.05 141.06a3.92 3.92 0 0 1-3.9 3.9h-19.53a3.91 3.91 0 0 1-3.9-3.92v-1.95H963v2Zm-34.15-4.88 3.68-34.36h0a1.93 1.93 0 0 1 2.14-1.73.5.5 0 0 1 .16 0l8.64 1.64"/>
    </g>
    <path d="M101 201.27V85a5 5 0 0 0-5-5H13a5 5 0 0 0-5 5v116.27a5 5 0 0 0 2 4l41.5 31.23a5 5 0 0 0 6 0L99 205.26a5 5 0 0 0 2-3.99Z" fill="none" stroke="#fff" stroke-width="2" opacity=".1" style="isolation:isolate"/>
    <path d="M48.14 181.11a3.13 3.13 0 0 1-2.7-1.3 8.17 8.17 0 0 1 0-7.59 3.47 3.47 0 0 1 5.42 0 8.21 8.21 0 0 1 0 7.59 3.14 3.14 0 0 1-2.71 1.3Zm0-1.4a1.48 1.48 0 0 0 1.42-.88A6.66 6.66 0 0 0 50 176a6.34 6.34 0 0 0-.45-2.78 1.58 1.58 0 0 0-2.83 0 6.35 6.35 0 0 0-.45 2.77 6.66 6.66 0 0 0 .45 2.83 1.48 1.48 0 0 0 1.41.88Zm5-.67h2v2h-2v-2Zm6.94 2.07a3.13 3.13 0 0 1-2.7-1.3 6.41 6.41 0 0 1-.94-3.79 6.5 6.5 0 0 1 .93-3.8 3.12 3.12 0 0 1 2.71-1.3 3.08 3.08 0 0 1 2.7 1.3 8.13 8.13 0 0 1 0 7.59 3.11 3.11 0 0 1-2.7 1.3Zm0-1.4a1.48 1.48 0 0 0 1.42-.88 6.85 6.85 0 0 0 .44-2.83 6.55 6.55 0 0 0-.44-2.78 1.58 1.58 0 0 0-2.83 0 6.35 6.35 0 0 0-.45 2.77 6.66 6.66 0 0 0 .45 2.83 1.48 1.48 0 0 0 1.41.88Zm8.4 1.4a3.14 3.14 0 0 1-2.71-1.3 8.25 8.25 0 0 1 0-7.59 3.47 3.47 0 0 1 5.42 0 8.13 8.13 0 0 1 0 7.59 3.13 3.13 0 0 1-2.7 1.3Zm0-1.4a1.48 1.48 0 0 0 1.41-.88 6.66 6.66 0 0 0 .45-2.83 6.37 6.37 0 0 0-.45-2.78 1.58 1.58 0 0 0-2.83 0 6.35 6.35 0 0 0-.45 2.77 6.66 6.66 0 0 0 .45 2.83 1.48 1.48 0 0 0 1.42.88Zm9.03 1.29v-7.74h.42l-3.44 4.94v-.57h6.21V179h-7.51v-1.33l4.66-6.67h1.44v10Z" fill="#fff" opacity=".1" style="isolation:isolate"/>
    <path d="M29.35 170.78h4.48a2.77 2.77 0 0 1 2.78 2.77h0a2.77 2.77 0 0 1-2.78 2.78h-4.48Zm0 5.55h4.7a3 3 0 0 1 3 3h0a3 3 0 0 1-3 3h-4.7v-6Zm.92-5.91V169m0 15.08v-1.41m2.56-12.25V169m0 15.08v-1.41m-3.41 0H28m1.42-11.53H28" fill="none" stroke="#fff" stroke-linecap="round" stroke-linejoin="round" stroke-width="2" opacity=".1" style="isolation:isolate"/>
    <circle cx="54" cy="210" r="7" fill="none" stroke="#fff" stroke-width="2" opacity=".1" style="isolation:isolate"/>
    <g opacity=".1" fill="none" stroke="#fff" stroke-linecap="round" stroke-linejoin="round" stroke-width="3">
      <path d="M66.27 126.91h0a.49.49 0 0 1 .49.47.5.5 0 0 1-.49.49.53.53 0 0 1-.51-.49.49.49 0 0 1 .46-.5h0m-9.7 0h0a.49.49 0 0 1 .49.47.5.5 0 0 1-.49.49.53.53 0 0 1-.51-.49.49.49 0 0 1 .47-.5h0m4.94 2h0a.48.48 0 0 1 .49.46.5.5 0 0 1-.49.49.53.53 0 0 1-.51-.49.49.49 0 0 1 .46-.5h0m-6.4-9.23.59-4.76v0a1 1 0 0 0-.86-1.09.25.25 0 0 0-.12 0h-21.5a.94.94 0 0 0-1 .91v.12L35.75 144h0a.93.93 0 0 0 1 .84h8"/>
      <path d="M75 133.26H47.73v-2a7.8 7.8 0 0 1 7.78-7.82H67.2a7.8 7.8 0 0 1 7.8 7.82Z"/>
      <path d="M77 136.18a3 3 0 0 1-2.93 2.93H48.69a2.94 2.94 0 0 1-2.92-2.93v0a2.91 2.91 0 0 1 2.91-2.92H74a2.91 2.91 0 0 1 3 2.9h0Z"/>
      <path d="M75.05 141.06a3.92 3.92 0 0 1-3.9 3.9H51.62a3.92 3.92 0 0 1-3.91-3.96v-1.95H75v2Zm-34.15-4.88 3.68-34.36h0a1.93 1.93 0 0 1 2.14-1.73.5.5 0 0 1 .16 0l8.64 1.64"/>
    </g>
    <circle cx="387" cy="4" r="7" fill="none" stroke="#fff" stroke-width="2" opacity=".1" style="isolation:isolate"/>
    <path d="M720.82 19v-1.33L724.2 14a6.07 6.07 0 0 0 .87-1.21 2.41 2.41 0 0 0 .28-1.08 1.28 1.28 0 0 0-.4-1 1.64 1.64 0 0 0-1.13-.35 3.9 3.9 0 0 0-1.36.26 5.42 5.42 0 0 0-1.34.77l-.62-1.31a4.16 4.16 0 0 1 1.5-.85 5.69 5.69 0 0 1 1.87-.31 4.24 4.24 0 0 1 1.71.32 2.48 2.48 0 0 1 1.12.94 2.58 2.58 0 0 1 .39 1.44 3.69 3.69 0 0 1-.36 1.63 7.48 7.48 0 0 1-1.23 1.68l-3 3.22-.21-.61h5.22V19Zm11.18-.83v-7.81l.91.2-2.93 1.76v-1.61L732.7 9h1v9.14Zm-2.17.83v-1.46h6.16V19Zm11 .11a3.13 3.13 0 0 1-2.7-1.3 6.48 6.48 0 0 1-.94-3.79 6.5 6.5 0 0 1 .93-3.8 3.47 3.47 0 0 1 5.42 0 6.47 6.47 0 0 1 .94 3.78 6.53 6.53 0 0 1-.94 3.81 3.14 3.14 0 0 1-2.74 1.3Zm0-1.4a1.48 1.48 0 0 0 1.42-.88 6.66 6.66 0 0 0 .45-2.83 6.37 6.37 0 0 0-.45-2.78 1.58 1.58 0 0 0-2.83 0 6.35 6.35 0 0 0-.45 2.77 6.66 6.66 0 0 0 .45 2.83 1.48 1.48 0 0 0 1.38.89Zm-28-3.91-3.33-6.1a1.35 1.35 0 0 0-1.16-.7h-6.67a1.33 1.33 0 0 0-1.15.7l-3.33 6.1a1.45 1.45 0 0 0 0 1.4l3.33 6.1a1.33 1.33 0 0 0 1.15.7h6.67a1.33 1.33 0 0 0 1.16-.7l3.33-6.1a1.45 1.45 0 0 0-.01-1.4Z" fill="#fff" opacity=".1" style="isolation:isolate"/>
    <circle cx="609" cy="4" r="7" fill="none" stroke="#fff" stroke-width="2" opacity=".1" style="isolation:isolate"/>
    <path d="M607.16 42.17v-7.81l.91.2-2.93 1.76v-1.61l2.78-1.71H609v9.14ZM605 43v-1.46h6.16V43Zm11 .11a3.14 3.14 0 0 1-2.71-1.3 6.48 6.48 0 0 1-.93-3.79 6.5 6.5 0 0 1 .92-3.8 3.14 3.14 0 0 1 2.72-1.3 3.11 3.11 0 0 1 2.7 1.3 6.47 6.47 0 0 1 .94 3.78 6.53 6.53 0 0 1-.94 3.81 3.13 3.13 0 0 1-2.7 1.3Zm0-1.4a1.48 1.48 0 0 0 1.41-.88 6.66 6.66 0 0 0 .45-2.83 6.34 6.34 0 0 0-.45-2.78 1.58 1.58 0 0 0-2.83 0 6.35 6.35 0 0 0-.45 2.77 6.66 6.66 0 0 0 .45 2.83 1.48 1.48 0 0 0 1.42.89Zm8.39 1.4a3.11 3.11 0 0 1-2.7-1.3 6.41 6.41 0 0 1-.94-3.79 6.5 6.5 0 0 1 .93-3.8 3.12 3.12 0 0 1 2.71-1.3 3.08 3.08 0 0 1 2.7 1.3 6.39 6.39 0 0 1 .94 3.78 6.45 6.45 0 0 1-.94 3.81 3.11 3.11 0 0 1-2.68 1.3Zm0-1.4a1.49 1.49 0 0 0 1.42-.88 6.85 6.85 0 0 0 .44-2.83 6.52 6.52 0 0 0-.44-2.78 1.5 1.5 0 0 0-1.42-.87 1.48 1.48 0 0 0-1.41.88 6.35 6.35 0 0 0-.45 2.77 6.66 6.66 0 0 0 .45 2.83 1.48 1.48 0 0 0 1.43.88Zm8.39 1.4a3.13 3.13 0 0 1-2.7-1.3 6.48 6.48 0 0 1-.94-3.79 6.5 6.5 0 0 1 .93-3.8 3.47 3.47 0 0 1 5.42 0 6.47 6.47 0 0 1 .94 3.78 6.53 6.53 0 0 1-.94 3.81 3.14 3.14 0 0 1-2.69 1.3Zm0-1.4a1.48 1.48 0 0 0 1.42-.88 6.66 6.66 0 0 0 .45-2.83 6.34 6.34 0 0 0-.45-2.78 1.58 1.58 0 0 0-2.83 0 6.35 6.35 0 0 0-.45 2.77 6.66 6.66 0 0 0 .45 2.83 1.48 1.48 0 0 0 1.43.89Zm-36-3.91-3.33-6.1a1.35 1.35 0 0 0-1.16-.7h-6.67a1.33 1.33 0 0 0-1.15.7l-3.33 6.1a1.45 1.45 0 0 0 0 1.4l3.33 6.1a1.33 1.33 0 0 0 1.15.7h6.67a1.33 1.33 0 0 0 1.16-.7l3.33-6.1a1.45 1.45 0 0 0 .04-1.4Z" fill="#fff" opacity=".1" style="isolation:isolate"/>
    <circle cx="499" cy="28" r="7" fill="none" stroke="#fff" stroke-width="2" opacity=".1" style="isolation:isolate"/>
    <path d="M452 36.73V153a5 5 0 0 0 5 5h83a5 5 0 0 0 5-5V36.73a5 5 0 0 0-2-4L501.51 1.51a5 5 0 0 0-6 0L454 32.74a5 5 0 0 0-2 3.99Zm111-24V129a5 5 0 0 0 5 5h83a5 5 0 0 0 5-5V12.73a5 5 0 0 0-2-4L612.5-22.5a5 5 0 0 0-6 0L565 8.74a5 5 0 0 0-2 3.99Zm111-24V105a5 5 0 0 0 5 5h83a5 5 0 0 0 5-5V-11.27a5 5 0 0 0-2-4L723.5-46.5a5 5 0 0 0-6 0L676-15.26a5 5 0 0 0-2 3.99Zm-555-24V81a5 5 0 0 0 5 5h83a5 5 0 0 0 5-5V-35.27a5 5 0 0 0-2-4L168.5-70.5a5 5 0 0 0-6 0L121-39.26a5 5 0 0 0-2 3.99Zm-111-24V57a5 5 0 0 0 5 5h83a5 5 0 0 0 5-5V-59.27a5 5 0 0 0-2-4L57.51-94.49a5 5 0 0 0-6 0L10-63.26a5 5 0 0 0-2 3.99Zm888 0V57a5 5 0 0 0 5 5h83a5 5 0 0 0 5-5V-59.27a5 5 0 0 0-2-4L945.5-94.5a5 5 0 0 0-6 0L898-63.26a5 5 0 0 0-2 3.99Zm-555 72V129a5 5 0 0 0 5 5h83a5 5 0 0 0 5-5V12.73a5 5 0 0 0-2-4L390.5-22.5a5 5 0 0 0-6 0L343 8.74a5 5 0 0 0-2 3.99Zm444-48V81a5 5 0 0 0 5 5h83a5 5 0 0 0 5-5V-35.27a5 5 0 0 0-2-4L834.5-70.5a5 5 0 0 0-6 0L787-39.26a5 5 0 0 0-2 3.99Zm-555 24V105a5 5 0 0 0 5 5h83a5 5 0 0 0 5-5V-11.27a5 5 0 0 0-2-4L279.5-46.5a5 5 0 0 0-6 0L232-15.26a5 5 0 0 0-2 3.99Z" fill="none" stroke="#fff" stroke-width="2" opacity=".1" style="isolation:isolate"/>
    <path d="M492.14 67.11a3.12 3.12 0 0 1-2.7-1.3 6.41 6.41 0 0 1-.94-3.81 6.5 6.5 0 0 1 .93-3.8 3.12 3.12 0 0 1 2.71-1.3 3.08 3.08 0 0 1 2.7 1.3 6.39 6.39 0 0 1 .94 3.78 6.45 6.45 0 0 1-.94 3.81 3.11 3.11 0 0 1-2.7 1.3Zm0-1.4a1.46 1.46 0 0 0 1.41-.88A6.66 6.66 0 0 0 494 62a6.34 6.34 0 0 0-.45-2.78 1.57 1.57 0 0 0-2.82 0 6.35 6.35 0 0 0-.45 2.77 6.66 6.66 0 0 0 .45 2.83 1.48 1.48 0 0 0 1.41.89Zm5-.67h2v2h-2Zm6.94 2.07a3.11 3.11 0 0 1-2.7-1.3 6.41 6.41 0 0 1-.94-3.79 6.58 6.58 0 0 1 .92-3.8 3.14 3.14 0 0 1 2.72-1.3 3.08 3.08 0 0 1 2.7 1.3 6.39 6.39 0 0 1 .94 3.78 6.45 6.45 0 0 1-.94 3.81 3.11 3.11 0 0 1-2.7 1.3Zm0-1.4a1.48 1.48 0 0 0 1.41-.88 6.66 6.66 0 0 0 .45-2.83 6.34 6.34 0 0 0-.45-2.78 1.49 1.49 0 0 0-1.41-.87 1.47 1.47 0 0 0-1.41.88 6.35 6.35 0 0 0-.45 2.77 6.66 6.66 0 0 0 .45 2.83 1.47 1.47 0 0 0 1.38.88Zm8.39 1.4a3.13 3.13 0 0 1-2.7-1.3 6.48 6.48 0 0 1-.97-3.81 6.5 6.5 0 0 1 .93-3.8 3.47 3.47 0 0 1 5.42 0 6.47 6.47 0 0 1 .93 3.78 6.53 6.53 0 0 1-.93 3.81 3.14 3.14 0 0 1-2.71 1.32Zm0-1.4a1.48 1.48 0 0 0 1.42-.88 6.66 6.66 0 0 0 .45-2.83 6.34 6.34 0 0 0-.45-2.78 1.58 1.58 0 0 0-2.83 0 6.35 6.35 0 0 0-.45 2.77 6.66 6.66 0 0 0 .45 2.83 1.48 1.48 0 0 0 1.38.89Zm9.04 1.29v-7.74h.42l-3.44 4.94v-.57h6.2V65h-7.52v-1.29l4.68-6.71h1.44v10Z" fill="#fff" opacity=".1" style="isolation:isolate"/>
    <path d="M473.35 56.78h4.48a2.78 2.78 0 0 1 2.78 2.77h0a2.78 2.78 0 0 1-2.78 2.78h-4.48Zm0 5.55H478a3 3 0 0 1 3 3h0a3 3 0 0 1-3 3h-4.69v-6Zm.92-5.91V55m0 15.08v-1.41m2.56-12.25V55m0 15.08v-1.41m-3.41 0H472m1.42-11.53H472" fill="none" stroke="#fff" stroke-linecap="round" stroke-linejoin="round" stroke-width="2" opacity=".1" style="isolation:isolate"/>
    <path d="M384.11 43.11a3.11 3.11 0 0 1-2.7-1.3 6.41 6.41 0 0 1-.94-3.79 6.58 6.58 0 0 1 .92-3.8 3.14 3.14 0 0 1 2.72-1.3 3.11 3.11 0 0 1 2.7 1.3 6.39 6.39 0 0 1 .94 3.78 6.45 6.45 0 0 1-.94 3.81 3.12 3.12 0 0 1-2.7 1.3Zm0-1.4a1.48 1.48 0 0 0 1.41-.88A6.66 6.66 0 0 0 386 38a6.34 6.34 0 0 0-.45-2.78 1.58 1.58 0 0 0-2.83 0 6.53 6.53 0 0 0-.44 2.77 6.85 6.85 0 0 0 .44 2.83 1.48 1.48 0 0 0 1.39.89Zm5-.67h2v2h-2Zm6.89 2.07a3.14 3.14 0 0 1-2.71-1.3 6.48 6.48 0 0 1-.93-3.79 6.5 6.5 0 0 1 .92-3.8 3.14 3.14 0 0 1 2.72-1.3 3.11 3.11 0 0 1 2.7 1.3 6.47 6.47 0 0 1 .94 3.78 6.53 6.53 0 0 1-.94 3.81 3.13 3.13 0 0 1-2.7 1.3Zm0-1.4a1.48 1.48 0 0 0 1.41-.88 6.66 6.66 0 0 0 .45-2.83 6.34 6.34 0 0 0-.45-2.78 1.58 1.58 0 0 0-2.83 0 6.35 6.35 0 0 0-.45 2.77 6.66 6.66 0 0 0 .45 2.83 1.48 1.48 0 0 0 1.42.89Zm8.39 1.4a3.11 3.11 0 0 1-2.7-1.3 6.41 6.41 0 0 1-.94-3.79 6.5 6.5 0 0 1 .93-3.8 3.12 3.12 0 0 1 2.71-1.3 3.08 3.08 0 0 1 2.7 1.3 6.39 6.39 0 0 1 .94 3.78 6.45 6.45 0 0 1-.94 3.81 3.11 3.11 0 0 1-2.7 1.3Zm0-1.4a1.47 1.47 0 0 0 1.41-.88 6.66 6.66 0 0 0 .45-2.83 6.34 6.34 0 0 0-.45-2.78 1.57 1.57 0 0 0-2.82 0 6.35 6.35 0 0 0-.45 2.77 6.66 6.66 0 0 0 .45 2.83 1.48 1.48 0 0 0 1.43.89Zm8.21 1.39a6.3 6.3 0 0 1-1.94-.3 4.18 4.18 0 0 1-1.53-.85l.62-1.32a5.17 5.17 0 0 0 1.34.79 4.16 4.16 0 0 0 1.44.25 2.31 2.31 0 0 0 1.43-.36 1.42 1.42 0 0 0 .46-1.17A1.35 1.35 0 0 0 414 39a2.45 2.45 0 0 0-1.47-.36h-1.32v-1.41h1.08a2.39 2.39 0 0 0 1.44-.36 1.28 1.28 0 0 0 .49-1.09 1.35 1.35 0 0 0-.42-1.07 1.73 1.73 0 0 0-1.16-.36 3.87 3.87 0 0 0-1.37.26 4.88 4.88 0 0 0-1.33.77l-.62-1.31a4.16 4.16 0 0 1 1.53-.84 5.76 5.76 0 0 1 1.89-.31 4.18 4.18 0 0 1 1.69.32 2.46 2.46 0 0 1 1.12.93 2.43 2.43 0 0 1 .39 1.38 2.5 2.5 0 0 1-.46 1.53 2.47 2.47 0 0 1-1.3.87v-.14a2.6 2.6 0 0 1 1.5.86 2.42 2.42 0 0 1 .53 1.63 2.49 2.49 0 0 1-1 2.06 4.12 4.12 0 0 1-2.58.74Zm-136.42-24a3.11 3.11 0 0 1-2.7-1.3 6.41 6.41 0 0 1-.94-3.79 6.58 6.58 0 0 1 .92-3.8 3.15 3.15 0 0 1 2.72-1.3 3.08 3.08 0 0 1 2.7 1.3 6.39 6.39 0 0 1 .94 3.78 6.45 6.45 0 0 1-.94 3.81 3.11 3.11 0 0 1-2.7 1.3Zm0-1.4a1.47 1.47 0 0 0 1.41-.88 6.66 6.66 0 0 0 .45-2.83 6.37 6.37 0 0 0-.45-2.78 1.57 1.57 0 0 0-2.82 0 6.35 6.35 0 0 0-.45 2.77 6.66 6.66 0 0 0 .45 2.83 1.48 1.48 0 0 0 1.43.9Zm5-.67h2v2h-2Zm6.94 2.07a3.11 3.11 0 0 1-2.7-1.3 6.41 6.41 0 0 1-.94-3.79 6.58 6.58 0 0 1 .92-3.8 3.14 3.14 0 0 1 2.72-1.3 3.11 3.11 0 0 1 2.7 1.3 6.39 6.39 0 0 1 .94 3.78 6.45 6.45 0 0 1-.94 3.81 3.12 3.12 0 0 1-2.7 1.3Zm0-1.4a1.48 1.48 0 0 0 1.41-.88A6.66 6.66 0 0 0 290 14a6.37 6.37 0 0 0-.45-2.78 1.58 1.58 0 0 0-2.83 0 6.53 6.53 0 0 0-.44 2.77 6.85 6.85 0 0 0 .44 2.83 1.48 1.48 0 0 0 1.39.89Zm8.39 1.39a5.84 5.84 0 0 1-1.85-.31 4.36 4.36 0 0 1-1.49-.84l.6-1.32a5.35 5.35 0 0 0 1.36.77 3.84 3.84 0 0 0 1.41.27 2 2 0 0 0 1.43-.46 1.76 1.76 0 0 0 .5-1.35 2 2 0 0 0-.23-1 1.58 1.58 0 0 0-.65-.63 2.07 2.07 0 0 0-1-.23 2.78 2.78 0 0 0-1.1.23 2.69 2.69 0 0 0-.93.63h-1.08V9h6.24v1.42h-4.48v3.29l-.54-.09a2.8 2.8 0 0 1 1-.77 3.55 3.55 0 0 1 3 .14 2.85 2.85 0 0 1 1.11 1.12 3.33 3.33 0 0 1 .4 1.67 3.22 3.22 0 0 1-.46 1.73 2.94 2.94 0 0 1-1.27 1.15 4.32 4.32 0 0 1-1.95.41Z" fill="#fff" opacity=".2" style="isolation:isolate"/>
    <g opacity=".2" fill="#fff">
      <path d="m365.48 26-.16.52v15.21l.16.16 7-4.18Z" opacity=".6" style="isolation:isolate"/>
      <path d="m365.46 26-7.06 11.71 7.06 4.18Z" opacity=".4" style="isolation:isolate"/>
      <path d="m365.5 43.22-.09.11v5.41l.09.26 7.06-10Z" opacity=".6" style="isolation:isolate"/>
      <path d="M365.46 49v-5.78l-7.06-4.17Z" opacity=".4" style="isolation:isolate"/>
      <path d="m365.5 41.88 7.06-4.17-7.06-3.21Z"/>
      <path d="m358.4 37.71 7.06 4.17V34.5l-7.06 3.21Z" opacity=".4" style="isolation:isolate"/>
    </g>
    <g opacity=".2" fill="#fff">
      <path d="m258.48 2-.16.52v15.21l.16.16 7-4.18Z" opacity=".6" style="isolation:isolate"/>
      <path d="m258.46 2-7.06 11.71 7.06 4.18Z" opacity=".4" style="isolation:isolate"/>
      <path d="m258.5 19.22-.09.11v5.41l.09.26 7.06-9.95Z" opacity=".6" style="isolation:isolate"/>
      <path d="M258.46 25v-5.78l-7.06-4.17Z" opacity=".4" style="isolation:isolate"/>
      <path d="m258.5 17.88 7.06-4.17-7.06-3.21Z"/>
      <path d="m251.4 13.71 7.06 4.17V10.5l-7.06 3.21Z" opacity=".4" style="isolation:isolate"/>
    </g>
    <g opacity=".2" fill="#fff">
      <path d="m809.5-4.78-.09.11V.74l.09.26 7.06-9.95Z" opacity=".6" style="isolation:isolate"/>
      <path d="M809.46 1v-5.78l-7.06-4.17Z" opacity=".4" style="isolation:isolate"/>
    </g>
    <path d="M511.18 212a.48.48 0 0 0-.53.1.49.49 0 0 0 0 .7h.06a.49.49 0 0 0 .68-.67.46.46 0 0 0-.21-.18" fill="none" stroke="#fff" stroke-linecap="round" stroke-linejoin="round" stroke-width="3"/>
    <path d="M288.85 56a.49.49 0 0 0-.54.1.5.5 0 0 0 0 .69.49.49 0 0 0 .71-.68.57.57 0 0 0-.16-.11" fill="none" stroke="#fff" stroke-linecap="round" stroke-linejoin="round" stroke-width="3" opacity=".1" style="isolation:isolate"/>
    <path d="M511.18 220a.48.48 0 0 0-.53.1.49.49 0 0 0 0 .7h.06a.49.49 0 0 0 .68-.67.46.46 0 0 0-.21-.18" fill="none" stroke="#fff" stroke-linecap="round" stroke-linejoin="round" stroke-width="3"/>
    <path d="M288.85 64a.49.49 0 0 0-.54.1.5.5 0 0 0 0 .69.49.49 0 0 0 .71-.68.57.57 0 0 0-.16-.11" fill="none" stroke="#fff" stroke-linecap="round" stroke-linejoin="round" stroke-width="3" opacity=".1" style="isolation:isolate"/>
    <path d="M506.68 216a.48.48 0 0 0-.53.1.49.49 0 0 0 0 .7h.06a.49.49 0 0 0 .68-.67.46.46 0 0 0-.21-.18" fill="none" stroke="#fff" stroke-linecap="round" stroke-linejoin="round" stroke-width="3"/>
    <path d="M284.35 60a.49.49 0 0 0-.54.1.5.5 0 0 0 0 .69.49.49 0 0 0 .71-.68.57.57 0 0 0-.16-.11" fill="none" stroke="#fff" stroke-linecap="round" stroke-linejoin="round" stroke-width="3" opacity=".1" style="isolation:isolate"/>
    <path d="M515.68 216a.48.48 0 0 0-.53.1.49.49 0 0 0 0 .7h.06a.48.48 0 0 0 .68-.67.46.46 0 0 0-.21-.18" fill="none" stroke="#fff" stroke-linecap="round" stroke-linejoin="round" stroke-width="3"/>
    <path d="M293.35 60a.49.49 0 0 0-.54.1.5.5 0 0 0 0 .69.49.49 0 0 0 .71-.68.57.57 0 0 0-.16-.11" fill="none" stroke="#fff" stroke-linecap="round" stroke-linejoin="round" stroke-width="3" opacity=".1" style="isolation:isolate"/>
  </g>
</svg>
