<svg xmlns="http://www.w3.org/2000/svg" width="131" height="40" fill="none" viewBox="0 0 131 40">
  <rect width="130" height="39" x=".5" y=".5" fill="#000" rx="19.5"/>
  <rect width="130" height="39" x=".5" y=".5" stroke="#A6A6A6" rx="19.5"/>
  <path fill="#fff" d="M30.77 20.3a4.948 4.948 0 0 1 2.357-4.152 5.066 5.066 0 0 0-3.992-2.157c-1.679-.177-3.307 1.004-4.163 1.004-.872 0-2.19-.987-3.608-.958a5.315 5.315 0 0 0-4.473 2.728c-1.934 3.349-.491 8.27 1.361 10.976.927 1.326 2.01 2.806 3.428 2.753 1.387-.057 1.905-.884 3.58-.884 1.658 0 2.144.884 3.59.851 1.489-.024 2.426-1.331 3.32-2.669a10.963 10.963 0 0 0 1.52-3.093 4.782 4.782 0 0 1-2.92-4.399Zm-2.73-8.089a4.872 4.872 0 0 0 1.114-3.49 4.957 4.957 0 0 0-3.207 1.66 4.635 4.635 0 0 0-1.144 3.36 4.099 4.099 0 0 0 3.236-1.53ZM48.305 27.14H43.57l-1.136 3.356H40.43l4.483-12.418h2.083l4.483 12.418H49.44l-1.135-3.356Zm-4.243-1.55h3.752l-1.85-5.446h-.052l-1.85 5.447Zm17.099.38c0 2.813-1.506 4.62-3.778 4.62a3.068 3.068 0 0 1-2.849-1.584h-.043v4.485h-1.858V21.442h1.799v1.506h.034a3.21 3.21 0 0 1 2.883-1.6c2.298 0 3.812 1.816 3.812 4.622Zm-1.91 0c0-1.833-.947-3.039-2.393-3.039-1.42 0-2.375 1.23-2.375 3.038 0 1.825.956 3.046 2.375 3.046 1.446 0 2.393-1.196 2.393-3.046Zm11.875 0c0 2.813-1.506 4.62-3.778 4.62a3.07 3.07 0 0 1-2.849-1.584h-.043v4.485h-1.858V21.442h1.799v1.506h.034a3.21 3.21 0 0 1 2.883-1.6c2.297 0 3.812 1.816 3.812 4.621Zm-1.91 0c0-1.834-.947-3.039-2.393-3.039-1.42 0-2.375 1.23-2.375 3.038 0 1.825.955 3.046 2.375 3.046 1.446 0 2.393-1.196 2.393-3.046Zm8.495 1.066c.138 1.232 1.334 2.04 2.969 2.04 1.566 0 2.693-.808 2.693-1.919 0-.964-.68-1.54-2.289-1.936l-1.61-.388c-2.28-.55-3.338-1.617-3.338-3.348 0-2.142 1.867-3.614 4.518-3.614 2.624 0 4.423 1.472 4.484 3.614h-1.876c-.113-1.239-1.137-1.987-2.634-1.987-1.497 0-2.522.757-2.522 1.858 0 .878.655 1.395 2.255 1.79l1.368.336c2.548.603 3.607 1.626 3.607 3.443 0 2.323-1.85 3.778-4.794 3.778-2.754 0-4.613-1.42-4.733-3.667h1.902ZM89.348 19.3v2.143h1.721v1.472h-1.721v4.991c0 .776.344 1.137 1.101 1.137a5.81 5.81 0 0 0 .612-.043v1.463c-.34.063-.687.092-1.033.086-1.833 0-2.547-.689-2.547-2.444v-5.19h-1.317v-1.472h1.316v-2.142h1.868Zm2.718 6.67c0-2.848 1.678-4.638 4.294-4.638 2.625 0 4.295 1.79 4.295 4.639 0 2.856-1.66 4.638-4.295 4.638-2.632 0-4.294-1.782-4.294-4.638Zm6.696 0c0-1.953-.896-3.107-2.402-3.107-1.505 0-2.4 1.162-2.4 3.108 0 1.962.895 3.106 2.4 3.106 1.506 0 2.402-1.144 2.402-3.106Zm3.426-4.528h1.772v1.541h.043a2.162 2.162 0 0 1 2.178-1.636c.214 0 .427.023.636.07v1.738a2.594 2.594 0 0 0-.835-.112 1.872 1.872 0 0 0-1.936 2.083v5.37h-1.858v-9.054Zm13.198 6.396c-.25 1.643-1.851 2.771-3.899 2.771-2.633 0-4.268-1.764-4.268-4.595 0-2.84 1.643-4.682 4.19-4.682 2.505 0 4.08 1.72 4.08 4.466v.637h-6.394v.112a2.353 2.353 0 0 0 1.458 2.391c.31.127.643.186.977.173a2.05 2.05 0 0 0 2.091-1.273h1.765Zm-6.282-2.702h4.526a2.173 2.173 0 0 0-2.221-2.298 2.29 2.29 0 0 0-2.305 2.298ZM43.827 8.731a2.64 2.64 0 0 1 2.808 2.965c0 1.906-1.03 3.002-2.808 3.002h-2.155V8.731h2.155ZM42.6 13.854h1.125a1.877 1.877 0 0 0 1.967-2.146 1.88 1.88 0 0 0-1.967-2.133H42.6v4.28Zm5.082-1.41a2.134 2.134 0 1 1 4.247 0 2.134 2.134 0 1 1-4.247 0Zm3.333 0c0-.976-.439-1.547-1.208-1.547-.773 0-1.207.57-1.207 1.547 0 .984.434 1.55 1.207 1.55.77 0 1.208-.57 1.208-1.55Zm6.559 2.254h-.922l-.93-3.316h-.07l-.927 3.316h-.913l-1.242-4.503h.902l.806 3.436h.067l.925-3.436h.853l.926 3.436h.07l.803-3.436h.889l-1.237 4.503Zm2.281-4.503h.856v.715h.066a1.348 1.348 0 0 1 1.344-.802 1.466 1.466 0 0 1 1.559 1.675v2.915h-.889v-2.692c0-.724-.314-1.084-.972-1.084a1.034 1.034 0 0 0-1.075 1.141v2.635h-.889v-4.503Zm5.239-1.757h.888v6.26h-.888v-6.26Zm2.123 4.006a2.133 2.133 0 1 1 4.248 0 2.134 2.134 0 1 1-4.248 0Zm3.333 0c0-.976-.438-1.547-1.208-1.547-.772 0-1.207.57-1.207 1.547 0 .984.435 1.55 1.207 1.55.77 0 1.208-.57 1.208-1.55Zm1.852.98c0-.81.604-1.278 1.675-1.344l1.22-.07v-.39c0-.475-.315-.743-.922-.743-.496 0-.84.182-.939.5h-.86c.091-.774.819-1.27 1.84-1.27 1.129 0 1.766.562 1.766 1.514v3.076h-.856v-.632h-.07a1.516 1.516 0 0 1-1.353.707 1.361 1.361 0 0 1-1.5-1.348Zm2.895-.385v-.376l-1.1.07c-.62.041-.901.252-.901.65 0 .405.351.64.835.64a1.06 1.06 0 0 0 1.166-.984Zm2.051-.594c0-1.423.731-2.324 1.869-2.324a1.484 1.484 0 0 1 1.38.79h.067V8.438h.889v6.26H80.7v-.711h-.07a1.563 1.563 0 0 1-1.414.785c-1.146 0-1.87-.9-1.87-2.327Zm.918 0c0 .955.45 1.53 1.203 1.53.749 0 1.212-.583 1.212-1.526 0-.939-.468-1.53-1.212-1.53-.748 0-1.203.579-1.203 1.526Zm6.967-.001a2.133 2.133 0 1 1 4.247 0 2.134 2.134 0 1 1-4.247 0Zm3.333 0c0-.976-.439-1.547-1.208-1.547-.773 0-1.207.57-1.207 1.547 0 .984.434 1.55 1.207 1.55.77 0 1.208-.57 1.208-1.55Zm2.106-2.249h.855v.715h.067a1.348 1.348 0 0 1 1.344-.802 1.466 1.466 0 0 1 1.558 1.675v2.915h-.889v-2.692c0-.724-.314-1.084-.971-1.084a1.034 1.034 0 0 0-1.075 1.141v2.635h-.89v-4.503Zm8.843-1.121v1.142h.975v.748h-.975v2.316c0 .472.194.678.636.678.114 0 .227-.007.339-.02v.74a2.893 2.893 0 0 1-.483.045c-.988 0-1.382-.348-1.382-1.216v-2.543h-.715v-.748h.715V9.074h.89Zm2.192-.636h.881v2.481h.07a1.388 1.388 0 0 1 1.373-.807 1.48 1.48 0 0 1 1.495 1.034c.066.209.085.429.056.645v2.907h-.89V12.01c0-.719-.335-1.083-.962-1.083a1.054 1.054 0 0 0-1.134 1.141v2.63h-.889v-6.26Zm9.054 5.044a1.823 1.823 0 0 1-1.951 1.302 2.047 2.047 0 0 1-2.08-2.324 2.093 2.093 0 0 1 .071-.88 2.08 2.08 0 0 1 2.005-1.473c1.253 0 2.009.856 2.009 2.27v.31h-3.18v.05a1.19 1.19 0 0 0 1.2 1.29 1.077 1.077 0 0 0 1.071-.545h.855Zm-3.126-1.452h2.275a1.094 1.094 0 0 0-.667-1.084 1.086 1.086 0 0 0-.442-.082 1.151 1.151 0 0 0-1.166 1.166Z"/>
</svg>
