<svg width="96" height="32" viewBox="0 0 96 32" fill="none" xmlns="http://www.w3.org/2000/svg">
    <path d="M92.4445 0H3.55556C1.59188 0 0 1.79086 0 4V28C0 30.2091 1.59188 32 3.55556 32H92.4445C94.4081 32 96 30.2091 96 28V4C96 1.79086 94.4081 0 92.4445 0Z" fill="black"/>
    <path d="M92.4444 0.64C94.0942 0.64 95.4311 2.144 95.4311 4V28C95.4311 29.856 94.0942 31.36 92.4444 31.36H3.55556C1.90578 31.36 0.568889 29.856 0.568889 28V4C0.568889 2.144 1.90578 0.64 3.55556 0.64H92.4444ZM92.4444 0H3.55556C1.6 0 0 1.8 0 4V28C0 30.2 1.6 32 3.55556 32H92.4444C94.4 32 96 30.2 96 28V4C96 1.8 94.4 0 92.4444 0Z" fill="#A6A6A6"/>
    <path d="M19.8038 16.2489C19.8124 15.5812 19.9898 14.9265 20.3194 14.3457C20.649 13.7649 21.1202 13.277 21.689 12.9273C21.3277 12.4111 20.8509 11.9864 20.2966 11.6867C19.7424 11.3871 19.1259 11.2208 18.4961 11.2011C17.1527 11.0601 15.8504 12.005 15.1658 12.005C14.468 12.005 13.414 11.2151 12.279 11.2385C11.5449 11.2622 10.8294 11.4757 10.2023 11.8581C9.57517 12.2406 9.05783 12.7789 8.70066 13.4208C7.15346 16.0995 8.30753 20.0363 9.78962 22.2016C10.5311 23.2619 11.3978 24.4463 12.5317 24.4043C13.6414 24.3582 14.0558 23.6967 15.3952 23.6967C16.7222 23.6967 17.1111 24.4043 18.268 24.3776C19.4587 24.3582 20.2089 23.3126 20.9244 22.2423C21.4572 21.4868 21.8672 20.6518 22.1392 19.7682C21.4474 19.4757 20.8571 18.9859 20.4418 18.3601C20.0265 17.7342 19.8046 17 19.8038 16.2489Z" fill="white"/>
    <path d="M17.6179 9.77809C18.2671 8.99872 18.5869 7.99698 18.5095 6.9856C17.5176 7.08977 16.6014 7.56382 15.9434 8.31328C15.6217 8.67942 15.3753 9.10537 15.2183 9.56678C15.0613 10.0282 14.9968 10.516 15.0285 11.0024C15.5246 11.0075 16.0154 10.9 16.4639 10.6879C16.9124 10.4758 17.307 10.1648 17.6179 9.77809Z" fill="white"/>
    <path d="M33.8341 21.7153H30.0473L29.138 24.4005H27.5341L31.1208 14.4661H32.7872L36.3739 24.4005H34.7426L33.8341 21.7153ZM30.4395 20.4762H33.4411L31.9614 16.1184H31.92L30.4395 20.4762Z" fill="white"/>
    <path d="M44.1185 20.7783C44.1185 23.0291 42.9138 24.4752 41.0958 24.4752C40.6353 24.4993 40.1773 24.3932 39.7742 24.1691C39.3712 23.945 39.0394 23.6119 38.8169 23.208H38.7825V26.7955H37.2958V17.1565H38.7349V18.3612H38.7622C38.995 17.9592 39.3324 17.6278 39.7385 17.4024C40.1446 17.1769 40.6042 17.0657 41.0685 17.0807C42.9067 17.0807 44.1185 18.5338 44.1185 20.7783ZM42.5903 20.7783C42.5903 19.3119 41.8325 18.3479 40.6763 18.3479C39.5403 18.3479 38.7763 19.3322 38.7763 20.7783C38.7763 22.2377 39.5403 23.2151 40.6763 23.2151C41.8325 23.2151 42.5903 22.258 42.5903 20.7783Z" fill="white"/>
    <path d="M52.0911 20.7783C52.0911 23.0291 50.8864 24.4752 49.0685 24.4752C48.6079 24.4993 48.1499 24.3932 47.7469 24.1691C47.3439 23.945 47.0121 23.6119 46.7896 23.208H46.7552V26.7955H45.2684V17.1565H46.7075V18.3611H46.7348C46.9676 17.9592 47.305 17.6278 47.7111 17.4023C48.1172 17.1769 48.5768 17.0657 49.0411 17.0807C50.8794 17.0807 52.0911 18.5338 52.0911 20.7783ZM50.563 20.7783C50.563 19.3119 49.8052 18.3479 48.6489 18.3479C47.513 18.3479 46.7489 19.3322 46.7489 20.7783C46.7489 22.2377 47.513 23.2151 48.6489 23.2151C49.8052 23.2151 50.563 22.258 50.563 20.7783Z" fill="white"/>
    <path d="M57.3606 21.6321C57.4708 22.6173 58.4278 23.2641 59.7356 23.2641C60.9888 23.2641 61.8903 22.6172 61.8903 21.729C61.8903 20.9579 61.3466 20.4962 60.0591 20.1797L58.7716 19.8696C56.9474 19.429 56.1005 18.5758 56.1005 17.1915C56.1005 15.4774 57.5942 14.3 59.7153 14.3C61.8145 14.3 63.2536 15.4774 63.3021 17.1915H61.8013C61.7114 16.2 60.8919 15.6016 59.6942 15.6016C58.4966 15.6016 57.677 16.2071 57.677 17.0883C57.677 17.7907 58.2005 18.204 59.4809 18.5203L60.5755 18.7891C62.6137 19.2711 63.4606 20.0899 63.4606 21.543C63.4606 23.4016 61.9802 24.5656 59.6255 24.5656C57.4223 24.5656 55.9348 23.4289 55.8387 21.632L57.3606 21.6321Z" fill="white"/>
    <path d="M66.6669 15.4446V17.1586H68.0442V18.336H66.6669V22.329C66.6669 22.9493 66.9427 23.2383 67.5481 23.2383C67.7116 23.2355 67.8749 23.224 68.0372 23.2039V24.3742C67.765 24.4251 67.4883 24.4481 67.2114 24.443C65.745 24.443 65.1731 23.8922 65.1731 22.4875V18.336H64.12V17.1586H65.1731V15.4446H66.6669Z" fill="white"/>
    <path d="M68.8427 20.7786C68.8427 18.4997 70.1848 17.0676 72.2778 17.0676C74.3778 17.0676 75.7137 18.4996 75.7137 20.7786C75.7137 23.0637 74.3848 24.4895 72.2778 24.4895C70.1715 24.4895 68.8427 23.0637 68.8427 20.7786ZM74.1989 20.7786C74.1989 19.2153 73.4825 18.2926 72.2778 18.2926C71.0731 18.2926 70.3575 19.2223 70.3575 20.7786C70.3575 22.3481 71.0731 23.2637 72.2778 23.2637C73.4825 23.2637 74.1989 22.3481 74.1989 20.7786Z" fill="white"/>
    <path d="M76.9442 17.1564H78.3622V18.3892H78.3966C78.4925 18.0042 78.7181 17.6639 79.0354 17.4256C79.3526 17.1873 79.7423 17.0655 80.1388 17.0806C80.3101 17.08 80.481 17.0986 80.6482 17.1361V18.5267C80.4319 18.4606 80.2062 18.4303 79.9802 18.4369C79.7642 18.4281 79.5488 18.4662 79.349 18.5485C79.1491 18.6308 78.9694 18.7554 78.8222 18.9137C78.675 19.072 78.5639 19.2603 78.4963 19.4656C78.4288 19.671 78.4065 19.8885 78.4309 20.1033V24.3994H76.9442L76.9442 17.1564Z" fill="white"/>
    <path d="M87.4973 22.2723C87.2973 23.5872 86.0169 24.4895 84.3786 24.4895C82.2716 24.4895 80.9637 23.0778 80.9637 20.8129C80.9637 18.5411 82.2786 17.0676 84.3161 17.0676C86.32 17.0676 87.5802 18.4442 87.5802 20.6403V21.1497H82.4645V21.2395C82.4409 21.5061 82.4743 21.7746 82.5624 22.0273C82.6506 22.2799 82.7915 22.511 82.9758 22.705C83.16 22.899 83.3835 23.0516 83.6313 23.1527C83.8791 23.2537 84.1455 23.3009 84.413 23.2911C84.7643 23.324 85.1169 23.2426 85.4182 23.0591C85.7196 22.8755 85.9537 22.5996 86.0856 22.2723L87.4973 22.2723ZM82.4716 20.1106H86.0927C86.106 19.8709 86.0697 19.6311 85.9859 19.4061C85.9022 19.1811 85.7728 18.9759 85.606 18.8033C85.4392 18.6307 85.2385 18.4944 85.0165 18.403C84.7946 18.3117 84.5561 18.2672 84.3161 18.2723C84.074 18.2709 83.834 18.3174 83.61 18.4092C83.3859 18.501 83.1823 18.6362 83.0108 18.8071C82.8393 18.978 82.7034 19.1812 82.6108 19.4049C82.5183 19.6287 82.4709 19.8685 82.4716 20.1106Z" fill="white"/>
    <path d="M30.2484 6.98515C30.5601 6.96279 30.8728 7.00987 31.1641 7.12302C31.4554 7.23617 31.718 7.41255 31.9328 7.63945C32.1477 7.86635 32.3095 8.13811 32.4067 8.43513C32.5038 8.73214 32.5338 9.04701 32.4945 9.35703C32.4945 10.882 31.6703 11.7586 30.2484 11.7586H28.5242V6.98515H30.2484ZM29.2656 11.0836H30.1656C30.3883 11.0969 30.6112 11.0603 30.818 10.9767C31.0248 10.893 31.2104 10.7642 31.3612 10.5998C31.512 10.4353 31.6242 10.2393 31.6897 10.026C31.7552 9.81271 31.7723 9.58749 31.7398 9.36675C31.77 9.14689 31.7511 8.92307 31.6846 8.71134C31.6181 8.49961 31.5056 8.3052 31.3552 8.14206C31.2047 7.97892 31.02 7.85107 30.8144 7.76768C30.6087 7.68429 30.3872 7.64742 30.1656 7.65972H29.2656V11.0836Z" fill="white"/>
    <path d="M33.333 9.95431C33.3103 9.71757 33.3374 9.47872 33.4125 9.25306C33.4876 9.02741 33.609 8.81993 33.7689 8.64395C33.9289 8.46796 34.1239 8.32735 34.3413 8.23113C34.5588 8.13491 34.794 8.08521 35.0318 8.08521C35.2696 8.08521 35.5048 8.13491 35.7223 8.23113C35.9398 8.32735 36.1348 8.46796 36.2947 8.64395C36.4547 8.81993 36.5761 9.02741 36.6511 9.25306C36.7262 9.47872 36.7533 9.71757 36.7306 9.95431C36.7537 10.1913 36.727 10.4305 36.6521 10.6565C36.5772 10.8825 36.4559 11.0904 36.2959 11.2667C36.1359 11.443 35.9408 11.5839 35.7231 11.6804C35.5054 11.7768 35.2699 11.8266 35.0318 11.8266C34.7937 11.8266 34.5583 11.7768 34.3406 11.6804C34.1229 11.5839 33.9277 11.443 33.7677 11.2667C33.6077 11.0904 33.4864 10.8825 33.4115 10.6565C33.3367 10.4305 33.3099 10.1913 33.333 9.95431ZM35.9994 9.95431C35.9994 9.17345 35.6486 8.71681 35.033 8.71681C34.415 8.71681 34.0674 9.17345 34.0674 9.95432C34.0674 10.7414 34.415 11.1945 35.033 11.1945C35.6486 11.1945 35.9994 10.7383 35.9994 9.95431Z" fill="white"/>
    <path d="M41.2421 11.7579H40.5046L39.7601 9.10473H39.7039L38.9625 11.7579H38.232L37.239 8.15552H37.9601L38.6054 10.9043H38.6586L39.3992 8.15552H40.0812L40.8218 10.9043H40.8781L41.5203 8.15552H42.2312L41.2421 11.7579Z" fill="white"/>
    <path d="M43.0671 8.15438H43.7515V8.72664H43.8046C43.8948 8.52111 44.0468 8.34881 44.2395 8.23377C44.4322 8.11872 44.656 8.06666 44.8796 8.08484C45.0549 8.07167 45.2309 8.0981 45.3946 8.16217C45.5583 8.22625 45.7054 8.32633 45.8252 8.45501C45.9449 8.58368 46.0342 8.73765 46.0864 8.90551C46.1385 9.07336 46.1522 9.2508 46.1265 9.42468V11.7567H45.4156V9.60321C45.4156 9.02431 45.164 8.73641 44.6382 8.73641C44.5192 8.73087 44.4004 8.75113 44.29 8.79579C44.1795 8.84045 44.0801 8.90847 43.9984 8.99518C43.9167 9.08189 43.8547 9.18523 43.8167 9.29814C43.7786 9.41104 43.7655 9.53083 43.7781 9.6493V11.7567H43.0671L43.0671 8.15438Z" fill="white"/>
    <path d="M47.2585 6.74927H47.9695V11.7579H47.2585V6.74927Z" fill="white"/>
    <path d="M48.9619 9.95437C48.9392 9.71762 48.9663 9.47876 49.0414 9.25309C49.1165 9.02743 49.2379 8.81995 49.3979 8.64396C49.5579 8.46797 49.7529 8.32735 49.9704 8.23113C50.1879 8.13491 50.4231 8.08521 50.6609 8.08521C50.8987 8.08521 51.1339 8.13491 51.3514 8.23113C51.5689 8.32735 51.7639 8.46797 51.9239 8.64396C52.0838 8.81995 52.2053 9.02743 52.2804 9.25309C52.3555 9.47876 52.3826 9.71762 52.3599 9.95437C52.383 10.1914 52.3562 10.4306 52.2813 10.6566C52.2064 10.8826 52.085 11.0904 51.925 11.2668C51.765 11.4431 51.5699 11.584 51.3522 11.6804C51.1345 11.7768 50.899 11.8267 50.6609 11.8267C50.4228 11.8267 50.1873 11.7768 49.9696 11.6804C49.7519 11.584 49.5568 11.4431 49.3968 11.2668C49.2368 11.0904 49.1154 10.8826 49.0405 10.6566C48.9656 10.4306 48.9388 10.1914 48.9619 9.95437ZM51.6283 9.95437C51.6283 9.17352 51.2775 8.71688 50.6619 8.71688C50.0439 8.71688 49.6963 9.17352 49.6963 9.95438C49.6963 10.7415 50.0439 11.1946 50.6619 11.1946C51.2775 11.1946 51.6283 10.7384 51.6283 9.95437Z" fill="white"/>
    <path d="M53.1062 10.7383C53.1062 10.0899 53.589 9.71606 54.446 9.66293L55.4218 9.60669V9.29575C55.4218 8.91528 55.1703 8.70044 54.6843 8.70044C54.2875 8.70044 54.0125 8.84614 53.9335 9.10083H53.2453C53.3179 8.48208 53.9 8.08521 54.7171 8.08521C55.6203 8.08521 56.1296 8.53481 56.1296 9.29575V11.7571H55.4453V11.2508H55.389C55.2748 11.4324 55.1145 11.5805 54.9244 11.6798C54.7343 11.7792 54.5213 11.8263 54.307 11.8164C54.1558 11.8322 54.0029 11.816 53.8583 11.7691C53.7137 11.7221 53.5805 11.6454 53.4674 11.5438C53.3543 11.4422 53.2637 11.3181 53.2015 11.1793C53.1392 11.0406 53.1068 10.8904 53.1062 10.7383ZM55.4218 10.4305V10.1293L54.5421 10.1856C54.046 10.2188 53.821 10.3875 53.821 10.7051C53.821 11.0293 54.1023 11.218 54.489 11.218C54.6024 11.2295 54.7168 11.218 54.8256 11.1844C54.9344 11.1507 55.0353 11.0955 55.1224 11.022C55.2094 10.9485 55.2808 10.8583 55.3322 10.7567C55.3837 10.6551 55.4141 10.5441 55.4218 10.4305Z" fill="white"/>
    <path d="M57.0671 9.95514C57.0671 8.81686 57.6523 8.09576 58.5625 8.09576C58.7876 8.08539 59.011 8.13931 59.2066 8.25123C59.4023 8.36314 59.562 8.52843 59.6671 8.72776H59.7203V6.74927H60.4312V11.7579H59.75V11.1887H59.6937C59.5804 11.3867 59.4151 11.5499 59.2157 11.6607C59.0163 11.7715 58.7904 11.8256 58.5625 11.8172C57.646 11.8173 57.0671 11.0962 57.0671 9.95514ZM57.8015 9.95514C57.8015 10.7192 58.1617 11.179 58.764 11.179C59.3632 11.179 59.7336 10.7126 59.7336 9.95827C59.7336 9.20748 59.3594 8.73444 58.764 8.73444C58.1656 8.73444 57.8015 9.19732 57.8015 9.95514Z" fill="white"/>
    <path d="M63.3721 9.95431C63.3494 9.71757 63.3765 9.47872 63.4516 9.25306C63.5266 9.02741 63.648 8.81993 63.808 8.64395C63.9679 8.46796 64.1629 8.32735 64.3804 8.23113C64.5979 8.13491 64.8331 8.08521 65.0709 8.08521C65.3087 8.08521 65.5439 8.13491 65.7614 8.23113C65.9788 8.32735 66.1738 8.46796 66.3338 8.64395C66.4937 8.81993 66.6151 9.02741 66.6902 9.25306C66.7653 9.47872 66.7924 9.71757 66.7697 9.95431C66.7928 10.1913 66.766 10.4305 66.6911 10.6565C66.6163 10.8825 66.4949 11.0904 66.3349 11.2667C66.175 11.443 65.9798 11.5839 65.7621 11.6804C65.5444 11.7768 65.309 11.8266 65.0709 11.8266C64.8328 11.8266 64.5973 11.7768 64.3796 11.6804C64.1619 11.5839 63.9668 11.443 63.8068 11.2667C63.6468 11.0904 63.5255 10.8825 63.4506 10.6565C63.3757 10.4305 63.349 10.1913 63.3721 9.95431ZM66.0385 9.95431C66.0385 9.17345 65.6877 8.71681 65.0721 8.71681C64.4541 8.71681 64.1064 9.17345 64.1064 9.95432C64.1064 10.7414 64.4541 11.1945 65.0721 11.1945C65.6877 11.1945 66.0385 10.7383 66.0385 9.95431Z" fill="white"/>
    <path d="M67.7234 8.15438H68.4078V8.72664H68.4609C68.551 8.52111 68.703 8.34881 68.8957 8.23377C69.0884 8.11872 69.3122 8.06666 69.5359 8.08484C69.7112 8.07167 69.8872 8.0981 70.0508 8.16217C70.2145 8.22625 70.3617 8.32633 70.4814 8.45501C70.6012 8.58368 70.6904 8.73765 70.7426 8.90551C70.7948 9.07336 70.8085 9.2508 70.7828 9.42468V11.7567H70.0718V9.60321C70.0718 9.02431 69.8203 8.73641 69.2945 8.73641C69.1755 8.73087 69.0567 8.75113 68.9462 8.79579C68.8358 8.84045 68.7363 8.90847 68.6546 8.99518C68.5729 9.08189 68.5109 9.18523 68.4729 9.29814C68.4349 9.41104 68.4217 9.53083 68.4343 9.6493V11.7567H67.7234V8.15438Z" fill="white"/>
    <path d="M74.8 7.25903V8.17231H75.5804V8.77114H74.8V10.6235C74.8 11.0008 74.9554 11.1661 75.3093 11.1661C75.3999 11.1658 75.4904 11.1603 75.5804 11.1497V11.7418C75.4528 11.7647 75.3234 11.7768 75.1937 11.7782C74.4031 11.7782 74.0882 11.5 74.0882 10.8055V8.77111H73.5164V8.17228H74.0882V7.25903H74.8Z" fill="white"/>
    <path d="M76.5515 6.74927H77.2562V8.73443H77.3124C77.407 8.52697 77.5631 8.3537 77.7597 8.23822C77.9562 8.12274 78.1836 8.07068 78.4108 8.08912C78.5852 8.07963 78.7595 8.10874 78.9214 8.17437C79.0832 8.24001 79.2285 8.34054 79.347 8.46881C79.4655 8.59708 79.5542 8.74993 79.6069 8.91643C79.6595 9.08294 79.6747 9.25901 79.6515 9.43208V11.7579H78.9398V9.60747C78.9398 9.03208 78.6718 8.74067 78.1695 8.74067C78.0473 8.73065 77.9244 8.74744 77.8094 8.78989C77.6944 8.83233 77.59 8.89939 77.5036 8.98638C77.4172 9.07337 77.3509 9.17819 77.3092 9.2935C77.2676 9.40881 77.2516 9.53183 77.2625 9.65395V11.7579H76.5515L76.5515 6.74927Z" fill="white"/>
    <path d="M83.7958 10.7845C83.6992 11.1137 83.4899 11.3985 83.2046 11.589C82.9192 11.7795 82.576 11.8637 82.2348 11.8267C81.9975 11.8329 81.7617 11.7875 81.5437 11.6935C81.3257 11.5994 81.1307 11.4591 80.9724 11.2822C80.8141 11.1053 80.6961 10.896 80.6268 10.669C80.5574 10.4419 80.5383 10.2025 80.5708 9.9673C80.5392 9.73139 80.5586 9.49144 80.6278 9.26371C80.697 9.03597 80.8143 8.82575 80.9718 8.64729C81.1293 8.46884 81.3233 8.3263 81.5407 8.22933C81.758 8.13237 81.9937 8.08324 82.2317 8.08527C83.2341 8.08527 83.8387 8.77007 83.8387 9.90127V10.1493H81.295V10.1892C81.2839 10.3214 81.3005 10.4544 81.3438 10.5798C81.3871 10.7052 81.4561 10.8202 81.5464 10.9174C81.6368 11.0145 81.7464 11.0918 81.8683 11.1441C81.9902 11.1964 82.1217 11.2227 82.2544 11.2212C82.4244 11.2416 82.5967 11.211 82.7493 11.1332C82.9019 11.0554 83.028 10.934 83.1114 10.7845L83.7958 10.7845ZM81.295 9.62355H83.1145C83.1235 9.50264 83.107 9.3812 83.0663 9.26703C83.0255 9.15285 82.9613 9.04847 82.8778 8.96058C82.7943 8.8727 82.6933 8.80325 82.5814 8.75671C82.4694 8.71017 82.349 8.68757 82.2278 8.69035C82.1048 8.6888 81.9828 8.71189 81.8689 8.75824C81.755 8.8046 81.6516 8.87329 81.5646 8.96026C81.4777 9.04723 81.409 9.15072 81.3627 9.26464C81.3164 9.37855 81.2934 9.50059 81.295 9.62355Z" fill="white"/>
    </svg>
    