<svg width="108" height="32" viewBox="0 0 108 32" fill="none" xmlns="http://www.w3.org/2000/svg">
    <g clip-path="url(#clip0_59_5420)">
    <path d="M104 -0.000488281H4C1.79086 -0.000488281 0 1.79037 0 3.99951V27.9995C0 30.2087 1.79086 31.9995 4 31.9995H104C106.209 31.9995 108 30.2087 108 27.9995V3.99951C108 1.79037 106.209 -0.000488281 104 -0.000488281Z" fill="black"/>
    <path d="M104 0.639512C105.856 0.639512 107.36 2.14351 107.36 3.99951V27.9995C107.36 29.8555 105.856 31.3595 104 31.3595H4C2.144 31.3595 0.64 29.8555 0.64 27.9995V3.99951C0.64 2.14351 2.144 0.639512 4 0.639512H104ZM104 -0.000488281H4C1.8 -0.000488281 0 1.79951 0 3.99951V27.9995C0 30.1995 1.8 31.9995 4 31.9995H104C106.2 31.9995 108 30.1995 108 27.9995V3.99951C108 1.79951 106.2 -0.000488281 104 -0.000488281Z" fill="#A6A6A6"/>
    <path d="M37.936 8.1916C37.936 8.8636 37.736 9.3996 37.336 9.7916C36.888 10.2636 36.296 10.5036 35.576 10.5036C34.856 10.5036 34.296 10.2636 33.808 9.7836C33.32 9.3036 33.08 8.7036 33.08 7.9996C33.08 7.2956 33.32 6.69561 33.808 6.21561C34.296 5.73561 34.88 5.49561 35.576 5.49561C35.92 5.49561 36.248 5.55961 36.56 5.69561C36.872 5.83161 37.12 6.00761 37.312 6.23161L36.888 6.6556C36.568 6.2796 36.136 6.08761 35.576 6.08761C35.072 6.08761 34.632 6.26361 34.264 6.62361C33.896 6.97561 33.712 7.4396 33.712 8.0076C33.712 8.5756 33.896 9.0396 34.264 9.3916C34.632 9.7436 35.072 9.9276 35.576 9.9276C36.112 9.9276 36.56 9.7516 36.92 9.3916C37.152 9.1596 37.288 8.8316 37.32 8.41561H35.576V7.8396H37.904C37.928 7.9676 37.936 8.0876 37.936 8.1996V8.1916Z" fill="white" stroke="white" stroke-width="0.16" stroke-miterlimit="10"/>
    <path d="M41.624 6.19161H39.44V7.71161H41.408V8.28761H39.44V9.80761H41.624V10.3996H38.824V5.59961H41.624V6.19161Z" fill="white" stroke="white" stroke-width="0.16" stroke-miterlimit="10"/>
    <path d="M44.224 10.3996H43.608V6.19161H42.264V5.59961H45.56V6.19161H44.216V10.3996H44.224Z" fill="white" stroke="white" stroke-width="0.16" stroke-miterlimit="10"/>
    <path d="M47.952 10.3996V5.59961H48.568V10.3996H47.952Z" fill="white" stroke="white" stroke-width="0.16" stroke-miterlimit="10"/>
    <path d="M51.3039 10.3996H50.6879V6.19161H49.3439V5.59961H52.6399V6.19161H51.2959V10.3996H51.3039Z" fill="white" stroke="white" stroke-width="0.16" stroke-miterlimit="10"/>
    <path d="M58.8879 9.7756C58.4159 10.2636 57.8319 10.5036 57.1279 10.5036C56.4239 10.5036 55.8399 10.2636 55.3679 9.7756C54.8959 9.2876 54.6639 8.6956 54.6639 7.9996C54.6639 7.3036 54.8959 6.70361 55.3679 6.22361C55.8399 5.73561 56.4239 5.49561 57.1279 5.49561C57.8319 5.49561 58.4079 5.73561 58.8879 6.22361C59.3599 6.71161 59.5999 7.3036 59.5999 7.9996C59.5999 8.6956 59.3599 9.2956 58.8959 9.7756H58.8879ZM55.8239 9.3756C56.1759 9.7356 56.6159 9.9116 57.1279 9.9116C57.6399 9.9116 58.0799 9.7356 58.4319 9.3756C58.7839 9.0156 58.9679 8.5596 58.9679 7.9996C58.9679 7.4396 58.7919 6.98361 58.4319 6.62361C58.0799 6.26361 57.6399 6.08761 57.1279 6.08761C56.6159 6.08761 56.1759 6.26361 55.8239 6.62361C55.4719 6.98361 55.2879 7.4396 55.2879 7.9996C55.2879 8.5596 55.4639 9.0156 55.8239 9.3756Z" fill="white" stroke="white" stroke-width="0.16" stroke-miterlimit="10"/>
    <path d="M60.464 10.3996V5.59961H61.216L63.552 9.33561H63.576L63.552 8.40761V5.59961H64.168V10.3996H63.528L61.088 6.48761H61.064L61.088 7.41561V10.4076H60.472L60.464 10.3996Z" fill="white" stroke="white" stroke-width="0.16" stroke-miterlimit="10"/>
    <path d="M54.512 17.3996C52.632 17.3996 51.096 18.8316 51.096 20.7996C51.096 22.7676 52.632 24.1996 54.512 24.1996C56.392 24.1996 57.928 22.7596 57.928 20.7996C57.928 18.8396 56.392 17.3996 54.512 17.3996ZM54.512 22.8637C53.48 22.8637 52.592 22.0156 52.592 20.7996C52.592 19.5836 53.48 18.7356 54.512 18.7356C55.544 18.7356 56.432 19.5756 56.432 20.7996C56.432 22.0236 55.544 22.8637 54.512 22.8637ZM47.056 17.3996C45.176 17.3996 43.64 18.8316 43.64 20.7996C43.64 22.7676 45.176 24.1996 47.056 24.1996C48.936 24.1996 50.472 22.7596 50.472 20.7996C50.472 18.8396 48.936 17.3996 47.056 17.3996ZM47.056 22.8637C46.024 22.8637 45.136 22.0156 45.136 20.7996C45.136 19.5836 46.024 18.7356 47.056 18.7356C48.088 18.7356 48.976 19.5756 48.976 20.7996C48.976 22.0236 48.088 22.8637 47.056 22.8637ZM38.192 18.4477V19.8876H41.648C41.544 20.7036 41.272 21.2957 40.864 21.7037C40.36 22.2077 39.576 22.7597 38.2 22.7597C36.072 22.7597 34.408 21.0477 34.408 18.9197C34.408 16.7917 36.072 15.0796 38.2 15.0796C39.344 15.0796 40.184 15.5276 40.8 16.1116L41.816 15.0956C40.952 14.2716 39.808 13.6396 38.192 13.6396C35.28 13.6396 32.832 16.0076 32.832 18.9276C32.832 21.8476 35.28 24.2156 38.192 24.2156C39.768 24.2156 40.952 23.7036 41.88 22.7356C42.832 21.7836 43.128 20.4396 43.128 19.3596C43.128 19.0236 43.104 18.7116 43.048 18.4556H38.192V18.4477ZM74.44 19.5676C74.16 18.8076 73.296 17.3996 71.528 17.3996C69.76 17.3996 68.32 18.7756 68.32 20.7996C68.32 22.7036 69.76 24.1996 71.696 24.1996C73.256 24.1996 74.16 23.2476 74.528 22.6956L73.368 21.9197C72.984 22.4876 72.456 22.8637 71.696 22.8637C70.936 22.8637 70.392 22.5117 70.048 21.8316L74.6 19.9516L74.448 19.5676H74.44ZM69.8 20.7036C69.76 19.3917 70.816 18.7197 71.576 18.7197C72.168 18.7197 72.672 19.0156 72.84 19.4396L69.8 20.7036ZM66.104 23.9996H67.6V13.9996H66.104V23.9996ZM63.656 18.1596H63.608C63.272 17.7596 62.632 17.3996 61.816 17.3996C60.112 17.3996 58.552 18.8956 58.552 20.8156C58.552 22.7357 60.112 24.2076 61.816 24.2076C62.632 24.2076 63.272 23.8476 63.608 23.4317H63.656V23.9197C63.656 25.2236 62.96 25.9197 61.84 25.9197C60.928 25.9197 60.36 25.2636 60.128 24.7116L58.824 25.2556C59.2 26.1596 60.192 27.2637 61.84 27.2637C63.592 27.2637 65.072 26.2317 65.072 23.7197V17.6076H63.656V18.1596ZM61.936 22.8637C60.904 22.8637 60.04 21.9997 60.04 20.8156C60.04 19.6316 60.904 18.7436 61.936 18.7436C62.968 18.7436 63.752 19.6236 63.752 20.8156C63.752 22.0076 62.952 22.8637 61.936 22.8637ZM81.448 13.9996H77.872V23.9996H79.368V20.2076H81.456C83.112 20.2076 84.736 19.0076 84.736 17.1036C84.736 15.1996 83.112 13.9996 81.456 13.9996H81.448ZM81.48 18.8156H79.36V15.3836H81.48C82.6 15.3836 83.232 16.3116 83.232 17.0956C83.232 17.8796 82.6 18.8076 81.48 18.8076V18.8156ZM90.712 17.3836C89.632 17.3836 88.512 17.8636 88.048 18.9116L89.376 19.4637C89.656 18.9117 90.184 18.7276 90.736 18.7276C91.504 18.7276 92.296 19.1916 92.304 20.0156V20.1197C92.032 19.9677 91.456 19.7356 90.744 19.7356C89.312 19.7356 87.864 20.5196 87.864 21.9836C87.864 23.3196 89.032 24.1836 90.344 24.1836C91.344 24.1836 91.904 23.7356 92.248 23.2076H92.296V23.9836H93.736V20.1516C93.736 18.3756 92.408 17.3836 90.696 17.3836H90.712ZM90.528 22.8637C90.04 22.8637 89.36 22.6156 89.36 22.0156C89.36 21.2476 90.208 20.9516 90.944 20.9516C91.6 20.9516 91.912 21.0956 92.304 21.2876C92.192 22.2156 91.392 22.8716 90.528 22.8716V22.8637ZM98.992 17.5996L97.28 21.9356H97.232L95.456 17.5996H93.848L96.512 23.6637L94.992 27.0316H96.552L100.656 17.5996H99H98.992ZM85.552 23.9996H87.048V13.9996H85.552V23.9996Z" fill="white"/>
    <path d="M16.5759 15.5353L8.05591 24.5753C8.31991 25.5593 9.21591 26.2793 10.2799 26.2793C10.7039 26.2793 11.1039 26.1673 11.4479 25.9593L11.4719 25.9433L21.0559 20.4153L16.5679 15.5273L16.5759 15.5353Z" fill="#EA4335"/>
    <path d="M25.192 13.9993H25.184L21.048 11.5913L16.384 15.7433L21.064 20.4233L25.184 18.0473C25.904 17.6553 26.392 16.8953 26.392 16.0233C26.392 15.1513 25.912 14.3913 25.192 14.0073V13.9993Z" fill="#FBBC04"/>
    <path d="M8.05595 7.42334C8.00795 7.61534 7.97595 7.80734 7.97595 8.01534V23.9913C7.97595 24.1993 7.99995 24.3913 8.05595 24.5833L16.864 15.7753L8.05595 7.42334Z" fill="#4285F4"/>
    <path d="M16.6399 15.9994L21.0479 11.5914L11.4719 6.03943C11.1279 5.83143 10.7199 5.71143 10.2799 5.71143C9.21591 5.71143 8.31991 6.43943 8.05591 7.41543L16.6399 15.9914V15.9994Z" fill="#34A853"/>
    </g>
    <defs>
    <clipPath id="clip0_59_5420">
    <rect width="108" height="32" fill="white" transform="translate(0 -0.000488281)"/>
    </clipPath>
    </defs>
    </svg>
    