<svg xmlns="http://www.w3.org/2000/svg" width="149" height="40" fill="none" viewBox="0 0 149 40">
  <rect width="148" height="39" x=".5" y=".5" fill="#000" rx="19.5"/>
  <rect width="148" height="39" x=".5" y=".5" stroke="#A6A6A6" rx="19.5"/>
  <path fill="#fff" stroke="#fff" stroke-miterlimit="10" stroke-width=".2" d="M52.976 12.748c-.327.117-.973.31-1.734.31-.854 0-1.56-.218-2.111-.746-.485-.469-.787-1.223-.787-2.103.008-1.684 1.164-2.916 3.058-2.916.653 0 1.164.143 1.407.26l-.176.595c-.302-.134-.68-.243-1.248-.243-1.374 0-2.271.854-2.271 2.27 0 1.433.863 2.279 2.178 2.279.478 0 .805-.067.972-.151v-1.684h-1.147v-.587h1.86v2.715l-.001.001Zm4.206-2.396h-2.195v2.037h2.446v.61h-3.175V7.354h3.049v.612h-2.32V9.75h2.195v.603-.002Zm2.575-2.378H58.04v-.62h4.181v.62h-1.726v5.025h-.737V7.974Zm5.933-.62v5.645h-.73V7.354h.73Zm2.512.62h-1.718v-.62h4.181v.62H68.94v5.025h-.737V7.974Zm10.028 2.144c0 1.943-1.182 2.974-2.622 2.974-1.49 0-2.538-1.156-2.538-2.864 0-1.793 1.114-2.966 2.622-2.966 1.541 0 2.538 1.18 2.538 2.856Zm-4.38.092c0 1.207.653 2.287 1.8 2.287 1.156 0 1.81-1.063 1.81-2.345 0-1.123-.587-2.295-1.802-2.295-1.206 0-1.808 1.114-1.808 2.354v-.001ZM79.348 13V7.353h.796l1.81 2.856c.419.662.745 1.256 1.014 1.834l.017-.008a25.107 25.107 0 0 1-.084-2.32v-2.36h.687V13h-.736l-1.793-2.865c-.394-.627-.771-1.272-1.056-1.884l-.025.009c.042.712.059 1.39.059 2.329V13h-.687l-.002-.002Z"/>
  <path fill="#fff" d="M75.137 21.752c-2.352 0-4.269 1.788-4.269 4.253 0 2.449 1.917 4.253 4.269 4.253 2.352 0 4.269-1.804 4.269-4.253 0-2.465-1.917-4.253-4.269-4.253Zm0 6.83c-1.289 0-2.401-1.062-2.401-2.577 0-1.531 1.112-2.578 2.401-2.578 1.289 0 2.4 1.047 2.4 2.578 0 1.514-1.112 2.578-2.4 2.578Zm-9.313-6.83c-2.352 0-4.269 1.788-4.269 4.253 0 2.449 1.917 4.253 4.269 4.253 2.352 0 4.269-1.804 4.269-4.253 0-2.465-1.917-4.253-4.269-4.253Zm0 6.83c-1.289 0-2.401-1.062-2.401-2.577 0-1.531 1.112-2.578 2.401-2.578 1.289 0 2.4 1.047 2.4 2.578 0 1.514-1.112 2.578-2.4 2.578Zm-11.079-5.525v1.804h4.318c-.129 1.015-.467 1.756-.983 2.272-.628.628-1.611 1.32-3.335 1.32-2.658 0-4.736-2.142-4.736-4.8s2.078-4.801 4.736-4.801c1.434 0 2.481.564 3.254 1.289l1.273-1.273c-1.079-1.031-2.513-1.821-4.527-1.821-3.641 0-6.702 2.964-6.702 6.605 0 3.64 3.061 6.605 6.702 6.605 1.965 0 3.448-.644 4.608-1.853 1.192-1.192 1.563-2.868 1.563-4.221a5.84 5.84 0 0 0-.097-1.128h-6.074v.002Zm45.308 1.402c-.354-.951-1.434-2.707-3.641-2.707-2.191 0-4.011 1.724-4.011 4.253 0 2.384 1.804 4.253 4.221 4.253 1.949 0 3.077-1.192 3.544-1.885l-1.45-.967c-.483.709-1.144 1.176-2.094 1.176s-1.627-.435-2.062-1.29l5.687-2.351-.193-.483h-.001Zm-5.8 1.418c-.048-1.643 1.273-2.481 2.223-2.481.741 0 1.369.37 1.579.902l-3.802 1.579ZM89.629 30h1.869V17.499h-1.869V30Zm-3.061-7.298h-.064c-.419-.5-1.224-.951-2.239-.951-2.127 0-4.076 1.869-4.076 4.269 0 2.384 1.949 4.237 4.076 4.237 1.015 0 1.821-.451 2.239-.967h.064v.612c0 1.627-.87 2.497-2.272 2.497-1.144 0-1.853-.822-2.143-1.514l-1.627.677c.467 1.128 1.708 2.513 3.77 2.513 2.191 0 4.044-1.29 4.044-4.43V22.01h-1.772v.693Zm-2.143 5.88c-1.289 0-2.368-1.08-2.368-2.562 0-1.498 1.079-2.594 2.368-2.594 1.273 0 2.272 1.096 2.272 2.594 0 1.482-.999 2.562-2.272 2.562Zm24.381-11.084h-4.471v12.5h1.866v-4.735h2.605c2.068 0 4.101-1.497 4.101-3.883s-2.033-3.883-4.101-3.883Zm.048 6.025H106.2v-4.285h2.654c1.395 0 2.187 1.155 2.187 2.143 0 .969-.792 2.142-2.187 2.142Zm11.532-1.795c-1.351 0-2.75.595-3.329 1.914l1.657.692c.354-.692 1.013-.917 1.705-.917.965 0 1.946.579 1.962 1.608v.129c-.338-.193-1.062-.483-1.946-.483-1.785 0-3.603.98-3.603 2.815 0 1.673 1.464 2.75 3.104 2.75 1.254 0 1.946-.563 2.38-1.222h.064v.965h1.801v-4.793c0-2.22-1.656-3.458-3.795-3.458Zm-.225 6.85c-.611 0-1.464-.305-1.464-1.06 0-.965 1.061-1.335 1.978-1.335.82 0 1.206.177 1.705.418a2.262 2.262 0 0 1-2.219 1.978Zm10.583-6.577-2.139 5.42h-.064l-2.219-5.42h-2.01l3.329 7.575-1.898 4.214h1.946L132.82 22h-2.076ZM113.937 30h1.866V17.499h-1.866v12.5Z"/>
  <path fill="#EA4335" d="m27.717 19.424-10.647 11.3.002.007a2.874 2.874 0 0 0 4.236 1.734l.034-.02 11.984-6.915-5.609-6.106Z"/>
  <path fill="#FBBC04" d="m38.49 17.5-.01-.008-5.174-3-5.83 5.187 5.85 5.848 5.146-2.969a2.877 2.877 0 0 0 .017-5.06v.001Z"/>
  <path fill="#4285F4" d="M17.07 9.277a2.823 2.823 0 0 0-.097.74v19.968c0 .256.033.504.098.74l11.013-11.012L17.07 9.277Z"/>
  <path fill="#34A853" d="m27.795 20 5.51-5.508-11.97-6.94a2.878 2.878 0 0 0-4.265 1.723v.003l10.726 10.724V20Z"/>
</svg>
