<svg width="80" height="36" viewBox="0 0 80 36" fill="none" xmlns="http://www.w3.org/2000/svg">
  <circle cx="18.13" cy="17.87" r="17.87" fill="#F7931A"/>
  <path fill-rule="evenodd" clip-rule="evenodd" d="M26.17 15.6c.34-2.3-1.4-3.55-3.8-4.37l.78-3.14-1.9-.47-.75 3.05c-.5-.13-1-.24-1.51-.36l.76-3.07-1.9-.48-.77 3.14-1.2-.3-2.6-.66-.51 2.04s1.4.32 1.37.34c.77.2.9.7.88 1.11L14.14 16l.2.06-.2-.05-1.24 5c-.1.23-.33.59-.87.45.02.03-1.37-.34-1.37-.34l-.94 2.18 2.46.62.83.21.52.14-.78 3.17 1.89.47.77-3.13 1.5.4-.76 3.11 1.89.47.78-3.16c3.22.62 5.65.37 6.67-2.57.82-2.37-.04-3.73-1.74-4.62 1.24-.29 2.17-1.1 2.42-2.8Zm-4.32 6.11c-.54 2.18-3.91 1.28-5.46.87l-.36-.1 1.03-4.2.47.11c1.6.36 4.86 1.1 4.32 3.32Zm-4-5.26c1.29.35 4.1 1.1 4.58-.87.5-2.02-2.23-2.63-3.56-2.93l-.4-.09-.93 3.8.3.09Z" fill="#fff"/>
  <circle cx="61.87" cy="17.87" r="17.87" fill="url(#a)"/>
  <path d="m72.5 16.94-4.53-8.08a1.8 1.8 0 0 0-1.57-.93h-9.06a1.8 1.8 0 0 0-1.57.93l-4.53 8.08a1.91 1.91 0 0 0 0 1.86l4.53 8.08c.33.57.92.93 1.57.93h9.06a1.8 1.8 0 0 0 1.56-.93l4.53-8.08a1.9 1.9 0 0 0 0-1.86Z" fill="#fff"/>
  <defs>
    <radialGradient id="a" cx="0" cy="0" r="1" gradientUnits="userSpaceOnUse" gradientTransform="rotate(-180 39.87 17.87) scale(35.7381)">
      <stop stop-color="#EC991C"/>
      <stop offset="1" stop-color="#E9B213"/>
    </radialGradient>
  </defs>
</svg>
