<svg xmlns="http://www.w3.org/2000/svg" fill="currentColor" viewBox="0 0 28 28">
  <path d="M14 0C6.27 0 0 6.27 0 14c0 6.18 4.01 11.43 9.57 13.28.7.13.96-.3.96-.67 0-.33-.01-1.21-.02-2.38-3.89.85-4.72-1.88-4.72-1.88-.64-1.62-1.55-2.05-1.55-2.05-1.27-.87.1-.85.1-.85 1.4.1 2.14 1.44 2.14 1.44 1.25 2.14 3.28 1.52 4.07 1.16.13-.9.49-1.52.89-1.87-3.11-.35-6.38-1.55-6.38-6.92 0-1.53.55-2.78 1.44-3.76-.14-.34-.62-1.77.15-3.69 0 0 1.18-.38 3.85 1.44 1.12-.31 2.31-.47 3.5-.47 1.19.01 2.39.16 3.5.47 2.67-1.81 3.85-1.44 3.85-1.44.76 1.93.28 3.35.14 3.71.9.98 1.44 2.23 1.44 3.76 0 5.38-3.27 6.56-6.39 6.91.5.43.95 1.29.95 2.59 0 1.87-.02 3.38-.02 3.84 0 .37.25.81.96.67C23.99 25.43 28 20.18 28 14c0-7.73-6.27-14-14-14z"/>
</svg>
