<svg xmlns="http://www.w3.org/2000/svg" width="23" height="23" fill="none" viewBox="0 0 23 23">
  <g clip-path="url(#a)">
    <path fill="#1F2348" fill-rule="evenodd" d="M12.501.58a10.755 10.755 0 0 1 7.12 3.161 10.758 10.758 0 0 1 3.17 7.659c-.002 5.969-4.861 10.825-10.83 10.825-2.246 0-4.03-.69-5.181-1.317l-5.742 1.505 1.537-5.61a10.802 10.802 0 0 1-1.446-5.412C1.13 5.423 5.99.566 11.96.566l.541.014ZM7.046 18.948l.329.195a8.992 8.992 0 0 0 4.582 1.254h.003c4.962 0 9-4.036 9.002-8.998a8.942 8.942 0 0 0-2.634-6.365 8.943 8.943 0 0 0-6.364-2.64c-4.966 0-9.004 4.037-9.006 8.998a8.968 8.968 0 0 0 1.376 4.788l.214.341-.91 3.32 3.408-.893Zm10.37-4.974c-.067-.113-.247-.18-.518-.316-.27-.135-1.601-.79-1.85-.88-.247-.09-.428-.135-.608.136-.18.27-.7.88-.857 1.06-.158.18-.316.203-.586.068-.27-.135-1.143-.421-2.177-1.343-.804-.717-1.347-1.603-1.505-1.873-.158-.271-.017-.418.118-.553.122-.12.271-.316.406-.473.136-.158.18-.271.271-.452.09-.18.045-.338-.022-.474-.068-.135-.61-1.466-.835-2.008-.22-.528-.443-.456-.609-.464-.158-.008-.338-.01-.518-.01a.994.994 0 0 0-.722.339c-.248.27-.947.925-.947 2.256 0 1.332.97 2.618 1.105 2.798.135.18 1.908 2.913 4.623 4.085.646.278 1.15.445 1.543.57.648.205 1.238.176 1.704.107.52-.078 1.601-.655 1.827-1.286.225-.632.225-1.174.158-1.287Z" clip-rule="evenodd"/>
  </g>
  <defs>
    <clipPath id="a">
      <path fill="#fff" d="M0 0h22v22H0z" transform="translate(.834 .358)"/>
    </clipPath>
  </defs>
</svg>
